<?xml version="1.0" encoding="UTF-8" standalone="no"?>
 <svg xmlns="http://www.w3.org/2000/svg" version="1.1" width="1477" height="350">
<title> Diagramme de Gantt du Probleme: la01.txt</title>
<desc> Cette figure represente le planning des operations du probleme traite.</desc>
<rect style="fill:rgb(62,139,185);fill-opacity:0.5;" width="40" height="48" x="62" y="112"/>
<text x="82" y="127" font-family="sans-serif" font-size="10px" text-anchor="middle">J0</text><text x="82" y="137" font-family="sans-serif" font-size="10px" text-anchor="middle">0</text><text x="82" y="147" font-family="sans-serif" font-size="10px" text-anchor="middle">21</text>
<rect style="fill:rgb(62,139,185);fill-opacity:0.5;" width="104" height="48" x="104" y="62"/>
<text x="156" y="77" font-family="sans-serif" font-size="10px" text-anchor="middle">J0</text><text x="156" y="87" font-family="sans-serif" font-size="10px" text-anchor="middle">21</text><text x="156" y="97" font-family="sans-serif" font-size="10px" text-anchor="middle">74</text>
<rect style="fill:rgb(62,139,185);fill-opacity:0.5;" width="188" height="48" x="932" y="262"/>
<text x="1026" y="277" font-family="sans-serif" font-size="10px" text-anchor="middle">J0</text><text x="1026" y="287" font-family="sans-serif" font-size="10px" text-anchor="middle">435</text><text x="1026" y="297" font-family="sans-serif" font-size="10px" text-anchor="middle">530</text>
<rect style="fill:rgb(62,139,185);fill-opacity:0.5;" width="108" height="48" x="1130" y="212"/>
<text x="1184" y="227" font-family="sans-serif" font-size="10px" text-anchor="middle">J0</text><text x="1184" y="237" font-family="sans-serif" font-size="10px" text-anchor="middle">534</text><text x="1184" y="247" font-family="sans-serif" font-size="10px" text-anchor="middle">589</text>
<rect style="fill:rgb(62,139,185);fill-opacity:0.5;" width="66" height="48" x="1240" y="162"/>
<text x="1273" y="177" font-family="sans-serif" font-size="10px" text-anchor="middle">J0</text><text x="1273" y="187" font-family="sans-serif" font-size="10px" text-anchor="middle">589</text><text x="1273" y="197" font-family="sans-serif" font-size="10px" text-anchor="middle">623</text>
<rect style="fill:rgb(238,172,238);fill-opacity:0.5;" width="40" height="48" x="62" y="62"/>
<text x="82" y="77" font-family="sans-serif" font-size="10px" text-anchor="middle">J1</text><text x="82" y="87" font-family="sans-serif" font-size="10px" text-anchor="middle">0</text><text x="82" y="97" font-family="sans-serif" font-size="10px" text-anchor="middle">21</text>
<rect style="fill:rgb(238,172,238);fill-opacity:0.5;" width="102" height="48" x="588" y="212"/>
<text x="639" y="227" font-family="sans-serif" font-size="10px" text-anchor="middle">J1</text><text x="639" y="237" font-family="sans-serif" font-size="10px" text-anchor="middle">263</text><text x="639" y="247" font-family="sans-serif" font-size="10px" text-anchor="middle">315</text>
<rect style="fill:rgb(238,172,238);fill-opacity:0.5;" width="30" height="48" x="1122" y="262"/>
<text x="1137" y="277" font-family="sans-serif" font-size="10px" text-anchor="middle">J1</text><text x="1137" y="287" font-family="sans-serif" font-size="10px" text-anchor="middle">530</text><text x="1137" y="297" font-family="sans-serif" font-size="10px" text-anchor="middle">546</text>
<rect style="fill:rgb(238,172,238);fill-opacity:0.5;" width="50" height="48" x="1174" y="162"/>
<text x="1199" y="177" font-family="sans-serif" font-size="10px" text-anchor="middle">J1</text><text x="1199" y="187" font-family="sans-serif" font-size="10px" text-anchor="middle">556</text><text x="1199" y="197" font-family="sans-serif" font-size="10px" text-anchor="middle">582</text>
<rect style="fill:rgb(238,172,238);fill-opacity:0.5;" width="140" height="48" x="1226" y="112"/>
<text x="1296" y="127" font-family="sans-serif" font-size="10px" text-anchor="middle">J1</text><text x="1296" y="137" font-family="sans-serif" font-size="10px" text-anchor="middle">582</text><text x="1296" y="147" font-family="sans-serif" font-size="10px" text-anchor="middle">653</text>
<rect style="fill:rgb(47,232,102);fill-opacity:0.5;" width="76" height="48" x="96" y="212"/>
<text x="134" y="227" font-family="sans-serif" font-size="10px" text-anchor="middle">J2</text><text x="134" y="237" font-family="sans-serif" font-size="10px" text-anchor="middle">17</text><text x="134" y="247" font-family="sans-serif" font-size="10px" text-anchor="middle">56</text>
<rect style="fill:rgb(47,232,102);fill-opacity:0.5;" width="194" height="48" x="266" y="262"/>
<text x="363" y="277" font-family="sans-serif" font-size="10px" text-anchor="middle">J2</text><text x="363" y="287" font-family="sans-serif" font-size="10px" text-anchor="middle">102</text><text x="363" y="297" font-family="sans-serif" font-size="10px" text-anchor="middle">200</text>
<rect style="fill:rgb(47,232,102);fill-opacity:0.5;" width="82" height="48" x="464" y="112"/>
<text x="505" y="127" font-family="sans-serif" font-size="10px" text-anchor="middle">J2</text><text x="505" y="137" font-family="sans-serif" font-size="10px" text-anchor="middle">201</text><text x="505" y="147" font-family="sans-serif" font-size="10px" text-anchor="middle">243</text>
<rect style="fill:rgb(47,232,102);fill-opacity:0.5;" width="60" height="48" x="806" y="162"/>
<text x="836" y="177" font-family="sans-serif" font-size="10px" text-anchor="middle">J2</text><text x="836" y="187" font-family="sans-serif" font-size="10px" text-anchor="middle">372</text><text x="836" y="197" font-family="sans-serif" font-size="10px" text-anchor="middle">403</text>
<rect style="fill:rgb(47,232,102);fill-opacity:0.5;" width="22" height="48" x="1336" y="62"/>
<text x="1347" y="77" font-family="sans-serif" font-size="10px" text-anchor="middle">J2</text><text x="1347" y="87" font-family="sans-serif" font-size="10px" text-anchor="middle">637</text><text x="1347" y="97" font-family="sans-serif" font-size="10px" text-anchor="middle">649</text>
<rect style="fill:rgb(25,19,248);fill-opacity:0.5;" width="152" height="48" x="310" y="112"/>
<text x="386" y="127" font-family="sans-serif" font-size="10px" text-anchor="middle">J3</text><text x="386" y="137" font-family="sans-serif" font-size="10px" text-anchor="middle">124</text><text x="386" y="147" font-family="sans-serif" font-size="10px" text-anchor="middle">201</text>
<rect style="fill:rgb(25,19,248);fill-opacity:0.5;" width="108" height="48" x="640" y="62"/>
<text x="694" y="77" font-family="sans-serif" font-size="10px" text-anchor="middle">J3</text><text x="694" y="87" font-family="sans-serif" font-size="10px" text-anchor="middle">289</text><text x="694" y="97" font-family="sans-serif" font-size="10px" text-anchor="middle">344</text>
<rect style="fill:rgb(25,19,248);fill-opacity:0.5;" width="156" height="48" x="774" y="262"/>
<text x="852" y="277" font-family="sans-serif" font-size="10px" text-anchor="middle">J3</text><text x="852" y="287" font-family="sans-serif" font-size="10px" text-anchor="middle">356</text><text x="852" y="297" font-family="sans-serif" font-size="10px" text-anchor="middle">435</text>
<rect style="fill:rgb(25,19,248);fill-opacity:0.5;" width="130" height="48" x="1042" y="162"/>
<text x="1107" y="177" font-family="sans-serif" font-size="10px" text-anchor="middle">J3</text><text x="1107" y="187" font-family="sans-serif" font-size="10px" text-anchor="middle">490</text><text x="1107" y="197" font-family="sans-serif" font-size="10px" text-anchor="middle">556</text>
<rect style="fill:rgb(25,19,248);fill-opacity:0.5;" width="152" height="48" x="1240" y="212"/>
<text x="1316" y="227" font-family="sans-serif" font-size="10px" text-anchor="middle">J3</text><text x="1316" y="237" font-family="sans-serif" font-size="10px" text-anchor="middle">589</text><text x="1316" y="247" font-family="sans-serif" font-size="10px" text-anchor="middle">666</text>
<rect style="fill:rgb(142,6,56);fill-opacity:0.5;" width="164" height="48" x="354" y="62"/>
<text x="436" y="77" font-family="sans-serif" font-size="10px" text-anchor="middle">J4</text><text x="436" y="87" font-family="sans-serif" font-size="10px" text-anchor="middle">146</text><text x="436" y="97" font-family="sans-serif" font-size="10px" text-anchor="middle">229</text>
<rect style="fill:rgb(142,6,56);fill-opacity:0.5;" width="66" height="48" x="520" y="212"/>
<text x="553" y="227" font-family="sans-serif" font-size="10px" text-anchor="middle">J4</text><text x="553" y="237" font-family="sans-serif" font-size="10px" text-anchor="middle">229</text><text x="553" y="247" font-family="sans-serif" font-size="10px" text-anchor="middle">263</text>
<rect style="fill:rgb(142,6,56);fill-opacity:0.5;" width="126" height="48" x="678" y="162"/>
<text x="741" y="177" font-family="sans-serif" font-size="10px" text-anchor="middle">J4</text><text x="741" y="187" font-family="sans-serif" font-size="10px" text-anchor="middle">308</text><text x="741" y="197" font-family="sans-serif" font-size="10px" text-anchor="middle">372</text>
<rect style="fill:rgb(142,6,56);fill-opacity:0.5;" width="36" height="48" x="940" y="112"/>
<text x="958" y="127" font-family="sans-serif" font-size="10px" text-anchor="middle">J4</text><text x="958" y="137" font-family="sans-serif" font-size="10px" text-anchor="middle">439</text><text x="958" y="147" font-family="sans-serif" font-size="10px" text-anchor="middle">458</text>
<rect style="fill:rgb(142,6,56);fill-opacity:0.5;" width="72" height="48" x="1320" y="262"/>
<text x="1356" y="277" font-family="sans-serif" font-size="10px" text-anchor="middle">J4</text><text x="1356" y="287" font-family="sans-serif" font-size="10px" text-anchor="middle">629</text><text x="1356" y="297" font-family="sans-serif" font-size="10px" text-anchor="middle">666</text>
<rect style="fill:rgb(65,243,73);fill-opacity:0.5;" width="106" height="48" x="202" y="112"/>
<text x="255" y="127" font-family="sans-serif" font-size="10px" text-anchor="middle">J5</text><text x="255" y="137" font-family="sans-serif" font-size="10px" text-anchor="middle">70</text><text x="255" y="147" font-family="sans-serif" font-size="10px" text-anchor="middle">124</text>
<rect style="fill:rgb(65,243,73);fill-opacity:0.5;" width="84" height="48" x="310" y="162"/>
<text x="352" y="177" font-family="sans-serif" font-size="10px" text-anchor="middle">J5</text><text x="352" y="187" font-family="sans-serif" font-size="10px" text-anchor="middle">124</text><text x="352" y="197" font-family="sans-serif" font-size="10px" text-anchor="middle">167</text>
<rect style="fill:rgb(65,243,73);fill-opacity:0.5;" width="156" height="48" x="616" y="262"/>
<text x="694" y="277" font-family="sans-serif" font-size="10px" text-anchor="middle">J5</text><text x="694" y="287" font-family="sans-serif" font-size="10px" text-anchor="middle">277</text><text x="694" y="297" font-family="sans-serif" font-size="10px" text-anchor="middle">356</text>
<rect style="fill:rgb(65,243,73);fill-opacity:0.5;" width="182" height="48" x="774" y="62"/>
<text x="865" y="77" font-family="sans-serif" font-size="10px" text-anchor="middle">J5</text><text x="865" y="87" font-family="sans-serif" font-size="10px" text-anchor="middle">356</text><text x="865" y="97" font-family="sans-serif" font-size="10px" text-anchor="middle">448</text>
<rect style="fill:rgb(65,243,73);fill-opacity:0.5;" width="122" height="48" x="958" y="212"/>
<text x="1019" y="227" font-family="sans-serif" font-size="10px" text-anchor="middle">J5</text><text x="1019" y="237" font-family="sans-serif" font-size="10px" text-anchor="middle">448</text><text x="1019" y="247" font-family="sans-serif" font-size="10px" text-anchor="middle">510</text>
<rect style="fill:rgb(117,156,15);fill-opacity:0.5;" width="136" height="48" x="174" y="212"/>
<text x="242" y="227" font-family="sans-serif" font-size="10px" text-anchor="middle">J6</text><text x="242" y="237" font-family="sans-serif" font-size="10px" text-anchor="middle">56</text><text x="242" y="247" font-family="sans-serif" font-size="10px" text-anchor="middle">125</text>
<rect style="fill:rgb(117,156,15);fill-opacity:0.5;" width="152" height="48" x="462" y="262"/>
<text x="538" y="277" font-family="sans-serif" font-size="10px" text-anchor="middle">J6</text><text x="538" y="287" font-family="sans-serif" font-size="10px" text-anchor="middle">200</text><text x="538" y="297" font-family="sans-serif" font-size="10px" text-anchor="middle">277</text>
<rect style="fill:rgb(117,156,15);fill-opacity:0.5;" width="172" height="48" x="616" y="112"/>
<text x="702" y="127" font-family="sans-serif" font-size="10px" text-anchor="middle">J6</text><text x="702" y="137" font-family="sans-serif" font-size="10px" text-anchor="middle">277</text><text x="702" y="147" font-family="sans-serif" font-size="10px" text-anchor="middle">364</text>
<rect style="fill:rgb(117,156,15);fill-opacity:0.5;" width="172" height="48" x="868" y="162"/>
<text x="954" y="177" font-family="sans-serif" font-size="10px" text-anchor="middle">J6</text><text x="954" y="187" font-family="sans-serif" font-size="10px" text-anchor="middle">403</text><text x="954" y="197" font-family="sans-serif" font-size="10px" text-anchor="middle">490</text>
<rect style="fill:rgb(117,156,15);fill-opacity:0.5;" width="184" height="48" x="1150" y="62"/>
<text x="1242" y="77" font-family="sans-serif" font-size="10px" text-anchor="middle">J6</text><text x="1242" y="87" font-family="sans-serif" font-size="10px" text-anchor="middle">544</text><text x="1242" y="97" font-family="sans-serif" font-size="10px" text-anchor="middle">637</text>
<rect style="fill:rgb(241,98,202);fill-opacity:0.5;" width="74" height="48" x="62" y="162"/>
<text x="99" y="177" font-family="sans-serif" font-size="10px" text-anchor="middle">J7</text><text x="99" y="187" font-family="sans-serif" font-size="10px" text-anchor="middle">0</text><text x="99" y="197" font-family="sans-serif" font-size="10px" text-anchor="middle">38</text>
<rect style="fill:rgb(241,98,202);fill-opacity:0.5;" width="118" height="48" x="520" y="62"/>
<text x="579" y="77" font-family="sans-serif" font-size="10px" text-anchor="middle">J7</text><text x="579" y="87" font-family="sans-serif" font-size="10px" text-anchor="middle">229</text><text x="579" y="97" font-family="sans-serif" font-size="10px" text-anchor="middle">289</text>
<rect style="fill:rgb(241,98,202);fill-opacity:0.5;" width="80" height="48" x="978" y="112"/>
<text x="1018" y="127" font-family="sans-serif" font-size="10px" text-anchor="middle">J7</text><text x="1018" y="137" font-family="sans-serif" font-size="10px" text-anchor="middle">458</text><text x="1018" y="147" font-family="sans-serif" font-size="10px" text-anchor="middle">499</text>
<rect style="fill:rgb(241,98,202);fill-opacity:0.5;" width="46" height="48" x="1082" y="212"/>
<text x="1105" y="227" font-family="sans-serif" font-size="10px" text-anchor="middle">J7</text><text x="1105" y="237" font-family="sans-serif" font-size="10px" text-anchor="middle">510</text><text x="1105" y="247" font-family="sans-serif" font-size="10px" text-anchor="middle">534</text>
<rect style="fill:rgb(241,98,202);fill-opacity:0.5;" width="164" height="48" x="1154" y="262"/>
<text x="1236" y="277" font-family="sans-serif" font-size="10px" text-anchor="middle">J7</text><text x="1236" y="287" font-family="sans-serif" font-size="10px" text-anchor="middle">546</text><text x="1236" y="297" font-family="sans-serif" font-size="10px" text-anchor="middle">629</text>
<rect style="fill:rgb(44,47,26);fill-opacity:0.5;" width="32" height="48" x="62" y="212"/>
<text x="78" y="227" font-family="sans-serif" font-size="10px" text-anchor="middle">J8</text><text x="78" y="237" font-family="sans-serif" font-size="10px" text-anchor="middle">0</text><text x="78" y="247" font-family="sans-serif" font-size="10px" text-anchor="middle">17</text>
<rect style="fill:rgb(44,47,26);fill-opacity:0.5;" width="96" height="48" x="104" y="112"/>
<text x="152" y="127" font-family="sans-serif" font-size="10px" text-anchor="middle">J8</text><text x="152" y="137" font-family="sans-serif" font-size="10px" text-anchor="middle">21</text><text x="152" y="147" font-family="sans-serif" font-size="10px" text-anchor="middle">70</text>
<rect style="fill:rgb(44,47,26);fill-opacity:0.5;" width="48" height="48" x="216" y="262"/>
<text x="240" y="277" font-family="sans-serif" font-size="10px" text-anchor="middle">J8</text><text x="240" y="287" font-family="sans-serif" font-size="10px" text-anchor="middle">77</text><text x="240" y="297" font-family="sans-serif" font-size="10px" text-anchor="middle">102</text>
<rect style="fill:rgb(44,47,26);fill-opacity:0.5;" width="86" height="48" x="266" y="62"/>
<text x="309" y="77" font-family="sans-serif" font-size="10px" text-anchor="middle">J8</text><text x="309" y="87" font-family="sans-serif" font-size="10px" text-anchor="middle">102</text><text x="309" y="97" font-family="sans-serif" font-size="10px" text-anchor="middle">146</text>
<rect style="fill:rgb(44,47,26);fill-opacity:0.5;" width="194" height="48" x="396" y="162"/>
<text x="493" y="177" font-family="sans-serif" font-size="10px" text-anchor="middle">J8</text><text x="493" y="187" font-family="sans-serif" font-size="10px" text-anchor="middle">167</text><text x="493" y="197" font-family="sans-serif" font-size="10px" text-anchor="middle">265</text>
<rect style="fill:rgb(42,223,105);fill-opacity:0.5;" width="152" height="48" x="62" y="262"/>
<text x="138" y="277" font-family="sans-serif" font-size="10px" text-anchor="middle">J9</text><text x="138" y="287" font-family="sans-serif" font-size="10px" text-anchor="middle">0</text><text x="138" y="297" font-family="sans-serif" font-size="10px" text-anchor="middle">77</text>
<rect style="fill:rgb(42,223,105);fill-opacity:0.5;" width="156" height="48" x="312" y="212"/>
<text x="390" y="227" font-family="sans-serif" font-size="10px" text-anchor="middle">J9</text><text x="390" y="237" font-family="sans-serif" font-size="10px" text-anchor="middle">125</text><text x="390" y="247" font-family="sans-serif" font-size="10px" text-anchor="middle">204</text>
<rect style="fill:rgb(42,223,105);fill-opacity:0.5;" width="84" height="48" x="592" y="162"/>
<text x="634" y="177" font-family="sans-serif" font-size="10px" text-anchor="middle">J9</text><text x="634" y="187" font-family="sans-serif" font-size="10px" text-anchor="middle">265</text><text x="634" y="197" font-family="sans-serif" font-size="10px" text-anchor="middle">308</text>
<rect style="fill:rgb(42,223,105);fill-opacity:0.5;" width="148" height="48" x="790" y="112"/>
<text x="864" y="127" font-family="sans-serif" font-size="10px" text-anchor="middle">J9</text><text x="864" y="137" font-family="sans-serif" font-size="10px" text-anchor="middle">364</text><text x="864" y="147" font-family="sans-serif" font-size="10px" text-anchor="middle">439</text>
<rect style="fill:rgb(42,223,105);fill-opacity:0.5;" width="190" height="48" x="958" y="62"/>
<text x="1053" y="77" font-family="sans-serif" font-size="10px" text-anchor="middle">J9</text><text x="1053" y="87" font-family="sans-serif" font-size="10px" text-anchor="middle">448</text><text x="1053" y="97" font-family="sans-serif" font-size="10px" text-anchor="middle">544</text>
<line x1="60" y1="40" x2="60" y2="312" stroke="dimgrey" />
<line x1="60" y1="40" x2="70" y2="50" stroke="dimgrey" />
<text x="35" y="90" font-family="sans-serif" font-size="10px" text-anchor="middle">M.1</text>
<text x="35" y="140" font-family="sans-serif" font-size="10px" text-anchor="middle">M.2</text>
<text x="35" y="190" font-family="sans-serif" font-size="10px" text-anchor="middle">M.3</text>
<text x="35" y="240" font-family="sans-serif" font-size="10px" text-anchor="middle">M.4</text>
<text x="35" y="290" font-family="sans-serif" font-size="10px" text-anchor="middle">M.5</text>
<line x1="60" y1="312" x2="1412" y2="312" stroke="dimgrey" />
<line x1="1402" y1="302" x2="1412" y2="312" stroke="dimgrey" />
<line x1="1392" y1="314" x2="1392" y2="322" stroke="dimgrey" />
<text x="70" y="35" font-family="sans-serif" font-size="20px" text-anchor="middle" fill="dimgrey">Machines</text>
<text x="1432" y="312" font-family="sans-serif" font-size="20px" text-anchor="middle" fill="dimgrey">Time</text>
<text x="738" y="342" font-family="sans-serif" font-size="30px" text-anchor="middle" fill="dimgrey">Diagramme de Gantt du problème: la01.txt - makespan: 666</text>
</svg>
