<?xml version="1.0" encoding="UTF-8" standalone="no"?>
 <svg xmlns="http://www.w3.org/2000/svg" version="1.1" width="1455" height="350">
<title> Diagramme de Gantt du Probleme: la02.txt</title>
<desc> Cette figure represente le planning des operations du probleme traite.</desc>
<rect style="fill:rgb(62,139,185);fill-opacity:0.5;" width="38" height="48" x="62" y="62"/>
<text x="81" y="77" font-family="sans-serif" font-size="10px" text-anchor="middle">J0</text><text x="81" y="87" font-family="sans-serif" font-size="10px" text-anchor="middle">0</text><text x="81" y="97" font-family="sans-serif" font-size="10px" text-anchor="middle">20</text>
<rect style="fill:rgb(62,139,185);fill-opacity:0.5;" width="172" height="48" x="102" y="212"/>
<text x="188" y="227" font-family="sans-serif" font-size="10px" text-anchor="middle">J0</text><text x="188" y="237" font-family="sans-serif" font-size="10px" text-anchor="middle">20</text><text x="188" y="247" font-family="sans-serif" font-size="10px" text-anchor="middle">107</text>
<rect style="fill:rgb(62,139,185);fill-opacity:0.5;" width="60" height="48" x="526" y="112"/>
<text x="556" y="127" font-family="sans-serif" font-size="10px" text-anchor="middle">J0</text><text x="556" y="137" font-family="sans-serif" font-size="10px" text-anchor="middle">232</text><text x="556" y="147" font-family="sans-serif" font-size="10px" text-anchor="middle">263</text>
<rect style="fill:rgb(62,139,185);fill-opacity:0.5;" width="150" height="48" x="588" y="262"/>
<text x="663" y="277" font-family="sans-serif" font-size="10px" text-anchor="middle">J0</text><text x="663" y="287" font-family="sans-serif" font-size="10px" text-anchor="middle">263</text><text x="663" y="297" font-family="sans-serif" font-size="10px" text-anchor="middle">339</text>
<rect style="fill:rgb(62,139,185);fill-opacity:0.5;" width="32" height="48" x="1188" y="162"/>
<text x="1204" y="177" font-family="sans-serif" font-size="10px" text-anchor="middle">J0</text><text x="1204" y="187" font-family="sans-serif" font-size="10px" text-anchor="middle">563</text><text x="1204" y="197" font-family="sans-serif" font-size="10px" text-anchor="middle">580</text>
<rect style="fill:rgb(238,172,238);fill-opacity:0.5;" width="48" height="48" x="116" y="262"/>
<text x="140" y="277" font-family="sans-serif" font-size="10px" text-anchor="middle">J1</text><text x="140" y="287" font-family="sans-serif" font-size="10px" text-anchor="middle">27</text><text x="140" y="297" font-family="sans-serif" font-size="10px" text-anchor="middle">52</text>
<rect style="fill:rgb(238,172,238);fill-opacity:0.5;" width="62" height="48" x="166" y="162"/>
<text x="197" y="177" font-family="sans-serif" font-size="10px" text-anchor="middle">J1</text><text x="197" y="187" font-family="sans-serif" font-size="10px" text-anchor="middle">52</text><text x="197" y="197" font-family="sans-serif" font-size="10px" text-anchor="middle">84</text>
<rect style="fill:rgb(238,172,238);fill-opacity:0.5;" width="46" height="48" x="230" y="62"/>
<text x="253" y="77" font-family="sans-serif" font-size="10px" text-anchor="middle">J1</text><text x="253" y="87" font-family="sans-serif" font-size="10px" text-anchor="middle">84</text><text x="253" y="97" font-family="sans-serif" font-size="10px" text-anchor="middle">108</text>
<rect style="fill:rgb(238,172,238);fill-opacity:0.5;" width="34" height="48" x="332" y="112"/>
<text x="349" y="127" font-family="sans-serif" font-size="10px" text-anchor="middle">J1</text><text x="349" y="137" font-family="sans-serif" font-size="10px" text-anchor="middle">135</text><text x="349" y="147" font-family="sans-serif" font-size="10px" text-anchor="middle">153</text>
<rect style="fill:rgb(238,172,238);fill-opacity:0.5;" width="160" height="48" x="372" y="212"/>
<text x="452" y="227" font-family="sans-serif" font-size="10px" text-anchor="middle">J1</text><text x="452" y="237" font-family="sans-serif" font-size="10px" text-anchor="middle">155</text><text x="452" y="247" font-family="sans-serif" font-size="10px" text-anchor="middle">236</text>
<rect style="fill:rgb(47,232,102);fill-opacity:0.5;" width="142" height="48" x="62" y="112"/>
<text x="133" y="127" font-family="sans-serif" font-size="10px" text-anchor="middle">J2</text><text x="133" y="137" font-family="sans-serif" font-size="10px" text-anchor="middle">0</text><text x="133" y="147" font-family="sans-serif" font-size="10px" text-anchor="middle">72</text>
<rect style="fill:rgb(47,232,102);fill-opacity:0.5;" width="44" height="48" x="230" y="162"/>
<text x="252" y="177" font-family="sans-serif" font-size="10px" text-anchor="middle">J2</text><text x="252" y="187" font-family="sans-serif" font-size="10px" text-anchor="middle">84</text><text x="252" y="197" font-family="sans-serif" font-size="10px" text-anchor="middle">107</text>
<rect style="fill:rgb(47,232,102);fill-opacity:0.5;" width="54" height="48" x="338" y="262"/>
<text x="365" y="277" font-family="sans-serif" font-size="10px" text-anchor="middle">J2</text><text x="365" y="287" font-family="sans-serif" font-size="10px" text-anchor="middle">138</text><text x="365" y="297" font-family="sans-serif" font-size="10px" text-anchor="middle">166</text>
<rect style="fill:rgb(47,232,102);fill-opacity:0.5;" width="114" height="48" x="428" y="62"/>
<text x="485" y="77" font-family="sans-serif" font-size="10px" text-anchor="middle">J2</text><text x="485" y="87" font-family="sans-serif" font-size="10px" text-anchor="middle">183</text><text x="485" y="97" font-family="sans-serif" font-size="10px" text-anchor="middle">241</text>
<rect style="fill:rgb(47,232,102);fill-opacity:0.5;" width="196" height="48" x="572" y="212"/>
<text x="670" y="227" font-family="sans-serif" font-size="10px" text-anchor="middle">J2</text><text x="670" y="237" font-family="sans-serif" font-size="10px" text-anchor="middle">255</text><text x="670" y="247" font-family="sans-serif" font-size="10px" text-anchor="middle">354</text>
<rect style="fill:rgb(25,19,248);fill-opacity:0.5;" width="170" height="48" x="374" y="162"/>
<text x="459" y="177" font-family="sans-serif" font-size="10px" text-anchor="middle">J3</text><text x="459" y="187" font-family="sans-serif" font-size="10px" text-anchor="middle">156</text><text x="459" y="197" font-family="sans-serif" font-size="10px" text-anchor="middle">242</text>
<rect style="fill:rgb(25,19,248);fill-opacity:0.5;" width="150" height="48" x="662" y="112"/>
<text x="737" y="127" font-family="sans-serif" font-size="10px" text-anchor="middle">J3</text><text x="737" y="137" font-family="sans-serif" font-size="10px" text-anchor="middle">300</text><text x="737" y="147" font-family="sans-serif" font-size="10px" text-anchor="middle">376</text>
<rect style="fill:rgb(25,19,248);fill-opacity:0.5;" width="192" height="48" x="814" y="262"/>
<text x="910" y="277" font-family="sans-serif" font-size="10px" text-anchor="middle">J3</text><text x="910" y="287" font-family="sans-serif" font-size="10px" text-anchor="middle">376</text><text x="910" y="297" font-family="sans-serif" font-size="10px" text-anchor="middle">473</text>
<rect style="fill:rgb(25,19,248);fill-opacity:0.5;" width="88" height="48" x="1088" y="62"/>
<text x="1132" y="77" font-family="sans-serif" font-size="10px" text-anchor="middle">J3</text><text x="1132" y="87" font-family="sans-serif" font-size="10px" text-anchor="middle">513</text><text x="1132" y="97" font-family="sans-serif" font-size="10px" text-anchor="middle">558</text>
<rect style="fill:rgb(25,19,248);fill-opacity:0.5;" width="178" height="48" x="1192" y="212"/>
<text x="1281" y="227" font-family="sans-serif" font-size="10px" text-anchor="middle">J3</text><text x="1281" y="237" font-family="sans-serif" font-size="10px" text-anchor="middle">565</text><text x="1281" y="247" font-family="sans-serif" font-size="10px" text-anchor="middle">655</text>
<rect style="fill:rgb(142,6,56);fill-opacity:0.5;" width="52" height="48" x="62" y="262"/>
<text x="88" y="277" font-family="sans-serif" font-size="10px" text-anchor="middle">J4</text><text x="88" y="287" font-family="sans-serif" font-size="10px" text-anchor="middle">0</text><text x="88" y="297" font-family="sans-serif" font-size="10px" text-anchor="middle">27</text>
<rect style="fill:rgb(142,6,56);fill-opacity:0.5;" width="82" height="48" x="116" y="62"/>
<text x="157" y="77" font-family="sans-serif" font-size="10px" text-anchor="middle">J4</text><text x="157" y="87" font-family="sans-serif" font-size="10px" text-anchor="middle">27</text><text x="157" y="97" font-family="sans-serif" font-size="10px" text-anchor="middle">69</text>
<rect style="fill:rgb(142,6,56);fill-opacity:0.5;" width="94" height="48" x="276" y="212"/>
<text x="323" y="227" font-family="sans-serif" font-size="10px" text-anchor="middle">J4</text><text x="323" y="237" font-family="sans-serif" font-size="10px" text-anchor="middle">107</text><text x="323" y="247" font-family="sans-serif" font-size="10px" text-anchor="middle">155</text>
<rect style="fill:rgb(142,6,56);fill-opacity:0.5;" width="32" height="48" x="546" y="162"/>
<text x="562" y="177" font-family="sans-serif" font-size="10px" text-anchor="middle">J4</text><text x="562" y="187" font-family="sans-serif" font-size="10px" text-anchor="middle">242</text><text x="562" y="197" font-family="sans-serif" font-size="10px" text-anchor="middle">259</text>
<rect style="fill:rgb(142,6,56);fill-opacity:0.5;" width="90" height="48" x="896" y="112"/>
<text x="941" y="127" font-family="sans-serif" font-size="10px" text-anchor="middle">J4</text><text x="941" y="137" font-family="sans-serif" font-size="10px" text-anchor="middle">417</text><text x="941" y="147" font-family="sans-serif" font-size="10px" text-anchor="middle">463</text>
<rect style="fill:rgb(65,243,73);fill-opacity:0.5;" width="132" height="48" x="368" y="112"/>
<text x="434" y="127" font-family="sans-serif" font-size="10px" text-anchor="middle">J5</text><text x="434" y="137" font-family="sans-serif" font-size="10px" text-anchor="middle">153</text><text x="434" y="147" font-family="sans-serif" font-size="10px" text-anchor="middle">220</text>
<rect style="fill:rgb(65,243,73);fill-opacity:0.5;" width="194" height="48" x="732" y="62"/>
<text x="829" y="77" font-family="sans-serif" font-size="10px" text-anchor="middle">J5</text><text x="829" y="87" font-family="sans-serif" font-size="10px" text-anchor="middle">335</text><text x="829" y="97" font-family="sans-serif" font-size="10px" text-anchor="middle">433</text>
<rect style="fill:rgb(65,243,73);fill-opacity:0.5;" width="94" height="48" x="1008" y="262"/>
<text x="1055" y="277" font-family="sans-serif" font-size="10px" text-anchor="middle">J5</text><text x="1055" y="287" font-family="sans-serif" font-size="10px" text-anchor="middle">473</text><text x="1055" y="297" font-family="sans-serif" font-size="10px" text-anchor="middle">521</text>
<rect style="fill:rgb(65,243,73);fill-opacity:0.5;" width="52" height="48" x="1138" y="212"/>
<text x="1164" y="227" font-family="sans-serif" font-size="10px" text-anchor="middle">J5</text><text x="1164" y="237" font-family="sans-serif" font-size="10px" text-anchor="middle">538</text><text x="1164" y="247" font-family="sans-serif" font-size="10px" text-anchor="middle">565</text>
<rect style="fill:rgb(65,243,73);fill-opacity:0.5;" width="122" height="48" x="1222" y="162"/>
<text x="1283" y="177" font-family="sans-serif" font-size="10px" text-anchor="middle">J5</text><text x="1283" y="187" font-family="sans-serif" font-size="10px" text-anchor="middle">580</text><text x="1283" y="197" font-family="sans-serif" font-size="10px" text-anchor="middle">642</text>
<rect style="fill:rgb(117,156,15);fill-opacity:0.5;" width="54" height="48" x="394" y="262"/>
<text x="421" y="277" font-family="sans-serif" font-size="10px" text-anchor="middle">J6</text><text x="421" y="287" font-family="sans-serif" font-size="10px" text-anchor="middle">166</text><text x="421" y="297" font-family="sans-serif" font-size="10px" text-anchor="middle">194</text>
<rect style="fill:rgb(117,156,15);fill-opacity:0.5;" width="22" height="48" x="502" y="112"/>
<text x="513" y="127" font-family="sans-serif" font-size="10px" text-anchor="middle">J6</text><text x="513" y="137" font-family="sans-serif" font-size="10px" text-anchor="middle">220</text><text x="513" y="147" font-family="sans-serif" font-size="10px" text-anchor="middle">232</text>
<rect style="fill:rgb(117,156,15);fill-opacity:0.5;" width="36" height="48" x="534" y="212"/>
<text x="552" y="227" font-family="sans-serif" font-size="10px" text-anchor="middle">J6</text><text x="552" y="237" font-family="sans-serif" font-size="10px" text-anchor="middle">236</text><text x="552" y="247" font-family="sans-serif" font-size="10px" text-anchor="middle">255</text>
<rect style="fill:rgb(117,156,15);fill-opacity:0.5;" width="158" height="48" x="928" y="62"/>
<text x="1007" y="77" font-family="sans-serif" font-size="10px" text-anchor="middle">J6</text><text x="1007" y="87" font-family="sans-serif" font-size="10px" text-anchor="middle">433</text><text x="1007" y="97" font-family="sans-serif" font-size="10px" text-anchor="middle">513</text>
<rect style="fill:rgb(117,156,15);fill-opacity:0.5;" width="98" height="48" x="1088" y="162"/>
<text x="1137" y="177" font-family="sans-serif" font-size="10px" text-anchor="middle">J6</text><text x="1137" y="187" font-family="sans-serif" font-size="10px" text-anchor="middle">513</text><text x="1137" y="197" font-family="sans-serif" font-size="10px" text-anchor="middle">563</text>
<rect style="fill:rgb(241,98,202);fill-opacity:0.5;" width="124" height="48" x="206" y="112"/>
<text x="268" y="127" font-family="sans-serif" font-size="10px" text-anchor="middle">J7</text><text x="268" y="137" font-family="sans-serif" font-size="10px" text-anchor="middle">72</text><text x="268" y="147" font-family="sans-serif" font-size="10px" text-anchor="middle">135</text>
<rect style="fill:rgb(241,98,202);fill-opacity:0.5;" width="186" height="48" x="544" y="62"/>
<text x="637" y="77" font-family="sans-serif" font-size="10px" text-anchor="middle">J7</text><text x="637" y="87" font-family="sans-serif" font-size="10px" text-anchor="middle">241</text><text x="637" y="97" font-family="sans-serif" font-size="10px" text-anchor="middle">335</text>
<rect style="fill:rgb(241,98,202);fill-opacity:0.5;" width="194" height="48" x="732" y="162"/>
<text x="829" y="177" font-family="sans-serif" font-size="10px" text-anchor="middle">J7</text><text x="829" y="187" font-family="sans-serif" font-size="10px" text-anchor="middle">335</text><text x="829" y="197" font-family="sans-serif" font-size="10px" text-anchor="middle">433</text>
<rect style="fill:rgb(241,98,202);fill-opacity:0.5;" width="98" height="48" x="928" y="212"/>
<text x="977" y="227" font-family="sans-serif" font-size="10px" text-anchor="middle">J7</text><text x="977" y="237" font-family="sans-serif" font-size="10px" text-anchor="middle">433</text><text x="977" y="247" font-family="sans-serif" font-size="10px" text-anchor="middle">483</text>
<rect style="fill:rgb(241,98,202);fill-opacity:0.5;" width="158" height="48" x="1104" y="262"/>
<text x="1183" y="277" font-family="sans-serif" font-size="10px" text-anchor="middle">J7</text><text x="1183" y="287" font-family="sans-serif" font-size="10px" text-anchor="middle">521</text><text x="1183" y="297" font-family="sans-serif" font-size="10px" text-anchor="middle">601</text>
<rect style="fill:rgb(44,47,26);fill-opacity:0.5;" width="26" height="48" x="166" y="262"/>
<text x="179" y="277" font-family="sans-serif" font-size="10px" text-anchor="middle">J8</text><text x="179" y="287" font-family="sans-serif" font-size="10px" text-anchor="middle">52</text><text x="179" y="297" font-family="sans-serif" font-size="10px" text-anchor="middle">66</text>
<rect style="fill:rgb(44,47,26);fill-opacity:0.5;" width="148" height="48" x="278" y="62"/>
<text x="352" y="77" font-family="sans-serif" font-size="10px" text-anchor="middle">J8</text><text x="352" y="87" font-family="sans-serif" font-size="10px" text-anchor="middle">108</text><text x="352" y="97" font-family="sans-serif" font-size="10px" text-anchor="middle">183</text>
<rect style="fill:rgb(44,47,26);fill-opacity:0.5;" width="98" height="48" x="580" y="162"/>
<text x="629" y="177" font-family="sans-serif" font-size="10px" text-anchor="middle">J8</text><text x="629" y="187" font-family="sans-serif" font-size="10px" text-anchor="middle">259</text><text x="629" y="197" font-family="sans-serif" font-size="10px" text-anchor="middle">309</text>
<rect style="fill:rgb(44,47,26);fill-opacity:0.5;" width="80" height="48" x="814" y="112"/>
<text x="854" y="127" font-family="sans-serif" font-size="10px" text-anchor="middle">J8</text><text x="854" y="137" font-family="sans-serif" font-size="10px" text-anchor="middle">376</text><text x="854" y="147" font-family="sans-serif" font-size="10px" text-anchor="middle">417</text>
<rect style="fill:rgb(44,47,26);fill-opacity:0.5;" width="108" height="48" x="1028" y="212"/>
<text x="1082" y="227" font-family="sans-serif" font-size="10px" text-anchor="middle">J8</text><text x="1082" y="237" font-family="sans-serif" font-size="10px" text-anchor="middle">483</text><text x="1082" y="247" font-family="sans-serif" font-size="10px" text-anchor="middle">538</text>
<rect style="fill:rgb(42,223,105);fill-opacity:0.5;" width="142" height="48" x="194" y="262"/>
<text x="265" y="277" font-family="sans-serif" font-size="10px" text-anchor="middle">J9</text><text x="265" y="287" font-family="sans-serif" font-size="10px" text-anchor="middle">66</text><text x="265" y="297" font-family="sans-serif" font-size="10px" text-anchor="middle">138</text>
<rect style="fill:rgb(42,223,105);fill-opacity:0.5;" width="34" height="48" x="338" y="162"/>
<text x="355" y="177" font-family="sans-serif" font-size="10px" text-anchor="middle">J9</text><text x="355" y="187" font-family="sans-serif" font-size="10px" text-anchor="middle">138</text><text x="355" y="197" font-family="sans-serif" font-size="10px" text-anchor="middle">156</text>
<rect style="fill:rgb(42,223,105);fill-opacity:0.5;" width="72" height="48" x="588" y="112"/>
<text x="624" y="127" font-family="sans-serif" font-size="10px" text-anchor="middle">J9</text><text x="624" y="137" font-family="sans-serif" font-size="10px" text-anchor="middle">263</text><text x="624" y="147" font-family="sans-serif" font-size="10px" text-anchor="middle">300</text>
<rect style="fill:rgb(42,223,105);fill-opacity:0.5;" width="156" height="48" x="770" y="212"/>
<text x="848" y="227" font-family="sans-serif" font-size="10px" text-anchor="middle">J9</text><text x="848" y="237" font-family="sans-serif" font-size="10px" text-anchor="middle">354</text><text x="848" y="247" font-family="sans-serif" font-size="10px" text-anchor="middle">433</text>
<rect style="fill:rgb(42,223,105);fill-opacity:0.5;" width="120" height="48" x="1178" y="62"/>
<text x="1238" y="77" font-family="sans-serif" font-size="10px" text-anchor="middle">J9</text><text x="1238" y="87" font-family="sans-serif" font-size="10px" text-anchor="middle">558</text><text x="1238" y="97" font-family="sans-serif" font-size="10px" text-anchor="middle">619</text>
<line x1="60" y1="40" x2="60" y2="312" stroke="dimgrey" />
<line x1="60" y1="40" x2="70" y2="50" stroke="dimgrey" />
<text x="35" y="90" font-family="sans-serif" font-size="10px" text-anchor="middle">M.1</text>
<text x="35" y="140" font-family="sans-serif" font-size="10px" text-anchor="middle">M.2</text>
<text x="35" y="190" font-family="sans-serif" font-size="10px" text-anchor="middle">M.3</text>
<text x="35" y="240" font-family="sans-serif" font-size="10px" text-anchor="middle">M.4</text>
<text x="35" y="290" font-family="sans-serif" font-size="10px" text-anchor="middle">M.5</text>
<line x1="60" y1="312" x2="1390" y2="312" stroke="dimgrey" />
<line x1="1380" y1="302" x2="1390" y2="312" stroke="dimgrey" />
<line x1="1370" y1="314" x2="1370" y2="322" stroke="dimgrey" />
<text x="70" y="35" font-family="sans-serif" font-size="20px" text-anchor="middle" fill="dimgrey">Machines</text>
<text x="1410" y="312" font-family="sans-serif" font-size="20px" text-anchor="middle" fill="dimgrey">Time</text>
<text x="727" y="342" font-family="sans-serif" font-size="30px" text-anchor="middle" fill="dimgrey">Diagramme de Gantt du problème: la02.txt - makespan: 655</text>
</svg>
