<?xml version="1.0" encoding="UTF-8" standalone="no"?>
 <svg xmlns="http://www.w3.org/2000/svg" version="1.1" width="151" height="350">
<title> Diagramme de Gantt du Probleme: la03.txt</title>
<desc> Cette figure represente le planning des operations du probleme traite.</desc>
<rect style="fill:rgb(62,139,185);fill-opacity:0.5;" width="44" height="48" x="1268" y="112"/>
<text x="1290" y="127" font-family="sans-serif" font-size="10px" text-anchor="middle">J0</text><text x="1290" y="137" font-family="sans-serif" font-size="10px" text-anchor="middle">603</text><text x="1290" y="147" font-family="sans-serif" font-size="10px" text-anchor="middle">626</text>
<rect style="fill:rgb(62,139,185);fill-opacity:0.5;" width="88" height="48" x="1392" y="162"/>
<text x="1436" y="177" font-family="sans-serif" font-size="10px" text-anchor="middle">J0</text><text x="1436" y="187" font-family="sans-serif" font-size="10px" text-anchor="middle">665</text><text x="1436" y="197" font-family="sans-serif" font-size="10px" text-anchor="middle">710</text>
<rect style="fill:rgb(62,139,185);fill-opacity:0.5;" width="162" height="48" x="1394" y="62"/>
<text x="1475" y="77" font-family="sans-serif" font-size="10px" text-anchor="middle">J0</text><text x="1475" y="87" font-family="sans-serif" font-size="10px" text-anchor="middle">666</text><text x="1475" y="97" font-family="sans-serif" font-size="10px" text-anchor="middle">748</text>
<rect style="fill:rgb(62,139,185);fill-opacity:0.5;" width="166" height="48" x="-64" y="262"/>
<text x="19" y="277" font-family="sans-serif" font-size="10px" text-anchor="middle">J0</text><text x="19" y="287" font-family="sans-serif" font-size="10px" text-anchor="middle">-63</text><text x="19" y="297" font-family="sans-serif" font-size="10px" text-anchor="middle">21</text>
<rect style="fill:rgb(62,139,185);fill-opacity:0.5;" width="74" height="48" x="90" y="212"/>
<text x="127" y="227" font-family="sans-serif" font-size="10px" text-anchor="middle">J0</text><text x="127" y="237" font-family="sans-serif" font-size="10px" text-anchor="middle">14</text><text x="127" y="247" font-family="sans-serif" font-size="10px" text-anchor="middle">52</text>
<rect style="fill:rgb(238,172,238);fill-opacity:0.5;" width="40" height="48" x="238" y="162"/>
<text x="258" y="177" font-family="sans-serif" font-size="10px" text-anchor="middle">J1</text><text x="258" y="187" font-family="sans-serif" font-size="10px" text-anchor="middle">88</text><text x="258" y="197" font-family="sans-serif" font-size="10px" text-anchor="middle">109</text>
<rect style="fill:rgb(238,172,238);fill-opacity:0.5;" width="56" height="48" x="322" y="112"/>
<text x="350" y="127" font-family="sans-serif" font-size="10px" text-anchor="middle">J1</text><text x="350" y="137" font-family="sans-serif" font-size="10px" text-anchor="middle">130</text><text x="350" y="147" font-family="sans-serif" font-size="10px" text-anchor="middle">159</text>
<rect style="fill:rgb(238,172,238);fill-opacity:0.5;" width="34" height="48" x="444" y="62"/>
<text x="461" y="77" font-family="sans-serif" font-size="10px" text-anchor="middle">J1</text><text x="461" y="87" font-family="sans-serif" font-size="10px" text-anchor="middle">191</text><text x="461" y="97" font-family="sans-serif" font-size="10px" text-anchor="middle">209</text>
<rect style="fill:rgb(238,172,238);fill-opacity:0.5;" width="80" height="48" x="162" y="262"/>
<text x="202" y="277" font-family="sans-serif" font-size="10px" text-anchor="middle">J1</text><text x="202" y="287" font-family="sans-serif" font-size="10px" text-anchor="middle">50</text><text x="202" y="297" font-family="sans-serif" font-size="10px" text-anchor="middle">91</text>
<rect style="fill:rgb(238,172,238);fill-opacity:0.5;" width="98" height="48" x="252" y="212"/>
<text x="301" y="227" font-family="sans-serif" font-size="10px" text-anchor="middle">J1</text><text x="301" y="237" font-family="sans-serif" font-size="10px" text-anchor="middle">95</text><text x="301" y="247" font-family="sans-serif" font-size="10px" text-anchor="middle">145</text>
<rect style="fill:rgb(47,232,102);fill-opacity:0.5;" width="74" height="48" x="416" y="162"/>
<text x="453" y="177" font-family="sans-serif" font-size="10px" text-anchor="middle">J2</text><text x="453" y="187" font-family="sans-serif" font-size="10px" text-anchor="middle">177</text><text x="453" y="197" font-family="sans-serif" font-size="10px" text-anchor="middle">215</text>
<rect style="fill:rgb(47,232,102);fill-opacity:0.5;" width="106" height="48" x="488" y="212"/>
<text x="541" y="227" font-family="sans-serif" font-size="10px" text-anchor="middle">J2</text><text x="541" y="237" font-family="sans-serif" font-size="10px" text-anchor="middle">213</text><text x="541" y="247" font-family="sans-serif" font-size="10px" text-anchor="middle">267</text>
<rect style="fill:rgb(47,232,102);fill-opacity:0.5;" width="30" height="48" x="698" y="262"/>
<text x="713" y="277" font-family="sans-serif" font-size="10px" text-anchor="middle">J2</text><text x="713" y="287" font-family="sans-serif" font-size="10px" text-anchor="middle">318</text><text x="713" y="297" font-family="sans-serif" font-size="10px" text-anchor="middle">334</text>
<rect style="fill:rgb(47,232,102);fill-opacity:0.5;" width="102" height="48" x="32" y="62"/>
<text x="83" y="77" font-family="sans-serif" font-size="10px" text-anchor="middle">J2</text><text x="83" y="87" font-family="sans-serif" font-size="10px" text-anchor="middle">-15</text><text x="83" y="97" font-family="sans-serif" font-size="10px" text-anchor="middle">37</text>
<rect style="fill:rgb(47,232,102);fill-opacity:0.5;" width="102" height="48" x="140" y="112"/>
<text x="191" y="127" font-family="sans-serif" font-size="10px" text-anchor="middle">J2</text><text x="191" y="137" font-family="sans-serif" font-size="10px" text-anchor="middle">39</text><text x="191" y="147" font-family="sans-serif" font-size="10px" text-anchor="middle">91</text>
<rect style="fill:rgb(25,19,248);fill-opacity:0.5;" width="72" height="48" x="408" y="262"/>
<text x="444" y="277" font-family="sans-serif" font-size="10px" text-anchor="middle">J3</text><text x="444" y="287" font-family="sans-serif" font-size="10px" text-anchor="middle">173</text><text x="444" y="297" font-family="sans-serif" font-size="10px" text-anchor="middle">210</text>
<rect style="fill:rgb(25,19,248);fill-opacity:0.5;" width="106" height="48" x="746" y="62"/>
<text x="799" y="77" font-family="sans-serif" font-size="10px" text-anchor="middle">J3</text><text x="799" y="87" font-family="sans-serif" font-size="10px" text-anchor="middle">342</text><text x="799" y="97" font-family="sans-serif" font-size="10px" text-anchor="middle">396</text>
<rect style="fill:rgb(25,19,248);fill-opacity:0.5;" width="146" height="48" x="880" y="162"/>
<text x="953" y="177" font-family="sans-serif" font-size="10px" text-anchor="middle">J3</text><text x="953" y="187" font-family="sans-serif" font-size="10px" text-anchor="middle">409</text><text x="953" y="197" font-family="sans-serif" font-size="10px" text-anchor="middle">483</text>
<rect style="fill:rgb(25,19,248);fill-opacity:0.5;" width="122" height="48" x="174" y="112"/>
<text x="235" y="127" font-family="sans-serif" font-size="10px" text-anchor="middle">J3</text><text x="235" y="137" font-family="sans-serif" font-size="10px" text-anchor="middle">56</text><text x="235" y="147" font-family="sans-serif" font-size="10px" text-anchor="middle">118</text>
<rect style="fill:rgb(25,19,248);fill-opacity:0.5;" width="112" height="48" x="878" y="212"/>
<text x="934" y="227" font-family="sans-serif" font-size="10px" text-anchor="middle">J3</text><text x="934" y="237" font-family="sans-serif" font-size="10px" text-anchor="middle">408</text><text x="934" y="247" font-family="sans-serif" font-size="10px" text-anchor="middle">465</text>
<rect style="fill:rgb(142,6,56);fill-opacity:0.5;" width="112" height="48" x="1000" y="262"/>
<text x="1056" y="277" font-family="sans-serif" font-size="10px" text-anchor="middle">J4</text><text x="1056" y="287" font-family="sans-serif" font-size="10px" text-anchor="middle">469</text><text x="1056" y="297" font-family="sans-serif" font-size="10px" text-anchor="middle">526</text>
<rect style="fill:rgb(142,6,56);fill-opacity:0.5;" width="160" height="48" x="1088" y="62"/>
<text x="1168" y="77" font-family="sans-serif" font-size="10px" text-anchor="middle">J4</text><text x="1168" y="87" font-family="sans-serif" font-size="10px" text-anchor="middle">513</text><text x="1168" y="97" font-family="sans-serif" font-size="10px" text-anchor="middle">594</text>
<rect style="fill:rgb(142,6,56);fill-opacity:0.5;" width="120" height="48" x="1188" y="112"/>
<text x="1248" y="127" font-family="sans-serif" font-size="10px" text-anchor="middle">J4</text><text x="1248" y="137" font-family="sans-serif" font-size="10px" text-anchor="middle">563</text><text x="1248" y="147" font-family="sans-serif" font-size="10px" text-anchor="middle">624</text>
<rect style="fill:rgb(142,6,56);fill-opacity:0.5;" width="134" height="48" x="630" y="212"/>
<text x="697" y="227" font-family="sans-serif" font-size="10px" text-anchor="middle">J4</text><text x="697" y="237" font-family="sans-serif" font-size="10px" text-anchor="middle">284</text><text x="697" y="247" font-family="sans-serif" font-size="10px" text-anchor="middle">352</text>
<rect style="fill:rgb(142,6,56);fill-opacity:0.5;" width="58" height="48" x="1090" y="162"/>
<text x="1119" y="177" font-family="sans-serif" font-size="10px" text-anchor="middle">J4</text><text x="1119" y="187" font-family="sans-serif" font-size="10px" text-anchor="middle">514</text><text x="1119" y="197" font-family="sans-serif" font-size="10px" text-anchor="middle">544</text>
<rect style="fill:rgb(65,243,73);fill-opacity:0.5;" width="160" height="48" x="1208" y="262"/>
<text x="1288" y="277" font-family="sans-serif" font-size="10px" text-anchor="middle">J5</text><text x="1288" y="287" font-family="sans-serif" font-size="10px" text-anchor="middle">573</text><text x="1288" y="297" font-family="sans-serif" font-size="10px" text-anchor="middle">654</text>
<rect style="fill:rgb(65,243,73);fill-opacity:0.5;" width="156" height="48" x="1390" y="62"/>
<text x="1468" y="77" font-family="sans-serif" font-size="10px" text-anchor="middle">J5</text><text x="1468" y="87" font-family="sans-serif" font-size="10px" text-anchor="middle">664</text><text x="1468" y="97" font-family="sans-serif" font-size="10px" text-anchor="middle">743</text>
<rect style="fill:rgb(65,243,73);fill-opacity:0.5;" width="176" height="48" x="1402" y="112"/>
<text x="1490" y="127" font-family="sans-serif" font-size="10px" text-anchor="middle">J5</text><text x="1490" y="137" font-family="sans-serif" font-size="10px" text-anchor="middle">670</text><text x="1490" y="147" font-family="sans-serif" font-size="10px" text-anchor="middle">759</text>
<rect style="fill:rgb(65,243,73);fill-opacity:0.5;" width="176" height="48" x="-50" y="162"/>
<text x="38" y="177" font-family="sans-serif" font-size="10px" text-anchor="middle">J5</text><text x="38" y="187" font-family="sans-serif" font-size="10px" text-anchor="middle">-56</text><text x="38" y="197" font-family="sans-serif" font-size="10px" text-anchor="middle">33</text>
<rect style="fill:rgb(65,243,73);fill-opacity:0.5;" width="20" height="48" x="146" y="212"/>
<text x="156" y="227" font-family="sans-serif" font-size="10px" text-anchor="middle">J5</text><text x="156" y="237" font-family="sans-serif" font-size="10px" text-anchor="middle">42</text><text x="156" y="247" font-family="sans-serif" font-size="10px" text-anchor="middle">53</text>
<rect style="fill:rgb(117,156,15);fill-opacity:0.5;" width="64" height="48" x="712" y="212"/>
<text x="744" y="227" font-family="sans-serif" font-size="10px" text-anchor="middle">J6</text><text x="744" y="237" font-family="sans-serif" font-size="10px" text-anchor="middle">325</text><text x="744" y="247" font-family="sans-serif" font-size="10px" text-anchor="middle">358</text>
<rect style="fill:rgb(117,156,15);fill-opacity:0.5;" width="38" height="48" x="778" y="162"/>
<text x="797" y="177" font-family="sans-serif" font-size="10px" text-anchor="middle">J6</text><text x="797" y="187" font-family="sans-serif" font-size="10px" text-anchor="middle">358</text><text x="797" y="197" font-family="sans-serif" font-size="10px" text-anchor="middle">378</text>
<rect style="fill:rgb(117,156,15);fill-opacity:0.5;" width="180" height="48" x="804" y="62"/>
<text x="894" y="77" font-family="sans-serif" font-size="10px" text-anchor="middle">J6</text><text x="894" y="87" font-family="sans-serif" font-size="10px" text-anchor="middle">371</text><text x="894" y="97" font-family="sans-serif" font-size="10px" text-anchor="middle">462</text>
<rect style="fill:rgb(117,156,15);fill-opacity:0.5;" width="38" height="48" x="144" y="262"/>
<text x="163" y="277" font-family="sans-serif" font-size="10px" text-anchor="middle">J6</text><text x="163" y="287" font-family="sans-serif" font-size="10px" text-anchor="middle">41</text><text x="163" y="297" font-family="sans-serif" font-size="10px" text-anchor="middle">61</text>
<rect style="fill:rgb(117,156,15);fill-opacity:0.5;" width="130" height="48" x="220" y="112"/>
<text x="285" y="127" font-family="sans-serif" font-size="10px" text-anchor="middle">J6</text><text x="285" y="137" font-family="sans-serif" font-size="10px" text-anchor="middle">79</text><text x="285" y="147" font-family="sans-serif" font-size="10px" text-anchor="middle">145</text>
<rect style="fill:rgb(241,98,202);fill-opacity:0.5;" width="46" height="48" x="368" y="262"/>
<text x="391" y="277" font-family="sans-serif" font-size="10px" text-anchor="middle">J7</text><text x="391" y="287" font-family="sans-serif" font-size="10px" text-anchor="middle">153</text><text x="391" y="297" font-family="sans-serif" font-size="10px" text-anchor="middle">177</text>
<rect style="fill:rgb(241,98,202);fill-opacity:0.5;" width="166" height="48" x="424" y="112"/>
<text x="507" y="127" font-family="sans-serif" font-size="10px" text-anchor="middle">J7</text><text x="507" y="137" font-family="sans-serif" font-size="10px" text-anchor="middle">181</text><text x="507" y="147" font-family="sans-serif" font-size="10px" text-anchor="middle">265</text>
<rect style="fill:rgb(241,98,202);fill-opacity:0.5;" width="62" height="48" x="544" y="62"/>
<text x="575" y="77" font-family="sans-serif" font-size="10px" text-anchor="middle">J7</text><text x="575" y="87" font-family="sans-serif" font-size="10px" text-anchor="middle">241</text><text x="575" y="97" font-family="sans-serif" font-size="10px" text-anchor="middle">273</text>
<rect style="fill:rgb(241,98,202);fill-opacity:0.5;" width="108" height="48" x="494" y="162"/>
<text x="548" y="177" font-family="sans-serif" font-size="10px" text-anchor="middle">J7</text><text x="548" y="187" font-family="sans-serif" font-size="10px" text-anchor="middle">216</text><text x="548" y="197" font-family="sans-serif" font-size="10px" text-anchor="middle">271</text>
<rect style="fill:rgb(241,98,202);fill-opacity:0.5;" width="14" height="48" x="776" y="212"/>
<text x="783" y="227" font-family="sans-serif" font-size="10px" text-anchor="middle">J7</text><text x="783" y="237" font-family="sans-serif" font-size="10px" text-anchor="middle">357</text><text x="783" y="247" font-family="sans-serif" font-size="10px" text-anchor="middle">365</text>
<rect style="fill:rgb(44,47,26);fill-opacity:0.5;" width="110" height="48" x="788" y="262"/>
<text x="843" y="277" font-family="sans-serif" font-size="10px" text-anchor="middle">J8</text><text x="843" y="287" font-family="sans-serif" font-size="10px" text-anchor="middle">363</text><text x="843" y="297" font-family="sans-serif" font-size="10px" text-anchor="middle">419</text>
<rect style="fill:rgb(44,47,26);fill-opacity:0.5;" width="12" height="48" x="1014" y="62"/>
<text x="1020" y="77" font-family="sans-serif" font-size="10px" text-anchor="middle">J8</text><text x="1020" y="87" font-family="sans-serif" font-size="10px" text-anchor="middle">476</text><text x="1020" y="97" font-family="sans-serif" font-size="10px" text-anchor="middle">483</text>
<rect style="fill:rgb(44,47,26);fill-opacity:0.5;" width="106" height="48" x="1084" y="212"/>
<text x="1137" y="227" font-family="sans-serif" font-size="10px" text-anchor="middle">J8</text><text x="1137" y="237" font-family="sans-serif" font-size="10px" text-anchor="middle">511</text><text x="1137" y="247" font-family="sans-serif" font-size="10px" text-anchor="middle">565</text>
<rect style="fill:rgb(44,47,26);fill-opacity:0.5;" width="126" height="48" x="332" y="162"/>
<text x="395" y="177" font-family="sans-serif" font-size="10px" text-anchor="middle">J8</text><text x="395" y="187" font-family="sans-serif" font-size="10px" text-anchor="middle">135</text><text x="395" y="197" font-family="sans-serif" font-size="10px" text-anchor="middle">199</text>
<rect style="fill:rgb(44,47,26);fill-opacity:0.5;" width="76" height="48" x="548" y="112"/>
<text x="586" y="127" font-family="sans-serif" font-size="10px" text-anchor="middle">J8</text><text x="586" y="137" font-family="sans-serif" font-size="10px" text-anchor="middle">243</text><text x="586" y="147" font-family="sans-serif" font-size="10px" text-anchor="middle">282</text>
<rect style="fill:rgb(42,223,105);fill-opacity:0.5;" width="78" height="48" x="750" y="262"/>
<text x="789" y="277" font-family="sans-serif" font-size="10px" text-anchor="middle">J9</text><text x="789" y="287" font-family="sans-serif" font-size="10px" text-anchor="middle">344</text><text x="789" y="297" font-family="sans-serif" font-size="10px" text-anchor="middle">384</text>
<rect style="fill:rgb(42,223,105);fill-opacity:0.5;" width="164" height="48" x="680" y="112"/>
<text x="762" y="127" font-family="sans-serif" font-size="10px" text-anchor="middle">J9</text><text x="762" y="137" font-family="sans-serif" font-size="10px" text-anchor="middle">309</text><text x="762" y="147" font-family="sans-serif" font-size="10px" text-anchor="middle">392</text>
<rect style="fill:rgb(42,223,105);fill-opacity:0.5;" width="36" height="48" x="876" y="62"/>
<text x="894" y="77" font-family="sans-serif" font-size="10px" text-anchor="middle">J9</text><text x="894" y="87" font-family="sans-serif" font-size="10px" text-anchor="middle">407</text><text x="894" y="97" font-family="sans-serif" font-size="10px" text-anchor="middle">426</text>
<rect style="fill:rgb(42,223,105);fill-opacity:0.5;" width="14" height="48" x="-1717986874" y="162"/>
<text x="429496781" y="177" font-family="sans-serif" font-size="10px" text-anchor="middle">J9</text><text x="429496781" y="187" font-family="sans-serif" font-size="10px" text-anchor="middle">-858993468</text><text x="429496781" y="197" font-family="sans-serif" font-size="10px" text-anchor="middle">-858993460</text>
<rect style="fill:rgb(42,223,105);fill-opacity:0.5;" width="12" height="48" x="-1717986872" y="212"/>
<text x="429496782" y="227" font-family="sans-serif" font-size="10px" text-anchor="middle">J9</text><text x="429496782" y="237" font-family="sans-serif" font-size="10px" text-anchor="middle">-858993467</text><text x="429496782" y="247" font-family="sans-serif" font-size="10px" text-anchor="middle">-858993460</text>
<line x1="60" y1="40" x2="60" y2="312" stroke="dimgrey" />
<line x1="60" y1="40" x2="70" y2="50" stroke="dimgrey" />
<text x="35" y="90" font-family="sans-serif" font-size="10px" text-anchor="middle">M.1</text>
<text x="35" y="140" font-family="sans-serif" font-size="10px" text-anchor="middle">M.2</text>
<text x="35" y="190" font-family="sans-serif" font-size="10px" text-anchor="middle">M.3</text>
<text x="35" y="240" font-family="sans-serif" font-size="10px" text-anchor="middle">M.4</text>
<text x="35" y="290" font-family="sans-serif" font-size="10px" text-anchor="middle">M.5</text>
<line x1="60" y1="312" x2="86" y2="312" stroke="dimgrey" />
<line x1="76" y1="302" x2="86" y2="312" stroke="dimgrey" />
<line x1="66" y1="314" x2="66" y2="322" stroke="dimgrey" />
<text x="70" y="35" font-family="sans-serif" font-size="20px" text-anchor="middle" fill="dimgrey">Machines</text>
<text x="106" y="312" font-family="sans-serif" font-size="20px" text-anchor="middle" fill="dimgrey">Time</text>
<text x="75" y="342" font-family="sans-serif" font-size="30px" text-anchor="middle" fill="dimgrey">Diagramme de Gantt du problème: la03.txt - makespan: 3</text>
</svg>
