<?xml version="1.0" encoding="UTF-8" standalone="no"?>
 <svg xmlns="http://www.w3.org/2000/svg" version="1.1" width="145" height="350">
<title> Diagramme de Gantt du Probleme: la04.txt</title>
<desc> Cette figure represente le planning des operations du probleme traite.</desc>
<rect style="fill:rgb(62,139,185);fill-opacity:0.5;" width="22" height="48" x="1216" y="62"/>
<text x="1227" y="77" font-family="sans-serif" font-size="10px" text-anchor="middle">J0</text><text x="1227" y="87" font-family="sans-serif" font-size="10px" text-anchor="middle">577</text><text x="1227" y="97" font-family="sans-serif" font-size="10px" text-anchor="middle">589</text>
<rect style="fill:rgb(62,139,185);fill-opacity:0.5;" width="186" height="48" x="1234" y="162"/>
<text x="1327" y="177" font-family="sans-serif" font-size="10px" text-anchor="middle">J0</text><text x="1327" y="187" font-family="sans-serif" font-size="10px" text-anchor="middle">586</text><text x="1327" y="197" font-family="sans-serif" font-size="10px" text-anchor="middle">680</text>
<rect style="fill:rgb(62,139,185);fill-opacity:0.5;" width="182" height="48" x="1252" y="212"/>
<text x="1343" y="227" font-family="sans-serif" font-size="10px" text-anchor="middle">J0</text><text x="1343" y="237" font-family="sans-serif" font-size="10px" text-anchor="middle">595</text><text x="1343" y="247" font-family="sans-serif" font-size="10px" text-anchor="middle">687</text>
<rect style="fill:rgb(62,139,185);fill-opacity:0.5;" width="180" height="48" x="36" y="262"/>
<text x="126" y="277" font-family="sans-serif" font-size="10px" text-anchor="middle">J0</text><text x="126" y="287" font-family="sans-serif" font-size="10px" text-anchor="middle">-13</text><text x="126" y="297" font-family="sans-serif" font-size="10px" text-anchor="middle">78</text>
<rect style="fill:rgb(62,139,185);fill-opacity:0.5;" width="12" height="48" x="226" y="112"/>
<text x="232" y="127" font-family="sans-serif" font-size="10px" text-anchor="middle">J0</text><text x="232" y="137" font-family="sans-serif" font-size="10px" text-anchor="middle">82</text><text x="232" y="147" font-family="sans-serif" font-size="10px" text-anchor="middle">89</text>
<rect style="fill:rgb(238,172,238);fill-opacity:0.5;" width="36" height="48" x="392" y="112"/>
<text x="410" y="127" font-family="sans-serif" font-size="10px" text-anchor="middle">J1</text><text x="410" y="137" font-family="sans-serif" font-size="10px" text-anchor="middle">165</text><text x="410" y="147" font-family="sans-serif" font-size="10px" text-anchor="middle">184</text>
<rect style="fill:rgb(238,172,238);fill-opacity:0.5;" width="20" height="48" x="450" y="212"/>
<text x="460" y="227" font-family="sans-serif" font-size="10px" text-anchor="middle">J1</text><text x="460" y="237" font-family="sans-serif" font-size="10px" text-anchor="middle">194</text><text x="460" y="247" font-family="sans-serif" font-size="10px" text-anchor="middle">205</text>
<rect style="fill:rgb(238,172,238);fill-opacity:0.5;" width="130" height="48" x="1218" y="262"/>
<text x="1283" y="277" font-family="sans-serif" font-size="10px" text-anchor="middle">J1</text><text x="1283" y="287" font-family="sans-serif" font-size="10px" text-anchor="middle">578</text><text x="1283" y="297" font-family="sans-serif" font-size="10px" text-anchor="middle">644</text>
<rect style="fill:rgb(238,172,238);fill-opacity:0.5;" width="40" height="48" x="48" y="162"/>
<text x="68" y="177" font-family="sans-serif" font-size="10px" text-anchor="middle">J1</text><text x="68" y="187" font-family="sans-serif" font-size="10px" text-anchor="middle">-7</text><text x="68" y="197" font-family="sans-serif" font-size="10px" text-anchor="middle">14</text>
<rect style="fill:rgb(238,172,238);fill-opacity:0.5;" width="172" height="48" x="66" y="62"/>
<text x="152" y="77" font-family="sans-serif" font-size="10px" text-anchor="middle">J1</text><text x="152" y="87" font-family="sans-serif" font-size="10px" text-anchor="middle">2</text><text x="152" y="97" font-family="sans-serif" font-size="10px" text-anchor="middle">89</text>
<rect style="fill:rgb(47,232,102);fill-opacity:0.5;" width="26" height="48" x="238" y="112"/>
<text x="251" y="127" font-family="sans-serif" font-size="10px" text-anchor="middle">J2</text><text x="251" y="137" font-family="sans-serif" font-size="10px" text-anchor="middle">88</text><text x="251" y="147" font-family="sans-serif" font-size="10px" text-anchor="middle">102</text>
<rect style="fill:rgb(47,232,102);fill-opacity:0.5;" width="148" height="48" x="148" y="62"/>
<text x="222" y="77" font-family="sans-serif" font-size="10px" text-anchor="middle">J2</text><text x="222" y="87" font-family="sans-serif" font-size="10px" text-anchor="middle">43</text><text x="222" y="97" font-family="sans-serif" font-size="10px" text-anchor="middle">118</text>
<rect style="fill:rgb(47,232,102);fill-opacity:0.5;" width="24" height="48" x="312" y="212"/>
<text x="324" y="227" font-family="sans-serif" font-size="10px" text-anchor="middle">J2</text><text x="324" y="237" font-family="sans-serif" font-size="10px" text-anchor="middle">125</text><text x="324" y="247" font-family="sans-serif" font-size="10px" text-anchor="middle">138</text>
<rect style="fill:rgb(47,232,102);fill-opacity:0.5;" width="30" height="48" x="1318" y="262"/>
<text x="1333" y="277" font-family="sans-serif" font-size="10px" text-anchor="middle">J2</text><text x="1333" y="287" font-family="sans-serif" font-size="10px" text-anchor="middle">628</text><text x="1333" y="297" font-family="sans-serif" font-size="10px" text-anchor="middle">644</text>
<rect style="fill:rgb(47,232,102);fill-opacity:0.5;" width="38" height="48" x="1514" y="162"/>
<text x="1533" y="177" font-family="sans-serif" font-size="10px" text-anchor="middle">J2</text><text x="1533" y="187" font-family="sans-serif" font-size="10px" text-anchor="middle">726</text><text x="1533" y="197" font-family="sans-serif" font-size="10px" text-anchor="middle">746</text>
<rect style="fill:rgb(25,19,248);fill-opacity:0.5;" width="188" height="48" x="1378" y="162"/>
<text x="1472" y="177" font-family="sans-serif" font-size="10px" text-anchor="middle">J3</text><text x="1472" y="187" font-family="sans-serif" font-size="10px" text-anchor="middle">658</text><text x="1472" y="197" font-family="sans-serif" font-size="10px" text-anchor="middle">753</text>
<rect style="fill:rgb(25,19,248);fill-opacity:0.5;" width="130" height="48" x="1450" y="262"/>
<text x="1515" y="277" font-family="sans-serif" font-size="10px" text-anchor="middle">J3</text><text x="1515" y="287" font-family="sans-serif" font-size="10px" text-anchor="middle">694</text><text x="1515" y="297" font-family="sans-serif" font-size="10px" text-anchor="middle">760</text>
<rect style="fill:rgb(25,19,248);fill-opacity:0.5;" width="12" height="48" x="1722" y="62"/>
<text x="1728" y="77" font-family="sans-serif" font-size="10px" text-anchor="middle">J3</text><text x="1728" y="87" font-family="sans-serif" font-size="10px" text-anchor="middle">830</text><text x="1728" y="97" font-family="sans-serif" font-size="10px" text-anchor="middle">837</text>
<rect style="fill:rgb(25,19,248);fill-opacity:0.5;" width="12" height="48" x="166" y="212"/>
<text x="172" y="227" font-family="sans-serif" font-size="10px" text-anchor="middle">J3</text><text x="172" y="237" font-family="sans-serif" font-size="10px" text-anchor="middle">52</text><text x="172" y="247" font-family="sans-serif" font-size="10px" text-anchor="middle">59</text>
<rect style="fill:rgb(25,19,248);fill-opacity:0.5;" width="152" height="48" x="38" y="112"/>
<text x="114" y="127" font-family="sans-serif" font-size="10px" text-anchor="middle">J3</text><text x="114" y="137" font-family="sans-serif" font-size="10px" text-anchor="middle">-12</text><text x="114" y="147" font-family="sans-serif" font-size="10px" text-anchor="middle">65</text>
<rect style="fill:rgb(142,6,56);fill-opacity:0.5;" width="88" height="48" x="518" y="112"/>
<text x="562" y="127" font-family="sans-serif" font-size="10px" text-anchor="middle">J4</text><text x="562" y="137" font-family="sans-serif" font-size="10px" text-anchor="middle">228</text><text x="562" y="147" font-family="sans-serif" font-size="10px" text-anchor="middle">273</text>
<rect style="fill:rgb(142,6,56);fill-opacity:0.5;" width="10" height="48" x="626" y="212"/>
<text x="631" y="227" font-family="sans-serif" font-size="10px" text-anchor="middle">J4</text><text x="631" y="237" font-family="sans-serif" font-size="10px" text-anchor="middle">282</text><text x="631" y="247" font-family="sans-serif" font-size="10px" text-anchor="middle">288</text>
<rect style="fill:rgb(142,6,56);fill-opacity:0.5;" width="176" height="48" x="528" y="262"/>
<text x="616" y="277" font-family="sans-serif" font-size="10px" text-anchor="middle">J4</text><text x="616" y="287" font-family="sans-serif" font-size="10px" text-anchor="middle">233</text><text x="616" y="297" font-family="sans-serif" font-size="10px" text-anchor="middle">322</text>
<rect style="fill:rgb(142,6,56);fill-opacity:0.5;" width="28" height="48" x="656" y="62"/>
<text x="670" y="77" font-family="sans-serif" font-size="10px" text-anchor="middle">J4</text><text x="670" y="87" font-family="sans-serif" font-size="10px" text-anchor="middle">297</text><text x="670" y="97" font-family="sans-serif" font-size="10px" text-anchor="middle">312</text>
<rect style="fill:rgb(142,6,56);fill-opacity:0.5;" width="66" height="48" x="678" y="162"/>
<text x="711" y="177" font-family="sans-serif" font-size="10px" text-anchor="middle">J4</text><text x="711" y="187" font-family="sans-serif" font-size="10px" text-anchor="middle">308</text><text x="711" y="197" font-family="sans-serif" font-size="10px" text-anchor="middle">342</text>
<rect style="fill:rgb(65,243,73);fill-opacity:0.5;" width="152" height="48" x="898" y="212"/>
<text x="974" y="227" font-family="sans-serif" font-size="10px" text-anchor="middle">J5</text><text x="974" y="237" font-family="sans-serif" font-size="10px" text-anchor="middle">418</text><text x="974" y="247" font-family="sans-serif" font-size="10px" text-anchor="middle">495</text>
<rect style="fill:rgb(65,243,73);fill-opacity:0.5;" width="38" height="48" x="1188" y="162"/>
<text x="1207" y="177" font-family="sans-serif" font-size="10px" text-anchor="middle">J5</text><text x="1207" y="187" font-family="sans-serif" font-size="10px" text-anchor="middle">563</text><text x="1207" y="197" font-family="sans-serif" font-size="10px" text-anchor="middle">583</text>
<rect style="fill:rgb(65,243,73);fill-opacity:0.5;" width="150" height="48" x="1234" y="62"/>
<text x="1309" y="77" font-family="sans-serif" font-size="10px" text-anchor="middle">J5</text><text x="1309" y="87" font-family="sans-serif" font-size="10px" text-anchor="middle">586</text><text x="1309" y="97" font-family="sans-serif" font-size="10px" text-anchor="middle">662</text>
<rect style="fill:rgb(65,243,73);fill-opacity:0.5;" width="174" height="48" x="444" y="262"/>
<text x="531" y="277" font-family="sans-serif" font-size="10px" text-anchor="middle">J5</text><text x="531" y="287" font-family="sans-serif" font-size="10px" text-anchor="middle">191</text><text x="531" y="297" font-family="sans-serif" font-size="10px" text-anchor="middle">279</text>
<rect style="fill:rgb(65,243,73);fill-opacity:0.5;" width="104" height="48" x="690" y="112"/>
<text x="742" y="127" font-family="sans-serif" font-size="10px" text-anchor="middle">J5</text><text x="742" y="137" font-family="sans-serif" font-size="10px" text-anchor="middle">314</text><text x="742" y="147" font-family="sans-serif" font-size="10px" text-anchor="middle">367</text>
<rect style="fill:rgb(117,156,15);fill-opacity:0.5;" width="146" height="48" x="752" y="162"/>
<text x="825" y="177" font-family="sans-serif" font-size="10px" text-anchor="middle">J6</text><text x="825" y="187" font-family="sans-serif" font-size="10px" text-anchor="middle">345</text><text x="825" y="197" font-family="sans-serif" font-size="10px" text-anchor="middle">419</text>
<rect style="fill:rgb(117,156,15);fill-opacity:0.5;" width="174" height="48" x="778" y="112"/>
<text x="865" y="127" font-family="sans-serif" font-size="10px" text-anchor="middle">J6</text><text x="865" y="137" font-family="sans-serif" font-size="10px" text-anchor="middle">358</text><text x="865" y="147" font-family="sans-serif" font-size="10px" text-anchor="middle">446</text>
<rect style="fill:rgb(117,156,15);fill-opacity:0.5;" width="102" height="48" x="872" y="62"/>
<text x="923" y="77" font-family="sans-serif" font-size="10px" text-anchor="middle">J6</text><text x="923" y="87" font-family="sans-serif" font-size="10px" text-anchor="middle">405</text><text x="923" y="97" font-family="sans-serif" font-size="10px" text-anchor="middle">457</text>
<rect style="fill:rgb(117,156,15);fill-opacity:0.5;" width="52" height="48" x="340" y="212"/>
<text x="366" y="227" font-family="sans-serif" font-size="10px" text-anchor="middle">J6</text><text x="366" y="237" font-family="sans-serif" font-size="10px" text-anchor="middle">139</text><text x="366" y="247" font-family="sans-serif" font-size="10px" text-anchor="middle">166</text>
<rect style="fill:rgb(117,156,15);fill-opacity:0.5;" width="16" height="48" x="514" y="262"/>
<text x="522" y="277" font-family="sans-serif" font-size="10px" text-anchor="middle">J6</text><text x="522" y="287" font-family="sans-serif" font-size="10px" text-anchor="middle">226</text><text x="522" y="297" font-family="sans-serif" font-size="10px" text-anchor="middle">235</text>
<rect style="fill:rgb(241,98,202);fill-opacity:0.5;" width="174" height="48" x="586" y="112"/>
<text x="673" y="127" font-family="sans-serif" font-size="10px" text-anchor="middle">J7</text><text x="673" y="137" font-family="sans-serif" font-size="10px" text-anchor="middle">262</text><text x="673" y="147" font-family="sans-serif" font-size="10px" text-anchor="middle">350</text>
<rect style="fill:rgb(241,98,202);fill-opacity:0.5;" width="136" height="48" x="820" y="212"/>
<text x="888" y="227" font-family="sans-serif" font-size="10px" text-anchor="middle">J7</text><text x="888" y="237" font-family="sans-serif" font-size="10px" text-anchor="middle">379</text><text x="888" y="247" font-family="sans-serif" font-size="10px" text-anchor="middle">448</text>
<rect style="fill:rgb(241,98,202);fill-opacity:0.5;" width="122" height="48" x="1036" y="62"/>
<text x="1097" y="77" font-family="sans-serif" font-size="10px" text-anchor="middle">J7</text><text x="1097" y="87" font-family="sans-serif" font-size="10px" text-anchor="middle">487</text><text x="1097" y="97" font-family="sans-serif" font-size="10px" text-anchor="middle">549</text>
<rect style="fill:rgb(241,98,202);fill-opacity:0.5;" width="194" height="48" x="672" y="262"/>
<text x="769" y="277" font-family="sans-serif" font-size="10px" text-anchor="middle">J7</text><text x="769" y="287" font-family="sans-serif" font-size="10px" text-anchor="middle">305</text><text x="769" y="297" font-family="sans-serif" font-size="10px" text-anchor="middle">403</text>
<rect style="fill:rgb(241,98,202);fill-opacity:0.5;" width="102" height="48" x="890" y="162"/>
<text x="941" y="177" font-family="sans-serif" font-size="10px" text-anchor="middle">J7</text><text x="941" y="187" font-family="sans-serif" font-size="10px" text-anchor="middle">414</text><text x="941" y="197" font-family="sans-serif" font-size="10px" text-anchor="middle">466</text>
<rect style="fill:rgb(44,47,26);fill-opacity:0.5;" width="120" height="48" x="1054" y="162"/>
<text x="1114" y="177" font-family="sans-serif" font-size="10px" text-anchor="middle">J8</text><text x="1114" y="187" font-family="sans-serif" font-size="10px" text-anchor="middle">496</text><text x="1114" y="197" font-family="sans-serif" font-size="10px" text-anchor="middle">557</text>
<rect style="fill:rgb(44,47,26);fill-opacity:0.5;" width="16" height="48" x="1262" y="262"/>
<text x="1270" y="277" font-family="sans-serif" font-size="10px" text-anchor="middle">J8</text><text x="1270" y="287" font-family="sans-serif" font-size="10px" text-anchor="middle">600</text><text x="1270" y="297" font-family="sans-serif" font-size="10px" text-anchor="middle">609</text>
<rect style="fill:rgb(44,47,26);fill-opacity:0.5;" width="122" height="48" x="1336" y="62"/>
<text x="1397" y="77" font-family="sans-serif" font-size="10px" text-anchor="middle">J8</text><text x="1397" y="87" font-family="sans-serif" font-size="10px" text-anchor="middle">637</text><text x="1397" y="97" font-family="sans-serif" font-size="10px" text-anchor="middle">699</text>
<rect style="fill:rgb(44,47,26);fill-opacity:0.5;" width="102" height="48" x="66" y="112"/>
<text x="117" y="127" font-family="sans-serif" font-size="10px" text-anchor="middle">J8</text><text x="117" y="137" font-family="sans-serif" font-size="10px" text-anchor="middle">2</text><text x="117" y="147" font-family="sans-serif" font-size="10px" text-anchor="middle">54</text>
<rect style="fill:rgb(44,47,26);fill-opacity:0.5;" width="178" height="48" x="0" y="212"/>
<text x="89" y="227" font-family="sans-serif" font-size="10px" text-anchor="middle">J8</text><text x="89" y="237" font-family="sans-serif" font-size="10px" text-anchor="middle">-31</text><text x="89" y="247" font-family="sans-serif" font-size="10px" text-anchor="middle">59</text>
<rect style="fill:rgb(42,223,105);fill-opacity:0.5;" width="106" height="48" x="276" y="162"/>
<text x="329" y="177" font-family="sans-serif" font-size="10px" text-anchor="middle">J9</text><text x="329" y="187" font-family="sans-serif" font-size="10px" text-anchor="middle">107</text><text x="329" y="197" font-family="sans-serif" font-size="10px" text-anchor="middle">161</text>
<rect style="fill:rgb(42,223,105);fill-opacity:0.5;" width="8" height="48" x="414" y="262"/>
<text x="418" y="277" font-family="sans-serif" font-size="10px" text-anchor="middle">J9</text><text x="418" y="287" font-family="sans-serif" font-size="10px" text-anchor="middle">176</text><text x="418" y="297" font-family="sans-serif" font-size="10px" text-anchor="middle">181</text>
<rect style="fill:rgb(42,223,105);fill-opacity:0.5;" width="116" height="48" x="482" y="212"/>
<text x="540" y="227" font-family="sans-serif" font-size="10px" text-anchor="middle">J9</text><text x="540" y="237" font-family="sans-serif" font-size="10px" text-anchor="middle">210</text><text x="540" y="247" font-family="sans-serif" font-size="10px" text-anchor="middle">269</text>
<rect style="fill:rgb(42,223,105);fill-opacity:0.5;" width="28" height="48" x="-1717986888" y="112"/>
<text x="429496774" y="127" font-family="sans-serif" font-size="10px" text-anchor="middle">J9</text><text x="429496774" y="137" font-family="sans-serif" font-size="10px" text-anchor="middle">-858993475</text><text x="429496774" y="147" font-family="sans-serif" font-size="10px" text-anchor="middle">-858993460</text>
<rect style="fill:rgb(42,223,105);fill-opacity:0.5;" width="174" height="48" x="-1717987034" y="62"/>
<text x="429496701" y="77" font-family="sans-serif" font-size="10px" text-anchor="middle">J9</text><text x="429496701" y="87" font-family="sans-serif" font-size="10px" text-anchor="middle">-858993548</text><text x="429496701" y="97" font-family="sans-serif" font-size="10px" text-anchor="middle">-858993460</text>
<line x1="60" y1="40" x2="60" y2="312" stroke="dimgrey" />
<line x1="60" y1="40" x2="70" y2="50" stroke="dimgrey" />
<text x="35" y="90" font-family="sans-serif" font-size="10px" text-anchor="middle">M.1</text>
<text x="35" y="140" font-family="sans-serif" font-size="10px" text-anchor="middle">M.2</text>
<text x="35" y="190" font-family="sans-serif" font-size="10px" text-anchor="middle">M.3</text>
<text x="35" y="240" font-family="sans-serif" font-size="10px" text-anchor="middle">M.4</text>
<text x="35" y="290" font-family="sans-serif" font-size="10px" text-anchor="middle">M.5</text>
<line x1="60" y1="312" x2="80" y2="312" stroke="dimgrey" />
<line x1="70" y1="302" x2="80" y2="312" stroke="dimgrey" />
<line x1="60" y1="314" x2="60" y2="322" stroke="dimgrey" />
<text x="70" y="35" font-family="sans-serif" font-size="20px" text-anchor="middle" fill="dimgrey">Machines</text>
<text x="100" y="312" font-family="sans-serif" font-size="20px" text-anchor="middle" fill="dimgrey">Time</text>
<text x="72" y="342" font-family="sans-serif" font-size="30px" text-anchor="middle" fill="dimgrey">Diagramme de Gantt du problème: la04.txt - makespan: 0</text>
</svg>
