<?xml version="1.0" encoding="UTF-8" standalone="no"?>
 <svg xmlns="http://www.w3.org/2000/svg" version="1.1" width="1331" height="350">
<title> Diagramme de Gantt du Probleme: la05.txt</title>
<desc> Cette figure represente le planning des operations du probleme traite.</desc>
<rect style="fill:rgb(62,139,185);fill-opacity:0.5;" width="142" height="48" x="62" y="112"/>
<text x="133" y="127" font-family="sans-serif" font-size="10px" text-anchor="middle">J0</text><text x="133" y="137" font-family="sans-serif" font-size="10px" text-anchor="middle">0</text><text x="133" y="147" font-family="sans-serif" font-size="10px" text-anchor="middle">72</text>
<rect style="fill:rgb(62,139,185);fill-opacity:0.5;" width="172" height="48" x="528" y="62"/>
<text x="614" y="77" font-family="sans-serif" font-size="10px" text-anchor="middle">J0</text><text x="614" y="87" font-family="sans-serif" font-size="10px" text-anchor="middle">233</text><text x="614" y="97" font-family="sans-serif" font-size="10px" text-anchor="middle">320</text>
<rect style="fill:rgb(62,139,185);fill-opacity:0.5;" width="188" height="48" x="746" y="262"/>
<text x="840" y="277" font-family="sans-serif" font-size="10px" text-anchor="middle">J0</text><text x="840" y="287" font-family="sans-serif" font-size="10px" text-anchor="middle">342</text><text x="840" y="297" font-family="sans-serif" font-size="10px" text-anchor="middle">437</text>
<rect style="fill:rgb(62,139,185);fill-opacity:0.5;" width="130" height="48" x="944" y="162"/>
<text x="1009" y="177" font-family="sans-serif" font-size="10px" text-anchor="middle">J0</text><text x="1009" y="187" font-family="sans-serif" font-size="10px" text-anchor="middle">441</text><text x="1009" y="197" font-family="sans-serif" font-size="10px" text-anchor="middle">507</text>
<rect style="fill:rgb(62,139,185);fill-opacity:0.5;" width="118" height="48" x="1076" y="212"/>
<text x="1135" y="227" font-family="sans-serif" font-size="10px" text-anchor="middle">J0</text><text x="1135" y="237" font-family="sans-serif" font-size="10px" text-anchor="middle">507</text><text x="1135" y="247" font-family="sans-serif" font-size="10px" text-anchor="middle">567</text>
<rect style="fill:rgb(238,172,238);fill-opacity:0.5;" width="8" height="48" x="108" y="262"/>
<text x="112" y="277" font-family="sans-serif" font-size="10px" text-anchor="middle">J1</text><text x="112" y="287" font-family="sans-serif" font-size="10px" text-anchor="middle">23</text><text x="112" y="297" font-family="sans-serif" font-size="10px" text-anchor="middle">28</text>
<rect style="fill:rgb(238,172,238);fill-opacity:0.5;" width="68" height="48" x="118" y="212"/>
<text x="152" y="227" font-family="sans-serif" font-size="10px" text-anchor="middle">J1</text><text x="152" y="237" font-family="sans-serif" font-size="10px" text-anchor="middle">28</text><text x="152" y="247" font-family="sans-serif" font-size="10px" text-anchor="middle">63</text>
<rect style="fill:rgb(238,172,238);fill-opacity:0.5;" width="94" height="48" x="270" y="62"/>
<text x="317" y="77" font-family="sans-serif" font-size="10px" text-anchor="middle">J1</text><text x="317" y="87" font-family="sans-serif" font-size="10px" text-anchor="middle">104</text><text x="317" y="97" font-family="sans-serif" font-size="10px" text-anchor="middle">152</text>
<rect style="fill:rgb(238,172,238);fill-opacity:0.5;" width="76" height="48" x="380" y="162"/>
<text x="418" y="177" font-family="sans-serif" font-size="10px" text-anchor="middle">J1</text><text x="418" y="187" font-family="sans-serif" font-size="10px" text-anchor="middle">159</text><text x="418" y="197" font-family="sans-serif" font-size="10px" text-anchor="middle">198</text>
<rect style="fill:rgb(238,172,238);fill-opacity:0.5;" width="106" height="48" x="458" y="112"/>
<text x="511" y="127" font-family="sans-serif" font-size="10px" text-anchor="middle">J1</text><text x="511" y="137" font-family="sans-serif" font-size="10px" text-anchor="middle">198</text><text x="511" y="147" font-family="sans-serif" font-size="10px" text-anchor="middle">252</text>
<rect style="fill:rgb(47,232,102);fill-opacity:0.5;" width="90" height="48" x="206" y="112"/>
<text x="251" y="127" font-family="sans-serif" font-size="10px" text-anchor="middle">J2</text><text x="251" y="137" font-family="sans-serif" font-size="10px" text-anchor="middle">72</text><text x="251" y="147" font-family="sans-serif" font-size="10px" text-anchor="middle">118</text>
<rect style="fill:rgb(47,232,102);fill-opacity:0.5;" width="38" height="48" x="298" y="212"/>
<text x="317" y="227" font-family="sans-serif" font-size="10px" text-anchor="middle">J2</text><text x="317" y="237" font-family="sans-serif" font-size="10px" text-anchor="middle">118</text><text x="317" y="247" font-family="sans-serif" font-size="10px" text-anchor="middle">138</text>
<rect style="fill:rgb(47,232,102);fill-opacity:0.5;" width="40" height="48" x="338" y="162"/>
<text x="358" y="177" font-family="sans-serif" font-size="10px" text-anchor="middle">J2</text><text x="358" y="187" font-family="sans-serif" font-size="10px" text-anchor="middle">138</text><text x="358" y="197" font-family="sans-serif" font-size="10px" text-anchor="middle">159</text>
<rect style="fill:rgb(47,232,102);fill-opacity:0.5;" width="192" height="48" x="702" y="62"/>
<text x="798" y="77" font-family="sans-serif" font-size="10px" text-anchor="middle">J2</text><text x="798" y="87" font-family="sans-serif" font-size="10px" text-anchor="middle">320</text><text x="798" y="97" font-family="sans-serif" font-size="10px" text-anchor="middle">417</text>
<rect style="fill:rgb(47,232,102);fill-opacity:0.5;" width="108" height="48" x="936" y="262"/>
<text x="990" y="277" font-family="sans-serif" font-size="10px" text-anchor="middle">J2</text><text x="990" y="287" font-family="sans-serif" font-size="10px" text-anchor="middle">437</text><text x="990" y="297" font-family="sans-serif" font-size="10px" text-anchor="middle">492</text>
<rect style="fill:rgb(25,19,248);fill-opacity:0.5;" width="116" height="48" x="62" y="62"/>
<text x="120" y="77" font-family="sans-serif" font-size="10px" text-anchor="middle">J3</text><text x="120" y="87" font-family="sans-serif" font-size="10px" text-anchor="middle">0</text><text x="120" y="97" font-family="sans-serif" font-size="10px" text-anchor="middle">59</text>
<rect style="fill:rgb(25,19,248);fill-opacity:0.5;" width="36" height="48" x="188" y="212"/>
<text x="206" y="227" font-family="sans-serif" font-size="10px" text-anchor="middle">J3</text><text x="206" y="237" font-family="sans-serif" font-size="10px" text-anchor="middle">63</text><text x="206" y="247" font-family="sans-serif" font-size="10px" text-anchor="middle">82</text>
<rect style="fill:rgb(25,19,248);fill-opacity:0.5;" width="90" height="48" x="226" y="262"/>
<text x="271" y="277" font-family="sans-serif" font-size="10px" text-anchor="middle">J3</text><text x="271" y="287" font-family="sans-serif" font-size="10px" text-anchor="middle">82</text><text x="271" y="297" font-family="sans-serif" font-size="10px" text-anchor="middle">128</text>
<rect style="fill:rgb(25,19,248);fill-opacity:0.5;" width="66" height="48" x="318" y="112"/>
<text x="351" y="127" font-family="sans-serif" font-size="10px" text-anchor="middle">J3</text><text x="351" y="137" font-family="sans-serif" font-size="10px" text-anchor="middle">128</text><text x="351" y="147" font-family="sans-serif" font-size="10px" text-anchor="middle">162</text>
<rect style="fill:rgb(25,19,248);fill-opacity:0.5;" width="72" height="48" x="588" y="162"/>
<text x="624" y="177" font-family="sans-serif" font-size="10px" text-anchor="middle">J3</text><text x="624" y="187" font-family="sans-serif" font-size="10px" text-anchor="middle">263</text><text x="624" y="197" font-family="sans-serif" font-size="10px" text-anchor="middle">300</text>
<rect style="fill:rgb(142,6,56);fill-opacity:0.5;" width="44" height="48" x="62" y="262"/>
<text x="84" y="277" font-family="sans-serif" font-size="10px" text-anchor="middle">J4</text><text x="84" y="287" font-family="sans-serif" font-size="10px" text-anchor="middle">0</text><text x="84" y="297" font-family="sans-serif" font-size="10px" text-anchor="middle">23</text>
<rect style="fill:rgb(142,6,56);fill-opacity:0.5;" width="144" height="48" x="160" y="162"/>
<text x="232" y="177" font-family="sans-serif" font-size="10px" text-anchor="middle">J4</text><text x="232" y="187" font-family="sans-serif" font-size="10px" text-anchor="middle">49</text><text x="232" y="197" font-family="sans-serif" font-size="10px" text-anchor="middle">122</text>
<rect style="fill:rgb(142,6,56);fill-opacity:0.5;" width="48" height="48" x="338" y="212"/>
<text x="362" y="227" font-family="sans-serif" font-size="10px" text-anchor="middle">J4</text><text x="362" y="237" font-family="sans-serif" font-size="10px" text-anchor="middle">138</text><text x="362" y="247" font-family="sans-serif" font-size="10px" text-anchor="middle">163</text>
<rect style="fill:rgb(142,6,56);fill-opacity:0.5;" width="46" height="48" x="388" y="112"/>
<text x="411" y="127" font-family="sans-serif" font-size="10px" text-anchor="middle">J4</text><text x="411" y="137" font-family="sans-serif" font-size="10px" text-anchor="middle">163</text><text x="411" y="147" font-family="sans-serif" font-size="10px" text-anchor="middle">187</text>
<rect style="fill:rgb(142,6,56);fill-opacity:0.5;" width="54" height="48" x="472" y="62"/>
<text x="499" y="77" font-family="sans-serif" font-size="10px" text-anchor="middle">J4</text><text x="499" y="87" font-family="sans-serif" font-size="10px" text-anchor="middle">205</text><text x="499" y="97" font-family="sans-serif" font-size="10px" text-anchor="middle">233</text>
<rect style="fill:rgb(65,243,73);fill-opacity:0.5;" width="54" height="48" x="62" y="212"/>
<text x="89" y="227" font-family="sans-serif" font-size="10px" text-anchor="middle">J5</text><text x="89" y="237" font-family="sans-serif" font-size="10px" text-anchor="middle">0</text><text x="89" y="247" font-family="sans-serif" font-size="10px" text-anchor="middle">28</text>
<rect style="fill:rgb(65,243,73);fill-opacity:0.5;" width="88" height="48" x="180" y="62"/>
<text x="224" y="77" font-family="sans-serif" font-size="10px" text-anchor="middle">J5</text><text x="224" y="87" font-family="sans-serif" font-size="10px" text-anchor="middle">59</text><text x="224" y="97" font-family="sans-serif" font-size="10px" text-anchor="middle">104</text>
<rect style="fill:rgb(65,243,73);fill-opacity:0.5;" width="8" height="48" x="318" y="262"/>
<text x="322" y="277" font-family="sans-serif" font-size="10px" text-anchor="middle">J5</text><text x="322" y="287" font-family="sans-serif" font-size="10px" text-anchor="middle">128</text><text x="322" y="297" font-family="sans-serif" font-size="10px" text-anchor="middle">133</text>
<rect style="fill:rgb(65,243,73);fill-opacity:0.5;" width="154" height="48" x="688" y="112"/>
<text x="765" y="127" font-family="sans-serif" font-size="10px" text-anchor="middle">J5</text><text x="765" y="137" font-family="sans-serif" font-size="10px" text-anchor="middle">313</text><text x="765" y="147" font-family="sans-serif" font-size="10px" text-anchor="middle">391</text>
<rect style="fill:rgb(65,243,73);fill-opacity:0.5;" width="164" height="48" x="1076" y="162"/>
<text x="1158" y="177" font-family="sans-serif" font-size="10px" text-anchor="middle">J5</text><text x="1158" y="187" font-family="sans-serif" font-size="10px" text-anchor="middle">507</text><text x="1158" y="197" font-family="sans-serif" font-size="10px" text-anchor="middle">590</text>
<rect style="fill:rgb(117,156,15);fill-opacity:0.5;" width="104" height="48" x="366" y="62"/>
<text x="418" y="77" font-family="sans-serif" font-size="10px" text-anchor="middle">J6</text><text x="418" y="87" font-family="sans-serif" font-size="10px" text-anchor="middle">152</text><text x="418" y="97" font-family="sans-serif" font-size="10px" text-anchor="middle">205</text>
<rect style="fill:rgb(117,156,15);fill-opacity:0.5;" width="140" height="48" x="472" y="212"/>
<text x="542" y="227" font-family="sans-serif" font-size="10px" text-anchor="middle">J6</text><text x="542" y="237" font-family="sans-serif" font-size="10px" text-anchor="middle">205</text><text x="542" y="247" font-family="sans-serif" font-size="10px" text-anchor="middle">276</text>
<rect style="fill:rgb(117,156,15);fill-opacity:0.5;" width="72" height="48" x="614" y="112"/>
<text x="650" y="127" font-family="sans-serif" font-size="10px" text-anchor="middle">J6</text><text x="650" y="137" font-family="sans-serif" font-size="10px" text-anchor="middle">276</text><text x="650" y="147" font-family="sans-serif" font-size="10px" text-anchor="middle">313</text>
<rect style="fill:rgb(117,156,15);fill-opacity:0.5;" width="56" height="48" x="688" y="262"/>
<text x="716" y="277" font-family="sans-serif" font-size="10px" text-anchor="middle">J6</text><text x="716" y="287" font-family="sans-serif" font-size="10px" text-anchor="middle">313</text><text x="716" y="297" font-family="sans-serif" font-size="10px" text-anchor="middle">342</text>
<rect style="fill:rgb(117,156,15);fill-opacity:0.5;" width="22" height="48" x="746" y="162"/>
<text x="757" y="177" font-family="sans-serif" font-size="10px" text-anchor="middle">J6</text><text x="757" y="187" font-family="sans-serif" font-size="10px" text-anchor="middle">342</text><text x="757" y="197" font-family="sans-serif" font-size="10px" text-anchor="middle">354</text>
<rect style="fill:rgb(241,98,202);fill-opacity:0.5;" width="22" height="48" x="118" y="262"/>
<text x="129" y="277" font-family="sans-serif" font-size="10px" text-anchor="middle">J7</text><text x="129" y="287" font-family="sans-serif" font-size="10px" text-anchor="middle">28</text><text x="129" y="297" font-family="sans-serif" font-size="10px" text-anchor="middle">40</text>
<rect style="fill:rgb(241,98,202);fill-opacity:0.5;" width="172" height="48" x="770" y="162"/>
<text x="856" y="177" font-family="sans-serif" font-size="10px" text-anchor="middle">J7</text><text x="856" y="187" font-family="sans-serif" font-size="10px" text-anchor="middle">354</text><text x="856" y="197" font-family="sans-serif" font-size="10px" text-anchor="middle">441</text>
<rect style="fill:rgb(241,98,202);fill-opacity:0.5;" width="64" height="48" x="944" y="212"/>
<text x="976" y="227" font-family="sans-serif" font-size="10px" text-anchor="middle">J7</text><text x="976" y="237" font-family="sans-serif" font-size="10px" text-anchor="middle">441</text><text x="976" y="247" font-family="sans-serif" font-size="10px" text-anchor="middle">474</text>
<rect style="fill:rgb(241,98,202);fill-opacity:0.5;" width="108" height="48" x="1010" y="112"/>
<text x="1064" y="127" font-family="sans-serif" font-size="10px" text-anchor="middle">J7</text><text x="1064" y="137" font-family="sans-serif" font-size="10px" text-anchor="middle">474</text><text x="1064" y="147" font-family="sans-serif" font-size="10px" text-anchor="middle">529</text>
<rect style="fill:rgb(241,98,202);fill-opacity:0.5;" width="74" height="48" x="1172" y="62"/>
<text x="1209" y="77" font-family="sans-serif" font-size="10px" text-anchor="middle">J7</text><text x="1209" y="87" font-family="sans-serif" font-size="10px" text-anchor="middle">555</text><text x="1209" y="97" font-family="sans-serif" font-size="10px" text-anchor="middle">593</text>
<rect style="fill:rgb(44,47,26);fill-opacity:0.5;" width="96" height="48" x="62" y="162"/>
<text x="110" y="177" font-family="sans-serif" font-size="10px" text-anchor="middle">J8</text><text x="110" y="187" font-family="sans-serif" font-size="10px" text-anchor="middle">0</text><text x="110" y="197" font-family="sans-serif" font-size="10px" text-anchor="middle">49</text>
<rect style="fill:rgb(44,47,26);fill-opacity:0.5;" width="164" height="48" x="648" y="212"/>
<text x="730" y="227" font-family="sans-serif" font-size="10px" text-anchor="middle">J8</text><text x="730" y="237" font-family="sans-serif" font-size="10px" text-anchor="middle">293</text><text x="730" y="247" font-family="sans-serif" font-size="10px" text-anchor="middle">376</text>
<rect style="fill:rgb(44,47,26);fill-opacity:0.5;" width="78" height="48" x="844" y="112"/>
<text x="883" y="127" font-family="sans-serif" font-size="10px" text-anchor="middle">J8</text><text x="883" y="137" font-family="sans-serif" font-size="10px" text-anchor="middle">391</text><text x="883" y="147" font-family="sans-serif" font-size="10px" text-anchor="middle">431</text>
<rect style="fill:rgb(44,47,26);fill-opacity:0.5;" width="94" height="48" x="1076" y="62"/>
<text x="1123" y="77" font-family="sans-serif" font-size="10px" text-anchor="middle">J8</text><text x="1123" y="87" font-family="sans-serif" font-size="10px" text-anchor="middle">507</text><text x="1123" y="97" font-family="sans-serif" font-size="10px" text-anchor="middle">555</text>
<rect style="fill:rgb(44,47,26);fill-opacity:0.5;" width="12" height="48" x="1172" y="262"/>
<text x="1178" y="277" font-family="sans-serif" font-size="10px" text-anchor="middle">J8</text><text x="1178" y="287" font-family="sans-serif" font-size="10px" text-anchor="middle">555</text><text x="1178" y="297" font-family="sans-serif" font-size="10px" text-anchor="middle">562</text>
<rect style="fill:rgb(42,223,105);fill-opacity:0.5;" width="128" height="48" x="458" y="162"/>
<text x="522" y="177" font-family="sans-serif" font-size="10px" text-anchor="middle">J9</text><text x="522" y="187" font-family="sans-serif" font-size="10px" text-anchor="middle">198</text><text x="522" y="197" font-family="sans-serif" font-size="10px" text-anchor="middle">263</text>
<rect style="fill:rgb(42,223,105);fill-opacity:0.5;" width="32" height="48" x="614" y="212"/>
<text x="630" y="227" font-family="sans-serif" font-size="10px" text-anchor="middle">J9</text><text x="630" y="237" font-family="sans-serif" font-size="10px" text-anchor="middle">276</text><text x="630" y="247" font-family="sans-serif" font-size="10px" text-anchor="middle">293</text>
<rect style="fill:rgb(42,223,105);fill-opacity:0.5;" width="178" height="48" x="896" y="62"/>
<text x="985" y="77" font-family="sans-serif" font-size="10px" text-anchor="middle">J9</text><text x="985" y="87" font-family="sans-serif" font-size="10px" text-anchor="middle">417</text><text x="985" y="97" font-family="sans-serif" font-size="10px" text-anchor="middle">507</text>
<rect style="fill:rgb(42,223,105);fill-opacity:0.5;" width="52" height="48" x="1076" y="262"/>
<text x="1102" y="277" font-family="sans-serif" font-size="10px" text-anchor="middle">J9</text><text x="1102" y="287" font-family="sans-serif" font-size="10px" text-anchor="middle">507</text><text x="1102" y="297" font-family="sans-serif" font-size="10px" text-anchor="middle">534</text>
<rect style="fill:rgb(42,223,105);fill-opacity:0.5;" width="44" height="48" x="1130" y="112"/>
<text x="1152" y="127" font-family="sans-serif" font-size="10px" text-anchor="middle">J9</text><text x="1152" y="137" font-family="sans-serif" font-size="10px" text-anchor="middle">534</text><text x="1152" y="147" font-family="sans-serif" font-size="10px" text-anchor="middle">557</text>
<line x1="60" y1="40" x2="60" y2="312" stroke="dimgrey" />
<line x1="60" y1="40" x2="70" y2="50" stroke="dimgrey" />
<text x="35" y="90" font-family="sans-serif" font-size="10px" text-anchor="middle">M.1</text>
<text x="35" y="140" font-family="sans-serif" font-size="10px" text-anchor="middle">M.2</text>
<text x="35" y="190" font-family="sans-serif" font-size="10px" text-anchor="middle">M.3</text>
<text x="35" y="240" font-family="sans-serif" font-size="10px" text-anchor="middle">M.4</text>
<text x="35" y="290" font-family="sans-serif" font-size="10px" text-anchor="middle">M.5</text>
<line x1="60" y1="312" x2="1266" y2="312" stroke="dimgrey" />
<line x1="1256" y1="302" x2="1266" y2="312" stroke="dimgrey" />
<line x1="1246" y1="314" x2="1246" y2="322" stroke="dimgrey" />
<text x="70" y="35" font-family="sans-serif" font-size="20px" text-anchor="middle" fill="dimgrey">Machines</text>
<text x="1286" y="312" font-family="sans-serif" font-size="20px" text-anchor="middle" fill="dimgrey">Time</text>
<text x="665" y="342" font-family="sans-serif" font-size="30px" text-anchor="middle" fill="dimgrey">Diagramme de Gantt du problème: la05.txt - makespan: 593</text>
</svg>
