<?xml version="1.0" encoding="UTF-8" standalone="no"?>
 <svg xmlns="http://www.w3.org/2000/svg" version="1.1" width="1997" height="350">
<title> Diagramme de Gantt du Probleme: la06.txt</title>
<desc> Cette figure represente le planning des operations du probleme traite.</desc>
<rect style="fill:rgb(62,139,185);fill-opacity:0.5;" width="40" height="48" x="62" y="112"/>
<text x="82" y="127" font-family="sans-serif" font-size="10px" text-anchor="middle">J0</text><text x="82" y="137" font-family="sans-serif" font-size="10px" text-anchor="middle">0</text><text x="82" y="147" font-family="sans-serif" font-size="10px" text-anchor="middle">21</text>
<rect style="fill:rgb(62,139,185);fill-opacity:0.5;" width="66" height="48" x="124" y="162"/>
<text x="157" y="177" font-family="sans-serif" font-size="10px" text-anchor="middle">J0</text><text x="157" y="187" font-family="sans-serif" font-size="10px" text-anchor="middle">31</text><text x="157" y="197" font-family="sans-serif" font-size="10px" text-anchor="middle">65</text>
<rect style="fill:rgb(62,139,185);fill-opacity:0.5;" width="188" height="48" x="506" y="262"/>
<text x="600" y="277" font-family="sans-serif" font-size="10px" text-anchor="middle">J0</text><text x="600" y="287" font-family="sans-serif" font-size="10px" text-anchor="middle">222</text><text x="600" y="297" font-family="sans-serif" font-size="10px" text-anchor="middle">317</text>
<rect style="fill:rgb(62,139,185);fill-opacity:0.5;" width="104" height="48" x="750" y="62"/>
<text x="802" y="77" font-family="sans-serif" font-size="10px" text-anchor="middle">J0</text><text x="802" y="87" font-family="sans-serif" font-size="10px" text-anchor="middle">344</text><text x="802" y="97" font-family="sans-serif" font-size="10px" text-anchor="middle">397</text>
<rect style="fill:rgb(62,139,185);fill-opacity:0.5;" width="108" height="48" x="856" y="212"/>
<text x="910" y="227" font-family="sans-serif" font-size="10px" text-anchor="middle">J0</text><text x="910" y="237" font-family="sans-serif" font-size="10px" text-anchor="middle">397</text><text x="910" y="247" font-family="sans-serif" font-size="10px" text-anchor="middle">452</text>
<rect style="fill:rgb(238,172,238);fill-opacity:0.5;" width="102" height="48" x="370" y="212"/>
<text x="421" y="227" font-family="sans-serif" font-size="10px" text-anchor="middle">J1</text><text x="421" y="237" font-family="sans-serif" font-size="10px" text-anchor="middle">154</text><text x="421" y="247" font-family="sans-serif" font-size="10px" text-anchor="middle">206</text>
<rect style="fill:rgb(238,172,238);fill-opacity:0.5;" width="30" height="48" x="474" y="262"/>
<text x="489" y="277" font-family="sans-serif" font-size="10px" text-anchor="middle">J1</text><text x="489" y="287" font-family="sans-serif" font-size="10px" text-anchor="middle">206</text><text x="489" y="297" font-family="sans-serif" font-size="10px" text-anchor="middle">222</text>
<rect style="fill:rgb(238,172,238);fill-opacity:0.5;" width="140" height="48" x="506" y="112"/>
<text x="576" y="127" font-family="sans-serif" font-size="10px" text-anchor="middle">J1</text><text x="576" y="137" font-family="sans-serif" font-size="10px" text-anchor="middle">222</text><text x="576" y="147" font-family="sans-serif" font-size="10px" text-anchor="middle">293</text>
<rect style="fill:rgb(238,172,238);fill-opacity:0.5;" width="50" height="48" x="648" y="162"/>
<text x="673" y="177" font-family="sans-serif" font-size="10px" text-anchor="middle">J1</text><text x="673" y="187" font-family="sans-serif" font-size="10px" text-anchor="middle">293</text><text x="673" y="197" font-family="sans-serif" font-size="10px" text-anchor="middle">319</text>
<rect style="fill:rgb(238,172,238);fill-opacity:0.5;" width="40" height="48" x="856" y="62"/>
<text x="876" y="77" font-family="sans-serif" font-size="10px" text-anchor="middle">J1</text><text x="876" y="87" font-family="sans-serif" font-size="10px" text-anchor="middle">397</text><text x="876" y="97" font-family="sans-serif" font-size="10px" text-anchor="middle">418</text>
<rect style="fill:rgb(47,232,102);fill-opacity:0.5;" width="60" height="48" x="62" y="162"/>
<text x="92" y="177" font-family="sans-serif" font-size="10px" text-anchor="middle">J2</text><text x="92" y="187" font-family="sans-serif" font-size="10px" text-anchor="middle">0</text><text x="92" y="197" font-family="sans-serif" font-size="10px" text-anchor="middle">31</text>
<rect style="fill:rgb(47,232,102);fill-opacity:0.5;" width="22" height="48" x="184" y="62"/>
<text x="195" y="77" font-family="sans-serif" font-size="10px" text-anchor="middle">J2</text><text x="195" y="87" font-family="sans-serif" font-size="10px" text-anchor="middle">61</text><text x="195" y="97" font-family="sans-serif" font-size="10px" text-anchor="middle">73</text>
<rect style="fill:rgb(47,232,102);fill-opacity:0.5;" width="82" height="48" x="208" y="112"/>
<text x="249" y="127" font-family="sans-serif" font-size="10px" text-anchor="middle">J2</text><text x="249" y="137" font-family="sans-serif" font-size="10px" text-anchor="middle">73</text><text x="249" y="147" font-family="sans-serif" font-size="10px" text-anchor="middle">115</text>
<rect style="fill:rgb(47,232,102);fill-opacity:0.5;" width="76" height="48" x="292" y="212"/>
<text x="330" y="227" font-family="sans-serif" font-size="10px" text-anchor="middle">J2</text><text x="330" y="237" font-family="sans-serif" font-size="10px" text-anchor="middle">115</text><text x="330" y="247" font-family="sans-serif" font-size="10px" text-anchor="middle">154</text>
<rect style="fill:rgb(47,232,102);fill-opacity:0.5;" width="194" height="48" x="850" y="262"/>
<text x="947" y="277" font-family="sans-serif" font-size="10px" text-anchor="middle">J2</text><text x="947" y="287" font-family="sans-serif" font-size="10px" text-anchor="middle">394</text><text x="947" y="297" font-family="sans-serif" font-size="10px" text-anchor="middle">492</text>
<rect style="fill:rgb(25,19,248);fill-opacity:0.5;" width="152" height="48" x="62" y="212"/>
<text x="138" y="227" font-family="sans-serif" font-size="10px" text-anchor="middle">J3</text><text x="138" y="237" font-family="sans-serif" font-size="10px" text-anchor="middle">0</text><text x="138" y="247" font-family="sans-serif" font-size="10px" text-anchor="middle">77</text>
<rect style="fill:rgb(25,19,248);fill-opacity:0.5;" width="152" height="48" x="774" y="112"/>
<text x="850" y="127" font-family="sans-serif" font-size="10px" text-anchor="middle">J3</text><text x="850" y="137" font-family="sans-serif" font-size="10px" text-anchor="middle">356</text><text x="850" y="147" font-family="sans-serif" font-size="10px" text-anchor="middle">433</text>
<rect style="fill:rgb(25,19,248);fill-opacity:0.5;" width="156" height="48" x="1280" y="262"/>
<text x="1358" y="277" font-family="sans-serif" font-size="10px" text-anchor="middle">J3</text><text x="1358" y="287" font-family="sans-serif" font-size="10px" text-anchor="middle">609</text><text x="1358" y="297" font-family="sans-serif" font-size="10px" text-anchor="middle">688</text>
<rect style="fill:rgb(25,19,248);fill-opacity:0.5;" width="108" height="48" x="1448" y="62"/>
<text x="1502" y="77" font-family="sans-serif" font-size="10px" text-anchor="middle">J3</text><text x="1502" y="87" font-family="sans-serif" font-size="10px" text-anchor="middle">693</text><text x="1502" y="97" font-family="sans-serif" font-size="10px" text-anchor="middle">748</text>
<rect style="fill:rgb(25,19,248);fill-opacity:0.5;" width="130" height="48" x="1558" y="162"/>
<text x="1623" y="177" font-family="sans-serif" font-size="10px" text-anchor="middle">J3</text><text x="1623" y="187" font-family="sans-serif" font-size="10px" text-anchor="middle">748</text><text x="1623" y="197" font-family="sans-serif" font-size="10px" text-anchor="middle">814</text>
<rect style="fill:rgb(142,6,56);fill-opacity:0.5;" width="72" height="48" x="148" y="262"/>
<text x="184" y="277" font-family="sans-serif" font-size="10px" text-anchor="middle">J4</text><text x="184" y="287" font-family="sans-serif" font-size="10px" text-anchor="middle">43</text><text x="184" y="297" font-family="sans-serif" font-size="10px" text-anchor="middle">80</text>
<rect style="fill:rgb(142,6,56);fill-opacity:0.5;" width="66" height="48" x="222" y="212"/>
<text x="255" y="227" font-family="sans-serif" font-size="10px" text-anchor="middle">J4</text><text x="255" y="237" font-family="sans-serif" font-size="10px" text-anchor="middle">80</text><text x="255" y="247" font-family="sans-serif" font-size="10px" text-anchor="middle">114</text>
<rect style="fill:rgb(142,6,56);fill-opacity:0.5;" width="126" height="48" x="776" y="162"/>
<text x="839" y="177" font-family="sans-serif" font-size="10px" text-anchor="middle">J4</text><text x="839" y="187" font-family="sans-serif" font-size="10px" text-anchor="middle">357</text><text x="839" y="197" font-family="sans-serif" font-size="10px" text-anchor="middle">421</text>
<rect style="fill:rgb(142,6,56);fill-opacity:0.5;" width="36" height="48" x="928" y="112"/>
<text x="946" y="127" font-family="sans-serif" font-size="10px" text-anchor="middle">J4</text><text x="946" y="137" font-family="sans-serif" font-size="10px" text-anchor="middle">433</text><text x="946" y="147" font-family="sans-serif" font-size="10px" text-anchor="middle">452</text>
<rect style="fill:rgb(142,6,56);fill-opacity:0.5;" width="164" height="48" x="1748" y="62"/>
<text x="1830" y="77" font-family="sans-serif" font-size="10px" text-anchor="middle">J4</text><text x="1830" y="87" font-family="sans-serif" font-size="10px" text-anchor="middle">843</text><text x="1830" y="97" font-family="sans-serif" font-size="10px" text-anchor="middle">926</text>
<rect style="fill:rgb(65,243,73);fill-opacity:0.5;" width="84" height="48" x="192" y="162"/>
<text x="234" y="177" font-family="sans-serif" font-size="10px" text-anchor="middle">J5</text><text x="234" y="187" font-family="sans-serif" font-size="10px" text-anchor="middle">65</text><text x="234" y="197" font-family="sans-serif" font-size="10px" text-anchor="middle">108</text>
<rect style="fill:rgb(65,243,73);fill-opacity:0.5;" width="106" height="48" x="666" y="112"/>
<text x="719" y="127" font-family="sans-serif" font-size="10px" text-anchor="middle">J5</text><text x="719" y="137" font-family="sans-serif" font-size="10px" text-anchor="middle">302</text><text x="719" y="147" font-family="sans-serif" font-size="10px" text-anchor="middle">356</text>
<rect style="fill:rgb(65,243,73);fill-opacity:0.5;" width="182" height="48" x="898" y="62"/>
<text x="989" y="77" font-family="sans-serif" font-size="10px" text-anchor="middle">J5</text><text x="989" y="87" font-family="sans-serif" font-size="10px" text-anchor="middle">418</text><text x="989" y="97" font-family="sans-serif" font-size="10px" text-anchor="middle">510</text>
<rect style="fill:rgb(65,243,73);fill-opacity:0.5;" width="122" height="48" x="1488" y="212"/>
<text x="1549" y="227" font-family="sans-serif" font-size="10px" text-anchor="middle">J5</text><text x="1549" y="237" font-family="sans-serif" font-size="10px" text-anchor="middle">713</text><text x="1549" y="247" font-family="sans-serif" font-size="10px" text-anchor="middle">775</text>
<rect style="fill:rgb(65,243,73);fill-opacity:0.5;" width="156" height="48" x="1734" y="262"/>
<text x="1812" y="277" font-family="sans-serif" font-size="10px" text-anchor="middle">J5</text><text x="1812" y="287" font-family="sans-serif" font-size="10px" text-anchor="middle">836</text><text x="1812" y="297" font-family="sans-serif" font-size="10px" text-anchor="middle">915</text>
<rect style="fill:rgb(117,156,15);fill-opacity:0.5;" width="184" height="48" x="1082" y="62"/>
<text x="1174" y="77" font-family="sans-serif" font-size="10px" text-anchor="middle">J6</text><text x="1174" y="87" font-family="sans-serif" font-size="10px" text-anchor="middle">510</text><text x="1174" y="97" font-family="sans-serif" font-size="10px" text-anchor="middle">603</text>
<rect style="fill:rgb(117,156,15);fill-opacity:0.5;" width="136" height="48" x="1268" y="212"/>
<text x="1336" y="227" font-family="sans-serif" font-size="10px" text-anchor="middle">J6</text><text x="1336" y="237" font-family="sans-serif" font-size="10px" text-anchor="middle">603</text><text x="1336" y="247" font-family="sans-serif" font-size="10px" text-anchor="middle">672</text>
<rect style="fill:rgb(117,156,15);fill-opacity:0.5;" width="172" height="48" x="1406" y="112"/>
<text x="1492" y="127" font-family="sans-serif" font-size="10px" text-anchor="middle">J6</text><text x="1492" y="137" font-family="sans-serif" font-size="10px" text-anchor="middle">672</text><text x="1492" y="147" font-family="sans-serif" font-size="10px" text-anchor="middle">759</text>
<rect style="fill:rgb(117,156,15);fill-opacity:0.5;" width="152" height="48" x="1580" y="262"/>
<text x="1656" y="277" font-family="sans-serif" font-size="10px" text-anchor="middle">J6</text><text x="1656" y="287" font-family="sans-serif" font-size="10px" text-anchor="middle">759</text><text x="1656" y="297" font-family="sans-serif" font-size="10px" text-anchor="middle">836</text>
<rect style="fill:rgb(117,156,15);fill-opacity:0.5;" width="172" height="48" x="1734" y="162"/>
<text x="1820" y="177" font-family="sans-serif" font-size="10px" text-anchor="middle">J6</text><text x="1820" y="187" font-family="sans-serif" font-size="10px" text-anchor="middle">836</text><text x="1820" y="197" font-family="sans-serif" font-size="10px" text-anchor="middle">923</text>
<rect style="fill:rgb(241,98,202);fill-opacity:0.5;" width="118" height="48" x="208" y="62"/>
<text x="267" y="77" font-family="sans-serif" font-size="10px" text-anchor="middle">J7</text><text x="267" y="87" font-family="sans-serif" font-size="10px" text-anchor="middle">73</text><text x="267" y="97" font-family="sans-serif" font-size="10px" text-anchor="middle">133</text>
<rect style="fill:rgb(241,98,202);fill-opacity:0.5;" width="80" height="48" x="396" y="112"/>
<text x="436" y="127" font-family="sans-serif" font-size="10px" text-anchor="middle">J7</text><text x="436" y="137" font-family="sans-serif" font-size="10px" text-anchor="middle">167</text><text x="436" y="147" font-family="sans-serif" font-size="10px" text-anchor="middle">208</text>
<rect style="fill:rgb(241,98,202);fill-opacity:0.5;" width="74" height="48" x="700" y="162"/>
<text x="737" y="177" font-family="sans-serif" font-size="10px" text-anchor="middle">J7</text><text x="737" y="187" font-family="sans-serif" font-size="10px" text-anchor="middle">319</text><text x="737" y="197" font-family="sans-serif" font-size="10px" text-anchor="middle">357</text>
<rect style="fill:rgb(241,98,202);fill-opacity:0.5;" width="164" height="48" x="1046" y="262"/>
<text x="1128" y="277" font-family="sans-serif" font-size="10px" text-anchor="middle">J7</text><text x="1128" y="287" font-family="sans-serif" font-size="10px" text-anchor="middle">492</text><text x="1128" y="297" font-family="sans-serif" font-size="10px" text-anchor="middle">575</text>
<rect style="fill:rgb(241,98,202);fill-opacity:0.5;" width="46" height="48" x="1212" y="212"/>
<text x="1235" y="227" font-family="sans-serif" font-size="10px" text-anchor="middle">J7</text><text x="1235" y="237" font-family="sans-serif" font-size="10px" text-anchor="middle">575</text><text x="1235" y="247" font-family="sans-serif" font-size="10px" text-anchor="middle">599</text>
<rect style="fill:rgb(44,47,26);fill-opacity:0.5;" width="194" height="48" x="904" y="162"/>
<text x="1001" y="177" font-family="sans-serif" font-size="10px" text-anchor="middle">J8</text><text x="1001" y="187" font-family="sans-serif" font-size="10px" text-anchor="middle">421</text><text x="1001" y="197" font-family="sans-serif" font-size="10px" text-anchor="middle">519</text>
<rect style="fill:rgb(44,47,26);fill-opacity:0.5;" width="32" height="48" x="1124" y="212"/>
<text x="1140" y="227" font-family="sans-serif" font-size="10px" text-anchor="middle">J8</text><text x="1140" y="237" font-family="sans-serif" font-size="10px" text-anchor="middle">531</text><text x="1140" y="247" font-family="sans-serif" font-size="10px" text-anchor="middle">548</text>
<rect style="fill:rgb(44,47,26);fill-opacity:0.5;" width="48" height="48" x="1212" y="262"/>
<text x="1236" y="277" font-family="sans-serif" font-size="10px" text-anchor="middle">J8</text><text x="1236" y="287" font-family="sans-serif" font-size="10px" text-anchor="middle">575</text><text x="1236" y="297" font-family="sans-serif" font-size="10px" text-anchor="middle">600</text>
<rect style="fill:rgb(44,47,26);fill-opacity:0.5;" width="86" height="48" x="1268" y="62"/>
<text x="1311" y="77" font-family="sans-serif" font-size="10px" text-anchor="middle">J8</text><text x="1311" y="87" font-family="sans-serif" font-size="10px" text-anchor="middle">603</text><text x="1311" y="97" font-family="sans-serif" font-size="10px" text-anchor="middle">647</text>
<rect style="fill:rgb(44,47,26);fill-opacity:0.5;" width="96" height="48" x="1580" y="112"/>
<text x="1628" y="127" font-family="sans-serif" font-size="10px" text-anchor="middle">J8</text><text x="1628" y="137" font-family="sans-serif" font-size="10px" text-anchor="middle">759</text><text x="1628" y="147" font-family="sans-serif" font-size="10px" text-anchor="middle">808</text>
<rect style="fill:rgb(42,223,105);fill-opacity:0.5;" width="190" height="48" x="328" y="62"/>
<text x="423" y="77" font-family="sans-serif" font-size="10px" text-anchor="middle">J9</text><text x="423" y="87" font-family="sans-serif" font-size="10px" text-anchor="middle">133</text><text x="423" y="97" font-family="sans-serif" font-size="10px" text-anchor="middle">229</text>
<rect style="fill:rgb(42,223,105);fill-opacity:0.5;" width="152" height="48" x="696" y="262"/>
<text x="772" y="277" font-family="sans-serif" font-size="10px" text-anchor="middle">J9</text><text x="772" y="287" font-family="sans-serif" font-size="10px" text-anchor="middle">317</text><text x="772" y="297" font-family="sans-serif" font-size="10px" text-anchor="middle">394</text>
<rect style="fill:rgb(42,223,105);fill-opacity:0.5;" width="156" height="48" x="966" y="212"/>
<text x="1044" y="227" font-family="sans-serif" font-size="10px" text-anchor="middle">J9</text><text x="1044" y="237" font-family="sans-serif" font-size="10px" text-anchor="middle">452</text><text x="1044" y="247" font-family="sans-serif" font-size="10px" text-anchor="middle">531</text>
<rect style="fill:rgb(42,223,105);fill-opacity:0.5;" width="148" height="48" x="1238" y="112"/>
<text x="1312" y="127" font-family="sans-serif" font-size="10px" text-anchor="middle">J9</text><text x="1312" y="137" font-family="sans-serif" font-size="10px" text-anchor="middle">588</text><text x="1312" y="147" font-family="sans-serif" font-size="10px" text-anchor="middle">663</text>
<rect style="fill:rgb(42,223,105);fill-opacity:0.5;" width="84" height="48" x="1388" y="162"/>
<text x="1430" y="177" font-family="sans-serif" font-size="10px" text-anchor="middle">J9</text><text x="1430" y="187" font-family="sans-serif" font-size="10px" text-anchor="middle">663</text><text x="1430" y="197" font-family="sans-serif" font-size="10px" text-anchor="middle">706</text>
<rect style="fill:rgb(184,151,139);fill-opacity:0.5;" width="54" height="48" x="222" y="262"/>
<text x="249" y="277" font-family="sans-serif" font-size="10px" text-anchor="middle">J10</text><text x="249" y="287" font-family="sans-serif" font-size="10px" text-anchor="middle">80</text><text x="249" y="297" font-family="sans-serif" font-size="10px" text-anchor="middle">108</text>
<rect style="fill:rgb(184,151,139);fill-opacity:0.5;" width="68" height="48" x="278" y="162"/>
<text x="312" y="177" font-family="sans-serif" font-size="10px" text-anchor="middle">J10</text><text x="312" y="187" font-family="sans-serif" font-size="10px" text-anchor="middle">108</text><text x="312" y="197" font-family="sans-serif" font-size="10px" text-anchor="middle">143</text>
<rect style="fill:rgb(184,151,139);fill-opacity:0.5;" width="188" height="48" x="1558" y="62"/>
<text x="1652" y="77" font-family="sans-serif" font-size="10px" text-anchor="middle">J10</text><text x="1652" y="87" font-family="sans-serif" font-size="10px" text-anchor="middle">748</text><text x="1652" y="97" font-family="sans-serif" font-size="10px" text-anchor="middle">843</text>
<rect style="fill:rgb(184,151,139);fill-opacity:0.5;" width="150" height="48" x="1748" y="212"/>
<text x="1823" y="227" font-family="sans-serif" font-size="10px" text-anchor="middle">J10</text><text x="1823" y="237" font-family="sans-serif" font-size="10px" text-anchor="middle">843</text><text x="1823" y="247" font-family="sans-serif" font-size="10px" text-anchor="middle">919</text>
<rect style="fill:rgb(184,151,139);fill-opacity:0.5;" width="12" height="48" x="1900" y="112"/>
<text x="1906" y="127" font-family="sans-serif" font-size="10px" text-anchor="middle">J10</text><text x="1906" y="137" font-family="sans-serif" font-size="10px" text-anchor="middle">919</text><text x="1906" y="147" font-family="sans-serif" font-size="10px" text-anchor="middle">926</text>
<rect style="fill:rgb(179,7,79);fill-opacity:0.5;" width="120" height="48" x="62" y="62"/>
<text x="122" y="77" font-family="sans-serif" font-size="10px" text-anchor="middle">J11</text><text x="122" y="87" font-family="sans-serif" font-size="10px" text-anchor="middle">0</text><text x="122" y="97" font-family="sans-serif" font-size="10px" text-anchor="middle">61</text>
<rect style="fill:rgb(179,7,79);fill-opacity:0.5;" width="18" height="48" x="278" y="262"/>
<text x="287" y="277" font-family="sans-serif" font-size="10px" text-anchor="middle">J11</text><text x="287" y="287" font-family="sans-serif" font-size="10px" text-anchor="middle">108</text><text x="287" y="297" font-family="sans-serif" font-size="10px" text-anchor="middle">118</text>
<rect style="fill:rgb(179,7,79);fill-opacity:0.5;" width="188" height="48" x="348" y="162"/>
<text x="442" y="177" font-family="sans-serif" font-size="10px" text-anchor="middle">J11</text><text x="442" y="187" font-family="sans-serif" font-size="10px" text-anchor="middle">143</text><text x="442" y="197" font-family="sans-serif" font-size="10px" text-anchor="middle">238</text>
<rect style="fill:rgb(179,7,79);fill-opacity:0.5;" width="16" height="48" x="648" y="112"/>
<text x="656" y="127" font-family="sans-serif" font-size="10px" text-anchor="middle">J11</text><text x="656" y="137" font-family="sans-serif" font-size="10px" text-anchor="middle">293</text><text x="656" y="147" font-family="sans-serif" font-size="10px" text-anchor="middle">302</text>
<rect style="fill:rgb(179,7,79);fill-opacity:0.5;" width="68" height="48" x="666" y="212"/>
<text x="700" y="227" font-family="sans-serif" font-size="10px" text-anchor="middle">J11</text><text x="700" y="237" font-family="sans-serif" font-size="10px" text-anchor="middle">302</text><text x="700" y="247" font-family="sans-serif" font-size="10px" text-anchor="middle">337</text>
<rect style="fill:rgb(191,162,33);fill-opacity:0.5;" width="116" height="48" x="298" y="262"/>
<text x="356" y="277" font-family="sans-serif" font-size="10px" text-anchor="middle">J12</text><text x="356" y="287" font-family="sans-serif" font-size="10px" text-anchor="middle">118</text><text x="356" y="297" font-family="sans-serif" font-size="10px" text-anchor="middle">177</text>
<rect style="fill:rgb(191,162,33);fill-opacity:0.5;" width="30" height="48" x="474" y="212"/>
<text x="489" y="227" font-family="sans-serif" font-size="10px" text-anchor="middle">J12</text><text x="489" y="237" font-family="sans-serif" font-size="10px" text-anchor="middle">206</text><text x="489" y="247" font-family="sans-serif" font-size="10px" text-anchor="middle">222</text>
<rect style="fill:rgb(191,162,33);fill-opacity:0.5;" width="180" height="48" x="1056" y="112"/>
<text x="1146" y="127" font-family="sans-serif" font-size="10px" text-anchor="middle">J12</text><text x="1146" y="137" font-family="sans-serif" font-size="10px" text-anchor="middle">497</text><text x="1146" y="147" font-family="sans-serif" font-size="10px" text-anchor="middle">588</text>
<rect style="fill:rgb(191,162,33);fill-opacity:0.5;" width="116" height="48" x="1238" y="162"/>
<text x="1296" y="177" font-family="sans-serif" font-size="10px" text-anchor="middle">J12</text><text x="1296" y="187" font-family="sans-serif" font-size="10px" text-anchor="middle">588</text><text x="1296" y="197" font-family="sans-serif" font-size="10px" text-anchor="middle">647</text>
<rect style="fill:rgb(191,162,33);fill-opacity:0.5;" width="90" height="48" x="1356" y="62"/>
<text x="1401" y="77" font-family="sans-serif" font-size="10px" text-anchor="middle">J12</text><text x="1401" y="87" font-family="sans-serif" font-size="10px" text-anchor="middle">647</text><text x="1401" y="97" font-family="sans-serif" font-size="10px" text-anchor="middle">693</text>
<rect style="fill:rgb(240,159,9);fill-opacity:0.5;" width="84" height="48" x="62" y="262"/>
<text x="104" y="277" font-family="sans-serif" font-size="10px" text-anchor="middle">J13</text><text x="104" y="287" font-family="sans-serif" font-size="10px" text-anchor="middle">0</text><text x="104" y="297" font-family="sans-serif" font-size="10px" text-anchor="middle">43</text>
<rect style="fill:rgb(240,159,9);fill-opacity:0.5;" width="102" height="48" x="292" y="112"/>
<text x="343" y="127" font-family="sans-serif" font-size="10px" text-anchor="middle">J13</text><text x="343" y="137" font-family="sans-serif" font-size="10px" text-anchor="middle">115</text><text x="343" y="147" font-family="sans-serif" font-size="10px" text-anchor="middle">167</text>
<rect style="fill:rgb(240,159,9);fill-opacity:0.5;" width="54" height="48" x="520" y="62"/>
<text x="547" y="77" font-family="sans-serif" font-size="10px" text-anchor="middle">J13</text><text x="547" y="87" font-family="sans-serif" font-size="10px" text-anchor="middle">229</text><text x="547" y="97" font-family="sans-serif" font-size="10px" text-anchor="middle">257</text>
<rect style="fill:rgb(240,159,9);fill-opacity:0.5;" width="52" height="48" x="576" y="162"/>
<text x="602" y="177" font-family="sans-serif" font-size="10px" text-anchor="middle">J13</text><text x="602" y="187" font-family="sans-serif" font-size="10px" text-anchor="middle">257</text><text x="602" y="197" font-family="sans-serif" font-size="10px" text-anchor="middle">284</text>
<rect style="fill:rgb(240,159,9);fill-opacity:0.5;" width="98" height="48" x="736" y="212"/>
<text x="785" y="227" font-family="sans-serif" font-size="10px" text-anchor="middle">J13</text><text x="785" y="237" font-family="sans-serif" font-size="10px" text-anchor="middle">337</text><text x="785" y="247" font-family="sans-serif" font-size="10px" text-anchor="middle">387</text>
<rect style="fill:rgb(208,25,126);fill-opacity:0.5;" width="172" height="48" x="576" y="62"/>
<text x="662" y="77" font-family="sans-serif" font-size="10px" text-anchor="middle">J14</text><text x="662" y="87" font-family="sans-serif" font-size="10px" text-anchor="middle">257</text><text x="662" y="97" font-family="sans-serif" font-size="10px" text-anchor="middle">344</text>
<rect style="fill:rgb(208,25,126);fill-opacity:0.5;" width="88" height="48" x="966" y="112"/>
<text x="1010" y="127" font-family="sans-serif" font-size="10px" text-anchor="middle">J14</text><text x="1010" y="137" font-family="sans-serif" font-size="10px" text-anchor="middle">452</text><text x="1010" y="147" font-family="sans-serif" font-size="10px" text-anchor="middle">497</text>
<rect style="fill:rgb(208,25,126);fill-opacity:0.5;" width="76" height="48" x="1100" y="162"/>
<text x="1138" y="177" font-family="sans-serif" font-size="10px" text-anchor="middle">J14</text><text x="1138" y="187" font-family="sans-serif" font-size="10px" text-anchor="middle">519</text><text x="1138" y="197" font-family="sans-serif" font-size="10px" text-anchor="middle">558</text>
<rect style="fill:rgb(208,25,126);fill-opacity:0.5;" width="16" height="48" x="1262" y="262"/>
<text x="1270" y="277" font-family="sans-serif" font-size="10px" text-anchor="middle">J14</text><text x="1270" y="287" font-family="sans-serif" font-size="10px" text-anchor="middle">600</text><text x="1270" y="297" font-family="sans-serif" font-size="10px" text-anchor="middle">609</text>
<rect style="fill:rgb(208,25,126);fill-opacity:0.5;" width="80" height="48" x="1406" y="212"/>
<text x="1446" y="227" font-family="sans-serif" font-size="10px" text-anchor="middle">J14</text><text x="1446" y="237" font-family="sans-serif" font-size="10px" text-anchor="middle">672</text><text x="1446" y="247" font-family="sans-serif" font-size="10px" text-anchor="middle">713</text>
<line x1="60" y1="40" x2="60" y2="312" stroke="dimgrey" />
<line x1="60" y1="40" x2="70" y2="50" stroke="dimgrey" />
<text x="35" y="90" font-family="sans-serif" font-size="10px" text-anchor="middle">M.1</text>
<text x="35" y="140" font-family="sans-serif" font-size="10px" text-anchor="middle">M.2</text>
<text x="35" y="190" font-family="sans-serif" font-size="10px" text-anchor="middle">M.3</text>
<text x="35" y="240" font-family="sans-serif" font-size="10px" text-anchor="middle">M.4</text>
<text x="35" y="290" font-family="sans-serif" font-size="10px" text-anchor="middle">M.5</text>
<line x1="60" y1="312" x2="1932" y2="312" stroke="dimgrey" />
<line x1="1922" y1="302" x2="1932" y2="312" stroke="dimgrey" />
<line x1="1912" y1="314" x2="1912" y2="322" stroke="dimgrey" />
<text x="70" y="35" font-family="sans-serif" font-size="20px" text-anchor="middle" fill="dimgrey">Machines</text>
<text x="1952" y="312" font-family="sans-serif" font-size="20px" text-anchor="middle" fill="dimgrey">Time</text>
<text x="998" y="342" font-family="sans-serif" font-size="30px" text-anchor="middle" fill="dimgrey">Diagramme de Gantt du problème: la06.txt - makespan: 926</text>
</svg>
