<?xml version="1.0" encoding="UTF-8" standalone="no"?>
 <svg xmlns="http://www.w3.org/2000/svg" version="1.1" width="157" height="350">
<title> Diagramme de Gantt du Probleme: la08.txt</title>
<desc> Cette figure represente le planning des operations du probleme traite.</desc>
<rect style="fill:rgb(62,139,185);fill-opacity:0.5;" width="182" height="48" x="1800" y="212"/>
<text x="1891" y="227" font-family="sans-serif" font-size="10px" text-anchor="middle">J0</text><text x="1891" y="237" font-family="sans-serif" font-size="10px" text-anchor="middle">869</text><text x="1891" y="247" font-family="sans-serif" font-size="10px" text-anchor="middle">961</text>
<rect style="fill:rgb(62,139,185);fill-opacity:0.5;" width="186" height="48" x="1978" y="162"/>
<text x="2071" y="177" font-family="sans-serif" font-size="10px" text-anchor="middle">J0</text><text x="2071" y="187" font-family="sans-serif" font-size="10px" text-anchor="middle">958</text><text x="2071" y="197" font-family="sans-serif" font-size="10px" text-anchor="middle">1052</text>
<rect style="fill:rgb(62,139,185);fill-opacity:0.5;" width="22" height="48" x="2156" y="62"/>
<text x="2167" y="77" font-family="sans-serif" font-size="10px" text-anchor="middle">J0</text><text x="2167" y="87" font-family="sans-serif" font-size="10px" text-anchor="middle">1047</text><text x="2167" y="97" font-family="sans-serif" font-size="10px" text-anchor="middle">1059</text>
<rect style="fill:rgb(62,139,185);fill-opacity:0.5;" width="180" height="48" x="-10" y="262"/>
<text x="80" y="277" font-family="sans-serif" font-size="10px" text-anchor="middle">J0</text><text x="80" y="287" font-family="sans-serif" font-size="10px" text-anchor="middle">-36</text><text x="80" y="297" font-family="sans-serif" font-size="10px" text-anchor="middle">55</text>
<rect style="fill:rgb(62,139,185);fill-opacity:0.5;" width="12" height="48" x="196" y="112"/>
<text x="202" y="127" font-family="sans-serif" font-size="10px" text-anchor="middle">J0</text><text x="202" y="137" font-family="sans-serif" font-size="10px" text-anchor="middle">67</text><text x="202" y="147" font-family="sans-serif" font-size="10px" text-anchor="middle">74</text>
<rect style="fill:rgb(238,172,238);fill-opacity:0.5;" width="40" height="48" x="1538" y="162"/>
<text x="1558" y="177" font-family="sans-serif" font-size="10px" text-anchor="middle">J1</text><text x="1558" y="187" font-family="sans-serif" font-size="10px" text-anchor="middle">738</text><text x="1558" y="197" font-family="sans-serif" font-size="10px" text-anchor="middle">759</text>
<rect style="fill:rgb(238,172,238);fill-opacity:0.5;" width="36" height="48" x="1564" y="112"/>
<text x="1582" y="127" font-family="sans-serif" font-size="10px" text-anchor="middle">J1</text><text x="1582" y="137" font-family="sans-serif" font-size="10px" text-anchor="middle">751</text><text x="1582" y="147" font-family="sans-serif" font-size="10px" text-anchor="middle">770</text>
<rect style="fill:rgb(238,172,238);fill-opacity:0.5;" width="172" height="48" x="1680" y="62"/>
<text x="1766" y="77" font-family="sans-serif" font-size="10px" text-anchor="middle">J1</text><text x="1766" y="87" font-family="sans-serif" font-size="10px" text-anchor="middle">809</text><text x="1766" y="97" font-family="sans-serif" font-size="10px" text-anchor="middle">896</text>
<rect style="fill:rgb(238,172,238);fill-opacity:0.5;" width="20" height="48" x="68" y="212"/>
<text x="78" y="227" font-family="sans-serif" font-size="10px" text-anchor="middle">J1</text><text x="78" y="237" font-family="sans-serif" font-size="10px" text-anchor="middle">3</text><text x="78" y="247" font-family="sans-serif" font-size="10px" text-anchor="middle">14</text>
<rect style="fill:rgb(238,172,238);fill-opacity:0.5;" width="130" height="48" x="88" y="262"/>
<text x="153" y="277" font-family="sans-serif" font-size="10px" text-anchor="middle">J1</text><text x="153" y="287" font-family="sans-serif" font-size="10px" text-anchor="middle">13</text><text x="153" y="297" font-family="sans-serif" font-size="10px" text-anchor="middle">79</text>
<rect style="fill:rgb(47,232,102);fill-opacity:0.5;" width="26" height="48" x="1226" y="112"/>
<text x="1239" y="127" font-family="sans-serif" font-size="10px" text-anchor="middle">J2</text><text x="1239" y="137" font-family="sans-serif" font-size="10px" text-anchor="middle">582</text><text x="1239" y="147" font-family="sans-serif" font-size="10px" text-anchor="middle">596</text>
<rect style="fill:rgb(47,232,102);fill-opacity:0.5;" width="24" height="48" x="1316" y="212"/>
<text x="1328" y="227" font-family="sans-serif" font-size="10px" text-anchor="middle">J2</text><text x="1328" y="237" font-family="sans-serif" font-size="10px" text-anchor="middle">627</text><text x="1328" y="247" font-family="sans-serif" font-size="10px" text-anchor="middle">640</text>
<rect style="fill:rgb(47,232,102);fill-opacity:0.5;" width="148" height="48" x="1250" y="62"/>
<text x="1324" y="77" font-family="sans-serif" font-size="10px" text-anchor="middle">J2</text><text x="1324" y="87" font-family="sans-serif" font-size="10px" text-anchor="middle">594</text><text x="1324" y="97" font-family="sans-serif" font-size="10px" text-anchor="middle">669</text>
<rect style="fill:rgb(47,232,102);fill-opacity:0.5;" width="30" height="48" x="1558" y="262"/>
<text x="1573" y="277" font-family="sans-serif" font-size="10px" text-anchor="middle">J2</text><text x="1573" y="287" font-family="sans-serif" font-size="10px" text-anchor="middle">748</text><text x="1573" y="297" font-family="sans-serif" font-size="10px" text-anchor="middle">764</text>
<rect style="fill:rgb(47,232,102);fill-opacity:0.5;" width="38" height="48" x="1682" y="162"/>
<text x="1701" y="177" font-family="sans-serif" font-size="10px" text-anchor="middle">J2</text><text x="1701" y="187" font-family="sans-serif" font-size="10px" text-anchor="middle">810</text><text x="1701" y="197" font-family="sans-serif" font-size="10px" text-anchor="middle">830</text>
<rect style="fill:rgb(25,19,248);fill-opacity:0.5;" width="188" height="48" x="1546" y="162"/>
<text x="1640" y="177" font-family="sans-serif" font-size="10px" text-anchor="middle">J3</text><text x="1640" y="187" font-family="sans-serif" font-size="10px" text-anchor="middle">742</text><text x="1640" y="197" font-family="sans-serif" font-size="10px" text-anchor="middle">837</text>
<rect style="fill:rgb(25,19,248);fill-opacity:0.5;" width="130" height="48" x="1758" y="262"/>
<text x="1823" y="277" font-family="sans-serif" font-size="10px" text-anchor="middle">J3</text><text x="1823" y="287" font-family="sans-serif" font-size="10px" text-anchor="middle">848</text><text x="1823" y="297" font-family="sans-serif" font-size="10px" text-anchor="middle">914</text>
<rect style="fill:rgb(25,19,248);fill-opacity:0.5;" width="12" height="48" x="1908" y="62"/>
<text x="1914" y="77" font-family="sans-serif" font-size="10px" text-anchor="middle">J3</text><text x="1914" y="87" font-family="sans-serif" font-size="10px" text-anchor="middle">923</text><text x="1914" y="97" font-family="sans-serif" font-size="10px" text-anchor="middle">930</text>
<rect style="fill:rgb(25,19,248);fill-opacity:0.5;" width="152" height="48" x="-24" y="112"/>
<text x="52" y="127" font-family="sans-serif" font-size="10px" text-anchor="middle">J3</text><text x="52" y="137" font-family="sans-serif" font-size="10px" text-anchor="middle">-43</text><text x="52" y="147" font-family="sans-serif" font-size="10px" text-anchor="middle">34</text>
<rect style="fill:rgb(25,19,248);fill-opacity:0.5;" width="12" height="48" x="294" y="212"/>
<text x="300" y="227" font-family="sans-serif" font-size="10px" text-anchor="middle">J3</text><text x="300" y="237" font-family="sans-serif" font-size="10px" text-anchor="middle">116</text><text x="300" y="247" font-family="sans-serif" font-size="10px" text-anchor="middle">123</text>
<rect style="fill:rgb(142,6,56);fill-opacity:0.5;" width="66" height="48" x="252" y="162"/>
<text x="285" y="177" font-family="sans-serif" font-size="10px" text-anchor="middle">J4</text><text x="285" y="187" font-family="sans-serif" font-size="10px" text-anchor="middle">95</text><text x="285" y="197" font-family="sans-serif" font-size="10px" text-anchor="middle">129</text>
<rect style="fill:rgb(142,6,56);fill-opacity:0.5;" width="176" height="48" x="246" y="262"/>
<text x="334" y="277" font-family="sans-serif" font-size="10px" text-anchor="middle">J4</text><text x="334" y="287" font-family="sans-serif" font-size="10px" text-anchor="middle">92</text><text x="334" y="297" font-family="sans-serif" font-size="10px" text-anchor="middle">181</text>
<rect style="fill:rgb(142,6,56);fill-opacity:0.5;" width="10" height="48" x="442" y="212"/>
<text x="447" y="227" font-family="sans-serif" font-size="10px" text-anchor="middle">J4</text><text x="447" y="237" font-family="sans-serif" font-size="10px" text-anchor="middle">190</text><text x="447" y="247" font-family="sans-serif" font-size="10px" text-anchor="middle">196</text>
<rect style="fill:rgb(142,6,56);fill-opacity:0.5;" width="88" height="48" x="394" y="112"/>
<text x="438" y="127" font-family="sans-serif" font-size="10px" text-anchor="middle">J4</text><text x="438" y="137" font-family="sans-serif" font-size="10px" text-anchor="middle">166</text><text x="438" y="147" font-family="sans-serif" font-size="10px" text-anchor="middle">211</text>
<rect style="fill:rgb(142,6,56);fill-opacity:0.5;" width="28" height="48" x="880" y="62"/>
<text x="894" y="77" font-family="sans-serif" font-size="10px" text-anchor="middle">J4</text><text x="894" y="87" font-family="sans-serif" font-size="10px" text-anchor="middle">409</text><text x="894" y="97" font-family="sans-serif" font-size="10px" text-anchor="middle">424</text>
<rect style="fill:rgb(65,243,73);fill-opacity:0.5;" width="174" height="48" x="774" y="262"/>
<text x="861" y="277" font-family="sans-serif" font-size="10px" text-anchor="middle">J5</text><text x="861" y="287" font-family="sans-serif" font-size="10px" text-anchor="middle">356</text><text x="861" y="297" font-family="sans-serif" font-size="10px" text-anchor="middle">444</text>
<rect style="fill:rgb(65,243,73);fill-opacity:0.5;" width="152" height="48" x="932" y="212"/>
<text x="1008" y="227" font-family="sans-serif" font-size="10px" text-anchor="middle">J5</text><text x="1008" y="237" font-family="sans-serif" font-size="10px" text-anchor="middle">435</text><text x="1008" y="247" font-family="sans-serif" font-size="10px" text-anchor="middle">512</text>
<rect style="fill:rgb(65,243,73);fill-opacity:0.5;" width="38" height="48" x="1366" y="162"/>
<text x="1385" y="177" font-family="sans-serif" font-size="10px" text-anchor="middle">J5</text><text x="1385" y="187" font-family="sans-serif" font-size="10px" text-anchor="middle">652</text><text x="1385" y="197" font-family="sans-serif" font-size="10px" text-anchor="middle">672</text>
<rect style="fill:rgb(65,243,73);fill-opacity:0.5;" width="104" height="48" x="-26" y="112"/>
<text x="26" y="127" font-family="sans-serif" font-size="10px" text-anchor="middle">J5</text><text x="26" y="137" font-family="sans-serif" font-size="10px" text-anchor="middle">-44</text><text x="26" y="147" font-family="sans-serif" font-size="10px" text-anchor="middle">9</text>
<rect style="fill:rgb(65,243,73);fill-opacity:0.5;" width="150" height="48" x="-18" y="62"/>
<text x="57" y="77" font-family="sans-serif" font-size="10px" text-anchor="middle">J5</text><text x="57" y="87" font-family="sans-serif" font-size="10px" text-anchor="middle">-40</text><text x="57" y="97" font-family="sans-serif" font-size="10px" text-anchor="middle">36</text>
<rect style="fill:rgb(117,156,15);fill-opacity:0.5;" width="16" height="48" x="320" y="262"/>
<text x="328" y="277" font-family="sans-serif" font-size="10px" text-anchor="middle">J6</text><text x="328" y="287" font-family="sans-serif" font-size="10px" text-anchor="middle">129</text><text x="328" y="297" font-family="sans-serif" font-size="10px" text-anchor="middle">138</text>
<rect style="fill:rgb(117,156,15);fill-opacity:0.5;" width="52" height="48" x="678" y="212"/>
<text x="704" y="227" font-family="sans-serif" font-size="10px" text-anchor="middle">J6</text><text x="704" y="237" font-family="sans-serif" font-size="10px" text-anchor="middle">308</text><text x="704" y="247" font-family="sans-serif" font-size="10px" text-anchor="middle">335</text>
<rect style="fill:rgb(117,156,15);fill-opacity:0.5;" width="102" height="48" x="994" y="62"/>
<text x="1045" y="77" font-family="sans-serif" font-size="10px" text-anchor="middle">J6</text><text x="1045" y="87" font-family="sans-serif" font-size="10px" text-anchor="middle">466</text><text x="1045" y="97" font-family="sans-serif" font-size="10px" text-anchor="middle">518</text>
<rect style="fill:rgb(117,156,15);fill-opacity:0.5;" width="174" height="48" x="400" y="112"/>
<text x="487" y="127" font-family="sans-serif" font-size="10px" text-anchor="middle">J6</text><text x="487" y="137" font-family="sans-serif" font-size="10px" text-anchor="middle">169</text><text x="487" y="147" font-family="sans-serif" font-size="10px" text-anchor="middle">257</text>
<rect style="fill:rgb(117,156,15);fill-opacity:0.5;" width="146" height="48" x="532" y="162"/>
<text x="605" y="177" font-family="sans-serif" font-size="10px" text-anchor="middle">J6</text><text x="605" y="187" font-family="sans-serif" font-size="10px" text-anchor="middle">235</text><text x="605" y="197" font-family="sans-serif" font-size="10px" text-anchor="middle">309</text>
<rect style="fill:rgb(241,98,202);fill-opacity:0.5;" width="136" height="48" x="666" y="212"/>
<text x="734" y="227" font-family="sans-serif" font-size="10px" text-anchor="middle">J7</text><text x="734" y="237" font-family="sans-serif" font-size="10px" text-anchor="middle">302</text><text x="734" y="247" font-family="sans-serif" font-size="10px" text-anchor="middle">371</text>
<rect style="fill:rgb(241,98,202);fill-opacity:0.5;" width="102" height="48" x="876" y="162"/>
<text x="927" y="177" font-family="sans-serif" font-size="10px" text-anchor="middle">J7</text><text x="927" y="187" font-family="sans-serif" font-size="10px" text-anchor="middle">407</text><text x="927" y="197" font-family="sans-serif" font-size="10px" text-anchor="middle">459</text>
<rect style="fill:rgb(241,98,202);fill-opacity:0.5;" width="122" height="48" x="1052" y="62"/>
<text x="1113" y="77" font-family="sans-serif" font-size="10px" text-anchor="middle">J7</text><text x="1113" y="87" font-family="sans-serif" font-size="10px" text-anchor="middle">495</text><text x="1113" y="97" font-family="sans-serif" font-size="10px" text-anchor="middle">557</text>
<rect style="fill:rgb(241,98,202);fill-opacity:0.5;" width="174" height="48" x="580" y="112"/>
<text x="667" y="127" font-family="sans-serif" font-size="10px" text-anchor="middle">J7</text><text x="667" y="137" font-family="sans-serif" font-size="10px" text-anchor="middle">259</text><text x="667" y="147" font-family="sans-serif" font-size="10px" text-anchor="middle">347</text>
<rect style="fill:rgb(241,98,202);fill-opacity:0.5;" width="194" height="48" x="732" y="262"/>
<text x="829" y="277" font-family="sans-serif" font-size="10px" text-anchor="middle">J7</text><text x="829" y="287" font-family="sans-serif" font-size="10px" text-anchor="middle">335</text><text x="829" y="297" font-family="sans-serif" font-size="10px" text-anchor="middle">433</text>
<rect style="fill:rgb(44,47,26);fill-opacity:0.5;" width="178" height="48" x="766" y="212"/>
<text x="855" y="227" font-family="sans-serif" font-size="10px" text-anchor="middle">J8</text><text x="855" y="237" font-family="sans-serif" font-size="10px" text-anchor="middle">352</text><text x="855" y="247" font-family="sans-serif" font-size="10px" text-anchor="middle">442</text>
<rect style="fill:rgb(44,47,26);fill-opacity:0.5;" width="122" height="48" x="1142" y="62"/>
<text x="1203" y="77" font-family="sans-serif" font-size="10px" text-anchor="middle">J8</text><text x="1203" y="87" font-family="sans-serif" font-size="10px" text-anchor="middle">540</text><text x="1203" y="97" font-family="sans-serif" font-size="10px" text-anchor="middle">602</text>
<rect style="fill:rgb(44,47,26);fill-opacity:0.5;" width="16" height="48" x="1352" y="262"/>
<text x="1360" y="277" font-family="sans-serif" font-size="10px" text-anchor="middle">J8</text><text x="1360" y="287" font-family="sans-serif" font-size="10px" text-anchor="middle">645</text><text x="1360" y="297" font-family="sans-serif" font-size="10px" text-anchor="middle">654</text>
<rect style="fill:rgb(44,47,26);fill-opacity:0.5;" width="120" height="48" x="-32" y="162"/>
<text x="28" y="177" font-family="sans-serif" font-size="10px" text-anchor="middle">J8</text><text x="28" y="187" font-family="sans-serif" font-size="10px" text-anchor="middle">-47</text><text x="28" y="197" font-family="sans-serif" font-size="10px" text-anchor="middle">14</text>
<rect style="fill:rgb(44,47,26);fill-opacity:0.5;" width="102" height="48" x="176" y="112"/>
<text x="227" y="127" font-family="sans-serif" font-size="10px" text-anchor="middle">J8</text><text x="227" y="137" font-family="sans-serif" font-size="10px" text-anchor="middle">57</text><text x="227" y="147" font-family="sans-serif" font-size="10px" text-anchor="middle">109</text>
<rect style="fill:rgb(42,223,105);fill-opacity:0.5;" width="8" height="48" x="428" y="262"/>
<text x="432" y="277" font-family="sans-serif" font-size="10px" text-anchor="middle">J9</text><text x="432" y="287" font-family="sans-serif" font-size="10px" text-anchor="middle">183</text><text x="432" y="297" font-family="sans-serif" font-size="10px" text-anchor="middle">188</text>
<rect style="fill:rgb(42,223,105);fill-opacity:0.5;" width="106" height="48" x="996" y="162"/>
<text x="1049" y="177" font-family="sans-serif" font-size="10px" text-anchor="middle">J9</text><text x="1049" y="187" font-family="sans-serif" font-size="10px" text-anchor="middle">467</text><text x="1049" y="197" font-family="sans-serif" font-size="10px" text-anchor="middle">521</text>
<rect style="fill:rgb(42,223,105);fill-opacity:0.5;" width="116" height="48" x="1016" y="212"/>
<text x="1074" y="227" font-family="sans-serif" font-size="10px" text-anchor="middle">J9</text><text x="1074" y="237" font-family="sans-serif" font-size="10px" text-anchor="middle">477</text><text x="1074" y="247" font-family="sans-serif" font-size="10px" text-anchor="middle">536</text>
<rect style="fill:rgb(42,223,105);fill-opacity:0.5;" width="174" height="48" x="58" y="62"/>
<text x="145" y="77" font-family="sans-serif" font-size="10px" text-anchor="middle">J9</text><text x="145" y="87" font-family="sans-serif" font-size="10px" text-anchor="middle">-2</text><text x="145" y="97" font-family="sans-serif" font-size="10px" text-anchor="middle">86</text>
<rect style="fill:rgb(42,223,105);fill-opacity:0.5;" width="28" height="48" x="304" y="112"/>
<text x="318" y="127" font-family="sans-serif" font-size="10px" text-anchor="middle">J9</text><text x="318" y="137" font-family="sans-serif" font-size="10px" text-anchor="middle">121</text><text x="318" y="147" font-family="sans-serif" font-size="10px" text-anchor="middle">136</text>
<rect style="fill:rgb(184,151,139);fill-opacity:0.5;" width="80" height="48" x="558" y="62"/>
<text x="598" y="77" font-family="sans-serif" font-size="10px" text-anchor="middle">J10</text><text x="598" y="87" font-family="sans-serif" font-size="10px" text-anchor="middle">248</text><text x="598" y="97" font-family="sans-serif" font-size="10px" text-anchor="middle">289</text>
<rect style="fill:rgb(184,151,139);fill-opacity:0.5;" width="98" height="48" x="916" y="112"/>
<text x="965" y="127" font-family="sans-serif" font-size="10px" text-anchor="middle">J10</text><text x="965" y="137" font-family="sans-serif" font-size="10px" text-anchor="middle">427</text><text x="965" y="147" font-family="sans-serif" font-size="10px" text-anchor="middle">477</text>
<rect style="fill:rgb(184,151,139);fill-opacity:0.5;" width="154" height="48" x="988" y="262"/>
<text x="1065" y="277" font-family="sans-serif" font-size="10px" text-anchor="middle">J10</text><text x="1065" y="287" font-family="sans-serif" font-size="10px" text-anchor="middle">463</text><text x="1065" y="297" font-family="sans-serif" font-size="10px" text-anchor="middle">541</text>
<rect style="fill:rgb(184,151,139);fill-opacity:0.5;" width="104" height="48" x="308" y="212"/>
<text x="360" y="227" font-family="sans-serif" font-size="10px" text-anchor="middle">J10</text><text x="360" y="237" font-family="sans-serif" font-size="10px" text-anchor="middle">123</text><text x="360" y="247" font-family="sans-serif" font-size="10px" text-anchor="middle">176</text>
<rect style="fill:rgb(184,151,139);fill-opacity:0.5;" width="44" height="48" x="738" y="162"/>
<text x="760" y="177" font-family="sans-serif" font-size="10px" text-anchor="middle">J10</text><text x="760" y="187" font-family="sans-serif" font-size="10px" text-anchor="middle">338</text><text x="760" y="197" font-family="sans-serif" font-size="10px" text-anchor="middle">361</text>
<rect style="fill:rgb(179,7,79);fill-opacity:0.5;" width="74" height="48" x="1696" y="62"/>
<text x="1733" y="77" font-family="sans-serif" font-size="10px" text-anchor="middle">J11</text><text x="1733" y="87" font-family="sans-serif" font-size="10px" text-anchor="middle">817</text><text x="1733" y="97" font-family="sans-serif" font-size="10px" text-anchor="middle">855</text>
<rect style="fill:rgb(179,7,79);fill-opacity:0.5;" width="142" height="48" x="1764" y="262"/>
<text x="1835" y="277" font-family="sans-serif" font-size="10px" text-anchor="middle">J11</text><text x="1835" y="287" font-family="sans-serif" font-size="10px" text-anchor="middle">851</text><text x="1835" y="297" font-family="sans-serif" font-size="10px" text-anchor="middle">923</text>
<rect style="fill:rgb(179,7,79);fill-opacity:0.5;" width="180" height="48" x="1868" y="162"/>
<text x="1958" y="177" font-family="sans-serif" font-size="10px" text-anchor="middle">J11</text><text x="1958" y="187" font-family="sans-serif" font-size="10px" text-anchor="middle">903</text><text x="1958" y="197" font-family="sans-serif" font-size="10px" text-anchor="middle">994</text>
<rect style="fill:rgb(179,7,79);fill-opacity:0.5;" width="134" height="48" x="16" y="212"/>
<text x="83" y="227" font-family="sans-serif" font-size="10px" text-anchor="middle">J11</text><text x="83" y="237" font-family="sans-serif" font-size="10px" text-anchor="middle">-23</text><text x="83" y="247" font-family="sans-serif" font-size="10px" text-anchor="middle">45</text>
<rect style="fill:rgb(179,7,79);fill-opacity:0.5;" width="140" height="48" x="1064" y="112"/>
<text x="1134" y="127" font-family="sans-serif" font-size="10px" text-anchor="middle">J11</text><text x="1134" y="137" font-family="sans-serif" font-size="10px" text-anchor="middle">501</text><text x="1134" y="147" font-family="sans-serif" font-size="10px" text-anchor="middle">572</text>
<rect style="fill:rgb(191,162,33);fill-opacity:0.5;" width="88" height="48" x="1220" y="62"/>
<text x="1264" y="77" font-family="sans-serif" font-size="10px" text-anchor="middle">J12</text><text x="1264" y="87" font-family="sans-serif" font-size="10px" text-anchor="middle">579</text><text x="1264" y="97" font-family="sans-serif" font-size="10px" text-anchor="middle">624</text>
<rect style="fill:rgb(191,162,33);fill-opacity:0.5;" width="188" height="48" x="1170" y="212"/>
<text x="1264" y="227" font-family="sans-serif" font-size="10px" text-anchor="middle">J12</text><text x="1264" y="237" font-family="sans-serif" font-size="10px" text-anchor="middle">554</text><text x="1264" y="247" font-family="sans-serif" font-size="10px" text-anchor="middle">649</text>
<rect style="fill:rgb(191,162,33);fill-opacity:0.5;" width="102" height="48" x="1278" y="262"/>
<text x="1329" y="277" font-family="sans-serif" font-size="10px" text-anchor="middle">J12</text><text x="1329" y="287" font-family="sans-serif" font-size="10px" text-anchor="middle">608</text><text x="1329" y="297" font-family="sans-serif" font-size="10px" text-anchor="middle">660</text>
<rect style="fill:rgb(191,162,33);fill-opacity:0.5;" width="48" height="48" x="144" y="162"/>
<text x="168" y="177" font-family="sans-serif" font-size="10px" text-anchor="middle">J12</text><text x="168" y="187" font-family="sans-serif" font-size="10px" text-anchor="middle">41</text><text x="168" y="197" font-family="sans-serif" font-size="10px" text-anchor="middle">66</text>
<rect style="fill:rgb(191,162,33);fill-opacity:0.5;" width="10" height="48" x="544" y="112"/>
<text x="549" y="127" font-family="sans-serif" font-size="10px" text-anchor="middle">J12</text><text x="549" y="137" font-family="sans-serif" font-size="10px" text-anchor="middle">241</text><text x="549" y="147" font-family="sans-serif" font-size="10px" text-anchor="middle">247</text>
<rect style="fill:rgb(240,159,9);fill-opacity:0.5;" width="58" height="48" x="598" y="212"/>
<text x="627" y="227" font-family="sans-serif" font-size="10px" text-anchor="middle">J13</text><text x="627" y="237" font-family="sans-serif" font-size="10px" text-anchor="middle">268</text><text x="627" y="247" font-family="sans-serif" font-size="10px" text-anchor="middle">298</text>
<rect style="fill:rgb(240,159,9);fill-opacity:0.5;" width="130" height="48" x="724" y="112"/>
<text x="789" y="127" font-family="sans-serif" font-size="10px" text-anchor="middle">J13</text><text x="789" y="137" font-family="sans-serif" font-size="10px" text-anchor="middle">331</text><text x="789" y="147" font-family="sans-serif" font-size="10px" text-anchor="middle">397</text>
<rect style="fill:rgb(240,159,9);fill-opacity:0.5;" width="44" height="48" x="844" y="62"/>
<text x="866" y="77" font-family="sans-serif" font-size="10px" text-anchor="middle">J13</text><text x="866" y="87" font-family="sans-serif" font-size="10px" text-anchor="middle">391</text><text x="866" y="97" font-family="sans-serif" font-size="10px" text-anchor="middle">414</text>
<rect style="fill:rgb(240,159,9);fill-opacity:0.5;" width="70" height="48" x="398" y="262"/>
<text x="433" y="277" font-family="sans-serif" font-size="10px" text-anchor="middle">J13</text><text x="433" y="287" font-family="sans-serif" font-size="10px" text-anchor="middle">168</text><text x="433" y="297" font-family="sans-serif" font-size="10px" text-anchor="middle">204</text>
<rect style="fill:rgb(240,159,9);fill-opacity:0.5;" width="32" height="48" x="578" y="162"/>
<text x="594" y="177" font-family="sans-serif" font-size="10px" text-anchor="middle">J13</text><text x="594" y="187" font-family="sans-serif" font-size="10px" text-anchor="middle">258</text><text x="594" y="197" font-family="sans-serif" font-size="10px" text-anchor="middle">275</text>
<rect style="fill:rgb(208,25,126);fill-opacity:0.5;" width="188" height="48" x="1168" y="162"/>
<text x="1262" y="177" font-family="sans-serif" font-size="10px" text-anchor="middle">J14</text><text x="1262" y="187" font-family="sans-serif" font-size="10px" text-anchor="middle">553</text><text x="1262" y="197" font-family="sans-serif" font-size="10px" text-anchor="middle">648</text>
<rect style="fill:rgb(208,25,126);fill-opacity:0.5;" width="140" height="48" x="1256" y="62"/>
<text x="1326" y="77" font-family="sans-serif" font-size="10px" text-anchor="middle">J14</text><text x="1326" y="87" font-family="sans-serif" font-size="10px" text-anchor="middle">597</text><text x="1326" y="97" font-family="sans-serif" font-size="10px" text-anchor="middle">668</text>
<rect style="fill:rgb(208,25,126);fill-opacity:0.5;" width="150" height="48" x="1422" y="212"/>
<text x="1497" y="227" font-family="sans-serif" font-size="10px" text-anchor="middle">J14</text><text x="1497" y="237" font-family="sans-serif" font-size="10px" text-anchor="middle">680</text><text x="1497" y="247" font-family="sans-serif" font-size="10px" text-anchor="middle">756</text>
<rect style="fill:rgb(208,25,126);fill-opacity:0.5;" width="14" height="48" x="-1717986874" y="112"/>
<text x="429496781" y="127" font-family="sans-serif" font-size="10px" text-anchor="middle">J14</text><text x="429496781" y="137" font-family="sans-serif" font-size="10px" text-anchor="middle">-858993468</text><text x="429496781" y="147" font-family="sans-serif" font-size="10px" text-anchor="middle">-858993460</text>
<rect style="fill:rgb(208,25,126);fill-opacity:0.5;" width="174" height="48" x="-1717987034" y="262"/>
<text x="429496701" y="277" font-family="sans-serif" font-size="10px" text-anchor="middle">J14</text><text x="429496701" y="287" font-family="sans-serif" font-size="10px" text-anchor="middle">-858993548</text><text x="429496701" y="297" font-family="sans-serif" font-size="10px" text-anchor="middle">-858993460</text>
<line x1="60" y1="40" x2="60" y2="312" stroke="dimgrey" />
<line x1="60" y1="40" x2="70" y2="50" stroke="dimgrey" />
<text x="35" y="90" font-family="sans-serif" font-size="10px" text-anchor="middle">M.1</text>
<text x="35" y="140" font-family="sans-serif" font-size="10px" text-anchor="middle">M.2</text>
<text x="35" y="190" font-family="sans-serif" font-size="10px" text-anchor="middle">M.3</text>
<text x="35" y="240" font-family="sans-serif" font-size="10px" text-anchor="middle">M.4</text>
<text x="35" y="290" font-family="sans-serif" font-size="10px" text-anchor="middle">M.5</text>
<line x1="60" y1="312" x2="92" y2="312" stroke="dimgrey" />
<line x1="82" y1="302" x2="92" y2="312" stroke="dimgrey" />
<line x1="72" y1="314" x2="72" y2="322" stroke="dimgrey" />
<text x="70" y="35" font-family="sans-serif" font-size="20px" text-anchor="middle" fill="dimgrey">Machines</text>
<text x="112" y="312" font-family="sans-serif" font-size="20px" text-anchor="middle" fill="dimgrey">Time</text>
<text x="78" y="342" font-family="sans-serif" font-size="30px" text-anchor="middle" fill="dimgrey">Diagramme de Gantt du problème: la08.txt - makespan: 6</text>
</svg>
