<?xml version="1.0" encoding="UTF-8" standalone="no"?>
 <svg xmlns="http://www.w3.org/2000/svg" version="1.1" width="161" height="350">
<title> Diagramme de Gantt du Probleme: la11.txt</title>
<desc> Cette figure represente le planning des operations du probleme traite.</desc>
<rect style="fill:rgb(62,139,185);fill-opacity:0.5;" width="66" height="48" x="210" y="162"/>
<text x="243" y="177" font-family="sans-serif" font-size="10px" text-anchor="middle">J0</text><text x="243" y="187" font-family="sans-serif" font-size="10px" text-anchor="middle">74</text><text x="243" y="197" font-family="sans-serif" font-size="10px" text-anchor="middle">108</text>
<rect style="fill:rgb(62,139,185);fill-opacity:0.5;" width="40" height="48" x="346" y="112"/>
<text x="366" y="127" font-family="sans-serif" font-size="10px" text-anchor="middle">J0</text><text x="366" y="137" font-family="sans-serif" font-size="10px" text-anchor="middle">142</text><text x="366" y="147" font-family="sans-serif" font-size="10px" text-anchor="middle">163</text>
<rect style="fill:rgb(62,139,185);fill-opacity:0.5;" width="104" height="48" x="1614" y="62"/>
<text x="1666" y="77" font-family="sans-serif" font-size="10px" text-anchor="middle">J0</text><text x="1666" y="87" font-family="sans-serif" font-size="10px" text-anchor="middle">776</text><text x="1666" y="97" font-family="sans-serif" font-size="10px" text-anchor="middle">829</text>
<rect style="fill:rgb(62,139,185);fill-opacity:0.5;" width="108" height="48" x="-6" y="212"/>
<text x="48" y="227" font-family="sans-serif" font-size="10px" text-anchor="middle">J0</text><text x="48" y="237" font-family="sans-serif" font-size="10px" text-anchor="middle">-34</text><text x="48" y="247" font-family="sans-serif" font-size="10px" text-anchor="middle">21</text>
<rect style="fill:rgb(62,139,185);fill-opacity:0.5;" width="188" height="48" x="18" y="262"/>
<text x="112" y="277" font-family="sans-serif" font-size="10px" text-anchor="middle">J0</text><text x="112" y="287" font-family="sans-serif" font-size="10px" text-anchor="middle">-22</text><text x="112" y="297" font-family="sans-serif" font-size="10px" text-anchor="middle">73</text>
<rect style="fill:rgb(238,172,238);fill-opacity:0.5;" width="40" height="48" x="1866" y="62"/>
<text x="1886" y="77" font-family="sans-serif" font-size="10px" text-anchor="middle">J1</text><text x="1886" y="87" font-family="sans-serif" font-size="10px" text-anchor="middle">902</text><text x="1886" y="97" font-family="sans-serif" font-size="10px" text-anchor="middle">923</text>
<rect style="fill:rgb(238,172,238);fill-opacity:0.5;" width="102" height="48" x="1872" y="212"/>
<text x="1923" y="227" font-family="sans-serif" font-size="10px" text-anchor="middle">J1</text><text x="1923" y="237" font-family="sans-serif" font-size="10px" text-anchor="middle">905</text><text x="1923" y="247" font-family="sans-serif" font-size="10px" text-anchor="middle">957</text>
<rect style="fill:rgb(238,172,238);fill-opacity:0.5;" width="140" height="48" x="1886" y="112"/>
<text x="1956" y="127" font-family="sans-serif" font-size="10px" text-anchor="middle">J1</text><text x="1956" y="137" font-family="sans-serif" font-size="10px" text-anchor="middle">912</text><text x="1956" y="147" font-family="sans-serif" font-size="10px" text-anchor="middle">983</text>
<rect style="fill:rgb(238,172,238);fill-opacity:0.5;" width="30" height="48" x="96" y="262"/>
<text x="111" y="277" font-family="sans-serif" font-size="10px" text-anchor="middle">J1</text><text x="111" y="287" font-family="sans-serif" font-size="10px" text-anchor="middle">17</text><text x="111" y="297" font-family="sans-serif" font-size="10px" text-anchor="middle">33</text>
<rect style="fill:rgb(238,172,238);fill-opacity:0.5;" width="50" height="48" x="204" y="162"/>
<text x="229" y="177" font-family="sans-serif" font-size="10px" text-anchor="middle">J1</text><text x="229" y="187" font-family="sans-serif" font-size="10px" text-anchor="middle">71</text><text x="229" y="197" font-family="sans-serif" font-size="10px" text-anchor="middle">97</text>
<rect style="fill:rgb(47,232,102);fill-opacity:0.5;" width="22" height="48" x="294" y="62"/>
<text x="305" y="77" font-family="sans-serif" font-size="10px" text-anchor="middle">J2</text><text x="305" y="87" font-family="sans-serif" font-size="10px" text-anchor="middle">116</text><text x="305" y="97" font-family="sans-serif" font-size="10px" text-anchor="middle">128</text>
<rect style="fill:rgb(47,232,102);fill-opacity:0.5;" width="82" height="48" x="1446" y="112"/>
<text x="1487" y="127" font-family="sans-serif" font-size="10px" text-anchor="middle">J2</text><text x="1487" y="137" font-family="sans-serif" font-size="10px" text-anchor="middle">692</text><text x="1487" y="147" font-family="sans-serif" font-size="10px" text-anchor="middle">734</text>
<rect style="fill:rgb(47,232,102);fill-opacity:0.5;" width="60" height="48" x="1546" y="162"/>
<text x="1576" y="177" font-family="sans-serif" font-size="10px" text-anchor="middle">J2</text><text x="1576" y="187" font-family="sans-serif" font-size="10px" text-anchor="middle">742</text><text x="1576" y="197" font-family="sans-serif" font-size="10px" text-anchor="middle">773</text>
<rect style="fill:rgb(47,232,102);fill-opacity:0.5;" width="194" height="48" x="254" y="262"/>
<text x="351" y="277" font-family="sans-serif" font-size="10px" text-anchor="middle">J2</text><text x="351" y="287" font-family="sans-serif" font-size="10px" text-anchor="middle">96</text><text x="351" y="297" font-family="sans-serif" font-size="10px" text-anchor="middle">194</text>
<rect style="fill:rgb(47,232,102);fill-opacity:0.5;" width="76" height="48" x="1022" y="212"/>
<text x="1060" y="227" font-family="sans-serif" font-size="10px" text-anchor="middle">J2</text><text x="1060" y="237" font-family="sans-serif" font-size="10px" text-anchor="middle">480</text><text x="1060" y="247" font-family="sans-serif" font-size="10px" text-anchor="middle">519</text>
<rect style="fill:rgb(25,19,248);fill-opacity:0.5;" width="130" height="48" x="1202" y="162"/>
<text x="1267" y="177" font-family="sans-serif" font-size="10px" text-anchor="middle">J3</text><text x="1267" y="187" font-family="sans-serif" font-size="10px" text-anchor="middle">570</text><text x="1267" y="197" font-family="sans-serif" font-size="10px" text-anchor="middle">636</text>
<rect style="fill:rgb(25,19,248);fill-opacity:0.5;" width="152" height="48" x="1310" y="212"/>
<text x="1386" y="227" font-family="sans-serif" font-size="10px" text-anchor="middle">J3</text><text x="1386" y="237" font-family="sans-serif" font-size="10px" text-anchor="middle">624</text><text x="1386" y="247" font-family="sans-serif" font-size="10px" text-anchor="middle">701</text>
<rect style="fill:rgb(25,19,248);fill-opacity:0.5;" width="156" height="48" x="1460" y="262"/>
<text x="1538" y="277" font-family="sans-serif" font-size="10px" text-anchor="middle">J3</text><text x="1538" y="287" font-family="sans-serif" font-size="10px" text-anchor="middle">699</text><text x="1538" y="297" font-family="sans-serif" font-size="10px" text-anchor="middle">778</text>
<rect style="fill:rgb(25,19,248);fill-opacity:0.5;" width="108" height="48" x="564" y="62"/>
<text x="618" y="77" font-family="sans-serif" font-size="10px" text-anchor="middle">J3</text><text x="618" y="87" font-family="sans-serif" font-size="10px" text-anchor="middle">251</text><text x="618" y="97" font-family="sans-serif" font-size="10px" text-anchor="middle">306</text>
<rect style="fill:rgb(25,19,248);fill-opacity:0.5;" width="152" height="48" x="696" y="112"/>
<text x="772" y="127" font-family="sans-serif" font-size="10px" text-anchor="middle">J3</text><text x="772" y="137" font-family="sans-serif" font-size="10px" text-anchor="middle">317</text><text x="772" y="147" font-family="sans-serif" font-size="10px" text-anchor="middle">394</text>
<rect style="fill:rgb(142,6,56);fill-opacity:0.5;" width="164" height="48" x="752" y="62"/>
<text x="834" y="77" font-family="sans-serif" font-size="10px" text-anchor="middle">J4</text><text x="834" y="87" font-family="sans-serif" font-size="10px" text-anchor="middle">345</text><text x="834" y="97" font-family="sans-serif" font-size="10px" text-anchor="middle">428</text>
<rect style="fill:rgb(142,6,56);fill-opacity:0.5;" width="72" height="48" x="908" y="262"/>
<text x="944" y="277" font-family="sans-serif" font-size="10px" text-anchor="middle">J4</text><text x="944" y="287" font-family="sans-serif" font-size="10px" text-anchor="middle">423</text><text x="944" y="297" font-family="sans-serif" font-size="10px" text-anchor="middle">460</text>
<rect style="fill:rgb(142,6,56);fill-opacity:0.5;" width="66" height="48" x="1338" y="212"/>
<text x="1371" y="227" font-family="sans-serif" font-size="10px" text-anchor="middle">J4</text><text x="1371" y="237" font-family="sans-serif" font-size="10px" text-anchor="middle">638</text><text x="1371" y="247" font-family="sans-serif" font-size="10px" text-anchor="middle">672</text>
<rect style="fill:rgb(142,6,56);fill-opacity:0.5;" width="36" height="48" x="970" y="112"/>
<text x="988" y="127" font-family="sans-serif" font-size="10px" text-anchor="middle">J4</text><text x="988" y="137" font-family="sans-serif" font-size="10px" text-anchor="middle">454</text><text x="988" y="147" font-family="sans-serif" font-size="10px" text-anchor="middle">473</text>
<rect style="fill:rgb(142,6,56);fill-opacity:0.5;" width="126" height="48" x="1076" y="162"/>
<text x="1139" y="177" font-family="sans-serif" font-size="10px" text-anchor="middle">J4</text><text x="1139" y="187" font-family="sans-serif" font-size="10px" text-anchor="middle">507</text><text x="1139" y="197" font-family="sans-serif" font-size="10px" text-anchor="middle">571</text>
<rect style="fill:rgb(65,243,73);fill-opacity:0.5;" width="156" height="48" x="1748" y="262"/>
<text x="1826" y="277" font-family="sans-serif" font-size="10px" text-anchor="middle">J5</text><text x="1826" y="287" font-family="sans-serif" font-size="10px" text-anchor="middle">843</text><text x="1826" y="297" font-family="sans-serif" font-size="10px" text-anchor="middle">922</text>
<rect style="fill:rgb(65,243,73);fill-opacity:0.5;" width="84" height="48" x="1996" y="162"/>
<text x="2038" y="177" font-family="sans-serif" font-size="10px" text-anchor="middle">J5</text><text x="2038" y="187" font-family="sans-serif" font-size="10px" text-anchor="middle">967</text><text x="2038" y="197" font-family="sans-serif" font-size="10px" text-anchor="middle">1010</text>
<rect style="fill:rgb(65,243,73);fill-opacity:0.5;" width="182" height="48" x="2006" y="62"/>
<text x="2097" y="77" font-family="sans-serif" font-size="10px" text-anchor="middle">J5</text><text x="2097" y="87" font-family="sans-serif" font-size="10px" text-anchor="middle">972</text><text x="2097" y="97" font-family="sans-serif" font-size="10px" text-anchor="middle">1064</text>
<rect style="fill:rgb(65,243,73);fill-opacity:0.5;" width="122" height="48" x="2426" y="212"/>
<text x="2487" y="227" font-family="sans-serif" font-size="10px" text-anchor="middle">J5</text><text x="2487" y="237" font-family="sans-serif" font-size="10px" text-anchor="middle">1182</text><text x="2487" y="247" font-family="sans-serif" font-size="10px" text-anchor="middle">1244</text>
<rect style="fill:rgb(65,243,73);fill-opacity:0.5;" width="106" height="48" x="2596" y="112"/>
<text x="2649" y="127" font-family="sans-serif" font-size="10px" text-anchor="middle">J5</text><text x="2649" y="137" font-family="sans-serif" font-size="10px" text-anchor="middle">1267</text><text x="2649" y="147" font-family="sans-serif" font-size="10px" text-anchor="middle">1321</text>
<rect style="fill:rgb(117,156,15);fill-opacity:0.5;" width="184" height="48" x="2692" y="62"/>
<text x="2784" y="77" font-family="sans-serif" font-size="10px" text-anchor="middle">J6</text><text x="2784" y="87" font-family="sans-serif" font-size="10px" text-anchor="middle">1315</text><text x="2784" y="97" font-family="sans-serif" font-size="10px" text-anchor="middle">1408</text>
<rect style="fill:rgb(117,156,15);fill-opacity:0.5;" width="152" height="48" x="2898" y="262"/>
<text x="2974" y="277" font-family="sans-serif" font-size="10px" text-anchor="middle">J6</text><text x="2974" y="287" font-family="sans-serif" font-size="10px" text-anchor="middle">1418</text><text x="2974" y="297" font-family="sans-serif" font-size="10px" text-anchor="middle">1495</text>
<rect style="fill:rgb(117,156,15);fill-opacity:0.5;" width="172" height="48" x="3016" y="162"/>
<text x="3102" y="177" font-family="sans-serif" font-size="10px" text-anchor="middle">J6</text><text x="3102" y="187" font-family="sans-serif" font-size="10px" text-anchor="middle">1477</text><text x="3102" y="197" font-family="sans-serif" font-size="10px" text-anchor="middle">1564</text>
<rect style="fill:rgb(117,156,15);fill-opacity:0.5;" width="172" height="48" x="208" y="112"/>
<text x="294" y="127" font-family="sans-serif" font-size="10px" text-anchor="middle">J6</text><text x="294" y="137" font-family="sans-serif" font-size="10px" text-anchor="middle">73</text><text x="294" y="147" font-family="sans-serif" font-size="10px" text-anchor="middle">160</text>
<rect style="fill:rgb(117,156,15);fill-opacity:0.5;" width="136" height="48" x="298" y="212"/>
<text x="366" y="227" font-family="sans-serif" font-size="10px" text-anchor="middle">J6</text><text x="366" y="237" font-family="sans-serif" font-size="10px" text-anchor="middle">118</text><text x="366" y="247" font-family="sans-serif" font-size="10px" text-anchor="middle">187</text>
<rect style="fill:rgb(241,98,202);fill-opacity:0.5;" width="164" height="48" x="384" y="262"/>
<text x="466" y="277" font-family="sans-serif" font-size="10px" text-anchor="middle">J7</text><text x="466" y="287" font-family="sans-serif" font-size="10px" text-anchor="middle">161</text><text x="466" y="297" font-family="sans-serif" font-size="10px" text-anchor="middle">244</text>
<rect style="fill:rgb(241,98,202);fill-opacity:0.5;" width="46" height="48" x="578" y="212"/>
<text x="601" y="227" font-family="sans-serif" font-size="10px" text-anchor="middle">J7</text><text x="601" y="237" font-family="sans-serif" font-size="10px" text-anchor="middle">258</text><text x="601" y="247" font-family="sans-serif" font-size="10px" text-anchor="middle">282</text>
<rect style="fill:rgb(241,98,202);fill-opacity:0.5;" width="80" height="48" x="712" y="112"/>
<text x="752" y="127" font-family="sans-serif" font-size="10px" text-anchor="middle">J7</text><text x="752" y="137" font-family="sans-serif" font-size="10px" text-anchor="middle">325</text><text x="752" y="147" font-family="sans-serif" font-size="10px" text-anchor="middle">366</text>
<rect style="fill:rgb(241,98,202);fill-opacity:0.5;" width="74" height="48" x="54" y="162"/>
<text x="91" y="177" font-family="sans-serif" font-size="10px" text-anchor="middle">J7</text><text x="91" y="187" font-family="sans-serif" font-size="10px" text-anchor="middle">-4</text><text x="91" y="197" font-family="sans-serif" font-size="10px" text-anchor="middle">34</text>
<rect style="fill:rgb(241,98,202);fill-opacity:0.5;" width="118" height="48" x="612" y="62"/>
<text x="671" y="77" font-family="sans-serif" font-size="10px" text-anchor="middle">J7</text><text x="671" y="87" font-family="sans-serif" font-size="10px" text-anchor="middle">275</text><text x="671" y="97" font-family="sans-serif" font-size="10px" text-anchor="middle">335</text>
<rect style="fill:rgb(44,47,26);fill-opacity:0.5;" width="48" height="48" x="832" y="262"/>
<text x="856" y="277" font-family="sans-serif" font-size="10px" text-anchor="middle">J8</text><text x="856" y="287" font-family="sans-serif" font-size="10px" text-anchor="middle">385</text><text x="856" y="297" font-family="sans-serif" font-size="10px" text-anchor="middle">410</text>
<rect style="fill:rgb(44,47,26);fill-opacity:0.5;" width="96" height="48" x="1826" y="112"/>
<text x="1874" y="127" font-family="sans-serif" font-size="10px" text-anchor="middle">J8</text><text x="1874" y="137" font-family="sans-serif" font-size="10px" text-anchor="middle">882</text><text x="1874" y="147" font-family="sans-serif" font-size="10px" text-anchor="middle">931</text>
<rect style="fill:rgb(44,47,26);fill-opacity:0.5;" width="86" height="48" x="1870" y="62"/>
<text x="1913" y="77" font-family="sans-serif" font-size="10px" text-anchor="middle">J8</text><text x="1913" y="87" font-family="sans-serif" font-size="10px" text-anchor="middle">904</text><text x="1913" y="97" font-family="sans-serif" font-size="10px" text-anchor="middle">948</text>
<rect style="fill:rgb(44,47,26);fill-opacity:0.5;" width="194" height="48" x="1902" y="162"/>
<text x="1999" y="177" font-family="sans-serif" font-size="10px" text-anchor="middle">J8</text><text x="1999" y="187" font-family="sans-serif" font-size="10px" text-anchor="middle">920</text><text x="1999" y="197" font-family="sans-serif" font-size="10px" text-anchor="middle">1018</text>
<rect style="fill:rgb(44,47,26);fill-opacity:0.5;" width="32" height="48" x="2306" y="212"/>
<text x="2322" y="227" font-family="sans-serif" font-size="10px" text-anchor="middle">J8</text><text x="2322" y="237" font-family="sans-serif" font-size="10px" text-anchor="middle">1122</text><text x="2322" y="247" font-family="sans-serif" font-size="10px" text-anchor="middle">1139</text>
<rect style="fill:rgb(42,223,105);fill-opacity:0.5;" width="190" height="48" x="2234" y="62"/>
<text x="2329" y="77" font-family="sans-serif" font-size="10px" text-anchor="middle">J9</text><text x="2329" y="87" font-family="sans-serif" font-size="10px" text-anchor="middle">1086</text><text x="2329" y="97" font-family="sans-serif" font-size="10px" text-anchor="middle">1182</text>
<rect style="fill:rgb(42,223,105);fill-opacity:0.5;" width="148" height="48" x="2708" y="112"/>
<text x="2782" y="127" font-family="sans-serif" font-size="10px" text-anchor="middle">J9</text><text x="2782" y="137" font-family="sans-serif" font-size="10px" text-anchor="middle">1323</text><text x="2782" y="147" font-family="sans-serif" font-size="10px" text-anchor="middle">1398</text>
<rect style="fill:rgb(42,223,105);fill-opacity:0.5;" width="84" height="48" x="2930" y="162"/>
<text x="2972" y="177" font-family="sans-serif" font-size="10px" text-anchor="middle">J9</text><text x="2972" y="187" font-family="sans-serif" font-size="10px" text-anchor="middle">1434</text><text x="2972" y="197" font-family="sans-serif" font-size="10px" text-anchor="middle">1477</text>
<rect style="fill:rgb(42,223,105);fill-opacity:0.5;" width="152" height="48" x="314" y="262"/>
<text x="390" y="277" font-family="sans-serif" font-size="10px" text-anchor="middle">J9</text><text x="390" y="287" font-family="sans-serif" font-size="10px" text-anchor="middle">126</text><text x="390" y="297" font-family="sans-serif" font-size="10px" text-anchor="middle">203</text>
<rect style="fill:rgb(42,223,105);fill-opacity:0.5;" width="156" height="48" x="462" y="212"/>
<text x="540" y="227" font-family="sans-serif" font-size="10px" text-anchor="middle">J9</text><text x="540" y="237" font-family="sans-serif" font-size="10px" text-anchor="middle">200</text><text x="540" y="247" font-family="sans-serif" font-size="10px" text-anchor="middle">279</text>
<rect style="fill:rgb(184,151,139);fill-opacity:0.5;" width="188" height="48" x="444" y="62"/>
<text x="538" y="77" font-family="sans-serif" font-size="10px" text-anchor="middle">J10</text><text x="538" y="87" font-family="sans-serif" font-size="10px" text-anchor="middle">191</text><text x="538" y="97" font-family="sans-serif" font-size="10px" text-anchor="middle">286</text>
<rect style="fill:rgb(184,151,139);fill-opacity:0.5;" width="150" height="48" x="538" y="212"/>
<text x="613" y="227" font-family="sans-serif" font-size="10px" text-anchor="middle">J10</text><text x="613" y="237" font-family="sans-serif" font-size="10px" text-anchor="middle">238</text><text x="613" y="247" font-family="sans-serif" font-size="10px" text-anchor="middle">314</text>
<rect style="fill:rgb(184,151,139);fill-opacity:0.5;" width="12" height="48" x="772" y="112"/>
<text x="778" y="127" font-family="sans-serif" font-size="10px" text-anchor="middle">J10</text><text x="778" y="137" font-family="sans-serif" font-size="10px" text-anchor="middle">355</text><text x="778" y="147" font-family="sans-serif" font-size="10px" text-anchor="middle">362</text>
<rect style="fill:rgb(184,151,139);fill-opacity:0.5;" width="54" height="48" x="160" y="262"/>
<text x="187" y="277" font-family="sans-serif" font-size="10px" text-anchor="middle">J10</text><text x="187" y="287" font-family="sans-serif" font-size="10px" text-anchor="middle">49</text><text x="187" y="297" font-family="sans-serif" font-size="10px" text-anchor="middle">77</text>
<rect style="fill:rgb(184,151,139);fill-opacity:0.5;" width="68" height="48" x="906" y="162"/>
<text x="940" y="177" font-family="sans-serif" font-size="10px" text-anchor="middle">J10</text><text x="940" y="187" font-family="sans-serif" font-size="10px" text-anchor="middle">422</text><text x="940" y="197" font-family="sans-serif" font-size="10px" text-anchor="middle">457</text>
<rect style="fill:rgb(179,7,79);fill-opacity:0.5;" width="18" height="48" x="1196" y="262"/>
<text x="1205" y="277" font-family="sans-serif" font-size="10px" text-anchor="middle">J11</text><text x="1205" y="287" font-family="sans-serif" font-size="10px" text-anchor="middle">567</text><text x="1205" y="297" font-family="sans-serif" font-size="10px" text-anchor="middle">577</text>
<rect style="fill:rgb(179,7,79);fill-opacity:0.5;" width="188" height="48" x="1044" y="162"/>
<text x="1138" y="177" font-family="sans-serif" font-size="10px" text-anchor="middle">J11</text><text x="1138" y="187" font-family="sans-serif" font-size="10px" text-anchor="middle">491</text><text x="1138" y="197" font-family="sans-serif" font-size="10px" text-anchor="middle">586</text>
<rect style="fill:rgb(179,7,79);fill-opacity:0.5;" width="120" height="48" x="1182" y="62"/>
<text x="1242" y="77" font-family="sans-serif" font-size="10px" text-anchor="middle">J11</text><text x="1242" y="87" font-family="sans-serif" font-size="10px" text-anchor="middle">560</text><text x="1242" y="97" font-family="sans-serif" font-size="10px" text-anchor="middle">621</text>
<rect style="fill:rgb(179,7,79);fill-opacity:0.5;" width="16" height="48" x="1146" y="112"/>
<text x="1154" y="127" font-family="sans-serif" font-size="10px" text-anchor="middle">J11</text><text x="1154" y="137" font-family="sans-serif" font-size="10px" text-anchor="middle">542</text><text x="1154" y="147" font-family="sans-serif" font-size="10px" text-anchor="middle">551</text>
<rect style="fill:rgb(179,7,79);fill-opacity:0.5;" width="68" height="48" x="1658" y="212"/>
<text x="1692" y="227" font-family="sans-serif" font-size="10px" text-anchor="middle">J11</text><text x="1692" y="237" font-family="sans-serif" font-size="10px" text-anchor="middle">798</text><text x="1692" y="247" font-family="sans-serif" font-size="10px" text-anchor="middle">833</text>
<rect style="fill:rgb(191,162,33);fill-opacity:0.5;" width="180" height="48" x="1762" y="112"/>
<text x="1852" y="127" font-family="sans-serif" font-size="10px" text-anchor="middle">J12</text><text x="1852" y="137" font-family="sans-serif" font-size="10px" text-anchor="middle">850</text><text x="1852" y="147" font-family="sans-serif" font-size="10px" text-anchor="middle">941</text>
<rect style="fill:rgb(191,162,33);fill-opacity:0.5;" width="116" height="48" x="2072" y="162"/>
<text x="2130" y="177" font-family="sans-serif" font-size="10px" text-anchor="middle">J12</text><text x="2130" y="187" font-family="sans-serif" font-size="10px" text-anchor="middle">1005</text><text x="2130" y="197" font-family="sans-serif" font-size="10px" text-anchor="middle">1064</text>
<rect style="fill:rgb(191,162,33);fill-opacity:0.5;" width="116" height="48" x="2104" y="262"/>
<text x="2162" y="277" font-family="sans-serif" font-size="10px" text-anchor="middle">J12</text><text x="2162" y="287" font-family="sans-serif" font-size="10px" text-anchor="middle">1021</text><text x="2162" y="297" font-family="sans-serif" font-size="10px" text-anchor="middle">1080</text>
<rect style="fill:rgb(191,162,33);fill-opacity:0.5;" width="90" height="48" x="92" y="62"/>
<text x="137" y="77" font-family="sans-serif" font-size="10px" text-anchor="middle">J12</text><text x="137" y="87" font-family="sans-serif" font-size="10px" text-anchor="middle">15</text><text x="137" y="97" font-family="sans-serif" font-size="10px" text-anchor="middle">61</text>
<rect style="fill:rgb(191,162,33);fill-opacity:0.5;" width="30" height="48" x="328" y="212"/>
<text x="343" y="227" font-family="sans-serif" font-size="10px" text-anchor="middle">J12</text><text x="343" y="237" font-family="sans-serif" font-size="10px" text-anchor="middle">133</text><text x="343" y="247" font-family="sans-serif" font-size="10px" text-anchor="middle">149</text>
<rect style="fill:rgb(240,159,9);fill-opacity:0.5;" width="52" height="48" x="576" y="162"/>
<text x="602" y="177" font-family="sans-serif" font-size="10px" text-anchor="middle">J13</text><text x="602" y="187" font-family="sans-serif" font-size="10px" text-anchor="middle">257</text><text x="602" y="197" font-family="sans-serif" font-size="10px" text-anchor="middle">284</text>
<rect style="fill:rgb(240,159,9);fill-opacity:0.5;" width="102" height="48" x="834" y="112"/>
<text x="885" y="127" font-family="sans-serif" font-size="10px" text-anchor="middle">J13</text><text x="885" y="137" font-family="sans-serif" font-size="10px" text-anchor="middle">386</text><text x="885" y="147" font-family="sans-serif" font-size="10px" text-anchor="middle">438</text>
<rect style="fill:rgb(240,159,9);fill-opacity:0.5;" width="84" height="48" x="1114" y="262"/>
<text x="1156" y="277" font-family="sans-serif" font-size="10px" text-anchor="middle">J13</text><text x="1156" y="287" font-family="sans-serif" font-size="10px" text-anchor="middle">526</text><text x="1156" y="297" font-family="sans-serif" font-size="10px" text-anchor="middle">569</text>
<rect style="fill:rgb(240,159,9);fill-opacity:0.5;" width="54" height="48" x="24" y="62"/>
<text x="51" y="77" font-family="sans-serif" font-size="10px" text-anchor="middle">J13</text><text x="51" y="87" font-family="sans-serif" font-size="10px" text-anchor="middle">-19</text><text x="51" y="97" font-family="sans-serif" font-size="10px" text-anchor="middle">9</text>
<rect style="fill:rgb(240,159,9);fill-opacity:0.5;" width="98" height="48" x="2264" y="212"/>
<text x="2313" y="227" font-family="sans-serif" font-size="10px" text-anchor="middle">J13</text><text x="2313" y="237" font-family="sans-serif" font-size="10px" text-anchor="middle">1101</text><text x="2313" y="247" font-family="sans-serif" font-size="10px" text-anchor="middle">1151</text>
<rect style="fill:rgb(208,25,126);fill-opacity:0.5;" width="16" height="48" x="2428" y="262"/>
<text x="2436" y="277" font-family="sans-serif" font-size="10px" text-anchor="middle">J14</text><text x="2436" y="287" font-family="sans-serif" font-size="10px" text-anchor="middle">1183</text><text x="2436" y="297" font-family="sans-serif" font-size="10px" text-anchor="middle">1192</text>
<rect style="fill:rgb(208,25,126);fill-opacity:0.5;" width="172" height="48" x="2350" y="62"/>
<text x="2436" y="77" font-family="sans-serif" font-size="10px" text-anchor="middle">J14</text><text x="2436" y="87" font-family="sans-serif" font-size="10px" text-anchor="middle">1144</text><text x="2436" y="97" font-family="sans-serif" font-size="10px" text-anchor="middle">1231</text>
<rect style="fill:rgb(208,25,126);fill-opacity:0.5;" width="80" height="48" x="2532" y="212"/>
<text x="2572" y="227" font-family="sans-serif" font-size="10px" text-anchor="middle">J14</text><text x="2572" y="237" font-family="sans-serif" font-size="10px" text-anchor="middle">1235</text><text x="2572" y="247" font-family="sans-serif" font-size="10px" text-anchor="middle">1276</text>
<rect style="fill:rgb(208,25,126);fill-opacity:0.5;" width="76" height="48" x="390" y="162"/>
<text x="428" y="177" font-family="sans-serif" font-size="10px" text-anchor="middle">J14</text><text x="428" y="187" font-family="sans-serif" font-size="10px" text-anchor="middle">164</text><text x="428" y="197" font-family="sans-serif" font-size="10px" text-anchor="middle">203</text>
<rect style="fill:rgb(208,25,126);fill-opacity:0.5;" width="88" height="48" x="418" y="112"/>
<text x="462" y="127" font-family="sans-serif" font-size="10px" text-anchor="middle">J14</text><text x="462" y="137" font-family="sans-serif" font-size="10px" text-anchor="middle">178</text><text x="462" y="147" font-family="sans-serif" font-size="10px" text-anchor="middle">223</text>
<rect style="fill:rgb(169,3,81);fill-opacity:0.5;" width="106" height="48" x="668" y="112"/>
<text x="721" y="127" font-family="sans-serif" font-size="10px" text-anchor="middle">J15</text><text x="721" y="137" font-family="sans-serif" font-size="10px" text-anchor="middle">303</text><text x="721" y="147" font-family="sans-serif" font-size="10px" text-anchor="middle">357</text>
<rect style="fill:rgb(169,3,81);fill-opacity:0.5;" width="38" height="48" x="906" y="62"/>
<text x="925" y="77" font-family="sans-serif" font-size="10px" text-anchor="middle">J15</text><text x="925" y="87" font-family="sans-serif" font-size="10px" text-anchor="middle">422</text><text x="925" y="97" font-family="sans-serif" font-size="10px" text-anchor="middle">442</text>
<rect style="fill:rgb(169,3,81);fill-opacity:0.5;" width="84" height="48" x="1032" y="262"/>
<text x="1074" y="277" font-family="sans-serif" font-size="10px" text-anchor="middle">J15</text><text x="1074" y="287" font-family="sans-serif" font-size="10px" text-anchor="middle">485</text><text x="1074" y="297" font-family="sans-serif" font-size="10px" text-anchor="middle">528</text>
<rect style="fill:rgb(169,3,81);fill-opacity:0.5;" width="26" height="48" x="168" y="212"/>
<text x="181" y="227" font-family="sans-serif" font-size="10px" text-anchor="middle">J15</text><text x="181" y="237" font-family="sans-serif" font-size="10px" text-anchor="middle">53</text><text x="181" y="247" font-family="sans-serif" font-size="10px" text-anchor="middle">67</text>
<rect style="fill:rgb(169,3,81);fill-opacity:0.5;" width="140" height="48" x="646" y="162"/>
<text x="716" y="177" font-family="sans-serif" font-size="10px" text-anchor="middle">J15</text><text x="716" y="187" font-family="sans-serif" font-size="10px" text-anchor="middle">292</text><text x="716" y="197" font-family="sans-serif" font-size="10px" text-anchor="middle">363</text>
<rect style="fill:rgb(28,179,208);fill-opacity:0.5;" width="64" height="48" x="774" y="262"/>
<text x="806" y="277" font-family="sans-serif" font-size="10px" text-anchor="middle">J16</text><text x="806" y="287" font-family="sans-serif" font-size="10px" text-anchor="middle">356</text><text x="806" y="297" font-family="sans-serif" font-size="10px" text-anchor="middle">389</text>
<rect style="fill:rgb(28,179,208);fill-opacity:0.5;" width="54" height="48" x="1038" y="112"/>
<text x="1065" y="127" font-family="sans-serif" font-size="10px" text-anchor="middle">J16</text><text x="1065" y="137" font-family="sans-serif" font-size="10px" text-anchor="middle">488</text><text x="1065" y="147" font-family="sans-serif" font-size="10px" text-anchor="middle">516</text>
<rect style="fill:rgb(28,179,208);fill-opacity:0.5;" width="50" height="48" x="1226" y="212"/>
<text x="1251" y="227" font-family="sans-serif" font-size="10px" text-anchor="middle">J16</text><text x="1251" y="237" font-family="sans-serif" font-size="10px" text-anchor="middle">582</text><text x="1251" y="247" font-family="sans-serif" font-size="10px" text-anchor="middle">608</text>
<rect style="fill:rgb(28,179,208);fill-opacity:0.5;" width="154" height="48" x="1256" y="62"/>
<text x="1333" y="77" font-family="sans-serif" font-size="10px" text-anchor="middle">J16</text><text x="1333" y="87" font-family="sans-serif" font-size="10px" text-anchor="middle">597</text><text x="1333" y="97" font-family="sans-serif" font-size="10px" text-anchor="middle">675</text>
<rect style="fill:rgb(28,179,208);fill-opacity:0.5;" width="72" height="48" x="1456" y="162"/>
<text x="1492" y="177" font-family="sans-serif" font-size="10px" text-anchor="middle">J16</text><text x="1492" y="187" font-family="sans-serif" font-size="10px" text-anchor="middle">697</text><text x="1492" y="197" font-family="sans-serif" font-size="10px" text-anchor="middle">734</text>
<rect style="fill:rgb(57,17,172);fill-opacity:0.5;" width="176" height="48" x="1432" y="112"/>
<text x="1520" y="127" font-family="sans-serif" font-size="10px" text-anchor="middle">J17</text><text x="1520" y="137" font-family="sans-serif" font-size="10px" text-anchor="middle">685</text><text x="1520" y="147" font-family="sans-serif" font-size="10px" text-anchor="middle">774</text>
<rect style="fill:rgb(57,17,172);fill-opacity:0.5;" width="64" height="48" x="1676" y="62"/>
<text x="1708" y="77" font-family="sans-serif" font-size="10px" text-anchor="middle">J17</text><text x="1708" y="87" font-family="sans-serif" font-size="10px" text-anchor="middle">807</text><text x="1708" y="97" font-family="sans-serif" font-size="10px" text-anchor="middle">840</text>
<rect style="fill:rgb(57,17,172);fill-opacity:0.5;" width="14" height="48" x="1810" y="162"/>
<text x="1817" y="177" font-family="sans-serif" font-size="10px" text-anchor="middle">J17</text><text x="1817" y="187" font-family="sans-serif" font-size="10px" text-anchor="middle">874</text><text x="1817" y="197" font-family="sans-serif" font-size="10px" text-anchor="middle">882</text>
<rect style="fill:rgb(57,17,172);fill-opacity:0.5;" width="130" height="48" x="1044" y="212"/>
<text x="1109" y="227" font-family="sans-serif" font-size="10px" text-anchor="middle">J17</text><text x="1109" y="237" font-family="sans-serif" font-size="10px" text-anchor="middle">491</text><text x="1109" y="247" font-family="sans-serif" font-size="10px" text-anchor="middle">557</text>
<rect style="fill:rgb(57,17,172);fill-opacity:0.5;" width="82" height="48" x="1270" y="262"/>
<text x="1311" y="277" font-family="sans-serif" font-size="10px" text-anchor="middle">J17</text><text x="1311" y="287" font-family="sans-serif" font-size="10px" text-anchor="middle">604</text><text x="1311" y="297" font-family="sans-serif" font-size="10px" text-anchor="middle">646</text>
<rect style="fill:rgb(81,91,2);fill-opacity:0.5;" width="166" height="48" x="1426" y="262"/>
<text x="1509" y="277" font-family="sans-serif" font-size="10px" text-anchor="middle">J18</text><text x="1509" y="287" font-family="sans-serif" font-size="10px" text-anchor="middle">682</text><text x="1509" y="297" font-family="sans-serif" font-size="10px" text-anchor="middle">766</text>
<rect style="fill:rgb(81,91,2);fill-opacity:0.5;" width="136" height="48" x="1628" y="62"/>
<text x="1696" y="77" font-family="sans-serif" font-size="10px" text-anchor="middle">J18</text><text x="1696" y="87" font-family="sans-serif" font-size="10px" text-anchor="middle">783</text><text x="1696" y="97" font-family="sans-serif" font-size="10px" text-anchor="middle">852</text>
<rect style="fill:rgb(81,91,2);fill-opacity:0.5;" width="186" height="48" x="1632" y="162"/>
<text x="1725" y="177" font-family="sans-serif" font-size="10px" text-anchor="middle">J18</text><text x="1725" y="187" font-family="sans-serif" font-size="10px" text-anchor="middle">785</text><text x="1725" y="197" font-family="sans-serif" font-size="10px" text-anchor="middle">879</text>
<rect style="fill:rgb(81,91,2);fill-opacity:0.5;" width="146" height="48" x="396" y="112"/>
<text x="469" y="127" font-family="sans-serif" font-size="10px" text-anchor="middle">J18</text><text x="469" y="137" font-family="sans-serif" font-size="10px" text-anchor="middle">167</text><text x="469" y="147" font-family="sans-serif" font-size="10px" text-anchor="middle">241</text>
<rect style="fill:rgb(81,91,2);fill-opacity:0.5;" width="52" height="48" x="662" y="212"/>
<text x="688" y="227" font-family="sans-serif" font-size="10px" text-anchor="middle">J18</text><text x="688" y="237" font-family="sans-serif" font-size="10px" text-anchor="middle">300</text><text x="688" y="247" font-family="sans-serif" font-size="10px" text-anchor="middle">327</text>
<rect style="fill:rgb(32,132,15);fill-opacity:0.5;" width="160" height="48" x="782" y="262"/>
<text x="862" y="277" font-family="sans-serif" font-size="10px" text-anchor="middle">J19</text><text x="862" y="287" font-family="sans-serif" font-size="10px" text-anchor="middle">360</text><text x="862" y="297" font-family="sans-serif" font-size="10px" text-anchor="middle">441</text>
<rect style="fill:rgb(32,132,15);fill-opacity:0.5;" width="88" height="48" x="1352" y="162"/>
<text x="1396" y="177" font-family="sans-serif" font-size="10px" text-anchor="middle">J19</text><text x="1396" y="187" font-family="sans-serif" font-size="10px" text-anchor="middle">645</text><text x="1396" y="197" font-family="sans-serif" font-size="10px" text-anchor="middle">690</text>
<rect style="fill:rgb(32,132,15);fill-opacity:0.5;" width="154" height="48" x="1566" y="112"/>
<text x="1643" y="127" font-family="sans-serif" font-size="10px" text-anchor="middle">J19</text><text x="1643" y="137" font-family="sans-serif" font-size="10px" text-anchor="middle">752</text><text x="1643" y="147" font-family="sans-serif" font-size="10px" text-anchor="middle">830</text>
<rect style="fill:rgb(32,132,15);fill-opacity:0.5;" width="136" height="48" x="-1717986996" y="212"/>
<text x="429496720" y="227" font-family="sans-serif" font-size="10px" text-anchor="middle">J19</text><text x="429496720" y="237" font-family="sans-serif" font-size="10px" text-anchor="middle">-858993529</text><text x="429496720" y="247" font-family="sans-serif" font-size="10px" text-anchor="middle">-858993460</text>
<rect style="fill:rgb(32,132,15);fill-opacity:0.5;" width="190" height="48" x="-1717987050" y="62"/>
<text x="429496693" y="77" font-family="sans-serif" font-size="10px" text-anchor="middle">J19</text><text x="429496693" y="87" font-family="sans-serif" font-size="10px" text-anchor="middle">-858993556</text><text x="429496693" y="97" font-family="sans-serif" font-size="10px" text-anchor="middle">-858993460</text>
<line x1="60" y1="40" x2="60" y2="312" stroke="dimgrey" />
<line x1="60" y1="40" x2="70" y2="50" stroke="dimgrey" />
<text x="35" y="90" font-family="sans-serif" font-size="10px" text-anchor="middle">M.1</text>
<text x="35" y="140" font-family="sans-serif" font-size="10px" text-anchor="middle">M.2</text>
<text x="35" y="190" font-family="sans-serif" font-size="10px" text-anchor="middle">M.3</text>
<text x="35" y="240" font-family="sans-serif" font-size="10px" text-anchor="middle">M.4</text>
<text x="35" y="290" font-family="sans-serif" font-size="10px" text-anchor="middle">M.5</text>
<line x1="60" y1="312" x2="96" y2="312" stroke="dimgrey" />
<line x1="86" y1="302" x2="96" y2="312" stroke="dimgrey" />
<line x1="76" y1="314" x2="76" y2="322" stroke="dimgrey" />
<text x="70" y="35" font-family="sans-serif" font-size="20px" text-anchor="middle" fill="dimgrey">Machines</text>
<text x="116" y="312" font-family="sans-serif" font-size="20px" text-anchor="middle" fill="dimgrey">Time</text>
<text x="80" y="342" font-family="sans-serif" font-size="30px" text-anchor="middle" fill="dimgrey">Diagramme de Gantt du problème: la11.txt - makespan: 8</text>
</svg>
