<?xml version="1.0" encoding="UTF-8" standalone="no"?>
 <svg xmlns="http://www.w3.org/2000/svg" version="1.1" width="167" height="350">
<title> Diagramme de Gantt du Probleme: la12.txt</title>
<desc> Cette figure represente le planning des operations du probleme traite.</desc>
<rect style="fill:rgb(62,139,185);fill-opacity:0.5;" width="44" height="48" x="532" y="112"/>
<text x="554" y="127" font-family="sans-serif" font-size="10px" text-anchor="middle">J0</text><text x="554" y="137" font-family="sans-serif" font-size="10px" text-anchor="middle">235</text><text x="554" y="147" font-family="sans-serif" font-size="10px" text-anchor="middle">258</text>
<rect style="fill:rgb(62,139,185);fill-opacity:0.5;" width="162" height="48" x="504" y="62"/>
<text x="585" y="77" font-family="sans-serif" font-size="10px" text-anchor="middle">J0</text><text x="585" y="87" font-family="sans-serif" font-size="10px" text-anchor="middle">221</text><text x="585" y="97" font-family="sans-serif" font-size="10px" text-anchor="middle">303</text>
<rect style="fill:rgb(62,139,185);fill-opacity:0.5;" width="166" height="48" x="658" y="262"/>
<text x="741" y="277" font-family="sans-serif" font-size="10px" text-anchor="middle">J0</text><text x="741" y="287" font-family="sans-serif" font-size="10px" text-anchor="middle">298</text><text x="741" y="297" font-family="sans-serif" font-size="10px" text-anchor="middle">382</text>
<rect style="fill:rgb(62,139,185);fill-opacity:0.5;" width="88" height="48" x="476" y="162"/>
<text x="520" y="177" font-family="sans-serif" font-size="10px" text-anchor="middle">J0</text><text x="520" y="187" font-family="sans-serif" font-size="10px" text-anchor="middle">207</text><text x="520" y="197" font-family="sans-serif" font-size="10px" text-anchor="middle">252</text>
<rect style="fill:rgb(62,139,185);fill-opacity:0.5;" width="74" height="48" x="902" y="212"/>
<text x="939" y="227" font-family="sans-serif" font-size="10px" text-anchor="middle">J0</text><text x="939" y="237" font-family="sans-serif" font-size="10px" text-anchor="middle">420</text><text x="939" y="247" font-family="sans-serif" font-size="10px" text-anchor="middle">458</text>
<rect style="fill:rgb(238,172,238);fill-opacity:0.5;" width="98" height="48" x="1018" y="212"/>
<text x="1067" y="227" font-family="sans-serif" font-size="10px" text-anchor="middle">J1</text><text x="1067" y="237" font-family="sans-serif" font-size="10px" text-anchor="middle">478</text><text x="1067" y="247" font-family="sans-serif" font-size="10px" text-anchor="middle">528</text>
<rect style="fill:rgb(238,172,238);fill-opacity:0.5;" width="80" height="48" x="1072" y="262"/>
<text x="1112" y="277" font-family="sans-serif" font-size="10px" text-anchor="middle">J1</text><text x="1112" y="287" font-family="sans-serif" font-size="10px" text-anchor="middle">505</text><text x="1112" y="297" font-family="sans-serif" font-size="10px" text-anchor="middle">546</text>
<rect style="fill:rgb(238,172,238);fill-opacity:0.5;" width="56" height="48" x="1150" y="112"/>
<text x="1178" y="127" font-family="sans-serif" font-size="10px" text-anchor="middle">J1</text><text x="1178" y="137" font-family="sans-serif" font-size="10px" text-anchor="middle">544</text><text x="1178" y="147" font-family="sans-serif" font-size="10px" text-anchor="middle">573</text>
<rect style="fill:rgb(238,172,238);fill-opacity:0.5;" width="34" height="48" x="202" y="62"/>
<text x="219" y="77" font-family="sans-serif" font-size="10px" text-anchor="middle">J1</text><text x="219" y="87" font-family="sans-serif" font-size="10px" text-anchor="middle">70</text><text x="219" y="97" font-family="sans-serif" font-size="10px" text-anchor="middle">88</text>
<rect style="fill:rgb(238,172,238);fill-opacity:0.5;" width="40" height="48" x="424" y="162"/>
<text x="444" y="177" font-family="sans-serif" font-size="10px" text-anchor="middle">J1</text><text x="444" y="187" font-family="sans-serif" font-size="10px" text-anchor="middle">181</text><text x="444" y="197" font-family="sans-serif" font-size="10px" text-anchor="middle">202</text>
<rect style="fill:rgb(47,232,102);fill-opacity:0.5;" width="30" height="48" x="696" y="262"/>
<text x="711" y="277" font-family="sans-serif" font-size="10px" text-anchor="middle">J2</text><text x="711" y="287" font-family="sans-serif" font-size="10px" text-anchor="middle">317</text><text x="711" y="297" font-family="sans-serif" font-size="10px" text-anchor="middle">333</text>
<rect style="fill:rgb(47,232,102);fill-opacity:0.5;" width="106" height="48" x="764" y="212"/>
<text x="817" y="227" font-family="sans-serif" font-size="10px" text-anchor="middle">J2</text><text x="817" y="237" font-family="sans-serif" font-size="10px" text-anchor="middle">351</text><text x="817" y="247" font-family="sans-serif" font-size="10px" text-anchor="middle">405</text>
<rect style="fill:rgb(47,232,102);fill-opacity:0.5;" width="102" height="48" x="1154" y="112"/>
<text x="1205" y="127" font-family="sans-serif" font-size="10px" text-anchor="middle">J2</text><text x="1205" y="137" font-family="sans-serif" font-size="10px" text-anchor="middle">546</text><text x="1205" y="147" font-family="sans-serif" font-size="10px" text-anchor="middle">598</text>
<rect style="fill:rgb(47,232,102);fill-opacity:0.5;" width="74" height="48" x="1250" y="162"/>
<text x="1287" y="177" font-family="sans-serif" font-size="10px" text-anchor="middle">J2</text><text x="1287" y="187" font-family="sans-serif" font-size="10px" text-anchor="middle">594</text><text x="1287" y="197" font-family="sans-serif" font-size="10px" text-anchor="middle">632</text>
<rect style="fill:rgb(47,232,102);fill-opacity:0.5;" width="102" height="48" x="1336" y="62"/>
<text x="1387" y="77" font-family="sans-serif" font-size="10px" text-anchor="middle">J2</text><text x="1387" y="87" font-family="sans-serif" font-size="10px" text-anchor="middle">637</text><text x="1387" y="97" font-family="sans-serif" font-size="10px" text-anchor="middle">689</text>
<rect style="fill:rgb(25,19,248);fill-opacity:0.5;" width="122" height="48" x="1390" y="112"/>
<text x="1451" y="127" font-family="sans-serif" font-size="10px" text-anchor="middle">J3</text><text x="1451" y="137" font-family="sans-serif" font-size="10px" text-anchor="middle">664</text><text x="1451" y="147" font-family="sans-serif" font-size="10px" text-anchor="middle">726</text>
<rect style="fill:rgb(25,19,248);fill-opacity:0.5;" width="112" height="48" x="1584" y="212"/>
<text x="1640" y="227" font-family="sans-serif" font-size="10px" text-anchor="middle">J3</text><text x="1640" y="237" font-family="sans-serif" font-size="10px" text-anchor="middle">761</text><text x="1640" y="247" font-family="sans-serif" font-size="10px" text-anchor="middle">818</text>
<rect style="fill:rgb(25,19,248);fill-opacity:0.5;" width="72" height="48" x="1740" y="262"/>
<text x="1776" y="277" font-family="sans-serif" font-size="10px" text-anchor="middle">J3</text><text x="1776" y="287" font-family="sans-serif" font-size="10px" text-anchor="middle">839</text><text x="1776" y="297" font-family="sans-serif" font-size="10px" text-anchor="middle">876</text>
<rect style="fill:rgb(25,19,248);fill-opacity:0.5;" width="146" height="48" x="554" y="162"/>
<text x="627" y="177" font-family="sans-serif" font-size="10px" text-anchor="middle">J3</text><text x="627" y="187" font-family="sans-serif" font-size="10px" text-anchor="middle">246</text><text x="627" y="197" font-family="sans-serif" font-size="10px" text-anchor="middle">320</text>
<rect style="fill:rgb(25,19,248);fill-opacity:0.5;" width="106" height="48" x="742" y="62"/>
<text x="795" y="77" font-family="sans-serif" font-size="10px" text-anchor="middle">J3</text><text x="795" y="87" font-family="sans-serif" font-size="10px" text-anchor="middle">340</text><text x="795" y="97" font-family="sans-serif" font-size="10px" text-anchor="middle">394</text>
<rect style="fill:rgb(142,6,56);fill-opacity:0.5;" width="134" height="48" x="1030" y="212"/>
<text x="1097" y="227" font-family="sans-serif" font-size="10px" text-anchor="middle">J4</text><text x="1097" y="237" font-family="sans-serif" font-size="10px" text-anchor="middle">484</text><text x="1097" y="247" font-family="sans-serif" font-size="10px" text-anchor="middle">552</text>
<rect style="fill:rgb(142,6,56);fill-opacity:0.5;" width="120" height="48" x="1480" y="112"/>
<text x="1540" y="127" font-family="sans-serif" font-size="10px" text-anchor="middle">J4</text><text x="1540" y="137" font-family="sans-serif" font-size="10px" text-anchor="middle">709</text><text x="1540" y="147" font-family="sans-serif" font-size="10px" text-anchor="middle">770</text>
<rect style="fill:rgb(142,6,56);fill-opacity:0.5;" width="58" height="48" x="1656" y="162"/>
<text x="1685" y="177" font-family="sans-serif" font-size="10px" text-anchor="middle">J4</text><text x="1685" y="187" font-family="sans-serif" font-size="10px" text-anchor="middle">797</text><text x="1685" y="197" font-family="sans-serif" font-size="10px" text-anchor="middle">827</text>
<rect style="fill:rgb(142,6,56);fill-opacity:0.5;" width="160" height="48" x="1994" y="62"/>
<text x="2074" y="77" font-family="sans-serif" font-size="10px" text-anchor="middle">J4</text><text x="2074" y="87" font-family="sans-serif" font-size="10px" text-anchor="middle">966</text><text x="2074" y="97" font-family="sans-serif" font-size="10px" text-anchor="middle">1047</text>
<rect style="fill:rgb(142,6,56);fill-opacity:0.5;" width="112" height="48" x="2220" y="262"/>
<text x="2276" y="277" font-family="sans-serif" font-size="10px" text-anchor="middle">J4</text><text x="2276" y="287" font-family="sans-serif" font-size="10px" text-anchor="middle">1079</text><text x="2276" y="297" font-family="sans-serif" font-size="10px" text-anchor="middle">1136</text>
<rect style="fill:rgb(65,243,73);fill-opacity:0.5;" width="176" height="48" x="2178" y="112"/>
<text x="2266" y="127" font-family="sans-serif" font-size="10px" text-anchor="middle">J5</text><text x="2266" y="137" font-family="sans-serif" font-size="10px" text-anchor="middle">1058</text><text x="2266" y="147" font-family="sans-serif" font-size="10px" text-anchor="middle">1147</text>
<rect style="fill:rgb(65,243,73);fill-opacity:0.5;" width="176" height="48" x="2336" y="162"/>
<text x="2424" y="177" font-family="sans-serif" font-size="10px" text-anchor="middle">J5</text><text x="2424" y="187" font-family="sans-serif" font-size="10px" text-anchor="middle">1137</text><text x="2424" y="197" font-family="sans-serif" font-size="10px" text-anchor="middle">1226</text>
<rect style="fill:rgb(65,243,73);fill-opacity:0.5;" width="20" height="48" x="2654" y="212"/>
<text x="2664" y="227" font-family="sans-serif" font-size="10px" text-anchor="middle">J5</text><text x="2664" y="237" font-family="sans-serif" font-size="10px" text-anchor="middle">1296</text><text x="2664" y="247" font-family="sans-serif" font-size="10px" text-anchor="middle">1307</text>
<rect style="fill:rgb(65,243,73);fill-opacity:0.5;" width="156" height="48" x="1628" y="62"/>
<text x="1706" y="77" font-family="sans-serif" font-size="10px" text-anchor="middle">J5</text><text x="1706" y="87" font-family="sans-serif" font-size="10px" text-anchor="middle">783</text><text x="1706" y="97" font-family="sans-serif" font-size="10px" text-anchor="middle">862</text>
<rect style="fill:rgb(65,243,73);fill-opacity:0.5;" width="160" height="48" x="1834" y="262"/>
<text x="1914" y="277" font-family="sans-serif" font-size="10px" text-anchor="middle">J5</text><text x="1914" y="287" font-family="sans-serif" font-size="10px" text-anchor="middle">886</text><text x="1914" y="297" font-family="sans-serif" font-size="10px" text-anchor="middle">967</text>
<rect style="fill:rgb(117,156,15);fill-opacity:0.5;" width="130" height="48" x="1930" y="112"/>
<text x="1995" y="127" font-family="sans-serif" font-size="10px" text-anchor="middle">J6</text><text x="1995" y="137" font-family="sans-serif" font-size="10px" text-anchor="middle">934</text><text x="1995" y="147" font-family="sans-serif" font-size="10px" text-anchor="middle">1000</text>
<rect style="fill:rgb(117,156,15);fill-opacity:0.5;" width="180" height="48" x="1920" y="62"/>
<text x="2010" y="77" font-family="sans-serif" font-size="10px" text-anchor="middle">J6</text><text x="2010" y="87" font-family="sans-serif" font-size="10px" text-anchor="middle">929</text><text x="2010" y="97" font-family="sans-serif" font-size="10px" text-anchor="middle">1020</text>
<rect style="fill:rgb(117,156,15);fill-opacity:0.5;" width="64" height="48" x="2308" y="212"/>
<text x="2340" y="227" font-family="sans-serif" font-size="10px" text-anchor="middle">J6</text><text x="2340" y="237" font-family="sans-serif" font-size="10px" text-anchor="middle">1123</text><text x="2340" y="247" font-family="sans-serif" font-size="10px" text-anchor="middle">1156</text>
<rect style="fill:rgb(117,156,15);fill-opacity:0.5;" width="38" height="48" x="38" y="262"/>
<text x="57" y="277" font-family="sans-serif" font-size="10px" text-anchor="middle">J6</text><text x="57" y="287" font-family="sans-serif" font-size="10px" text-anchor="middle">-12</text><text x="57" y="297" font-family="sans-serif" font-size="10px" text-anchor="middle">8</text>
<rect style="fill:rgb(117,156,15);fill-opacity:0.5;" width="38" height="48" x="86" y="162"/>
<text x="105" y="177" font-family="sans-serif" font-size="10px" text-anchor="middle">J6</text><text x="105" y="187" font-family="sans-serif" font-size="10px" text-anchor="middle">12</text><text x="105" y="197" font-family="sans-serif" font-size="10px" text-anchor="middle">32</text>
<rect style="fill:rgb(241,98,202);fill-opacity:0.5;" width="14" height="48" x="966" y="212"/>
<text x="973" y="227" font-family="sans-serif" font-size="10px" text-anchor="middle">J7</text><text x="973" y="237" font-family="sans-serif" font-size="10px" text-anchor="middle">452</text><text x="973" y="247" font-family="sans-serif" font-size="10px" text-anchor="middle">460</text>
<rect style="fill:rgb(241,98,202);fill-opacity:0.5;" width="46" height="48" x="1046" y="262"/>
<text x="1069" y="277" font-family="sans-serif" font-size="10px" text-anchor="middle">J7</text><text x="1069" y="287" font-family="sans-serif" font-size="10px" text-anchor="middle">492</text><text x="1069" y="297" font-family="sans-serif" font-size="10px" text-anchor="middle">516</text>
<rect style="fill:rgb(241,98,202);fill-opacity:0.5;" width="108" height="48" x="1384" y="162"/>
<text x="1438" y="177" font-family="sans-serif" font-size="10px" text-anchor="middle">J7</text><text x="1438" y="187" font-family="sans-serif" font-size="10px" text-anchor="middle">661</text><text x="1438" y="197" font-family="sans-serif" font-size="10px" text-anchor="middle">716</text>
<rect style="fill:rgb(241,98,202);fill-opacity:0.5;" width="62" height="48" x="50" y="62"/>
<text x="81" y="77" font-family="sans-serif" font-size="10px" text-anchor="middle">J7</text><text x="81" y="87" font-family="sans-serif" font-size="10px" text-anchor="middle">-6</text><text x="81" y="97" font-family="sans-serif" font-size="10px" text-anchor="middle">26</text>
<rect style="fill:rgb(241,98,202);fill-opacity:0.5;" width="166" height="48" x="136" y="112"/>
<text x="219" y="127" font-family="sans-serif" font-size="10px" text-anchor="middle">J7</text><text x="219" y="137" font-family="sans-serif" font-size="10px" text-anchor="middle">37</text><text x="219" y="147" font-family="sans-serif" font-size="10px" text-anchor="middle">121</text>
<rect style="fill:rgb(44,47,26);fill-opacity:0.5;" width="12" height="48" x="368" y="62"/>
<text x="374" y="77" font-family="sans-serif" font-size="10px" text-anchor="middle">J8</text><text x="374" y="87" font-family="sans-serif" font-size="10px" text-anchor="middle">153</text><text x="374" y="97" font-family="sans-serif" font-size="10px" text-anchor="middle">160</text>
<rect style="fill:rgb(44,47,26);fill-opacity:0.5;" width="126" height="48" x="562" y="162"/>
<text x="625" y="177" font-family="sans-serif" font-size="10px" text-anchor="middle">J8</text><text x="625" y="187" font-family="sans-serif" font-size="10px" text-anchor="middle">250</text><text x="625" y="197" font-family="sans-serif" font-size="10px" text-anchor="middle">314</text>
<rect style="fill:rgb(44,47,26);fill-opacity:0.5;" width="76" height="48" x="1038" y="112"/>
<text x="1076" y="127" font-family="sans-serif" font-size="10px" text-anchor="middle">J8</text><text x="1076" y="137" font-family="sans-serif" font-size="10px" text-anchor="middle">488</text><text x="1076" y="147" font-family="sans-serif" font-size="10px" text-anchor="middle">527</text>
<rect style="fill:rgb(44,47,26);fill-opacity:0.5;" width="110" height="48" x="-12" y="262"/>
<text x="43" y="277" font-family="sans-serif" font-size="10px" text-anchor="middle">J8</text><text x="43" y="287" font-family="sans-serif" font-size="10px" text-anchor="middle">-37</text><text x="43" y="297" font-family="sans-serif" font-size="10px" text-anchor="middle">19</text>
<rect style="fill:rgb(44,47,26);fill-opacity:0.5;" width="106" height="48" x="98" y="212"/>
<text x="151" y="227" font-family="sans-serif" font-size="10px" text-anchor="middle">J8</text><text x="151" y="237" font-family="sans-serif" font-size="10px" text-anchor="middle">18</text><text x="151" y="247" font-family="sans-serif" font-size="10px" text-anchor="middle">72</text>
<rect style="fill:rgb(42,223,105);fill-opacity:0.5;" width="36" height="48" x="244" y="62"/>
<text x="262" y="77" font-family="sans-serif" font-size="10px" text-anchor="middle">J9</text><text x="262" y="87" font-family="sans-serif" font-size="10px" text-anchor="middle">91</text><text x="262" y="97" font-family="sans-serif" font-size="10px" text-anchor="middle">110</text>
<rect style="fill:rgb(42,223,105);fill-opacity:0.5;" width="78" height="48" x="326" y="262"/>
<text x="365" y="277" font-family="sans-serif" font-size="10px" text-anchor="middle">J9</text><text x="365" y="287" font-family="sans-serif" font-size="10px" text-anchor="middle">132</text><text x="365" y="297" font-family="sans-serif" font-size="10px" text-anchor="middle">172</text>
<rect style="fill:rgb(42,223,105);fill-opacity:0.5;" width="12" height="48" x="610" y="212"/>
<text x="616" y="227" font-family="sans-serif" font-size="10px" text-anchor="middle">J9</text><text x="616" y="237" font-family="sans-serif" font-size="10px" text-anchor="middle">274</text><text x="616" y="247" font-family="sans-serif" font-size="10px" text-anchor="middle">281</text>
<rect style="fill:rgb(42,223,105);fill-opacity:0.5;" width="14" height="48" x="510" y="162"/>
<text x="517" y="177" font-family="sans-serif" font-size="10px" text-anchor="middle">J9</text><text x="517" y="187" font-family="sans-serif" font-size="10px" text-anchor="middle">224</text><text x="517" y="197" font-family="sans-serif" font-size="10px" text-anchor="middle">232</text>
<rect style="fill:rgb(42,223,105);fill-opacity:0.5;" width="164" height="48" x="630" y="112"/>
<text x="712" y="127" font-family="sans-serif" font-size="10px" text-anchor="middle">J9</text><text x="712" y="137" font-family="sans-serif" font-size="10px" text-anchor="middle">284</text><text x="712" y="147" font-family="sans-serif" font-size="10px" text-anchor="middle">367</text>
<rect style="fill:rgb(184,151,139);fill-opacity:0.5;" width="124" height="48" x="882" y="62"/>
<text x="944" y="77" font-family="sans-serif" font-size="10px" text-anchor="middle">J10</text><text x="944" y="87" font-family="sans-serif" font-size="10px" text-anchor="middle">410</text><text x="944" y="97" font-family="sans-serif" font-size="10px" text-anchor="middle">473</text>
<rect style="fill:rgb(184,151,139);fill-opacity:0.5;" width="126" height="48" x="960" y="162"/>
<text x="1023" y="177" font-family="sans-serif" font-size="10px" text-anchor="middle">J10</text><text x="1023" y="187" font-family="sans-serif" font-size="10px" text-anchor="middle">449</text><text x="1023" y="197" font-family="sans-serif" font-size="10px" text-anchor="middle">513</text>
<rect style="fill:rgb(184,151,139);fill-opacity:0.5;" width="180" height="48" x="948" y="212"/>
<text x="1038" y="227" font-family="sans-serif" font-size="10px" text-anchor="middle">J10</text><text x="1038" y="237" font-family="sans-serif" font-size="10px" text-anchor="middle">443</text><text x="1038" y="247" font-family="sans-serif" font-size="10px" text-anchor="middle">534</text>
<rect style="fill:rgb(184,151,139);fill-opacity:0.5;" width="78" height="48" x="66" y="262"/>
<text x="105" y="277" font-family="sans-serif" font-size="10px" text-anchor="middle">J10</text><text x="105" y="287" font-family="sans-serif" font-size="10px" text-anchor="middle">2</text><text x="105" y="297" font-family="sans-serif" font-size="10px" text-anchor="middle">42</text>
<rect style="fill:rgb(184,151,139);fill-opacity:0.5;" width="10" height="48" x="256" y="112"/>
<text x="261" y="127" font-family="sans-serif" font-size="10px" text-anchor="middle">J10</text><text x="261" y="137" font-family="sans-serif" font-size="10px" text-anchor="middle">97</text><text x="261" y="147" font-family="sans-serif" font-size="10px" text-anchor="middle">103</text>
<rect style="fill:rgb(179,7,79);fill-opacity:0.5;" width="82" height="48" x="274" y="112"/>
<text x="315" y="127" font-family="sans-serif" font-size="10px" text-anchor="middle">J11</text><text x="315" y="137" font-family="sans-serif" font-size="10px" text-anchor="middle">106</text><text x="315" y="147" font-family="sans-serif" font-size="10px" text-anchor="middle">148</text>
<rect style="fill:rgb(179,7,79);fill-opacity:0.5;" width="120" height="48" x="1428" y="212"/>
<text x="1488" y="227" font-family="sans-serif" font-size="10px" text-anchor="middle">J11</text><text x="1488" y="237" font-family="sans-serif" font-size="10px" text-anchor="middle">683</text><text x="1488" y="247" font-family="sans-serif" font-size="10px" text-anchor="middle">744</text>
<rect style="fill:rgb(179,7,79);fill-opacity:0.5;" width="28" height="48" x="2114" y="262"/>
<text x="2128" y="277" font-family="sans-serif" font-size="10px" text-anchor="middle">J11</text><text x="2128" y="287" font-family="sans-serif" font-size="10px" text-anchor="middle">1026</text><text x="2128" y="297" font-family="sans-serif" font-size="10px" text-anchor="middle">1041</text>
<rect style="fill:rgb(179,7,79);fill-opacity:0.5;" width="194" height="48" x="1458" y="162"/>
<text x="1555" y="177" font-family="sans-serif" font-size="10px" text-anchor="middle">J11</text><text x="1555" y="187" font-family="sans-serif" font-size="10px" text-anchor="middle">698</text><text x="1555" y="197" font-family="sans-serif" font-size="10px" text-anchor="middle">796</text>
<rect style="fill:rgb(179,7,79);fill-opacity:0.5;" width="146" height="48" x="1558" y="62"/>
<text x="1631" y="77" font-family="sans-serif" font-size="10px" text-anchor="middle">J11</text><text x="1631" y="87" font-family="sans-serif" font-size="10px" text-anchor="middle">748</text><text x="1631" y="97" font-family="sans-serif" font-size="10px" text-anchor="middle">822</text>
<rect style="fill:rgb(191,162,33);fill-opacity:0.5;" width="158" height="48" x="1696" y="112"/>
<text x="1775" y="127" font-family="sans-serif" font-size="10px" text-anchor="middle">J12</text><text x="1775" y="137" font-family="sans-serif" font-size="10px" text-anchor="middle">817</text><text x="1775" y="147" font-family="sans-serif" font-size="10px" text-anchor="middle">897</text>
<rect style="fill:rgb(191,162,33);fill-opacity:0.5;" width="50" height="48" x="1816" y="62"/>
<text x="1841" y="77" font-family="sans-serif" font-size="10px" text-anchor="middle">J12</text><text x="1841" y="87" font-family="sans-serif" font-size="10px" text-anchor="middle">877</text><text x="1841" y="97" font-family="sans-serif" font-size="10px" text-anchor="middle">903</text>
<rect style="fill:rgb(191,162,33);fill-opacity:0.5;" width="148" height="48" x="1892" y="212"/>
<text x="1966" y="227" font-family="sans-serif" font-size="10px" text-anchor="middle">J12</text><text x="1966" y="237" font-family="sans-serif" font-size="10px" text-anchor="middle">915</text><text x="1966" y="247" font-family="sans-serif" font-size="10px" text-anchor="middle">990</text>
<rect style="fill:rgb(191,162,33);fill-opacity:0.5;" width="10" height="48" x="164" y="262"/>
<text x="169" y="277" font-family="sans-serif" font-size="10px" text-anchor="middle">J12</text><text x="169" y="287" font-family="sans-serif" font-size="10px" text-anchor="middle">51</text><text x="169" y="297" font-family="sans-serif" font-size="10px" text-anchor="middle">57</text>
<rect style="fill:rgb(191,162,33);fill-opacity:0.5;" width="172" height="48" x="108" y="162"/>
<text x="194" y="177" font-family="sans-serif" font-size="10px" text-anchor="middle">J12</text><text x="194" y="187" font-family="sans-serif" font-size="10px" text-anchor="middle">23</text><text x="194" y="197" font-family="sans-serif" font-size="10px" text-anchor="middle">110</text>
<rect style="fill:rgb(240,159,9);fill-opacity:0.5;" width="76" height="48" x="614" y="162"/>
<text x="652" y="177" font-family="sans-serif" font-size="10px" text-anchor="middle">J13</text><text x="652" y="187" font-family="sans-serif" font-size="10px" text-anchor="middle">276</text><text x="652" y="197" font-family="sans-serif" font-size="10px" text-anchor="middle">315</text>
<rect style="fill:rgb(240,159,9);fill-opacity:0.5;" width="42" height="48" x="706" y="262"/>
<text x="727" y="277" font-family="sans-serif" font-size="10px" text-anchor="middle">J13</text><text x="727" y="287" font-family="sans-serif" font-size="10px" text-anchor="middle">322</text><text x="727" y="297" font-family="sans-serif" font-size="10px" text-anchor="middle">344</text>
<rect style="fill:rgb(240,159,9);fill-opacity:0.5;" width="148" height="48" x="788" y="62"/>
<text x="862" y="77" font-family="sans-serif" font-size="10px" text-anchor="middle">J13</text><text x="862" y="87" font-family="sans-serif" font-size="10px" text-anchor="middle">363</text><text x="862" y="97" font-family="sans-serif" font-size="10px" text-anchor="middle">438</text>
<rect style="fill:rgb(240,159,9);fill-opacity:0.5;" width="46" height="48" x="174" y="212"/>
<text x="197" y="227" font-family="sans-serif" font-size="10px" text-anchor="middle">J13</text><text x="197" y="237" font-family="sans-serif" font-size="10px" text-anchor="middle">56</text><text x="197" y="247" font-family="sans-serif" font-size="10px" text-anchor="middle">80</text>
<rect style="fill:rgb(240,159,9);fill-opacity:0.5;" width="86" height="48" x="1186" y="112"/>
<text x="1229" y="127" font-family="sans-serif" font-size="10px" text-anchor="middle">J13</text><text x="1229" y="137" font-family="sans-serif" font-size="10px" text-anchor="middle">562</text><text x="1229" y="147" font-family="sans-serif" font-size="10px" text-anchor="middle">606</text>
<rect style="fill:rgb(208,25,126);fill-opacity:0.5;" width="28" height="48" x="1260" y="112"/>
<text x="1274" y="127" font-family="sans-serif" font-size="10px" text-anchor="middle">J14</text><text x="1274" y="137" font-family="sans-serif" font-size="10px" text-anchor="middle">599</text><text x="1274" y="147" font-family="sans-serif" font-size="10px" text-anchor="middle">614</text>
<rect style="fill:rgb(208,25,126);fill-opacity:0.5;" width="156" height="48" x="1156" y="212"/>
<text x="1234" y="227" font-family="sans-serif" font-size="10px" text-anchor="middle">J14</text><text x="1234" y="237" font-family="sans-serif" font-size="10px" text-anchor="middle">547</text><text x="1234" y="247" font-family="sans-serif" font-size="10px" text-anchor="middle">626</text>
<rect style="fill:rgb(208,25,126);fill-opacity:0.5;" width="14" height="48" x="1338" y="262"/>
<text x="1345" y="277" font-family="sans-serif" font-size="10px" text-anchor="middle">J14</text><text x="1345" y="287" font-family="sans-serif" font-size="10px" text-anchor="middle">638</text><text x="1345" y="297" font-family="sans-serif" font-size="10px" text-anchor="middle">646</text>
<rect style="fill:rgb(208,25,126);fill-opacity:0.5;" width="22" height="48" x="106" y="62"/>
<text x="117" y="77" font-family="sans-serif" font-size="10px" text-anchor="middle">J14</text><text x="117" y="87" font-family="sans-serif" font-size="10px" text-anchor="middle">22</text><text x="117" y="97" font-family="sans-serif" font-size="10px" text-anchor="middle">34</text>
<rect style="fill:rgb(208,25,126);fill-opacity:0.5;" width="38" height="48" x="350" y="162"/>
<text x="369" y="177" font-family="sans-serif" font-size="10px" text-anchor="middle">J14</text><text x="369" y="187" font-family="sans-serif" font-size="10px" text-anchor="middle">144</text><text x="369" y="197" font-family="sans-serif" font-size="10px" text-anchor="middle">164</text>
<rect style="fill:rgb(169,3,81);fill-opacity:0.5;" width="50" height="48" x="800" y="212"/>
<text x="825" y="227" font-family="sans-serif" font-size="10px" text-anchor="middle">J15</text><text x="825" y="237" font-family="sans-serif" font-size="10px" text-anchor="middle">369</text><text x="825" y="247" font-family="sans-serif" font-size="10px" text-anchor="middle">395</text>
<rect style="fill:rgb(169,3,81);fill-opacity:0.5;" width="84" height="48" x="810" y="162"/>
<text x="852" y="177" font-family="sans-serif" font-size="10px" text-anchor="middle">J15</text><text x="852" y="187" font-family="sans-serif" font-size="10px" text-anchor="middle">374</text><text x="852" y="197" font-family="sans-serif" font-size="10px" text-anchor="middle">417</text>
<rect style="fill:rgb(169,3,81);fill-opacity:0.5;" width="158" height="48" x="900" y="62"/>
<text x="979" y="77" font-family="sans-serif" font-size="10px" text-anchor="middle">J15</text><text x="979" y="87" font-family="sans-serif" font-size="10px" text-anchor="middle">419</text><text x="979" y="97" font-family="sans-serif" font-size="10px" text-anchor="middle">499</text>
<rect style="fill:rgb(169,3,81);fill-opacity:0.5;" width="42" height="48" x="1062" y="262"/>
<text x="1083" y="277" font-family="sans-serif" font-size="10px" text-anchor="middle">J15</text><text x="1083" y="287" font-family="sans-serif" font-size="10px" text-anchor="middle">500</text><text x="1083" y="297" font-family="sans-serif" font-size="10px" text-anchor="middle">522</text>
<rect style="fill:rgb(169,3,81);fill-opacity:0.5;" width="120" height="48" x="1080" y="112"/>
<text x="1140" y="127" font-family="sans-serif" font-size="10px" text-anchor="middle">J15</text><text x="1140" y="137" font-family="sans-serif" font-size="10px" text-anchor="middle">509</text><text x="1140" y="147" font-family="sans-serif" font-size="10px" text-anchor="middle">570</text>
<rect style="fill:rgb(28,179,208);fill-opacity:0.5;" width="122" height="48" x="1316" y="162"/>
<text x="1377" y="177" font-family="sans-serif" font-size="10px" text-anchor="middle">J16</text><text x="1377" y="187" font-family="sans-serif" font-size="10px" text-anchor="middle">627</text><text x="1377" y="197" font-family="sans-serif" font-size="10px" text-anchor="middle">689</text>
<rect style="fill:rgb(28,179,208);fill-opacity:0.5;" width="70" height="48" x="1560" y="112"/>
<text x="1595" y="127" font-family="sans-serif" font-size="10px" text-anchor="middle">J16</text><text x="1595" y="137" font-family="sans-serif" font-size="10px" text-anchor="middle">749</text><text x="1595" y="147" font-family="sans-serif" font-size="10px" text-anchor="middle">785</text>
<rect style="fill:rgb(28,179,208);fill-opacity:0.5;" width="124" height="48" x="1670" y="62"/>
<text x="1732" y="77" font-family="sans-serif" font-size="10px" text-anchor="middle">J16</text><text x="1732" y="87" font-family="sans-serif" font-size="10px" text-anchor="middle">804</text><text x="1732" y="97" font-family="sans-serif" font-size="10px" text-anchor="middle">867</text>
<rect style="fill:rgb(28,179,208);fill-opacity:0.5;" width="190" height="48" x="96" y="212"/>
<text x="191" y="227" font-family="sans-serif" font-size="10px" text-anchor="middle">J16</text><text x="191" y="237" font-family="sans-serif" font-size="10px" text-anchor="middle">17</text><text x="191" y="247" font-family="sans-serif" font-size="10px" text-anchor="middle">113</text>
<rect style="fill:rgb(28,179,208);fill-opacity:0.5;" width="78" height="48" x="244" y="262"/>
<text x="283" y="277" font-family="sans-serif" font-size="10px" text-anchor="middle">J16</text><text x="283" y="287" font-family="sans-serif" font-size="10px" text-anchor="middle">91</text><text x="283" y="297" font-family="sans-serif" font-size="10px" text-anchor="middle">131</text>
<rect style="fill:rgb(57,17,172);fill-opacity:0.5;" width="64" height="48" x="334" y="112"/>
<text x="366" y="127" font-family="sans-serif" font-size="10px" text-anchor="middle">J17</text><text x="366" y="137" font-family="sans-serif" font-size="10px" text-anchor="middle">136</text><text x="366" y="147" font-family="sans-serif" font-size="10px" text-anchor="middle">169</text>
<rect style="fill:rgb(57,17,172);fill-opacity:0.5;" width="34" height="48" x="374" y="212"/>
<text x="391" y="227" font-family="sans-serif" font-size="10px" text-anchor="middle">J17</text><text x="391" y="237" font-family="sans-serif" font-size="10px" text-anchor="middle">156</text><text x="391" y="247" font-family="sans-serif" font-size="10px" text-anchor="middle">174</text>
<rect style="fill:rgb(57,17,172);fill-opacity:0.5;" width="42" height="48" x="386" y="62"/>
<text x="407" y="77" font-family="sans-serif" font-size="10px" text-anchor="middle">J17</text><text x="407" y="87" font-family="sans-serif" font-size="10px" text-anchor="middle">162</text><text x="407" y="97" font-family="sans-serif" font-size="10px" text-anchor="middle">184</text>
<rect style="fill:rgb(57,17,172);fill-opacity:0.5;" width="8" height="48" x="548" y="262"/>
<text x="552" y="277" font-family="sans-serif" font-size="10px" text-anchor="middle">J17</text><text x="552" y="287" font-family="sans-serif" font-size="10px" text-anchor="middle">243</text><text x="552" y="297" font-family="sans-serif" font-size="10px" text-anchor="middle">248</text>
<rect style="fill:rgb(57,17,172);fill-opacity:0.5;" width="18" height="48" x="798" y="162"/>
<text x="807" y="177" font-family="sans-serif" font-size="10px" text-anchor="middle">J17</text><text x="807" y="187" font-family="sans-serif" font-size="10px" text-anchor="middle">368</text><text x="807" y="197" font-family="sans-serif" font-size="10px" text-anchor="middle">378</text>
<rect style="fill:rgb(81,91,2);fill-opacity:0.5;" width="126" height="48" x="902" y="162"/>
<text x="965" y="177" font-family="sans-serif" font-size="10px" text-anchor="middle">J18</text><text x="965" y="187" font-family="sans-serif" font-size="10px" text-anchor="middle">420</text><text x="965" y="197" font-family="sans-serif" font-size="10px" text-anchor="middle">484</text>
<rect style="fill:rgb(81,91,2);fill-opacity:0.5;" width="126" height="48" x="1850" y="262"/>
<text x="1913" y="277" font-family="sans-serif" font-size="10px" text-anchor="middle">J18</text><text x="1913" y="287" font-family="sans-serif" font-size="10px" text-anchor="middle">894</text><text x="1913" y="297" font-family="sans-serif" font-size="10px" text-anchor="middle">958</text>
<rect style="fill:rgb(81,91,2);fill-opacity:0.5;" width="176" height="48" x="2074" y="62"/>
<text x="2162" y="77" font-family="sans-serif" font-size="10px" text-anchor="middle">J18</text><text x="2162" y="87" font-family="sans-serif" font-size="10px" text-anchor="middle">1006</text><text x="2162" y="97" font-family="sans-serif" font-size="10px" text-anchor="middle">1095</text>
<rect style="fill:rgb(81,91,2);fill-opacity:0.5;" width="190" height="48" x="-94" y="112"/>
<text x="1" y="127" font-family="sans-serif" font-size="10px" text-anchor="middle">J18</text><text x="1" y="137" font-family="sans-serif" font-size="10px" text-anchor="middle">-78</text><text x="1" y="147" font-family="sans-serif" font-size="10px" text-anchor="middle">18</text>
<rect style="fill:rgb(81,91,2);fill-opacity:0.5;" width="188" height="48" x="138" y="212"/>
<text x="232" y="227" font-family="sans-serif" font-size="10px" text-anchor="middle">J18</text><text x="232" y="237" font-family="sans-serif" font-size="10px" text-anchor="middle">38</text><text x="232" y="247" font-family="sans-serif" font-size="10px" text-anchor="middle">133</text>
<rect style="fill:rgb(32,132,15);fill-opacity:0.5;" width="34" height="48" x="322" y="162"/>
<text x="339" y="177" font-family="sans-serif" font-size="10px" text-anchor="middle">J19</text><text x="339" y="187" font-family="sans-serif" font-size="10px" text-anchor="middle">130</text><text x="339" y="197" font-family="sans-serif" font-size="10px" text-anchor="middle">148</text>
<rect style="fill:rgb(32,132,15);fill-opacity:0.5;" width="44" height="48" x="412" y="262"/>
<text x="434" y="277" font-family="sans-serif" font-size="10px" text-anchor="middle">J19</text><text x="434" y="287" font-family="sans-serif" font-size="10px" text-anchor="middle">175</text><text x="434" y="297" font-family="sans-serif" font-size="10px" text-anchor="middle">198</text>
<rect style="fill:rgb(32,132,15);fill-opacity:0.5;" width="28" height="48" x="512" y="212"/>
<text x="526" y="227" font-family="sans-serif" font-size="10px" text-anchor="middle">J19</text><text x="526" y="237" font-family="sans-serif" font-size="10px" text-anchor="middle">225</text><text x="526" y="247" font-family="sans-serif" font-size="10px" text-anchor="middle">240</text>
<rect style="fill:rgb(32,132,15);fill-opacity:0.5;" width="74" height="48" x="-1717986934" y="112"/>
<text x="429496751" y="127" font-family="sans-serif" font-size="10px" text-anchor="middle">J19</text><text x="429496751" y="137" font-family="sans-serif" font-size="10px" text-anchor="middle">-858993498</text><text x="429496751" y="147" font-family="sans-serif" font-size="10px" text-anchor="middle">-858993460</text>
<rect style="fill:rgb(32,132,15);fill-opacity:0.5;" width="14" height="48" x="-1717986874" y="62"/>
<text x="429496781" y="77" font-family="sans-serif" font-size="10px" text-anchor="middle">J19</text><text x="429496781" y="87" font-family="sans-serif" font-size="10px" text-anchor="middle">-858993468</text><text x="429496781" y="97" font-family="sans-serif" font-size="10px" text-anchor="middle">-858993460</text>
<line x1="60" y1="40" x2="60" y2="312" stroke="dimgrey" />
<line x1="60" y1="40" x2="70" y2="50" stroke="dimgrey" />
<text x="35" y="90" font-family="sans-serif" font-size="10px" text-anchor="middle">M.1</text>
<text x="35" y="140" font-family="sans-serif" font-size="10px" text-anchor="middle">M.2</text>
<text x="35" y="190" font-family="sans-serif" font-size="10px" text-anchor="middle">M.3</text>
<text x="35" y="240" font-family="sans-serif" font-size="10px" text-anchor="middle">M.4</text>
<text x="35" y="290" font-family="sans-serif" font-size="10px" text-anchor="middle">M.5</text>
<line x1="60" y1="312" x2="102" y2="312" stroke="dimgrey" />
<line x1="92" y1="302" x2="102" y2="312" stroke="dimgrey" />
<line x1="82" y1="314" x2="82" y2="322" stroke="dimgrey" />
<text x="70" y="35" font-family="sans-serif" font-size="20px" text-anchor="middle" fill="dimgrey">Machines</text>
<text x="122" y="312" font-family="sans-serif" font-size="20px" text-anchor="middle" fill="dimgrey">Time</text>
<text x="83" y="342" font-family="sans-serif" font-size="30px" text-anchor="middle" fill="dimgrey">Diagramme de Gantt du problème: la12.txt - makespan: 11</text>
</svg>
