<?xml version="1.0" encoding="UTF-8" standalone="no"?>
 <svg xmlns="http://www.w3.org/2000/svg" version="1.1" width="2729" height="350">
<title> Diagramme de Gantt du Probleme: la14.txt</title>
<desc> Cette figure represente le planning des operations du probleme traite.</desc>
<rect style="fill:rgb(62,139,185);fill-opacity:0.5;" width="8" height="48" x="92" y="212"/>
<text x="96" y="227" font-family="sans-serif" font-size="10px" text-anchor="middle">J0</text><text x="96" y="237" font-family="sans-serif" font-size="10px" text-anchor="middle">15</text><text x="96" y="247" font-family="sans-serif" font-size="10px" text-anchor="middle">20</text>
<rect style="fill:rgb(62,139,185);fill-opacity:0.5;" width="114" height="48" x="134" y="262"/>
<text x="191" y="277" font-family="sans-serif" font-size="10px" text-anchor="middle">J0</text><text x="191" y="287" font-family="sans-serif" font-size="10px" text-anchor="middle">36</text><text x="191" y="297" font-family="sans-serif" font-size="10px" text-anchor="middle">94</text>
<rect style="fill:rgb(62,139,185);fill-opacity:0.5;" width="86" height="48" x="626" y="162"/>
<text x="669" y="177" font-family="sans-serif" font-size="10px" text-anchor="middle">J0</text><text x="669" y="187" font-family="sans-serif" font-size="10px" text-anchor="middle">282</text><text x="669" y="197" font-family="sans-serif" font-size="10px" text-anchor="middle">326</text>
<rect style="fill:rgb(62,139,185);fill-opacity:0.5;" width="16" height="48" x="720" y="62"/>
<text x="728" y="77" font-family="sans-serif" font-size="10px" text-anchor="middle">J0</text><text x="728" y="87" font-family="sans-serif" font-size="10px" text-anchor="middle">329</text><text x="728" y="97" font-family="sans-serif" font-size="10px" text-anchor="middle">338</text>
<rect style="fill:rgb(62,139,185);fill-opacity:0.5;" width="114" height="48" x="742" y="112"/>
<text x="799" y="127" font-family="sans-serif" font-size="10px" text-anchor="middle">J0</text><text x="799" y="137" font-family="sans-serif" font-size="10px" text-anchor="middle">340</text><text x="799" y="147" font-family="sans-serif" font-size="10px" text-anchor="middle">398</text>
<rect style="fill:rgb(238,172,238);fill-opacity:0.5;" width="176" height="48" x="384" y="112"/>
<text x="472" y="127" font-family="sans-serif" font-size="10px" text-anchor="middle">J1</text><text x="472" y="137" font-family="sans-serif" font-size="10px" text-anchor="middle">161</text><text x="472" y="147" font-family="sans-serif" font-size="10px" text-anchor="middle">250</text>
<rect style="fill:rgb(238,172,238);fill-opacity:0.5;" width="190" height="48" x="1674" y="262"/>
<text x="1769" y="277" font-family="sans-serif" font-size="10px" text-anchor="middle">J1</text><text x="1769" y="287" font-family="sans-serif" font-size="10px" text-anchor="middle">806</text><text x="1769" y="297" font-family="sans-serif" font-size="10px" text-anchor="middle">902</text>
<rect style="fill:rgb(238,172,238);fill-opacity:0.5;" width="192" height="48" x="1958" y="62"/>
<text x="2054" y="77" font-family="sans-serif" font-size="10px" text-anchor="middle">J1</text><text x="2054" y="87" font-family="sans-serif" font-size="10px" text-anchor="middle">948</text><text x="2054" y="97" font-family="sans-serif" font-size="10px" text-anchor="middle">1045</text>
<rect style="fill:rgb(238,172,238);fill-opacity:0.5;" width="166" height="48" x="2152" y="162"/>
<text x="2235" y="177" font-family="sans-serif" font-size="10px" text-anchor="middle">J1</text><text x="2235" y="187" font-family="sans-serif" font-size="10px" text-anchor="middle">1045</text><text x="2235" y="197" font-family="sans-serif" font-size="10px" text-anchor="middle">1129</text>
<rect style="fill:rgb(238,172,238);fill-opacity:0.5;" width="152" height="48" x="2320" y="212"/>
<text x="2396" y="227" font-family="sans-serif" font-size="10px" text-anchor="middle">J1</text><text x="2396" y="237" font-family="sans-serif" font-size="10px" text-anchor="middle">1129</text><text x="2396" y="247" font-family="sans-serif" font-size="10px" text-anchor="middle">1206</text>
<rect style="fill:rgb(47,232,102);fill-opacity:0.5;" width="160" height="48" x="1030" y="162"/>
<text x="1110" y="177" font-family="sans-serif" font-size="10px" text-anchor="middle">J2</text><text x="1110" y="187" font-family="sans-serif" font-size="10px" text-anchor="middle">484</text><text x="1110" y="197" font-family="sans-serif" font-size="10px" text-anchor="middle">565</text>
<rect style="fill:rgb(47,232,102);fill-opacity:0.5;" width="168" height="48" x="1192" y="212"/>
<text x="1276" y="227" font-family="sans-serif" font-size="10px" text-anchor="middle">J2</text><text x="1276" y="237" font-family="sans-serif" font-size="10px" text-anchor="middle">565</text><text x="1276" y="247" font-family="sans-serif" font-size="10px" text-anchor="middle">650</text>
<rect style="fill:rgb(47,232,102);fill-opacity:0.5;" width="172" height="48" x="1970" y="112"/>
<text x="2056" y="127" font-family="sans-serif" font-size="10px" text-anchor="middle">J2</text><text x="2056" y="137" font-family="sans-serif" font-size="10px" text-anchor="middle">954</text><text x="2056" y="147" font-family="sans-serif" font-size="10px" text-anchor="middle">1041</text>
<rect style="fill:rgb(47,232,102);fill-opacity:0.5;" width="76" height="48" x="2262" y="262"/>
<text x="2300" y="277" font-family="sans-serif" font-size="10px" text-anchor="middle">J2</text><text x="2300" y="287" font-family="sans-serif" font-size="10px" text-anchor="middle">1100</text><text x="2300" y="297" font-family="sans-serif" font-size="10px" text-anchor="middle">1139</text>
<rect style="fill:rgb(47,232,102);fill-opacity:0.5;" width="152" height="48" x="2446" y="62"/>
<text x="2522" y="77" font-family="sans-serif" font-size="10px" text-anchor="middle">J2</text><text x="2522" y="87" font-family="sans-serif" font-size="10px" text-anchor="middle">1192</text><text x="2522" y="97" font-family="sans-serif" font-size="10px" text-anchor="middle">1269</text>
<rect style="fill:rgb(25,19,248);fill-opacity:0.5;" width="28" height="48" x="62" y="62"/>
<text x="76" y="77" font-family="sans-serif" font-size="10px" text-anchor="middle">J3</text><text x="76" y="87" font-family="sans-serif" font-size="10px" text-anchor="middle">0</text><text x="76" y="97" font-family="sans-serif" font-size="10px" text-anchor="middle">15</text>
<rect style="fill:rgb(25,19,248);fill-opacity:0.5;" width="112" height="48" x="294" y="212"/>
<text x="350" y="227" font-family="sans-serif" font-size="10px" text-anchor="middle">J3</text><text x="350" y="237" font-family="sans-serif" font-size="10px" text-anchor="middle">116</text><text x="350" y="247" font-family="sans-serif" font-size="10px" text-anchor="middle">173</text>
<rect style="fill:rgb(25,19,248);fill-opacity:0.5;" width="144" height="48" x="710" y="262"/>
<text x="782" y="277" font-family="sans-serif" font-size="10px" text-anchor="middle">J3</text><text x="782" y="287" font-family="sans-serif" font-size="10px" text-anchor="middle">324</text><text x="782" y="297" font-family="sans-serif" font-size="10px" text-anchor="middle">397</text>
<rect style="fill:rgb(25,19,248);fill-opacity:0.5;" width="40" height="48" x="858" y="112"/>
<text x="878" y="127" font-family="sans-serif" font-size="10px" text-anchor="middle">J3</text><text x="878" y="137" font-family="sans-serif" font-size="10px" text-anchor="middle">398</text><text x="878" y="147" font-family="sans-serif" font-size="10px" text-anchor="middle">419</text>
<rect style="fill:rgb(25,19,248);fill-opacity:0.5;" width="60" height="48" x="968" y="162"/>
<text x="998" y="177" font-family="sans-serif" font-size="10px" text-anchor="middle">J3</text><text x="998" y="187" font-family="sans-serif" font-size="10px" text-anchor="middle">453</text><text x="998" y="197" font-family="sans-serif" font-size="10px" text-anchor="middle">484</text>
<rect style="fill:rgb(142,6,56);fill-opacity:0.5;" width="94" height="48" x="62" y="162"/>
<text x="109" y="177" font-family="sans-serif" font-size="10px" text-anchor="middle">J4</text><text x="109" y="187" font-family="sans-serif" font-size="10px" text-anchor="middle">0</text><text x="109" y="197" font-family="sans-serif" font-size="10px" text-anchor="middle">48</text>
<rect style="fill:rgb(142,6,56);fill-opacity:0.5;" width="140" height="48" x="250" y="262"/>
<text x="320" y="277" font-family="sans-serif" font-size="10px" text-anchor="middle">J4</text><text x="320" y="287" font-family="sans-serif" font-size="10px" text-anchor="middle">94</text><text x="320" y="297" font-family="sans-serif" font-size="10px" text-anchor="middle">165</text>
<rect style="fill:rgb(142,6,56);fill-opacity:0.5;" width="138" height="48" x="904" y="212"/>
<text x="973" y="227" font-family="sans-serif" font-size="10px" text-anchor="middle">J4</text><text x="973" y="237" font-family="sans-serif" font-size="10px" text-anchor="middle">421</text><text x="973" y="247" font-family="sans-serif" font-size="10px" text-anchor="middle">491</text>
<rect style="fill:rgb(142,6,56);fill-opacity:0.5;" width="78" height="48" x="1044" y="62"/>
<text x="1083" y="77" font-family="sans-serif" font-size="10px" text-anchor="middle">J4</text><text x="1083" y="87" font-family="sans-serif" font-size="10px" text-anchor="middle">491</text><text x="1083" y="97" font-family="sans-serif" font-size="10px" text-anchor="middle">531</text>
<rect style="fill:rgb(142,6,56);fill-opacity:0.5;" width="96" height="48" x="1388" y="112"/>
<text x="1436" y="127" font-family="sans-serif" font-size="10px" text-anchor="middle">J4</text><text x="1436" y="137" font-family="sans-serif" font-size="10px" text-anchor="middle">663</text><text x="1436" y="147" font-family="sans-serif" font-size="10px" text-anchor="middle">712</text>
<rect style="fill:rgb(65,243,73);fill-opacity:0.5;" width="18" height="48" x="92" y="62"/>
<text x="101" y="77" font-family="sans-serif" font-size="10px" text-anchor="middle">J5</text><text x="101" y="87" font-family="sans-serif" font-size="10px" text-anchor="middle">15</text><text x="101" y="97" font-family="sans-serif" font-size="10px" text-anchor="middle">25</text>
<rect style="fill:rgb(65,243,73);fill-opacity:0.5;" width="162" height="48" x="1196" y="262"/>
<text x="1277" y="277" font-family="sans-serif" font-size="10px" text-anchor="middle">J5</text><text x="1277" y="287" font-family="sans-serif" font-size="10px" text-anchor="middle">567</text><text x="1277" y="297" font-family="sans-serif" font-size="10px" text-anchor="middle">649</text>
<rect style="fill:rgb(65,243,73);fill-opacity:0.5;" width="66" height="48" x="1456" y="212"/>
<text x="1489" y="227" font-family="sans-serif" font-size="10px" text-anchor="middle">J5</text><text x="1489" y="237" font-family="sans-serif" font-size="10px" text-anchor="middle">697</text><text x="1489" y="247" font-family="sans-serif" font-size="10px" text-anchor="middle">731</text>
<rect style="fill:rgb(65,243,73);fill-opacity:0.5;" width="158" height="48" x="1632" y="162"/>
<text x="1711" y="177" font-family="sans-serif" font-size="10px" text-anchor="middle">J5</text><text x="1711" y="187" font-family="sans-serif" font-size="10px" text-anchor="middle">785</text><text x="1711" y="197" font-family="sans-serif" font-size="10px" text-anchor="middle">865</text>
<rect style="fill:rgb(65,243,73);fill-opacity:0.5;" width="42" height="48" x="1812" y="112"/>
<text x="1833" y="127" font-family="sans-serif" font-size="10px" text-anchor="middle">J5</text><text x="1833" y="137" font-family="sans-serif" font-size="10px" text-anchor="middle">875</text><text x="1833" y="147" font-family="sans-serif" font-size="10px" text-anchor="middle">897</text>
<rect style="fill:rgb(117,156,15);fill-opacity:0.5;" width="32" height="48" x="158" y="162"/>
<text x="174" y="177" font-family="sans-serif" font-size="10px" text-anchor="middle">J6</text><text x="174" y="187" font-family="sans-serif" font-size="10px" text-anchor="middle">48</text><text x="174" y="197" font-family="sans-serif" font-size="10px" text-anchor="middle">65</text>
<rect style="fill:rgb(117,156,15);fill-opacity:0.5;" width="108" height="48" x="272" y="62"/>
<text x="326" y="77" font-family="sans-serif" font-size="10px" text-anchor="middle">J6</text><text x="326" y="87" font-family="sans-serif" font-size="10px" text-anchor="middle">105</text><text x="326" y="97" font-family="sans-serif" font-size="10px" text-anchor="middle">160</text>
<rect style="fill:rgb(117,156,15);fill-opacity:0.5;" width="180" height="48" x="1486" y="112"/>
<text x="1576" y="127" font-family="sans-serif" font-size="10px" text-anchor="middle">J6</text><text x="1576" y="137" font-family="sans-serif" font-size="10px" text-anchor="middle">712</text><text x="1576" y="147" font-family="sans-serif" font-size="10px" text-anchor="middle">803</text>
<rect style="fill:rgb(117,156,15);fill-opacity:0.5;" width="148" height="48" x="1936" y="262"/>
<text x="2010" y="277" font-family="sans-serif" font-size="10px" text-anchor="middle">J6</text><text x="2010" y="287" font-family="sans-serif" font-size="10px" text-anchor="middle">937</text><text x="2010" y="297" font-family="sans-serif" font-size="10px" text-anchor="middle">1012</text>
<rect style="fill:rgb(117,156,15);fill-opacity:0.5;" width="12" height="48" x="2184" y="212"/>
<text x="2190" y="227" font-family="sans-serif" font-size="10px" text-anchor="middle">J6</text><text x="2190" y="237" font-family="sans-serif" font-size="10px" text-anchor="middle">1061</text><text x="2190" y="247" font-family="sans-serif" font-size="10px" text-anchor="middle">1068</text>
<rect style="fill:rgb(241,98,202);fill-opacity:0.5;" width="92" height="48" x="408" y="212"/>
<text x="454" y="227" font-family="sans-serif" font-size="10px" text-anchor="middle">J7</text><text x="454" y="237" font-family="sans-serif" font-size="10px" text-anchor="middle">173</text><text x="454" y="247" font-family="sans-serif" font-size="10px" text-anchor="middle">220</text>
<rect style="fill:rgb(241,98,202);fill-opacity:0.5;" width="122" height="48" x="502" y="162"/>
<text x="563" y="177" font-family="sans-serif" font-size="10px" text-anchor="middle">J7</text><text x="563" y="187" font-family="sans-serif" font-size="10px" text-anchor="middle">220</text><text x="563" y="197" font-family="sans-serif" font-size="10px" text-anchor="middle">282</text>
<rect style="fill:rgb(241,98,202);fill-opacity:0.5;" width="142" height="48" x="1668" y="112"/>
<text x="1739" y="127" font-family="sans-serif" font-size="10px" text-anchor="middle">J7</text><text x="1739" y="137" font-family="sans-serif" font-size="10px" text-anchor="middle">803</text><text x="1739" y="147" font-family="sans-serif" font-size="10px" text-anchor="middle">875</text>
<rect style="fill:rgb(241,98,202);fill-opacity:0.5;" width="68" height="48" x="1866" y="262"/>
<text x="1900" y="277" font-family="sans-serif" font-size="10px" text-anchor="middle">J7</text><text x="1900" y="287" font-family="sans-serif" font-size="10px" text-anchor="middle">902</text><text x="1900" y="297" font-family="sans-serif" font-size="10px" text-anchor="middle">937</text>
<rect style="fill:rgb(241,98,202);fill-opacity:0.5;" width="20" height="48" x="1936" y="62"/>
<text x="1946" y="77" font-family="sans-serif" font-size="10px" text-anchor="middle">J7</text><text x="1946" y="87" font-family="sans-serif" font-size="10px" text-anchor="middle">937</text><text x="1946" y="97" font-family="sans-serif" font-size="10px" text-anchor="middle">948</text>
<rect style="fill:rgb(44,47,26);fill-opacity:0.5;" width="178" height="48" x="562" y="112"/>
<text x="651" y="127" font-family="sans-serif" font-size="10px" text-anchor="middle">J8</text><text x="651" y="137" font-family="sans-serif" font-size="10px" text-anchor="middle">250</text><text x="651" y="147" font-family="sans-serif" font-size="10px" text-anchor="middle">340</text>
<rect style="fill:rgb(44,47,26);fill-opacity:0.5;" width="186" height="48" x="1386" y="162"/>
<text x="1479" y="177" font-family="sans-serif" font-size="10px" text-anchor="middle">J8</text><text x="1479" y="187" font-family="sans-serif" font-size="10px" text-anchor="middle">662</text><text x="1479" y="197" font-family="sans-serif" font-size="10px" text-anchor="middle">756</text>
<rect style="fill:rgb(44,47,26);fill-opacity:0.5;" width="98" height="48" x="1574" y="262"/>
<text x="1623" y="277" font-family="sans-serif" font-size="10px" text-anchor="middle">J8</text><text x="1623" y="287" font-family="sans-serif" font-size="10px" text-anchor="middle">756</text><text x="1623" y="297" font-family="sans-serif" font-size="10px" text-anchor="middle">806</text>
<rect style="fill:rgb(44,47,26);fill-opacity:0.5;" width="126" height="48" x="1770" y="62"/>
<text x="1833" y="77" font-family="sans-serif" font-size="10px" text-anchor="middle">J8</text><text x="1833" y="87" font-family="sans-serif" font-size="10px" text-anchor="middle">854</text><text x="1833" y="97" font-family="sans-serif" font-size="10px" text-anchor="middle">918</text>
<rect style="fill:rgb(44,47,26);fill-opacity:0.5;" width="148" height="48" x="1898" y="212"/>
<text x="1972" y="227" font-family="sans-serif" font-size="10px" text-anchor="middle">J8</text><text x="1972" y="237" font-family="sans-serif" font-size="10px" text-anchor="middle">918</text><text x="1972" y="247" font-family="sans-serif" font-size="10px" text-anchor="middle">993</text>
<rect style="fill:rgb(42,223,105);fill-opacity:0.5;" width="28" height="48" x="62" y="212"/>
<text x="76" y="227" font-family="sans-serif" font-size="10px" text-anchor="middle">J9</text><text x="76" y="237" font-family="sans-serif" font-size="10px" text-anchor="middle">0</text><text x="76" y="247" font-family="sans-serif" font-size="10px" text-anchor="middle">15</text>
<rect style="fill:rgb(42,223,105);fill-opacity:0.5;" width="132" height="48" x="264" y="162"/>
<text x="330" y="177" font-family="sans-serif" font-size="10px" text-anchor="middle">J9</text><text x="330" y="187" font-family="sans-serif" font-size="10px" text-anchor="middle">101</text><text x="330" y="197" font-family="sans-serif" font-size="10px" text-anchor="middle">168</text>
<rect style="fill:rgb(42,223,105);fill-opacity:0.5;" width="22" height="48" x="398" y="62"/>
<text x="409" y="77" font-family="sans-serif" font-size="10px" text-anchor="middle">J9</text><text x="409" y="87" font-family="sans-serif" font-size="10px" text-anchor="middle">168</text><text x="409" y="97" font-family="sans-serif" font-size="10px" text-anchor="middle">180</text>
<rect style="fill:rgb(42,223,105);fill-opacity:0.5;" width="38" height="48" x="472" y="262"/>
<text x="491" y="277" font-family="sans-serif" font-size="10px" text-anchor="middle">J9</text><text x="491" y="287" font-family="sans-serif" font-size="10px" text-anchor="middle">205</text><text x="491" y="297" font-family="sans-serif" font-size="10px" text-anchor="middle">225</text>
<rect style="fill:rgb(42,223,105);fill-opacity:0.5;" width="140" height="48" x="2330" y="112"/>
<text x="2400" y="127" font-family="sans-serif" font-size="10px" text-anchor="middle">J9</text><text x="2400" y="137" font-family="sans-serif" font-size="10px" text-anchor="middle">1134</text><text x="2400" y="147" font-family="sans-serif" font-size="10px" text-anchor="middle">1205</text>
<rect style="fill:rgb(184,151,139);fill-opacity:0.5;" width="184" height="48" x="1360" y="262"/>
<text x="1452" y="277" font-family="sans-serif" font-size="10px" text-anchor="middle">J10</text><text x="1452" y="287" font-family="sans-serif" font-size="10px" text-anchor="middle">649</text><text x="1452" y="297" font-family="sans-serif" font-size="10px" text-anchor="middle">742</text>
<rect style="fill:rgb(184,151,139);fill-opacity:0.5;" width="56" height="48" x="1574" y="162"/>
<text x="1602" y="177" font-family="sans-serif" font-size="10px" text-anchor="middle">J10</text><text x="1602" y="187" font-family="sans-serif" font-size="10px" text-anchor="middle">756</text><text x="1602" y="197" font-family="sans-serif" font-size="10px" text-anchor="middle">785</text>
<rect style="fill:rgb(184,151,139);fill-opacity:0.5;" width="102" height="48" x="1666" y="62"/>
<text x="1717" y="77" font-family="sans-serif" font-size="10px" text-anchor="middle">J10</text><text x="1717" y="87" font-family="sans-serif" font-size="10px" text-anchor="middle">802</text><text x="1717" y="97" font-family="sans-serif" font-size="10px" text-anchor="middle">854</text>
<rect style="fill:rgb(184,151,139);fill-opacity:0.5;" width="112" height="48" x="1856" y="112"/>
<text x="1912" y="127" font-family="sans-serif" font-size="10px" text-anchor="middle">J10</text><text x="1912" y="137" font-family="sans-serif" font-size="10px" text-anchor="middle">897</text><text x="1912" y="147" font-family="sans-serif" font-size="10px" text-anchor="middle">954</text>
<rect style="fill:rgb(184,151,139);fill-opacity:0.5;" width="134" height="48" x="2048" y="212"/>
<text x="2115" y="227" font-family="sans-serif" font-size="10px" text-anchor="middle">J10</text><text x="2115" y="237" font-family="sans-serif" font-size="10px" text-anchor="middle">993</text><text x="2115" y="247" font-family="sans-serif" font-size="10px" text-anchor="middle">1061</text>
<rect style="fill:rgb(179,7,79);fill-opacity:0.5;" width="152" height="48" x="750" y="212"/>
<text x="826" y="227" font-family="sans-serif" font-size="10px" text-anchor="middle">J11</text><text x="826" y="237" font-family="sans-serif" font-size="10px" text-anchor="middle">344</text><text x="826" y="247" font-family="sans-serif" font-size="10px" text-anchor="middle">421</text>
<rect style="fill:rgb(179,7,79);fill-opacity:0.5;" width="184" height="48" x="2144" y="112"/>
<text x="2236" y="127" font-family="sans-serif" font-size="10px" text-anchor="middle">J11</text><text x="2236" y="137" font-family="sans-serif" font-size="10px" text-anchor="middle">1041</text><text x="2236" y="147" font-family="sans-serif" font-size="10px" text-anchor="middle">1134</text>
<rect style="fill:rgb(179,7,79);fill-opacity:0.5;" width="114" height="48" x="2330" y="62"/>
<text x="2387" y="77" font-family="sans-serif" font-size="10px" text-anchor="middle">J11</text><text x="2387" y="87" font-family="sans-serif" font-size="10px" text-anchor="middle">1134</text><text x="2387" y="97" font-family="sans-serif" font-size="10px" text-anchor="middle">1192</text>
<rect style="fill:rgb(179,7,79);fill-opacity:0.5;" width="138" height="48" x="2482" y="162"/>
<text x="2551" y="177" font-family="sans-serif" font-size="10px" text-anchor="middle">J11</text><text x="2551" y="187" font-family="sans-serif" font-size="10px" text-anchor="middle">1210</text><text x="2551" y="197" font-family="sans-serif" font-size="10px" text-anchor="middle">1280</text>
<rect style="fill:rgb(179,7,79);fill-opacity:0.5;" width="12" height="48" x="2622" y="262"/>
<text x="2628" y="277" font-family="sans-serif" font-size="10px" text-anchor="middle">J11</text><text x="2628" y="287" font-family="sans-serif" font-size="10px" text-anchor="middle">1280</text><text x="2628" y="297" font-family="sans-serif" font-size="10px" text-anchor="middle">1287</text>
<rect style="fill:rgb(191,162,33);fill-opacity:0.5;" width="124" height="48" x="114" y="112"/>
<text x="176" y="127" font-family="sans-serif" font-size="10px" text-anchor="middle">J12</text><text x="176" y="137" font-family="sans-serif" font-size="10px" text-anchor="middle">26</text><text x="176" y="147" font-family="sans-serif" font-size="10px" text-anchor="middle">89</text>
<rect style="fill:rgb(191,162,33);fill-opacity:0.5;" width="52" height="48" x="240" y="212"/>
<text x="266" y="227" font-family="sans-serif" font-size="10px" text-anchor="middle">J12</text><text x="266" y="237" font-family="sans-serif" font-size="10px" text-anchor="middle">89</text><text x="266" y="247" font-family="sans-serif" font-size="10px" text-anchor="middle">116</text>
<rect style="fill:rgb(191,162,33);fill-opacity:0.5;" width="188" height="48" x="422" y="62"/>
<text x="516" y="77" font-family="sans-serif" font-size="10px" text-anchor="middle">J12</text><text x="516" y="87" font-family="sans-serif" font-size="10px" text-anchor="middle">180</text><text x="516" y="97" font-family="sans-serif" font-size="10px" text-anchor="middle">275</text>
<rect style="fill:rgb(191,162,33);fill-opacity:0.5;" width="10" height="48" x="698" y="262"/>
<text x="703" y="277" font-family="sans-serif" font-size="10px" text-anchor="middle">J12</text><text x="703" y="287" font-family="sans-serif" font-size="10px" text-anchor="middle">318</text><text x="703" y="297" font-family="sans-serif" font-size="10px" text-anchor="middle">324</text>
<rect style="fill:rgb(191,162,33);fill-opacity:0.5;" width="162" height="48" x="804" y="162"/>
<text x="885" y="177" font-family="sans-serif" font-size="10px" text-anchor="middle">J12</text><text x="885" y="187" font-family="sans-serif" font-size="10px" text-anchor="middle">371</text><text x="885" y="197" font-family="sans-serif" font-size="10px" text-anchor="middle">453</text>
<rect style="fill:rgb(240,159,9);fill-opacity:0.5;" width="70" height="48" x="62" y="262"/>
<text x="97" y="277" font-family="sans-serif" font-size="10px" text-anchor="middle">J13</text><text x="97" y="287" font-family="sans-serif" font-size="10px" text-anchor="middle">0</text><text x="97" y="297" font-family="sans-serif" font-size="10px" text-anchor="middle">36</text>
<rect style="fill:rgb(240,159,9);fill-opacity:0.5;" width="50" height="48" x="220" y="62"/>
<text x="245" y="77" font-family="sans-serif" font-size="10px" text-anchor="middle">J13</text><text x="245" y="87" font-family="sans-serif" font-size="10px" text-anchor="middle">79</text><text x="245" y="97" font-family="sans-serif" font-size="10px" text-anchor="middle">105</text>
<rect style="fill:rgb(240,159,9);fill-opacity:0.5;" width="94" height="48" x="502" y="212"/>
<text x="549" y="227" font-family="sans-serif" font-size="10px" text-anchor="middle">J13</text><text x="549" y="237" font-family="sans-serif" font-size="10px" text-anchor="middle">220</text><text x="549" y="247" font-family="sans-serif" font-size="10px" text-anchor="middle">268</text>
<rect style="fill:rgb(240,159,9);fill-opacity:0.5;" width="110" height="48" x="1192" y="162"/>
<text x="1247" y="177" font-family="sans-serif" font-size="10px" text-anchor="middle">J13</text><text x="1247" y="187" font-family="sans-serif" font-size="10px" text-anchor="middle">565</text><text x="1247" y="197" font-family="sans-serif" font-size="10px" text-anchor="middle">621</text>
<rect style="fill:rgb(240,159,9);fill-opacity:0.5;" width="172" height="48" x="2472" y="112"/>
<text x="2558" y="127" font-family="sans-serif" font-size="10px" text-anchor="middle">J13</text><text x="2558" y="137" font-family="sans-serif" font-size="10px" text-anchor="middle">1205</text><text x="2558" y="147" font-family="sans-serif" font-size="10px" text-anchor="middle">1292</text>
<rect style="fill:rgb(208,25,126);fill-opacity:0.5;" width="70" height="48" x="192" y="162"/>
<text x="227" y="177" font-family="sans-serif" font-size="10px" text-anchor="middle">J14</text><text x="227" y="187" font-family="sans-serif" font-size="10px" text-anchor="middle">65</text><text x="227" y="197" font-family="sans-serif" font-size="10px" text-anchor="middle">101</text>
<rect style="fill:rgb(208,25,126);fill-opacity:0.5;" width="14" height="48" x="368" y="112"/>
<text x="375" y="127" font-family="sans-serif" font-size="10px" text-anchor="middle">J14</text><text x="375" y="137" font-family="sans-serif" font-size="10px" text-anchor="middle">153</text><text x="375" y="147" font-family="sans-serif" font-size="10px" text-anchor="middle">161</text>
<rect style="fill:rgb(208,25,126);fill-opacity:0.5;" width="28" height="48" x="512" y="262"/>
<text x="526" y="277" font-family="sans-serif" font-size="10px" text-anchor="middle">J14</text><text x="526" y="287" font-family="sans-serif" font-size="10px" text-anchor="middle">225</text><text x="526" y="297" font-family="sans-serif" font-size="10px" text-anchor="middle">240</text>
<rect style="fill:rgb(208,25,126);fill-opacity:0.5;" width="150" height="48" x="598" y="212"/>
<text x="673" y="227" font-family="sans-serif" font-size="10px" text-anchor="middle">J14</text><text x="673" y="237" font-family="sans-serif" font-size="10px" text-anchor="middle">268</text><text x="673" y="247" font-family="sans-serif" font-size="10px" text-anchor="middle">344</text>
<rect style="fill:rgb(208,25,126);fill-opacity:0.5;" width="70" height="48" x="750" y="62"/>
<text x="785" y="77" font-family="sans-serif" font-size="10px" text-anchor="middle">J14</text><text x="785" y="87" font-family="sans-serif" font-size="10px" text-anchor="middle">344</text><text x="785" y="97" font-family="sans-serif" font-size="10px" text-anchor="middle">380</text>
<rect style="fill:rgb(169,3,81);fill-opacity:0.5;" width="154" height="48" x="542" y="262"/>
<text x="619" y="277" font-family="sans-serif" font-size="10px" text-anchor="middle">J15</text><text x="619" y="287" font-family="sans-serif" font-size="10px" text-anchor="middle">240</text><text x="619" y="297" font-family="sans-serif" font-size="10px" text-anchor="middle">318</text>
<rect style="fill:rgb(169,3,81);fill-opacity:0.5;" width="166" height="48" x="1064" y="112"/>
<text x="1147" y="127" font-family="sans-serif" font-size="10px" text-anchor="middle">J15</text><text x="1147" y="137" font-family="sans-serif" font-size="10px" text-anchor="middle">501</text><text x="1147" y="147" font-family="sans-serif" font-size="10px" text-anchor="middle">585</text>
<rect style="fill:rgb(169,3,81);fill-opacity:0.5;" width="80" height="48" x="1374" y="212"/>
<text x="1414" y="227" font-family="sans-serif" font-size="10px" text-anchor="middle">J15</text><text x="1414" y="237" font-family="sans-serif" font-size="10px" text-anchor="middle">656</text><text x="1414" y="247" font-family="sans-serif" font-size="10px" text-anchor="middle">697</text>
<rect style="fill:rgb(169,3,81);fill-opacity:0.5;" width="58" height="48" x="1456" y="62"/>
<text x="1485" y="77" font-family="sans-serif" font-size="10px" text-anchor="middle">J15</text><text x="1485" y="87" font-family="sans-serif" font-size="10px" text-anchor="middle">697</text><text x="1485" y="97" font-family="sans-serif" font-size="10px" text-anchor="middle">727</text>
<rect style="fill:rgb(169,3,81);fill-opacity:0.5;" width="150" height="48" x="1792" y="162"/>
<text x="1867" y="177" font-family="sans-serif" font-size="10px" text-anchor="middle">J15</text><text x="1867" y="187" font-family="sans-serif" font-size="10px" text-anchor="middle">865</text><text x="1867" y="197" font-family="sans-serif" font-size="10px" text-anchor="middle">941</text>
<rect style="fill:rgb(28,179,208);fill-opacity:0.5;" width="154" height="48" x="1232" y="112"/>
<text x="1309" y="127" font-family="sans-serif" font-size="10px" text-anchor="middle">J16</text><text x="1309" y="137" font-family="sans-serif" font-size="10px" text-anchor="middle">585</text><text x="1309" y="147" font-family="sans-serif" font-size="10px" text-anchor="middle">663</text>
<rect style="fill:rgb(28,179,208);fill-opacity:0.5;" width="148" height="48" x="1516" y="62"/>
<text x="1590" y="77" font-family="sans-serif" font-size="10px" text-anchor="middle">J16</text><text x="1590" y="87" font-family="sans-serif" font-size="10px" text-anchor="middle">727</text><text x="1590" y="97" font-family="sans-serif" font-size="10px" text-anchor="middle">802</text>
<rect style="fill:rgb(28,179,208);fill-opacity:0.5;" width="174" height="48" x="2086" y="262"/>
<text x="2173" y="277" font-family="sans-serif" font-size="10px" text-anchor="middle">J16</text><text x="2173" y="287" font-family="sans-serif" font-size="10px" text-anchor="middle">1012</text><text x="2173" y="297" font-family="sans-serif" font-size="10px" text-anchor="middle">1100</text>
<rect style="fill:rgb(28,179,208);fill-opacity:0.5;" width="24" height="48" x="2262" y="212"/>
<text x="2274" y="227" font-family="sans-serif" font-size="10px" text-anchor="middle">J16</text><text x="2274" y="237" font-family="sans-serif" font-size="10px" text-anchor="middle">1100</text><text x="2274" y="247" font-family="sans-serif" font-size="10px" text-anchor="middle">1113</text>
<rect style="fill:rgb(28,179,208);fill-opacity:0.5;" width="160" height="48" x="2320" y="162"/>
<text x="2400" y="177" font-family="sans-serif" font-size="10px" text-anchor="middle">J16</text><text x="2400" y="187" font-family="sans-serif" font-size="10px" text-anchor="middle">1129</text><text x="2400" y="197" font-family="sans-serif" font-size="10px" text-anchor="middle">1210</text>
<rect style="fill:rgb(57,17,172);fill-opacity:0.5;" width="106" height="48" x="112" y="62"/>
<text x="165" y="77" font-family="sans-serif" font-size="10px" text-anchor="middle">J17</text><text x="165" y="87" font-family="sans-serif" font-size="10px" text-anchor="middle">25</text><text x="165" y="97" font-family="sans-serif" font-size="10px" text-anchor="middle">79</text>
<rect style="fill:rgb(57,17,172);fill-opacity:0.5;" width="78" height="48" x="392" y="262"/>
<text x="431" y="277" font-family="sans-serif" font-size="10px" text-anchor="middle">J17</text><text x="431" y="287" font-family="sans-serif" font-size="10px" text-anchor="middle">165</text><text x="431" y="297" font-family="sans-serif" font-size="10px" text-anchor="middle">205</text>
<rect style="fill:rgb(57,17,172);fill-opacity:0.5;" width="24" height="48" x="714" y="162"/>
<text x="726" y="177" font-family="sans-serif" font-size="10px" text-anchor="middle">J17</text><text x="726" y="187" font-family="sans-serif" font-size="10px" text-anchor="middle">326</text><text x="726" y="197" font-family="sans-serif" font-size="10px" text-anchor="middle">339</text>
<rect style="fill:rgb(57,17,172);fill-opacity:0.5;" width="162" height="48" x="900" y="112"/>
<text x="981" y="127" font-family="sans-serif" font-size="10px" text-anchor="middle">J17</text><text x="981" y="137" font-family="sans-serif" font-size="10px" text-anchor="middle">419</text><text x="981" y="147" font-family="sans-serif" font-size="10px" text-anchor="middle">501</text>
<rect style="fill:rgb(57,17,172);fill-opacity:0.5;" width="56" height="48" x="1064" y="212"/>
<text x="1092" y="227" font-family="sans-serif" font-size="10px" text-anchor="middle">J17</text><text x="1092" y="237" font-family="sans-serif" font-size="10px" text-anchor="middle">501</text><text x="1092" y="247" font-family="sans-serif" font-size="10px" text-anchor="middle">530</text>
<rect style="fill:rgb(81,91,2);fill-opacity:0.5;" width="50" height="48" x="62" y="112"/>
<text x="87" y="127" font-family="sans-serif" font-size="10px" text-anchor="middle">J18</text><text x="87" y="137" font-family="sans-serif" font-size="10px" text-anchor="middle">0</text><text x="87" y="147" font-family="sans-serif" font-size="10px" text-anchor="middle">26</text>
<rect style="fill:rgb(81,91,2);fill-opacity:0.5;" width="162" height="48" x="1032" y="262"/>
<text x="1113" y="277" font-family="sans-serif" font-size="10px" text-anchor="middle">J18</text><text x="1113" y="287" font-family="sans-serif" font-size="10px" text-anchor="middle">485</text><text x="1113" y="297" font-family="sans-serif" font-size="10px" text-anchor="middle">567</text>
<rect style="fill:rgb(81,91,2);fill-opacity:0.5;" width="102" height="48" x="1196" y="62"/>
<text x="1247" y="77" font-family="sans-serif" font-size="10px" text-anchor="middle">J18</text><text x="1247" y="87" font-family="sans-serif" font-size="10px" text-anchor="middle">567</text><text x="1247" y="97" font-family="sans-serif" font-size="10px" text-anchor="middle">619</text>
<rect style="fill:rgb(81,91,2);fill-opacity:0.5;" width="10" height="48" x="1362" y="212"/>
<text x="1367" y="227" font-family="sans-serif" font-size="10px" text-anchor="middle">J18</text><text x="1367" y="237" font-family="sans-serif" font-size="10px" text-anchor="middle">650</text><text x="1367" y="247" font-family="sans-serif" font-size="10px" text-anchor="middle">656</text>
<rect style="fill:rgb(81,91,2);fill-opacity:0.5;" width="10" height="48" x="1374" y="162"/>
<text x="1379" y="177" font-family="sans-serif" font-size="10px" text-anchor="middle">J18</text><text x="1379" y="187" font-family="sans-serif" font-size="10px" text-anchor="middle">656</text><text x="1379" y="197" font-family="sans-serif" font-size="10px" text-anchor="middle">662</text>
<rect style="fill:rgb(32,132,15);fill-opacity:0.5;" width="106" height="48" x="102" y="212"/>
<text x="155" y="227" font-family="sans-serif" font-size="10px" text-anchor="middle">J19</text><text x="155" y="237" font-family="sans-serif" font-size="10px" text-anchor="middle">20</text><text x="155" y="247" font-family="sans-serif" font-size="10px" text-anchor="middle">74</text>
<rect style="fill:rgb(32,132,15);fill-opacity:0.5;" width="126" height="48" x="240" y="112"/>
<text x="303" y="127" font-family="sans-serif" font-size="10px" text-anchor="middle">J19</text><text x="303" y="137" font-family="sans-serif" font-size="10px" text-anchor="middle">89</text><text x="303" y="147" font-family="sans-serif" font-size="10px" text-anchor="middle">153</text>
<rect style="fill:rgb(32,132,15);fill-opacity:0.5;" width="106" height="48" x="612" y="62"/>
<text x="665" y="77" font-family="sans-serif" font-size="10px" text-anchor="middle">J19</text><text x="665" y="87" font-family="sans-serif" font-size="10px" text-anchor="middle">275</text><text x="665" y="97" font-family="sans-serif" font-size="10px" text-anchor="middle">329</text>
<rect style="fill:rgb(32,132,15);fill-opacity:0.5;" width="62" height="48" x="740" y="162"/>
<text x="771" y="177" font-family="sans-serif" font-size="10px" text-anchor="middle">J19</text><text x="771" y="187" font-family="sans-serif" font-size="10px" text-anchor="middle">339</text><text x="771" y="197" font-family="sans-serif" font-size="10px" text-anchor="middle">371</text>
<rect style="fill:rgb(32,132,15);fill-opacity:0.5;" width="174" height="48" x="856" y="262"/>
<text x="943" y="277" font-family="sans-serif" font-size="10px" text-anchor="middle">J19</text><text x="943" y="287" font-family="sans-serif" font-size="10px" text-anchor="middle">397</text><text x="943" y="297" font-family="sans-serif" font-size="10px" text-anchor="middle">485</text>
<line x1="60" y1="40" x2="60" y2="312" stroke="dimgrey" />
<line x1="60" y1="40" x2="70" y2="50" stroke="dimgrey" />
<text x="35" y="90" font-family="sans-serif" font-size="10px" text-anchor="middle">M.1</text>
<text x="35" y="140" font-family="sans-serif" font-size="10px" text-anchor="middle">M.2</text>
<text x="35" y="190" font-family="sans-serif" font-size="10px" text-anchor="middle">M.3</text>
<text x="35" y="240" font-family="sans-serif" font-size="10px" text-anchor="middle">M.4</text>
<text x="35" y="290" font-family="sans-serif" font-size="10px" text-anchor="middle">M.5</text>
<line x1="60" y1="312" x2="2664" y2="312" stroke="dimgrey" />
<line x1="2654" y1="302" x2="2664" y2="312" stroke="dimgrey" />
<line x1="2644" y1="314" x2="2644" y2="322" stroke="dimgrey" />
<text x="70" y="35" font-family="sans-serif" font-size="20px" text-anchor="middle" fill="dimgrey">Machines</text>
<text x="2684" y="312" font-family="sans-serif" font-size="20px" text-anchor="middle" fill="dimgrey">Time</text>
<text x="1364" y="342" font-family="sans-serif" font-size="30px" text-anchor="middle" fill="dimgrey">Diagramme de Gantt du problème: la14.txt - makespan: 1292</text>
</svg>
