<?xml version="1.0" encoding="UTF-8" standalone="no"?>
 <svg xmlns="http://www.w3.org/2000/svg" version="1.1" width="2619" height="350">
<title> Diagramme de Gantt du Probleme: la15.txt</title>
<desc> Cette figure represente le planning des operations du probleme traite.</desc>
<rect style="fill:rgb(62,139,185);fill-opacity:0.5;" width="10" height="48" x="118" y="62"/>
<text x="123" y="77" font-family="sans-serif" font-size="10px" text-anchor="middle">J0</text><text x="123" y="87" font-family="sans-serif" font-size="10px" text-anchor="middle">28</text><text x="123" y="97" font-family="sans-serif" font-size="10px" text-anchor="middle">34</text>
<rect style="fill:rgb(62,139,185);fill-opacity:0.5;" width="78" height="48" x="130" y="162"/>
<text x="169" y="177" font-family="sans-serif" font-size="10px" text-anchor="middle">J0</text><text x="169" y="187" font-family="sans-serif" font-size="10px" text-anchor="middle">34</text><text x="169" y="197" font-family="sans-serif" font-size="10px" text-anchor="middle">74</text>
<rect style="fill:rgb(62,139,185);fill-opacity:0.5;" width="160" height="48" x="814" y="112"/>
<text x="894" y="127" font-family="sans-serif" font-size="10px" text-anchor="middle">J0</text><text x="894" y="137" font-family="sans-serif" font-size="10px" text-anchor="middle">376</text><text x="894" y="147" font-family="sans-serif" font-size="10px" text-anchor="middle">457</text>
<rect style="fill:rgb(62,139,185);fill-opacity:0.5;" width="72" height="48" x="1076" y="212"/>
<text x="1112" y="227" font-family="sans-serif" font-size="10px" text-anchor="middle">J0</text><text x="1112" y="237" font-family="sans-serif" font-size="10px" text-anchor="middle">507</text><text x="1112" y="247" font-family="sans-serif" font-size="10px" text-anchor="middle">544</text>
<rect style="fill:rgb(62,139,185);fill-opacity:0.5;" width="36" height="48" x="1306" y="262"/>
<text x="1324" y="277" font-family="sans-serif" font-size="10px" text-anchor="middle">J0</text><text x="1324" y="287" font-family="sans-serif" font-size="10px" text-anchor="middle">622</text><text x="1324" y="297" font-family="sans-serif" font-size="10px" text-anchor="middle">641</text>
<rect style="fill:rgb(238,172,238);fill-opacity:0.5;" width="78" height="48" x="282" y="162"/>
<text x="321" y="177" font-family="sans-serif" font-size="10px" text-anchor="middle">J1</text><text x="321" y="187" font-family="sans-serif" font-size="10px" text-anchor="middle">110</text><text x="321" y="197" font-family="sans-serif" font-size="10px" text-anchor="middle">150</text>
<rect style="fill:rgb(238,172,238);fill-opacity:0.5;" width="62" height="48" x="362" y="212"/>
<text x="393" y="227" font-family="sans-serif" font-size="10px" text-anchor="middle">J1</text><text x="393" y="237" font-family="sans-serif" font-size="10px" text-anchor="middle">150</text><text x="393" y="247" font-family="sans-serif" font-size="10px" text-anchor="middle">182</text>
<rect style="fill:rgb(238,172,238);fill-opacity:0.5;" width="108" height="48" x="864" y="62"/>
<text x="918" y="77" font-family="sans-serif" font-size="10px" text-anchor="middle">J1</text><text x="918" y="87" font-family="sans-serif" font-size="10px" text-anchor="middle">401</text><text x="918" y="97" font-family="sans-serif" font-size="10px" text-anchor="middle">456</text>
<rect style="fill:rgb(238,172,238);fill-opacity:0.5;" width="160" height="48" x="974" y="262"/>
<text x="1054" y="277" font-family="sans-serif" font-size="10px" text-anchor="middle">J1</text><text x="1054" y="287" font-family="sans-serif" font-size="10px" text-anchor="middle">456</text><text x="1054" y="297" font-family="sans-serif" font-size="10px" text-anchor="middle">537</text>
<rect style="fill:rgb(238,172,238);fill-opacity:0.5;" width="16" height="48" x="1140" y="112"/>
<text x="1148" y="127" font-family="sans-serif" font-size="10px" text-anchor="middle">J1</text><text x="1148" y="137" font-family="sans-serif" font-size="10px" text-anchor="middle">539</text><text x="1148" y="147" font-family="sans-serif" font-size="10px" text-anchor="middle">548</text>
<rect style="fill:rgb(47,232,102);fill-opacity:0.5;" width="90" height="48" x="156" y="112"/>
<text x="201" y="127" font-family="sans-serif" font-size="10px" text-anchor="middle">J2</text><text x="201" y="137" font-family="sans-serif" font-size="10px" text-anchor="middle">47</text><text x="201" y="147" font-family="sans-serif" font-size="10px" text-anchor="middle">93</text>
<rect style="fill:rgb(47,232,102);fill-opacity:0.5;" width="128" height="48" x="336" y="262"/>
<text x="400" y="277" font-family="sans-serif" font-size="10px" text-anchor="middle">J2</text><text x="400" y="287" font-family="sans-serif" font-size="10px" text-anchor="middle">137</text><text x="400" y="297" font-family="sans-serif" font-size="10px" text-anchor="middle">202</text>
<rect style="fill:rgb(47,232,102);fill-opacity:0.5;" width="138" height="48" x="896" y="162"/>
<text x="965" y="177" font-family="sans-serif" font-size="10px" text-anchor="middle">J2</text><text x="965" y="187" font-family="sans-serif" font-size="10px" text-anchor="middle">417</text><text x="965" y="197" font-family="sans-serif" font-size="10px" text-anchor="middle">487</text>
<rect style="fill:rgb(47,232,102);fill-opacity:0.5;" width="108" height="48" x="1150" y="212"/>
<text x="1204" y="227" font-family="sans-serif" font-size="10px" text-anchor="middle">J2</text><text x="1204" y="237" font-family="sans-serif" font-size="10px" text-anchor="middle">544</text><text x="1204" y="247" font-family="sans-serif" font-size="10px" text-anchor="middle">599</text>
<rect style="fill:rgb(47,232,102);fill-opacity:0.5;" width="152" height="48" x="2322" y="62"/>
<text x="2398" y="77" font-family="sans-serif" font-size="10px" text-anchor="middle">J2</text><text x="2398" y="87" font-family="sans-serif" font-size="10px" text-anchor="middle">1130</text><text x="2398" y="97" font-family="sans-serif" font-size="10px" text-anchor="middle">1207</text>
<rect style="fill:rgb(25,19,248);fill-opacity:0.5;" width="40" height="48" x="62" y="162"/>
<text x="82" y="177" font-family="sans-serif" font-size="10px" text-anchor="middle">J3</text><text x="82" y="187" font-family="sans-serif" font-size="10px" text-anchor="middle">0</text><text x="82" y="197" font-family="sans-serif" font-size="10px" text-anchor="middle">21</text>
<rect style="fill:rgb(25,19,248);fill-opacity:0.5;" width="128" height="48" x="466" y="262"/>
<text x="530" y="277" font-family="sans-serif" font-size="10px" text-anchor="middle">J3</text><text x="530" y="287" font-family="sans-serif" font-size="10px" text-anchor="middle">202</text><text x="530" y="297" font-family="sans-serif" font-size="10px" text-anchor="middle">267</text>
<rect style="fill:rgb(25,19,248);fill-opacity:0.5;" width="126" height="48" x="1150" y="62"/>
<text x="1213" y="77" font-family="sans-serif" font-size="10px" text-anchor="middle">J3</text><text x="1213" y="87" font-family="sans-serif" font-size="10px" text-anchor="middle">544</text><text x="1213" y="97" font-family="sans-serif" font-size="10px" text-anchor="middle">608</text>
<rect style="fill:rgb(25,19,248);fill-opacity:0.5;" width="48" height="48" x="1278" y="212"/>
<text x="1302" y="227" font-family="sans-serif" font-size="10px" text-anchor="middle">J3</text><text x="1302" y="237" font-family="sans-serif" font-size="10px" text-anchor="middle">608</text><text x="1302" y="247" font-family="sans-serif" font-size="10px" text-anchor="middle">633</text>
<rect style="fill:rgb(25,19,248);fill-opacity:0.5;" width="28" height="48" x="1354" y="112"/>
<text x="1368" y="127" font-family="sans-serif" font-size="10px" text-anchor="middle">J3</text><text x="1368" y="137" font-family="sans-serif" font-size="10px" text-anchor="middle">646</text><text x="1368" y="147" font-family="sans-serif" font-size="10px" text-anchor="middle">661</text>
<rect style="fill:rgb(142,6,56);fill-opacity:0.5;" width="168" height="48" x="1036" y="162"/>
<text x="1120" y="177" font-family="sans-serif" font-size="10px" text-anchor="middle">J4</text><text x="1120" y="187" font-family="sans-serif" font-size="10px" text-anchor="middle">487</text><text x="1120" y="197" font-family="sans-serif" font-size="10px" text-anchor="middle">572</text>
<rect style="fill:rgb(142,6,56);fill-opacity:0.5;" width="78" height="48" x="1278" y="62"/>
<text x="1317" y="77" font-family="sans-serif" font-size="10px" text-anchor="middle">J4</text><text x="1317" y="87" font-family="sans-serif" font-size="10px" text-anchor="middle">608</text><text x="1317" y="97" font-family="sans-serif" font-size="10px" text-anchor="middle">648</text>
<rect style="fill:rgb(142,6,56);fill-opacity:0.5;" width="86" height="48" x="1384" y="112"/>
<text x="1427" y="127" font-family="sans-serif" font-size="10px" text-anchor="middle">J4</text><text x="1427" y="137" font-family="sans-serif" font-size="10px" text-anchor="middle">661</text><text x="1427" y="147" font-family="sans-serif" font-size="10px" text-anchor="middle">705</text>
<rect style="fill:rgb(142,6,56);fill-opacity:0.5;" width="46" height="48" x="1488" y="212"/>
<text x="1511" y="227" font-family="sans-serif" font-size="10px" text-anchor="middle">J4</text><text x="1511" y="237" font-family="sans-serif" font-size="10px" text-anchor="middle">713</text><text x="1511" y="247" font-family="sans-serif" font-size="10px" text-anchor="middle">737</text>
<rect style="fill:rgb(142,6,56);fill-opacity:0.5;" width="72" height="48" x="1536" y="262"/>
<text x="1572" y="277" font-family="sans-serif" font-size="10px" text-anchor="middle">J4</text><text x="1572" y="287" font-family="sans-serif" font-size="10px" text-anchor="middle">737</text><text x="1572" y="297" font-family="sans-serif" font-size="10px" text-anchor="middle">774</text>
<rect style="fill:rgb(65,243,73);fill-opacity:0.5;" width="176" height="48" x="670" y="62"/>
<text x="758" y="77" font-family="sans-serif" font-size="10px" text-anchor="middle">J5</text><text x="758" y="87" font-family="sans-serif" font-size="10px" text-anchor="middle">304</text><text x="758" y="97" font-family="sans-serif" font-size="10px" text-anchor="middle">393</text>
<rect style="fill:rgb(65,243,73);fill-opacity:0.5;" width="56" height="48" x="848" y="262"/>
<text x="876" y="277" font-family="sans-serif" font-size="10px" text-anchor="middle">J5</text><text x="876" y="287" font-family="sans-serif" font-size="10px" text-anchor="middle">393</text><text x="876" y="297" font-family="sans-serif" font-size="10px" text-anchor="middle">422</text>
<rect style="fill:rgb(65,243,73);fill-opacity:0.5;" width="164" height="48" x="1472" y="112"/>
<text x="1554" y="127" font-family="sans-serif" font-size="10px" text-anchor="middle">J5</text><text x="1554" y="137" font-family="sans-serif" font-size="10px" text-anchor="middle">705</text><text x="1554" y="147" font-family="sans-serif" font-size="10px" text-anchor="middle">788</text>
<rect style="fill:rgb(65,243,73);fill-opacity:0.5;" width="60" height="48" x="1720" y="212"/>
<text x="1750" y="227" font-family="sans-serif" font-size="10px" text-anchor="middle">J5</text><text x="1750" y="237" font-family="sans-serif" font-size="10px" text-anchor="middle">829</text><text x="1750" y="247" font-family="sans-serif" font-size="10px" text-anchor="middle">860</text>
<rect style="fill:rgb(65,243,73);fill-opacity:0.5;" width="166" height="48" x="1782" y="162"/>
<text x="1865" y="177" font-family="sans-serif" font-size="10px" text-anchor="middle">J5</text><text x="1865" y="187" font-family="sans-serif" font-size="10px" text-anchor="middle">860</text><text x="1865" y="197" font-family="sans-serif" font-size="10px" text-anchor="middle">944</text>
<rect style="fill:rgb(117,156,15);fill-opacity:0.5;" width="116" height="48" x="62" y="262"/>
<text x="120" y="277" font-family="sans-serif" font-size="10px" text-anchor="middle">J6</text><text x="120" y="287" font-family="sans-serif" font-size="10px" text-anchor="middle">0</text><text x="120" y="297" font-family="sans-serif" font-size="10px" text-anchor="middle">59</text>
<rect style="fill:rgb(117,156,15);fill-opacity:0.5;" width="74" height="48" x="180" y="212"/>
<text x="217" y="227" font-family="sans-serif" font-size="10px" text-anchor="middle">J6</text><text x="217" y="237" font-family="sans-serif" font-size="10px" text-anchor="middle">59</text><text x="217" y="247" font-family="sans-serif" font-size="10px" text-anchor="middle">97</text>
<rect style="fill:rgb(117,156,15);fill-opacity:0.5;" width="158" height="48" x="416" y="112"/>
<text x="495" y="127" font-family="sans-serif" font-size="10px" text-anchor="middle">J6</text><text x="495" y="137" font-family="sans-serif" font-size="10px" text-anchor="middle">177</text><text x="495" y="147" font-family="sans-serif" font-size="10px" text-anchor="middle">257</text>
<rect style="fill:rgb(117,156,15);fill-opacity:0.5;" width="58" height="48" x="724" y="162"/>
<text x="753" y="177" font-family="sans-serif" font-size="10px" text-anchor="middle">J6</text><text x="753" y="187" font-family="sans-serif" font-size="10px" text-anchor="middle">331</text><text x="753" y="197" font-family="sans-serif" font-size="10px" text-anchor="middle">361</text>
<rect style="fill:rgb(117,156,15);fill-opacity:0.5;" width="14" height="48" x="848" y="62"/>
<text x="855" y="77" font-family="sans-serif" font-size="10px" text-anchor="middle">J6</text><text x="855" y="87" font-family="sans-serif" font-size="10px" text-anchor="middle">393</text><text x="855" y="97" font-family="sans-serif" font-size="10px" text-anchor="middle">401</text>
<rect style="fill:rgb(241,98,202);fill-opacity:0.5;" width="158" height="48" x="510" y="62"/>
<text x="589" y="77" font-family="sans-serif" font-size="10px" text-anchor="middle">J7</text><text x="589" y="87" font-family="sans-serif" font-size="10px" text-anchor="middle">224</text><text x="589" y="97" font-family="sans-serif" font-size="10px" text-anchor="middle">304</text>
<rect style="fill:rgb(241,98,202);fill-opacity:0.5;" width="110" height="48" x="784" y="162"/>
<text x="839" y="177" font-family="sans-serif" font-size="10px" text-anchor="middle">J7</text><text x="839" y="187" font-family="sans-serif" font-size="10px" text-anchor="middle">361</text><text x="839" y="197" font-family="sans-serif" font-size="10px" text-anchor="middle">417</text>
<rect style="fill:rgb(241,98,202);fill-opacity:0.5;" width="152" height="48" x="1828" y="112"/>
<text x="1904" y="127" font-family="sans-serif" font-size="10px" text-anchor="middle">J7</text><text x="1904" y="137" font-family="sans-serif" font-size="10px" text-anchor="middle">883</text><text x="1904" y="147" font-family="sans-serif" font-size="10px" text-anchor="middle">960</text>
<rect style="fill:rgb(241,98,202);fill-opacity:0.5;" width="80" height="48" x="1982" y="262"/>
<text x="2022" y="277" font-family="sans-serif" font-size="10px" text-anchor="middle">J7</text><text x="2022" y="287" font-family="sans-serif" font-size="10px" text-anchor="middle">960</text><text x="2022" y="297" font-family="sans-serif" font-size="10px" text-anchor="middle">1001</text>
<rect style="fill:rgb(241,98,202);fill-opacity:0.5;" width="192" height="48" x="2084" y="212"/>
<text x="2180" y="227" font-family="sans-serif" font-size="10px" text-anchor="middle">J7</text><text x="2180" y="237" font-family="sans-serif" font-size="10px" text-anchor="middle">1011</text><text x="2180" y="247" font-family="sans-serif" font-size="10px" text-anchor="middle">1108</text>
<rect style="fill:rgb(44,47,26);fill-opacity:0.5;" width="110" height="48" x="180" y="262"/>
<text x="235" y="277" font-family="sans-serif" font-size="10px" text-anchor="middle">J8</text><text x="235" y="287" font-family="sans-serif" font-size="10px" text-anchor="middle">59</text><text x="235" y="297" font-family="sans-serif" font-size="10px" text-anchor="middle">115</text>
<rect style="fill:rgb(44,47,26);fill-opacity:0.5;" width="180" height="48" x="1720" y="62"/>
<text x="1810" y="77" font-family="sans-serif" font-size="10px" text-anchor="middle">J8</text><text x="1810" y="87" font-family="sans-serif" font-size="10px" text-anchor="middle">829</text><text x="1810" y="97" font-family="sans-serif" font-size="10px" text-anchor="middle">920</text>
<rect style="fill:rgb(44,47,26);fill-opacity:0.5;" width="98" height="48" x="1902" y="212"/>
<text x="1951" y="227" font-family="sans-serif" font-size="10px" text-anchor="middle">J8</text><text x="1951" y="237" font-family="sans-serif" font-size="10px" text-anchor="middle">920</text><text x="1951" y="247" font-family="sans-serif" font-size="10px" text-anchor="middle">970</text>
<rect style="fill:rgb(44,47,26);fill-opacity:0.5;" width="140" height="48" x="2002" y="162"/>
<text x="2072" y="177" font-family="sans-serif" font-size="10px" text-anchor="middle">J8</text><text x="2072" y="187" font-family="sans-serif" font-size="10px" text-anchor="middle">970</text><text x="2072" y="197" font-family="sans-serif" font-size="10px" text-anchor="middle">1041</text>
<rect style="fill:rgb(44,47,26);fill-opacity:0.5;" width="32" height="48" x="2234" y="112"/>
<text x="2250" y="127" font-family="sans-serif" font-size="10px" text-anchor="middle">J8</text><text x="2250" y="137" font-family="sans-serif" font-size="10px" text-anchor="middle">1086</text><text x="2250" y="147" font-family="sans-serif" font-size="10px" text-anchor="middle">1103</text>
<rect style="fill:rgb(42,223,105);fill-opacity:0.5;" width="78" height="48" x="62" y="112"/>
<text x="101" y="127" font-family="sans-serif" font-size="10px" text-anchor="middle">J9</text><text x="101" y="137" font-family="sans-serif" font-size="10px" text-anchor="middle">0</text><text x="101" y="147" font-family="sans-serif" font-size="10px" text-anchor="middle">40</text>
<rect style="fill:rgb(42,223,105);fill-opacity:0.5;" width="174" height="48" x="974" y="62"/>
<text x="1061" y="77" font-family="sans-serif" font-size="10px" text-anchor="middle">J9</text><text x="1061" y="87" font-family="sans-serif" font-size="10px" text-anchor="middle">456</text><text x="1061" y="97" font-family="sans-serif" font-size="10px" text-anchor="middle">544</text>
<rect style="fill:rgb(42,223,105);fill-opacity:0.5;" width="116" height="48" x="1188" y="262"/>
<text x="1246" y="277" font-family="sans-serif" font-size="10px" text-anchor="middle">J9</text><text x="1246" y="287" font-family="sans-serif" font-size="10px" text-anchor="middle">563</text><text x="1246" y="297" font-family="sans-serif" font-size="10px" text-anchor="middle">622</text>
<rect style="fill:rgb(42,223,105);fill-opacity:0.5;" width="12" height="48" x="1306" y="162"/>
<text x="1312" y="177" font-family="sans-serif" font-size="10px" text-anchor="middle">J9</text><text x="1312" y="187" font-family="sans-serif" font-size="10px" text-anchor="middle">622</text><text x="1312" y="197" font-family="sans-serif" font-size="10px" text-anchor="middle">629</text>
<rect style="fill:rgb(42,223,105);fill-opacity:0.5;" width="158" height="48" x="1328" y="212"/>
<text x="1407" y="227" font-family="sans-serif" font-size="10px" text-anchor="middle">J9</text><text x="1407" y="237" font-family="sans-serif" font-size="10px" text-anchor="middle">633</text><text x="1407" y="247" font-family="sans-serif" font-size="10px" text-anchor="middle">713</text>
<rect style="fill:rgb(184,151,139);fill-opacity:0.5;" width="88" height="48" x="420" y="62"/>
<text x="464" y="77" font-family="sans-serif" font-size="10px" text-anchor="middle">J10</text><text x="464" y="87" font-family="sans-serif" font-size="10px" text-anchor="middle">179</text><text x="464" y="97" font-family="sans-serif" font-size="10px" text-anchor="middle">224</text>
<rect style="fill:rgb(184,151,139);fill-opacity:0.5;" width="56" height="48" x="576" y="112"/>
<text x="604" y="127" font-family="sans-serif" font-size="10px" text-anchor="middle">J10</text><text x="604" y="137" font-family="sans-serif" font-size="10px" text-anchor="middle">257</text><text x="604" y="147" font-family="sans-serif" font-size="10px" text-anchor="middle">286</text>
<rect style="fill:rgb(184,151,139);fill-opacity:0.5;" width="14" height="48" x="654" y="162"/>
<text x="661" y="177" font-family="sans-serif" font-size="10px" text-anchor="middle">J10</text><text x="661" y="187" font-family="sans-serif" font-size="10px" text-anchor="middle">296</text><text x="661" y="197" font-family="sans-serif" font-size="10px" text-anchor="middle">304</text>
<rect style="fill:rgb(184,151,139);fill-opacity:0.5;" width="152" height="48" x="670" y="262"/>
<text x="746" y="277" font-family="sans-serif" font-size="10px" text-anchor="middle">J10</text><text x="746" y="287" font-family="sans-serif" font-size="10px" text-anchor="middle">304</text><text x="746" y="297" font-family="sans-serif" font-size="10px" text-anchor="middle">381</text>
<rect style="fill:rgb(184,151,139);fill-opacity:0.5;" width="114" height="48" x="824" y="212"/>
<text x="881" y="227" font-family="sans-serif" font-size="10px" text-anchor="middle">J10</text><text x="881" y="237" font-family="sans-serif" font-size="10px" text-anchor="middle">381</text><text x="881" y="247" font-family="sans-serif" font-size="10px" text-anchor="middle">439</text>
<rect style="fill:rgb(179,7,79);fill-opacity:0.5;" width="70" height="48" x="210" y="162"/>
<text x="245" y="177" font-family="sans-serif" font-size="10px" text-anchor="middle">J11</text><text x="245" y="187" font-family="sans-serif" font-size="10px" text-anchor="middle">74</text><text x="245" y="197" font-family="sans-serif" font-size="10px" text-anchor="middle">110</text>
<rect style="fill:rgb(179,7,79);fill-opacity:0.5;" width="106" height="48" x="312" y="62"/>
<text x="365" y="77" font-family="sans-serif" font-size="10px" text-anchor="middle">J11</text><text x="365" y="87" font-family="sans-serif" font-size="10px" text-anchor="middle">125</text><text x="365" y="97" font-family="sans-serif" font-size="10px" text-anchor="middle">179</text>
<rect style="fill:rgb(179,7,79);fill-opacity:0.5;" width="190" height="48" x="598" y="212"/>
<text x="693" y="227" font-family="sans-serif" font-size="10px" text-anchor="middle">J11</text><text x="693" y="237" font-family="sans-serif" font-size="10px" text-anchor="middle">268</text><text x="693" y="247" font-family="sans-serif" font-size="10px" text-anchor="middle">364</text>
<rect style="fill:rgb(179,7,79);fill-opacity:0.5;" width="16" height="48" x="796" y="112"/>
<text x="804" y="127" font-family="sans-serif" font-size="10px" text-anchor="middle">J11</text><text x="804" y="137" font-family="sans-serif" font-size="10px" text-anchor="middle">367</text><text x="804" y="147" font-family="sans-serif" font-size="10px" text-anchor="middle">376</text>
<rect style="fill:rgb(179,7,79);fill-opacity:0.5;" width="18" height="48" x="906" y="262"/>
<text x="915" y="277" font-family="sans-serif" font-size="10px" text-anchor="middle">J11</text><text x="915" y="287" font-family="sans-serif" font-size="10px" text-anchor="middle">422</text><text x="915" y="297" font-family="sans-serif" font-size="10px" text-anchor="middle">432</text>
<rect style="fill:rgb(191,162,33);fill-opacity:0.5;" width="54" height="48" x="62" y="62"/>
<text x="89" y="77" font-family="sans-serif" font-size="10px" text-anchor="middle">J12</text><text x="89" y="87" font-family="sans-serif" font-size="10px" text-anchor="middle">0</text><text x="89" y="97" font-family="sans-serif" font-size="10px" text-anchor="middle">28</text>
<rect style="fill:rgb(191,162,33);fill-opacity:0.5;" width="144" height="48" x="386" y="162"/>
<text x="458" y="177" font-family="sans-serif" font-size="10px" text-anchor="middle">J12</text><text x="458" y="187" font-family="sans-serif" font-size="10px" text-anchor="middle">162</text><text x="458" y="197" font-family="sans-serif" font-size="10px" text-anchor="middle">235</text>
<rect style="fill:rgb(191,162,33);fill-opacity:0.5;" width="194" height="48" x="1158" y="112"/>
<text x="1255" y="127" font-family="sans-serif" font-size="10px" text-anchor="middle">J12</text><text x="1255" y="137" font-family="sans-serif" font-size="10px" text-anchor="middle">548</text><text x="1255" y="147" font-family="sans-serif" font-size="10px" text-anchor="middle">646</text>
<rect style="fill:rgb(191,162,33);fill-opacity:0.5;" width="182" height="48" x="1536" y="212"/>
<text x="1627" y="227" font-family="sans-serif" font-size="10px" text-anchor="middle">J12</text><text x="1627" y="237" font-family="sans-serif" font-size="10px" text-anchor="middle">737</text><text x="1627" y="247" font-family="sans-serif" font-size="10px" text-anchor="middle">829</text>
<rect style="fill:rgb(191,162,33);fill-opacity:0.5;" width="172" height="48" x="1780" y="262"/>
<text x="1866" y="277" font-family="sans-serif" font-size="10px" text-anchor="middle">J12</text><text x="1866" y="287" font-family="sans-serif" font-size="10px" text-anchor="middle">859</text><text x="1866" y="297" font-family="sans-serif" font-size="10px" text-anchor="middle">946</text>
<rect style="fill:rgb(240,159,9);fill-opacity:0.5;" width="138" height="48" x="172" y="62"/>
<text x="241" y="77" font-family="sans-serif" font-size="10px" text-anchor="middle">J13</text><text x="241" y="87" font-family="sans-serif" font-size="10px" text-anchor="middle">55</text><text x="241" y="97" font-family="sans-serif" font-size="10px" text-anchor="middle">125</text>
<rect style="fill:rgb(240,159,9);fill-opacity:0.5;" width="170" height="48" x="426" y="212"/>
<text x="511" y="227" font-family="sans-serif" font-size="10px" text-anchor="middle">J13</text><text x="511" y="237" font-family="sans-serif" font-size="10px" text-anchor="middle">182</text><text x="511" y="247" font-family="sans-serif" font-size="10px" text-anchor="middle">268</text>
<rect style="fill:rgb(240,159,9);fill-opacity:0.5;" width="52" height="48" x="670" y="162"/>
<text x="696" y="177" font-family="sans-serif" font-size="10px" text-anchor="middle">J13</text><text x="696" y="187" font-family="sans-serif" font-size="10px" text-anchor="middle">304</text><text x="696" y="197" font-family="sans-serif" font-size="10px" text-anchor="middle">331</text>
<rect style="fill:rgb(240,159,9);fill-opacity:0.5;" width="196" height="48" x="2036" y="112"/>
<text x="2134" y="127" font-family="sans-serif" font-size="10px" text-anchor="middle">J13</text><text x="2134" y="137" font-family="sans-serif" font-size="10px" text-anchor="middle">987</text><text x="2134" y="147" font-family="sans-serif" font-size="10px" text-anchor="middle">1086</text>
<rect style="fill:rgb(240,159,9);fill-opacity:0.5;" width="190" height="48" x="2236" y="262"/>
<text x="2331" y="277" font-family="sans-serif" font-size="10px" text-anchor="middle">J13</text><text x="2331" y="287" font-family="sans-serif" font-size="10px" text-anchor="middle">1087</text><text x="2331" y="297" font-family="sans-serif" font-size="10px" text-anchor="middle">1183</text>
<rect style="fill:rgb(208,25,126);fill-opacity:0.5;" width="188" height="48" x="1638" y="112"/>
<text x="1732" y="127" font-family="sans-serif" font-size="10px" text-anchor="middle">J14</text><text x="1732" y="137" font-family="sans-serif" font-size="10px" text-anchor="middle">788</text><text x="1732" y="147" font-family="sans-serif" font-size="10px" text-anchor="middle">883</text>
<rect style="fill:rgb(208,25,126);fill-opacity:0.5;" width="116" height="48" x="2006" y="62"/>
<text x="2064" y="77" font-family="sans-serif" font-size="10px" text-anchor="middle">J14</text><text x="2064" y="87" font-family="sans-serif" font-size="10px" text-anchor="middle">972</text><text x="2064" y="97" font-family="sans-serif" font-size="10px" text-anchor="middle">1031</text>
<rect style="fill:rgb(208,25,126);fill-opacity:0.5;" width="110" height="48" x="2124" y="262"/>
<text x="2179" y="277" font-family="sans-serif" font-size="10px" text-anchor="middle">J14</text><text x="2179" y="287" font-family="sans-serif" font-size="10px" text-anchor="middle">1031</text><text x="2179" y="297" font-family="sans-serif" font-size="10px" text-anchor="middle">1087</text>
<rect style="fill:rgb(208,25,126);fill-opacity:0.5;" width="168" height="48" x="2278" y="212"/>
<text x="2362" y="227" font-family="sans-serif" font-size="10px" text-anchor="middle">J14</text><text x="2362" y="237" font-family="sans-serif" font-size="10px" text-anchor="middle">1108</text><text x="2362" y="247" font-family="sans-serif" font-size="10px" text-anchor="middle">1193</text>
<rect style="fill:rgb(208,25,126);fill-opacity:0.5;" width="80" height="48" x="2448" y="162"/>
<text x="2488" y="177" font-family="sans-serif" font-size="10px" text-anchor="middle">J14</text><text x="2488" y="187" font-family="sans-serif" font-size="10px" text-anchor="middle">1193</text><text x="2488" y="197" font-family="sans-serif" font-size="10px" text-anchor="middle">1234</text>
<rect style="fill:rgb(169,3,81);fill-opacity:0.5;" width="160" height="48" x="634" y="112"/>
<text x="714" y="127" font-family="sans-serif" font-size="10px" text-anchor="middle">J15</text><text x="714" y="137" font-family="sans-serif" font-size="10px" text-anchor="middle">286</text><text x="714" y="147" font-family="sans-serif" font-size="10px" text-anchor="middle">367</text>
<rect style="fill:rgb(169,3,81);fill-opacity:0.5;" width="182" height="48" x="1320" y="162"/>
<text x="1411" y="177" font-family="sans-serif" font-size="10px" text-anchor="middle">J15</text><text x="1411" y="187" font-family="sans-serif" font-size="10px" text-anchor="middle">629</text><text x="1411" y="197" font-family="sans-serif" font-size="10px" text-anchor="middle">721</text>
<rect style="fill:rgb(169,3,81);fill-opacity:0.5;" width="62" height="48" x="1610" y="262"/>
<text x="1641" y="277" font-family="sans-serif" font-size="10px" text-anchor="middle">J15</text><text x="1641" y="287" font-family="sans-serif" font-size="10px" text-anchor="middle">774</text><text x="1641" y="297" font-family="sans-serif" font-size="10px" text-anchor="middle">806</text>
<rect style="fill:rgb(169,3,81);fill-opacity:0.5;" width="102" height="48" x="1902" y="62"/>
<text x="1953" y="77" font-family="sans-serif" font-size="10px" text-anchor="middle">J15</text><text x="1953" y="87" font-family="sans-serif" font-size="10px" text-anchor="middle">920</text><text x="1953" y="97" font-family="sans-serif" font-size="10px" text-anchor="middle">972</text>
<rect style="fill:rgb(169,3,81);fill-opacity:0.5;" width="76" height="48" x="2006" y="212"/>
<text x="2044" y="227" font-family="sans-serif" font-size="10px" text-anchor="middle">J15</text><text x="2044" y="237" font-family="sans-serif" font-size="10px" text-anchor="middle">972</text><text x="2044" y="247" font-family="sans-serif" font-size="10px" text-anchor="middle">1011</text>
<rect style="fill:rgb(28,179,208);fill-opacity:0.5;" width="12" height="48" x="142" y="112"/>
<text x="148" y="127" font-family="sans-serif" font-size="10px" text-anchor="middle">J16</text><text x="148" y="137" font-family="sans-serif" font-size="10px" text-anchor="middle">40</text><text x="148" y="147" font-family="sans-serif" font-size="10px" text-anchor="middle">47</text>
<rect style="fill:rgb(28,179,208);fill-opacity:0.5;" width="42" height="48" x="292" y="262"/>
<text x="313" y="277" font-family="sans-serif" font-size="10px" text-anchor="middle">J16</text><text x="313" y="287" font-family="sans-serif" font-size="10px" text-anchor="middle">115</text><text x="313" y="297" font-family="sans-serif" font-size="10px" text-anchor="middle">137</text>
<rect style="fill:rgb(28,179,208);fill-opacity:0.5;" width="22" height="48" x="362" y="162"/>
<text x="373" y="177" font-family="sans-serif" font-size="10px" text-anchor="middle">J16</text><text x="373" y="187" font-family="sans-serif" font-size="10px" text-anchor="middle">150</text><text x="373" y="197" font-family="sans-serif" font-size="10px" text-anchor="middle">162</text>
<rect style="fill:rgb(28,179,208);fill-opacity:0.5;" width="174" height="48" x="1544" y="62"/>
<text x="1631" y="77" font-family="sans-serif" font-size="10px" text-anchor="middle">J16</text><text x="1631" y="87" font-family="sans-serif" font-size="10px" text-anchor="middle">741</text><text x="1631" y="97" font-family="sans-serif" font-size="10px" text-anchor="middle">829</text>
<rect style="fill:rgb(28,179,208);fill-opacity:0.5;" width="118" height="48" x="1782" y="212"/>
<text x="1841" y="227" font-family="sans-serif" font-size="10px" text-anchor="middle">J16</text><text x="1841" y="237" font-family="sans-serif" font-size="10px" text-anchor="middle">860</text><text x="1841" y="247" font-family="sans-serif" font-size="10px" text-anchor="middle">920</text>
<rect style="fill:rgb(57,17,172);fill-opacity:0.5;" width="88" height="48" x="62" y="212"/>
<text x="106" y="227" font-family="sans-serif" font-size="10px" text-anchor="middle">J17</text><text x="106" y="237" font-family="sans-serif" font-size="10px" text-anchor="middle">0</text><text x="106" y="247" font-family="sans-serif" font-size="10px" text-anchor="middle">45</text>
<rect style="fill:rgb(57,17,172);fill-opacity:0.5;" width="184" height="48" x="1358" y="62"/>
<text x="1450" y="77" font-family="sans-serif" font-size="10px" text-anchor="middle">J17</text><text x="1450" y="87" font-family="sans-serif" font-size="10px" text-anchor="middle">648</text><text x="1450" y="97" font-family="sans-serif" font-size="10px" text-anchor="middle">741</text>
<rect style="fill:rgb(57,17,172);fill-opacity:0.5;" width="136" height="48" x="1544" y="162"/>
<text x="1612" y="177" font-family="sans-serif" font-size="10px" text-anchor="middle">J17</text><text x="1612" y="187" font-family="sans-serif" font-size="10px" text-anchor="middle">741</text><text x="1612" y="197" font-family="sans-serif" font-size="10px" text-anchor="middle">810</text>
<rect style="fill:rgb(57,17,172);fill-opacity:0.5;" width="96" height="48" x="1682" y="262"/>
<text x="1730" y="277" font-family="sans-serif" font-size="10px" text-anchor="middle">J17</text><text x="1730" y="287" font-family="sans-serif" font-size="10px" text-anchor="middle">810</text><text x="1730" y="297" font-family="sans-serif" font-size="10px" text-anchor="middle">859</text>
<rect style="fill:rgb(57,17,172);fill-opacity:0.5;" width="52" height="48" x="1982" y="112"/>
<text x="2008" y="127" font-family="sans-serif" font-size="10px" text-anchor="middle">J17</text><text x="2008" y="137" font-family="sans-serif" font-size="10px" text-anchor="middle">960</text><text x="2008" y="147" font-family="sans-serif" font-size="10px" text-anchor="middle">987</text>
<rect style="fill:rgb(81,91,2);fill-opacity:0.5;" width="40" height="48" x="130" y="62"/>
<text x="150" y="77" font-family="sans-serif" font-size="10px" text-anchor="middle">J18</text><text x="150" y="87" font-family="sans-serif" font-size="10px" text-anchor="middle">34</text><text x="150" y="97" font-family="sans-serif" font-size="10px" text-anchor="middle">55</text>
<rect style="fill:rgb(81,91,2);fill-opacity:0.5;" width="166" height="48" x="248" y="112"/>
<text x="331" y="127" font-family="sans-serif" font-size="10px" text-anchor="middle">J18</text><text x="331" y="137" font-family="sans-serif" font-size="10px" text-anchor="middle">93</text><text x="331" y="147" font-family="sans-serif" font-size="10px" text-anchor="middle">177</text>
<rect style="fill:rgb(81,91,2);fill-opacity:0.5;" width="120" height="48" x="532" y="162"/>
<text x="592" y="177" font-family="sans-serif" font-size="10px" text-anchor="middle">J18</text><text x="592" y="187" font-family="sans-serif" font-size="10px" text-anchor="middle">235</text><text x="592" y="197" font-family="sans-serif" font-size="10px" text-anchor="middle">296</text>
<rect style="fill:rgb(81,91,2);fill-opacity:0.5;" width="134" height="48" x="940" y="212"/>
<text x="1007" y="227" font-family="sans-serif" font-size="10px" text-anchor="middle">J18</text><text x="1007" y="237" font-family="sans-serif" font-size="10px" text-anchor="middle">439</text><text x="1007" y="247" font-family="sans-serif" font-size="10px" text-anchor="middle">507</text>
<rect style="fill:rgb(81,91,2);fill-opacity:0.5;" width="50" height="48" x="1136" y="262"/>
<text x="1161" y="277" font-family="sans-serif" font-size="10px" text-anchor="middle">J18</text><text x="1161" y="287" font-family="sans-serif" font-size="10px" text-anchor="middle">537</text><text x="1161" y="297" font-family="sans-serif" font-size="10px" text-anchor="middle">563</text>
<rect style="fill:rgb(32,132,15);fill-opacity:0.5;" width="162" height="48" x="976" y="112"/>
<text x="1057" y="127" font-family="sans-serif" font-size="10px" text-anchor="middle">J19</text><text x="1057" y="137" font-family="sans-serif" font-size="10px" text-anchor="middle">457</text><text x="1057" y="147" font-family="sans-serif" font-size="10px" text-anchor="middle">539</text>
<rect style="fill:rgb(32,132,15);fill-opacity:0.5;" width="64" height="48" x="1206" y="162"/>
<text x="1238" y="177" font-family="sans-serif" font-size="10px" text-anchor="middle">J19</text><text x="1238" y="187" font-family="sans-serif" font-size="10px" text-anchor="middle">572</text><text x="1238" y="197" font-family="sans-serif" font-size="10px" text-anchor="middle">605</text>
<rect style="fill:rgb(32,132,15);fill-opacity:0.5;" width="140" height="48" x="1344" y="262"/>
<text x="1414" y="277" font-family="sans-serif" font-size="10px" text-anchor="middle">J19</text><text x="1414" y="287" font-family="sans-serif" font-size="10px" text-anchor="middle">641</text><text x="1414" y="297" font-family="sans-serif" font-size="10px" text-anchor="middle">712</text>
<rect style="fill:rgb(32,132,15);fill-opacity:0.5;" width="196" height="48" x="2124" y="62"/>
<text x="2222" y="77" font-family="sans-serif" font-size="10px" text-anchor="middle">J19</text><text x="2222" y="87" font-family="sans-serif" font-size="10px" text-anchor="middle">1031</text><text x="2222" y="97" font-family="sans-serif" font-size="10px" text-anchor="middle">1130</text>
<rect style="fill:rgb(32,132,15);fill-opacity:0.5;" width="86" height="48" x="2448" y="212"/>
<text x="2491" y="227" font-family="sans-serif" font-size="10px" text-anchor="middle">J19</text><text x="2491" y="237" font-family="sans-serif" font-size="10px" text-anchor="middle">1193</text><text x="2491" y="247" font-family="sans-serif" font-size="10px" text-anchor="middle">1237</text>
<line x1="60" y1="40" x2="60" y2="312" stroke="dimgrey" />
<line x1="60" y1="40" x2="70" y2="50" stroke="dimgrey" />
<text x="35" y="90" font-family="sans-serif" font-size="10px" text-anchor="middle">M.1</text>
<text x="35" y="140" font-family="sans-serif" font-size="10px" text-anchor="middle">M.2</text>
<text x="35" y="190" font-family="sans-serif" font-size="10px" text-anchor="middle">M.3</text>
<text x="35" y="240" font-family="sans-serif" font-size="10px" text-anchor="middle">M.4</text>
<text x="35" y="290" font-family="sans-serif" font-size="10px" text-anchor="middle">M.5</text>
<line x1="60" y1="312" x2="2554" y2="312" stroke="dimgrey" />
<line x1="2544" y1="302" x2="2554" y2="312" stroke="dimgrey" />
<line x1="2534" y1="314" x2="2534" y2="322" stroke="dimgrey" />
<text x="70" y="35" font-family="sans-serif" font-size="20px" text-anchor="middle" fill="dimgrey">Machines</text>
<text x="2574" y="312" font-family="sans-serif" font-size="20px" text-anchor="middle" fill="dimgrey">Time</text>
<text x="1309" y="342" font-family="sans-serif" font-size="30px" text-anchor="middle" fill="dimgrey">Diagramme de Gantt du problème: la15.txt - makespan: 1237</text>
</svg>
