<?xml version="1.0" encoding="UTF-8" standalone="no"?>
 <svg xmlns="http://www.w3.org/2000/svg" version="1.1" width="1806" height="610">
<title> Diagramme de Gantt du Probleme: la17.txt</title>
<desc> Cette figure represente le planning des operations du probleme traite.</desc>
<rect style="fill:rgb(62,139,185);fill-opacity:0.5;" width="34" height="48" x="62" y="262"/>
<text x="79" y="277" font-family="sans-serif" font-size="10px" text-anchor="middle">J0</text><text x="79" y="287" font-family="sans-serif" font-size="10px" text-anchor="middle">0</text><text x="79" y="297" font-family="sans-serif" font-size="10px" text-anchor="middle">18</text>
<rect style="fill:rgb(62,139,185);fill-opacity:0.5;" width="40" height="48" x="178" y="412"/>
<text x="198" y="427" font-family="sans-serif" font-size="10px" text-anchor="middle">J0</text><text x="198" y="437" font-family="sans-serif" font-size="10px" text-anchor="middle">58</text><text x="198" y="447" font-family="sans-serif" font-size="10px" text-anchor="middle">79</text>
<rect style="fill:rgb(62,139,185);fill-opacity:0.5;" width="80" height="48" x="220" y="512"/>
<text x="260" y="527" font-family="sans-serif" font-size="10px" text-anchor="middle">J0</text><text x="260" y="537" font-family="sans-serif" font-size="10px" text-anchor="middle">79</text><text x="260" y="547" font-family="sans-serif" font-size="10px" text-anchor="middle">120</text>
<rect style="fill:rgb(62,139,185);fill-opacity:0.5;" width="88" height="48" x="372" y="162"/>
<text x="416" y="177" font-family="sans-serif" font-size="10px" text-anchor="middle">J0</text><text x="416" y="187" font-family="sans-serif" font-size="10px" text-anchor="middle">155</text><text x="416" y="197" font-family="sans-serif" font-size="10px" text-anchor="middle">200</text>
<rect style="fill:rgb(62,139,185);fill-opacity:0.5;" width="74" height="48" x="482" y="212"/>
<text x="519" y="227" font-family="sans-serif" font-size="10px" text-anchor="middle">J0</text><text x="519" y="237" font-family="sans-serif" font-size="10px" text-anchor="middle">210</text><text x="519" y="247" font-family="sans-serif" font-size="10px" text-anchor="middle">248</text>
<rect style="fill:rgb(62,139,185);fill-opacity:0.5;" width="98" height="48" x="558" y="462"/>
<text x="607" y="477" font-family="sans-serif" font-size="10px" text-anchor="middle">J0</text><text x="607" y="487" font-family="sans-serif" font-size="10px" text-anchor="middle">248</text><text x="607" y="497" font-family="sans-serif" font-size="10px" text-anchor="middle">298</text>
<rect style="fill:rgb(62,139,185);fill-opacity:0.5;" width="166" height="48" x="658" y="312"/>
<text x="741" y="327" font-family="sans-serif" font-size="10px" text-anchor="middle">J0</text><text x="741" y="337" font-family="sans-serif" font-size="10px" text-anchor="middle">298</text><text x="741" y="347" font-family="sans-serif" font-size="10px" text-anchor="middle">382</text>
<rect style="fill:rgb(62,139,185);fill-opacity:0.5;" width="56" height="48" x="870" y="362"/>
<text x="898" y="377" font-family="sans-serif" font-size="10px" text-anchor="middle">J0</text><text x="898" y="387" font-family="sans-serif" font-size="10px" text-anchor="middle">404</text><text x="898" y="397" font-family="sans-serif" font-size="10px" text-anchor="middle">433</text>
<rect style="fill:rgb(62,139,185);fill-opacity:0.5;" width="44" height="48" x="928" y="112"/>
<text x="950" y="127" font-family="sans-serif" font-size="10px" text-anchor="middle">J0</text><text x="950" y="137" font-family="sans-serif" font-size="10px" text-anchor="middle">433</text><text x="950" y="147" font-family="sans-serif" font-size="10px" text-anchor="middle">456</text>
<rect style="fill:rgb(62,139,185);fill-opacity:0.5;" width="162" height="48" x="974" y="62"/>
<text x="1055" y="77" font-family="sans-serif" font-size="10px" text-anchor="middle">J0</text><text x="1055" y="87" font-family="sans-serif" font-size="10px" text-anchor="middle">456</text><text x="1055" y="97" font-family="sans-serif" font-size="10px" text-anchor="middle">538</text>
<rect style="fill:rgb(238,172,238);fill-opacity:0.5;" width="112" height="48" x="62" y="462"/>
<text x="118" y="477" font-family="sans-serif" font-size="10px" text-anchor="middle">J1</text><text x="118" y="487" font-family="sans-serif" font-size="10px" text-anchor="middle">0</text><text x="118" y="497" font-family="sans-serif" font-size="10px" text-anchor="middle">57</text>
<rect style="fill:rgb(238,172,238);fill-opacity:0.5;" width="30" height="48" x="176" y="312"/>
<text x="191" y="327" font-family="sans-serif" font-size="10px" text-anchor="middle">J1</text><text x="191" y="337" font-family="sans-serif" font-size="10px" text-anchor="middle">57</text><text x="191" y="347" font-family="sans-serif" font-size="10px" text-anchor="middle">73</text>
<rect style="fill:rgb(238,172,238);fill-opacity:0.5;" width="102" height="48" x="252" y="112"/>
<text x="303" y="127" font-family="sans-serif" font-size="10px" text-anchor="middle">J1</text><text x="303" y="137" font-family="sans-serif" font-size="10px" text-anchor="middle">95</text><text x="303" y="147" font-family="sans-serif" font-size="10px" text-anchor="middle">147</text>
<rect style="fill:rgb(238,172,238);fill-opacity:0.5;" width="146" height="48" x="356" y="412"/>
<text x="429" y="427" font-family="sans-serif" font-size="10px" text-anchor="middle">J1</text><text x="429" y="437" font-family="sans-serif" font-size="10px" text-anchor="middle">147</text><text x="429" y="447" font-family="sans-serif" font-size="10px" text-anchor="middle">221</text>
<rect style="fill:rgb(238,172,238);fill-opacity:0.5;" width="74" height="48" x="586" y="162"/>
<text x="623" y="177" font-family="sans-serif" font-size="10px" text-anchor="middle">J1</text><text x="623" y="187" font-family="sans-serif" font-size="10px" text-anchor="middle">262</text><text x="623" y="197" font-family="sans-serif" font-size="10px" text-anchor="middle">300</text>
<rect style="fill:rgb(238,172,238);fill-opacity:0.5;" width="106" height="48" x="778" y="212"/>
<text x="831" y="227" font-family="sans-serif" font-size="10px" text-anchor="middle">J1</text><text x="831" y="237" font-family="sans-serif" font-size="10px" text-anchor="middle">358</text><text x="831" y="247" font-family="sans-serif" font-size="10px" text-anchor="middle">412</text>
<rect style="fill:rgb(238,172,238);fill-opacity:0.5;" width="122" height="48" x="928" y="362"/>
<text x="989" y="377" font-family="sans-serif" font-size="10px" text-anchor="middle">J1</text><text x="989" y="387" font-family="sans-serif" font-size="10px" text-anchor="middle">433</text><text x="989" y="397" font-family="sans-serif" font-size="10px" text-anchor="middle">495</text>
<rect style="fill:rgb(238,172,238);fill-opacity:0.5;" width="72" height="48" x="1052" y="512"/>
<text x="1088" y="527" font-family="sans-serif" font-size="10px" text-anchor="middle">J1</text><text x="1088" y="537" font-family="sans-serif" font-size="10px" text-anchor="middle">495</text><text x="1088" y="547" font-family="sans-serif" font-size="10px" text-anchor="middle">532</text>
<rect style="fill:rgb(238,172,238);fill-opacity:0.5;" width="106" height="48" x="1186" y="262"/>
<text x="1239" y="277" font-family="sans-serif" font-size="10px" text-anchor="middle">J1</text><text x="1239" y="287" font-family="sans-serif" font-size="10px" text-anchor="middle">562</text><text x="1239" y="297" font-family="sans-serif" font-size="10px" text-anchor="middle">616</text>
<rect style="fill:rgb(238,172,238);fill-opacity:0.5;" width="102" height="48" x="1352" y="62"/>
<text x="1403" y="77" font-family="sans-serif" font-size="10px" text-anchor="middle">J1</text><text x="1403" y="87" font-family="sans-serif" font-size="10px" text-anchor="middle">645</text><text x="1403" y="97" font-family="sans-serif" font-size="10px" text-anchor="middle">697</text>
<rect style="fill:rgb(47,232,102);fill-opacity:0.5;" width="58" height="48" x="62" y="162"/>
<text x="91" y="177" font-family="sans-serif" font-size="10px" text-anchor="middle">J2</text><text x="91" y="187" font-family="sans-serif" font-size="10px" text-anchor="middle">0</text><text x="91" y="197" font-family="sans-serif" font-size="10px" text-anchor="middle">30</text>
<rect style="fill:rgb(47,232,102);fill-opacity:0.5;" width="156" height="48" x="122" y="262"/>
<text x="200" y="277" font-family="sans-serif" font-size="10px" text-anchor="middle">J2</text><text x="200" y="287" font-family="sans-serif" font-size="10px" text-anchor="middle">30</text><text x="200" y="297" font-family="sans-serif" font-size="10px" text-anchor="middle">109</text>
<rect style="fill:rgb(47,232,102);fill-opacity:0.5;" width="134" height="48" x="280" y="212"/>
<text x="347" y="227" font-family="sans-serif" font-size="10px" text-anchor="middle">J2</text><text x="347" y="237" font-family="sans-serif" font-size="10px" text-anchor="middle">109</text><text x="347" y="247" font-family="sans-serif" font-size="10px" text-anchor="middle">177</text>
<rect style="fill:rgb(47,232,102);fill-opacity:0.5;" width="120" height="48" x="548" y="112"/>
<text x="608" y="127" font-family="sans-serif" font-size="10px" text-anchor="middle">J2</text><text x="608" y="137" font-family="sans-serif" font-size="10px" text-anchor="middle">243</text><text x="608" y="147" font-family="sans-serif" font-size="10px" text-anchor="middle">304</text>
<rect style="fill:rgb(47,232,102);fill-opacity:0.5;" width="20" height="48" x="670" y="462"/>
<text x="680" y="477" font-family="sans-serif" font-size="10px" text-anchor="middle">J2</text><text x="680" y="487" font-family="sans-serif" font-size="10px" text-anchor="middle">304</text><text x="680" y="497" font-family="sans-serif" font-size="10px" text-anchor="middle">315</text>
<rect style="fill:rgb(47,232,102);fill-opacity:0.5;" width="176" height="48" x="692" y="362"/>
<text x="780" y="377" font-family="sans-serif" font-size="10px" text-anchor="middle">J2</text><text x="780" y="387" font-family="sans-serif" font-size="10px" text-anchor="middle">315</text><text x="780" y="397" font-family="sans-serif" font-size="10px" text-anchor="middle">404</text>
<rect style="fill:rgb(47,232,102);fill-opacity:0.5;" width="176" height="48" x="870" y="412"/>
<text x="958" y="427" font-family="sans-serif" font-size="10px" text-anchor="middle">J2</text><text x="958" y="437" font-family="sans-serif" font-size="10px" text-anchor="middle">404</text><text x="958" y="447" font-family="sans-serif" font-size="10px" text-anchor="middle">493</text>
<rect style="fill:rgb(47,232,102);fill-opacity:0.5;" width="160" height="48" x="1138" y="62"/>
<text x="1218" y="77" font-family="sans-serif" font-size="10px" text-anchor="middle">J2</text><text x="1218" y="87" font-family="sans-serif" font-size="10px" text-anchor="middle">538</text><text x="1218" y="97" font-family="sans-serif" font-size="10px" text-anchor="middle">619</text>
<rect style="fill:rgb(47,232,102);fill-opacity:0.5;" width="160" height="48" x="1302" y="512"/>
<text x="1382" y="527" font-family="sans-serif" font-size="10px" text-anchor="middle">J2</text><text x="1382" y="537" font-family="sans-serif" font-size="10px" text-anchor="middle">620</text><text x="1382" y="547" font-family="sans-serif" font-size="10px" text-anchor="middle">701</text>
<rect style="fill:rgb(47,232,102);fill-opacity:0.5;" width="112" height="48" x="1552" y="312"/>
<text x="1608" y="327" font-family="sans-serif" font-size="10px" text-anchor="middle">J2</text><text x="1608" y="337" font-family="sans-serif" font-size="10px" text-anchor="middle">745</text><text x="1608" y="347" font-family="sans-serif" font-size="10px" text-anchor="middle">802</text>
<rect style="fill:rgb(25,19,248);fill-opacity:0.5;" width="180" height="48" x="156" y="62"/>
<text x="246" y="77" font-family="sans-serif" font-size="10px" text-anchor="middle">J3</text><text x="246" y="87" font-family="sans-serif" font-size="10px" text-anchor="middle">47</text><text x="246" y="97" font-family="sans-serif" font-size="10px" text-anchor="middle">138</text>
<rect style="fill:rgb(25,19,248);fill-opacity:0.5;" width="14" height="48" x="338" y="462"/>
<text x="345" y="477" font-family="sans-serif" font-size="10px" text-anchor="middle">J3</text><text x="345" y="487" font-family="sans-serif" font-size="10px" text-anchor="middle">138</text><text x="345" y="497" font-family="sans-serif" font-size="10px" text-anchor="middle">146</text>
<rect style="fill:rgb(25,19,248);fill-opacity:0.5;" width="64" height="48" x="416" y="212"/>
<text x="448" y="227" font-family="sans-serif" font-size="10px" text-anchor="middle">J3</text><text x="448" y="237" font-family="sans-serif" font-size="10px" text-anchor="middle">177</text><text x="448" y="247" font-family="sans-serif" font-size="10px" text-anchor="middle">210</text>
<rect style="fill:rgb(25,19,248);fill-opacity:0.5;" width="108" height="48" x="504" y="412"/>
<text x="558" y="427" font-family="sans-serif" font-size="10px" text-anchor="middle">J3</text><text x="558" y="437" font-family="sans-serif" font-size="10px" text-anchor="middle">221</text><text x="558" y="447" font-family="sans-serif" font-size="10px" text-anchor="middle">276</text>
<rect style="fill:rgb(25,19,248);fill-opacity:0.5;" width="38" height="48" x="614" y="312"/>
<text x="633" y="327" font-family="sans-serif" font-size="10px" text-anchor="middle">J3</text><text x="633" y="337" font-family="sans-serif" font-size="10px" text-anchor="middle">276</text><text x="633" y="347" font-family="sans-serif" font-size="10px" text-anchor="middle">296</text>
<rect style="fill:rgb(25,19,248);fill-opacity:0.5;" width="38" height="48" x="662" y="162"/>
<text x="681" y="177" font-family="sans-serif" font-size="10px" text-anchor="middle">J3</text><text x="681" y="187" font-family="sans-serif" font-size="10px" text-anchor="middle">300</text><text x="681" y="197" font-family="sans-serif" font-size="10px" text-anchor="middle">320</text>
<rect style="fill:rgb(25,19,248);fill-opacity:0.5;" width="62" height="48" x="702" y="262"/>
<text x="733" y="277" font-family="sans-serif" font-size="10px" text-anchor="middle">J3</text><text x="733" y="287" font-family="sans-serif" font-size="10px" text-anchor="middle">320</text><text x="733" y="297" font-family="sans-serif" font-size="10px" text-anchor="middle">352</text>
<rect style="fill:rgb(25,19,248);fill-opacity:0.5;" width="166" height="48" x="1290" y="362"/>
<text x="1373" y="377" font-family="sans-serif" font-size="10px" text-anchor="middle">J3</text><text x="1373" y="387" font-family="sans-serif" font-size="10px" text-anchor="middle">614</text><text x="1373" y="397" font-family="sans-serif" font-size="10px" text-anchor="middle">698</text>
<rect style="fill:rgb(25,19,248);fill-opacity:0.5;" width="130" height="48" x="1458" y="112"/>
<text x="1523" y="127" font-family="sans-serif" font-size="10px" text-anchor="middle">J3</text><text x="1523" y="137" font-family="sans-serif" font-size="10px" text-anchor="middle">698</text><text x="1523" y="147" font-family="sans-serif" font-size="10px" text-anchor="middle">764</text>
<rect style="fill:rgb(25,19,248);fill-opacity:0.5;" width="46" height="48" x="1590" y="512"/>
<text x="1613" y="527" font-family="sans-serif" font-size="10px" text-anchor="middle">J3</text><text x="1613" y="537" font-family="sans-serif" font-size="10px" text-anchor="middle">764</text><text x="1613" y="547" font-family="sans-serif" font-size="10px" text-anchor="middle">788</text>
<rect style="fill:rgb(142,6,56);fill-opacity:0.5;" width="78" height="48" x="62" y="512"/>
<text x="101" y="527" font-family="sans-serif" font-size="10px" text-anchor="middle">J4</text><text x="101" y="537" font-family="sans-serif" font-size="10px" text-anchor="middle">0</text><text x="101" y="547" font-family="sans-serif" font-size="10px" text-anchor="middle">40</text>
<rect style="fill:rgb(142,6,56);fill-opacity:0.5;" width="12" height="48" x="142" y="62"/>
<text x="148" y="77" font-family="sans-serif" font-size="10px" text-anchor="middle">J4</text><text x="148" y="87" font-family="sans-serif" font-size="10px" text-anchor="middle">40</text><text x="148" y="97" font-family="sans-serif" font-size="10px" text-anchor="middle">47</text>
<rect style="fill:rgb(142,6,56);fill-opacity:0.5;" width="36" height="48" x="280" y="262"/>
<text x="298" y="277" font-family="sans-serif" font-size="10px" text-anchor="middle">J4</text><text x="298" y="287" font-family="sans-serif" font-size="10px" text-anchor="middle">109</text><text x="298" y="297" font-family="sans-serif" font-size="10px" text-anchor="middle">128</text>
<rect style="fill:rgb(142,6,56);fill-opacity:0.5;" width="12" height="48" x="318" y="462"/>
<text x="324" y="477" font-family="sans-serif" font-size="10px" text-anchor="middle">J4</text><text x="324" y="487" font-family="sans-serif" font-size="10px" text-anchor="middle">128</text><text x="324" y="497" font-family="sans-serif" font-size="10px" text-anchor="middle">135</text>
<rect style="fill:rgb(142,6,56);fill-opacity:0.5;" width="164" height="48" x="332" y="362"/>
<text x="414" y="377" font-family="sans-serif" font-size="10px" text-anchor="middle">J4</text><text x="414" y="387" font-family="sans-serif" font-size="10px" text-anchor="middle">135</text><text x="414" y="397" font-family="sans-serif" font-size="10px" text-anchor="middle">218</text>
<rect style="fill:rgb(142,6,56);fill-opacity:0.5;" width="126" height="48" x="702" y="162"/>
<text x="765" y="177" font-family="sans-serif" font-size="10px" text-anchor="middle">J4</text><text x="765" y="187" font-family="sans-serif" font-size="10px" text-anchor="middle">320</text><text x="765" y="197" font-family="sans-serif" font-size="10px" text-anchor="middle">384</text>
<rect style="fill:rgb(142,6,56);fill-opacity:0.5;" width="110" height="48" x="954" y="312"/>
<text x="1009" y="327" font-family="sans-serif" font-size="10px" text-anchor="middle">J4</text><text x="1009" y="337" font-family="sans-serif" font-size="10px" text-anchor="middle">446</text><text x="1009" y="347" font-family="sans-serif" font-size="10px" text-anchor="middle">502</text>
<rect style="fill:rgb(142,6,56);fill-opacity:0.5;" width="106" height="48" x="1226" y="212"/>
<text x="1279" y="227" font-family="sans-serif" font-size="10px" text-anchor="middle">J4</text><text x="1279" y="237" font-family="sans-serif" font-size="10px" text-anchor="middle">582</text><text x="1279" y="247" font-family="sans-serif" font-size="10px" text-anchor="middle">636</text>
<rect style="fill:rgb(142,6,56);fill-opacity:0.5;" width="14" height="48" x="1334" y="412"/>
<text x="1341" y="427" font-family="sans-serif" font-size="10px" text-anchor="middle">J4</text><text x="1341" y="437" font-family="sans-serif" font-size="10px" text-anchor="middle">636</text><text x="1341" y="447" font-family="sans-serif" font-size="10px" text-anchor="middle">644</text>
<rect style="fill:rgb(142,6,56);fill-opacity:0.5;" width="76" height="48" x="1350" y="112"/>
<text x="1388" y="127" font-family="sans-serif" font-size="10px" text-anchor="middle">J4</text><text x="1388" y="137" font-family="sans-serif" font-size="10px" text-anchor="middle">644</text><text x="1388" y="147" font-family="sans-serif" font-size="10px" text-anchor="middle">683</text>
<rect style="fill:rgb(65,243,73);fill-opacity:0.5;" width="180" height="48" x="62" y="212"/>
<text x="152" y="227" font-family="sans-serif" font-size="10px" text-anchor="middle">J5</text><text x="152" y="237" font-family="sans-serif" font-size="10px" text-anchor="middle">0</text><text x="152" y="247" font-family="sans-serif" font-size="10px" text-anchor="middle">91</text>
<rect style="fill:rgb(65,243,73);fill-opacity:0.5;" width="126" height="48" x="244" y="162"/>
<text x="307" y="177" font-family="sans-serif" font-size="10px" text-anchor="middle">J5</text><text x="307" y="187" font-family="sans-serif" font-size="10px" text-anchor="middle">91</text><text x="307" y="197" font-family="sans-serif" font-size="10px" text-anchor="middle">155</text>
<rect style="fill:rgb(65,243,73);fill-opacity:0.5;" width="78" height="48" x="372" y="312"/>
<text x="411" y="327" font-family="sans-serif" font-size="10px" text-anchor="middle">J5</text><text x="411" y="337" font-family="sans-serif" font-size="10px" text-anchor="middle">155</text><text x="411" y="347" font-family="sans-serif" font-size="10px" text-anchor="middle">195</text>
<rect style="fill:rgb(65,243,73);fill-opacity:0.5;" width="124" height="48" x="452" y="62"/>
<text x="514" y="77" font-family="sans-serif" font-size="10px" text-anchor="middle">J5</text><text x="514" y="87" font-family="sans-serif" font-size="10px" text-anchor="middle">195</text><text x="514" y="97" font-family="sans-serif" font-size="10px" text-anchor="middle">258</text>
<rect style="fill:rgb(65,243,73);fill-opacity:0.5;" width="194" height="48" x="614" y="412"/>
<text x="711" y="427" font-family="sans-serif" font-size="10px" text-anchor="middle">J5</text><text x="711" y="437" font-family="sans-serif" font-size="10px" text-anchor="middle">276</text><text x="711" y="447" font-family="sans-serif" font-size="10px" text-anchor="middle">374</text>
<rect style="fill:rgb(65,243,73);fill-opacity:0.5;" width="146" height="48" x="822" y="262"/>
<text x="895" y="277" font-family="sans-serif" font-size="10px" text-anchor="middle">J5</text><text x="895" y="287" font-family="sans-serif" font-size="10px" text-anchor="middle">380</text><text x="895" y="297" font-family="sans-serif" font-size="10px" text-anchor="middle">454</text>
<rect style="fill:rgb(65,243,73);fill-opacity:0.5;" width="120" height="48" x="970" y="462"/>
<text x="1030" y="477" font-family="sans-serif" font-size="10px" text-anchor="middle">J5</text><text x="1030" y="487" font-family="sans-serif" font-size="10px" text-anchor="middle">454</text><text x="1030" y="497" font-family="sans-serif" font-size="10px" text-anchor="middle">515</text>
<rect style="fill:rgb(65,243,73);fill-opacity:0.5;" width="10" height="48" x="1092" y="112"/>
<text x="1097" y="127" font-family="sans-serif" font-size="10px" text-anchor="middle">J5</text><text x="1097" y="137" font-family="sans-serif" font-size="10px" text-anchor="middle">515</text><text x="1097" y="147" font-family="sans-serif" font-size="10px" text-anchor="middle">521</text>
<rect style="fill:rgb(65,243,73);fill-opacity:0.5;" width="82" height="48" x="1118" y="362"/>
<text x="1159" y="377" font-family="sans-serif" font-size="10px" text-anchor="middle">J5</text><text x="1159" y="387" font-family="sans-serif" font-size="10px" text-anchor="middle">528</text><text x="1159" y="397" font-family="sans-serif" font-size="10px" text-anchor="middle">570</text>
<rect style="fill:rgb(65,243,73);fill-opacity:0.5;" width="28" height="48" x="1272" y="512"/>
<text x="1286" y="527" font-family="sans-serif" font-size="10px" text-anchor="middle">J5</text><text x="1286" y="537" font-family="sans-serif" font-size="10px" text-anchor="middle">605</text><text x="1286" y="547" font-family="sans-serif" font-size="10px" text-anchor="middle">620</text>
<rect style="fill:rgb(117,156,15);fill-opacity:0.5;" width="158" height="48" x="92" y="112"/>
<text x="171" y="127" font-family="sans-serif" font-size="10px" text-anchor="middle">J6</text><text x="171" y="137" font-family="sans-serif" font-size="10px" text-anchor="middle">15</text><text x="171" y="147" font-family="sans-serif" font-size="10px" text-anchor="middle">95</text>
<rect style="fill:rgb(117,156,15);fill-opacity:0.5;" width="76" height="48" x="252" y="412"/>
<text x="290" y="427" font-family="sans-serif" font-size="10px" text-anchor="middle">J6</text><text x="290" y="437" font-family="sans-serif" font-size="10px" text-anchor="middle">95</text><text x="290" y="447" font-family="sans-serif" font-size="10px" text-anchor="middle">134</text>
<rect style="fill:rgb(117,156,15);fill-opacity:0.5;" width="46" height="48" x="414" y="462"/>
<text x="437" y="477" font-family="sans-serif" font-size="10px" text-anchor="middle">J6</text><text x="437" y="487" font-family="sans-serif" font-size="10px" text-anchor="middle">176</text><text x="437" y="497" font-family="sans-serif" font-size="10px" text-anchor="middle">200</text>
<rect style="fill:rgb(117,156,15);fill-opacity:0.5;" width="148" height="48" x="886" y="212"/>
<text x="960" y="227" font-family="sans-serif" font-size="10px" text-anchor="middle">J6</text><text x="960" y="237" font-family="sans-serif" font-size="10px" text-anchor="middle">412</text><text x="960" y="247" font-family="sans-serif" font-size="10px" text-anchor="middle">487</text>
<rect style="fill:rgb(117,156,15);fill-opacity:0.5;" width="148" height="48" x="1036" y="262"/>
<text x="1110" y="277" font-family="sans-serif" font-size="10px" text-anchor="middle">J6</text><text x="1110" y="287" font-family="sans-serif" font-size="10px" text-anchor="middle">487</text><text x="1110" y="297" font-family="sans-serif" font-size="10px" text-anchor="middle">562</text>
<rect style="fill:rgb(117,156,15);fill-opacity:0.5;" width="10" height="48" x="1186" y="312"/>
<text x="1191" y="327" font-family="sans-serif" font-size="10px" text-anchor="middle">J6</text><text x="1191" y="337" font-family="sans-serif" font-size="10px" text-anchor="middle">562</text><text x="1191" y="347" font-family="sans-serif" font-size="10px" text-anchor="middle">568</text>
<rect style="fill:rgb(117,156,15);fill-opacity:0.5;" width="86" height="48" x="1202" y="362"/>
<text x="1245" y="377" font-family="sans-serif" font-size="10px" text-anchor="middle">J6</text><text x="1245" y="387" font-family="sans-serif" font-size="10px" text-anchor="middle">570</text><text x="1245" y="397" font-family="sans-serif" font-size="10px" text-anchor="middle">614</text>
<rect style="fill:rgb(117,156,15);fill-opacity:0.5;" width="50" height="48" x="1300" y="62"/>
<text x="1325" y="77" font-family="sans-serif" font-size="10px" text-anchor="middle">J6</text><text x="1325" y="87" font-family="sans-serif" font-size="10px" text-anchor="middle">619</text><text x="1325" y="97" font-family="sans-serif" font-size="10px" text-anchor="middle">645</text>
<rect style="fill:rgb(117,156,15);fill-opacity:0.5;" width="172" height="48" x="1466" y="162"/>
<text x="1552" y="177" font-family="sans-serif" font-size="10px" text-anchor="middle">J6</text><text x="1552" y="187" font-family="sans-serif" font-size="10px" text-anchor="middle">702</text><text x="1552" y="197" font-family="sans-serif" font-size="10px" text-anchor="middle">789</text>
<rect style="fill:rgb(117,156,15);fill-opacity:0.5;" width="42" height="48" x="1640" y="512"/>
<text x="1661" y="527" font-family="sans-serif" font-size="10px" text-anchor="middle">J6</text><text x="1661" y="537" font-family="sans-serif" font-size="10px" text-anchor="middle">789</text><text x="1661" y="547" font-family="sans-serif" font-size="10px" text-anchor="middle">811</text>
<rect style="fill:rgb(241,98,202);fill-opacity:0.5;" width="28" height="48" x="62" y="112"/>
<text x="76" y="127" font-family="sans-serif" font-size="10px" text-anchor="middle">J7</text><text x="76" y="137" font-family="sans-serif" font-size="10px" text-anchor="middle">0</text><text x="76" y="147" font-family="sans-serif" font-size="10px" text-anchor="middle">15</text>
<rect style="fill:rgb(241,98,202);fill-opacity:0.5;" width="84" height="48" x="92" y="412"/>
<text x="134" y="427" font-family="sans-serif" font-size="10px" text-anchor="middle">J7</text><text x="134" y="437" font-family="sans-serif" font-size="10px" text-anchor="middle">15</text><text x="134" y="447" font-family="sans-serif" font-size="10px" text-anchor="middle">58</text>
<rect style="fill:rgb(241,98,202);fill-opacity:0.5;" width="38" height="48" x="178" y="162"/>
<text x="197" y="177" font-family="sans-serif" font-size="10px" text-anchor="middle">J7</text><text x="197" y="187" font-family="sans-serif" font-size="10px" text-anchor="middle">58</text><text x="197" y="197" font-family="sans-serif" font-size="10px" text-anchor="middle">78</text>
<rect style="fill:rgb(241,98,202);fill-opacity:0.5;" width="22" height="48" x="338" y="62"/>
<text x="349" y="77" font-family="sans-serif" font-size="10px" text-anchor="middle">J7</text><text x="349" y="87" font-family="sans-serif" font-size="10px" text-anchor="middle">138</text><text x="349" y="97" font-family="sans-serif" font-size="10px" text-anchor="middle">150</text>
<rect style="fill:rgb(241,98,202);fill-opacity:0.5;" width="50" height="48" x="362" y="462"/>
<text x="387" y="477" font-family="sans-serif" font-size="10px" text-anchor="middle">J7</text><text x="387" y="487" font-family="sans-serif" font-size="10px" text-anchor="middle">150</text><text x="387" y="497" font-family="sans-serif" font-size="10px" text-anchor="middle">176</text>
<rect style="fill:rgb(241,98,202);fill-opacity:0.5;" width="120" height="48" x="498" y="362"/>
<text x="558" y="377" font-family="sans-serif" font-size="10px" text-anchor="middle">J7</text><text x="558" y="387" font-family="sans-serif" font-size="10px" text-anchor="middle">218</text><text x="558" y="397" font-family="sans-serif" font-size="10px" text-anchor="middle">279</text>
<rect style="fill:rgb(241,98,202);fill-opacity:0.5;" width="156" height="48" x="1334" y="212"/>
<text x="1412" y="227" font-family="sans-serif" font-size="10px" text-anchor="middle">J7</text><text x="1412" y="237" font-family="sans-serif" font-size="10px" text-anchor="middle">636</text><text x="1412" y="247" font-family="sans-serif" font-size="10px" text-anchor="middle">715</text>
<rect style="fill:rgb(241,98,202);fill-opacity:0.5;" width="42" height="48" x="1492" y="512"/>
<text x="1513" y="527" font-family="sans-serif" font-size="10px" text-anchor="middle">J7</text><text x="1513" y="537" font-family="sans-serif" font-size="10px" text-anchor="middle">715</text><text x="1513" y="547" font-family="sans-serif" font-size="10px" text-anchor="middle">737</text>
<rect style="fill:rgb(241,98,202);fill-opacity:0.5;" width="14" height="48" x="1536" y="312"/>
<text x="1543" y="327" font-family="sans-serif" font-size="10px" text-anchor="middle">J7</text><text x="1543" y="337" font-family="sans-serif" font-size="10px" text-anchor="middle">737</text><text x="1543" y="347" font-family="sans-serif" font-size="10px" text-anchor="middle">745</text>
<rect style="fill:rgb(241,98,202);fill-opacity:0.5;" width="158" height="48" x="1558" y="262"/>
<text x="1637" y="277" font-family="sans-serif" font-size="10px" text-anchor="middle">J7</text><text x="1637" y="287" font-family="sans-serif" font-size="10px" text-anchor="middle">748</text><text x="1637" y="297" font-family="sans-serif" font-size="10px" text-anchor="middle">828</text>
<rect style="fill:rgb(44,47,26);fill-opacity:0.5;" width="122" height="48" x="462" y="162"/>
<text x="523" y="177" font-family="sans-serif" font-size="10px" text-anchor="middle">J8</text><text x="523" y="187" font-family="sans-serif" font-size="10px" text-anchor="middle">200</text><text x="523" y="197" font-family="sans-serif" font-size="10px" text-anchor="middle">262</text>
<rect style="fill:rgb(44,47,26);fill-opacity:0.5;" width="190" height="48" x="586" y="212"/>
<text x="681" y="227" font-family="sans-serif" font-size="10px" text-anchor="middle">J8</text><text x="681" y="237" font-family="sans-serif" font-size="10px" text-anchor="middle">262</text><text x="681" y="247" font-family="sans-serif" font-size="10px" text-anchor="middle">358</text>
<rect style="fill:rgb(44,47,26);fill-opacity:0.5;" width="42" height="48" x="778" y="262"/>
<text x="799" y="277" font-family="sans-serif" font-size="10px" text-anchor="middle">J8</text><text x="799" y="287" font-family="sans-serif" font-size="10px" text-anchor="middle">358</text><text x="799" y="297" font-family="sans-serif" font-size="10px" text-anchor="middle">380</text>
<rect style="fill:rgb(44,47,26);fill-opacity:0.5;" width="8" height="48" x="822" y="512"/>
<text x="826" y="527" font-family="sans-serif" font-size="10px" text-anchor="middle">J8</text><text x="826" y="537" font-family="sans-serif" font-size="10px" text-anchor="middle">380</text><text x="826" y="547" font-family="sans-serif" font-size="10px" text-anchor="middle">385</text>
<rect style="fill:rgb(44,47,26);fill-opacity:0.5;" width="124" height="48" x="832" y="62"/>
<text x="894" y="77" font-family="sans-serif" font-size="10px" text-anchor="middle">J8</text><text x="894" y="87" font-family="sans-serif" font-size="10px" text-anchor="middle">385</text><text x="894" y="97" font-family="sans-serif" font-size="10px" text-anchor="middle">448</text>
<rect style="fill:rgb(44,47,26);fill-opacity:0.5;" width="64" height="48" x="1052" y="362"/>
<text x="1084" y="377" font-family="sans-serif" font-size="10px" text-anchor="middle">J8</text><text x="1084" y="387" font-family="sans-serif" font-size="10px" text-anchor="middle">495</text><text x="1084" y="397" font-family="sans-serif" font-size="10px" text-anchor="middle">528</text>
<rect style="fill:rgb(44,47,26);fill-opacity:0.5;" width="18" height="48" x="1118" y="412"/>
<text x="1127" y="427" font-family="sans-serif" font-size="10px" text-anchor="middle">J8</text><text x="1127" y="437" font-family="sans-serif" font-size="10px" text-anchor="middle">528</text><text x="1127" y="447" font-family="sans-serif" font-size="10px" text-anchor="middle">538</text>
<rect style="fill:rgb(44,47,26);fill-opacity:0.5;" width="34" height="48" x="1138" y="462"/>
<text x="1155" y="477" font-family="sans-serif" font-size="10px" text-anchor="middle">J8</text><text x="1155" y="487" font-family="sans-serif" font-size="10px" text-anchor="middle">538</text><text x="1155" y="497" font-family="sans-serif" font-size="10px" text-anchor="middle">556</text>
<rect style="fill:rgb(44,47,26);fill-opacity:0.5;" width="70" height="48" x="1174" y="112"/>
<text x="1209" y="127" font-family="sans-serif" font-size="10px" text-anchor="middle">J8</text><text x="1209" y="137" font-family="sans-serif" font-size="10px" text-anchor="middle">556</text><text x="1209" y="147" font-family="sans-serif" font-size="10px" text-anchor="middle">592</text>
<rect style="fill:rgb(44,47,26);fill-opacity:0.5;" width="78" height="48" x="1246" y="312"/>
<text x="1285" y="327" font-family="sans-serif" font-size="10px" text-anchor="middle">J8</text><text x="1285" y="337" font-family="sans-serif" font-size="10px" text-anchor="middle">592</text><text x="1285" y="347" font-family="sans-serif" font-size="10px" text-anchor="middle">632</text>
<rect style="fill:rgb(42,223,105);fill-opacity:0.5;" width="190" height="48" x="356" y="112"/>
<text x="451" y="127" font-family="sans-serif" font-size="10px" text-anchor="middle">J9</text><text x="451" y="137" font-family="sans-serif" font-size="10px" text-anchor="middle">147</text><text x="451" y="147" font-family="sans-serif" font-size="10px" text-anchor="middle">243</text>
<rect style="fill:rgb(42,223,105);fill-opacity:0.5;" width="176" height="48" x="578" y="62"/>
<text x="666" y="77" font-family="sans-serif" font-size="10px" text-anchor="middle">J9</text><text x="666" y="87" font-family="sans-serif" font-size="10px" text-anchor="middle">258</text><text x="666" y="97" font-family="sans-serif" font-size="10px" text-anchor="middle">347</text>
<rect style="fill:rgb(42,223,105);fill-opacity:0.5;" width="126" height="48" x="826" y="312"/>
<text x="889" y="327" font-family="sans-serif" font-size="10px" text-anchor="middle">J9</text><text x="889" y="337" font-family="sans-serif" font-size="10px" text-anchor="middle">382</text><text x="889" y="347" font-family="sans-serif" font-size="10px" text-anchor="middle">446</text>
<rect style="fill:rgb(42,223,105);fill-opacity:0.5;" width="188" height="48" x="1036" y="212"/>
<text x="1130" y="227" font-family="sans-serif" font-size="10px" text-anchor="middle">J9</text><text x="1130" y="237" font-family="sans-serif" font-size="10px" text-anchor="middle">487</text><text x="1130" y="247" font-family="sans-serif" font-size="10px" text-anchor="middle">582</text>
<rect style="fill:rgb(42,223,105);fill-opacity:0.5;" width="44" height="48" x="1226" y="512"/>
<text x="1248" y="527" font-family="sans-serif" font-size="10px" text-anchor="middle">J9</text><text x="1248" y="537" font-family="sans-serif" font-size="10px" text-anchor="middle">582</text><text x="1248" y="547" font-family="sans-serif" font-size="10px" text-anchor="middle">605</text>
<rect style="fill:rgb(42,223,105);fill-opacity:0.5;" width="34" height="48" x="1272" y="412"/>
<text x="1289" y="427" font-family="sans-serif" font-size="10px" text-anchor="middle">J9</text><text x="1289" y="437" font-family="sans-serif" font-size="10px" text-anchor="middle">605</text><text x="1289" y="447" font-family="sans-serif" font-size="10px" text-anchor="middle">623</text>
<rect style="fill:rgb(42,223,105);fill-opacity:0.5;" width="28" height="48" x="1308" y="462"/>
<text x="1322" y="477" font-family="sans-serif" font-size="10px" text-anchor="middle">J9</text><text x="1322" y="487" font-family="sans-serif" font-size="10px" text-anchor="middle">623</text><text x="1322" y="497" font-family="sans-serif" font-size="10px" text-anchor="middle">638</text>
<rect style="fill:rgb(42,223,105);fill-opacity:0.5;" width="126" height="48" x="1338" y="162"/>
<text x="1401" y="177" font-family="sans-serif" font-size="10px" text-anchor="middle">J9</text><text x="1401" y="187" font-family="sans-serif" font-size="10px" text-anchor="middle">638</text><text x="1401" y="197" font-family="sans-serif" font-size="10px" text-anchor="middle">702</text>
<rect style="fill:rgb(42,223,105);fill-opacity:0.5;" width="74" height="48" x="1466" y="362"/>
<text x="1503" y="377" font-family="sans-serif" font-size="10px" text-anchor="middle">J9</text><text x="1503" y="387" font-family="sans-serif" font-size="10px" text-anchor="middle">702</text><text x="1503" y="397" font-family="sans-serif" font-size="10px" text-anchor="middle">740</text>
<rect style="fill:rgb(42,223,105);fill-opacity:0.5;" width="14" height="48" x="1542" y="262"/>
<text x="1549" y="277" font-family="sans-serif" font-size="10px" text-anchor="middle">J9</text><text x="1549" y="287" font-family="sans-serif" font-size="10px" text-anchor="middle">740</text><text x="1549" y="297" font-family="sans-serif" font-size="10px" text-anchor="middle">748</text>
<line x1="60" y1="40" x2="60" y2="562" stroke="dimgrey" />
<line x1="60" y1="40" x2="70" y2="50" stroke="dimgrey" />
<text x="35" y="90" font-family="sans-serif" font-size="10px" text-anchor="middle">M.1</text>
<text x="35" y="140" font-family="sans-serif" font-size="10px" text-anchor="middle">M.2</text>
<text x="35" y="190" font-family="sans-serif" font-size="10px" text-anchor="middle">M.3</text>
<text x="35" y="240" font-family="sans-serif" font-size="10px" text-anchor="middle">M.4</text>
<text x="35" y="290" font-family="sans-serif" font-size="10px" text-anchor="middle">M.5</text>
<text x="35" y="340" font-family="sans-serif" font-size="10px" text-anchor="middle">M.6</text>
<text x="35" y="390" font-family="sans-serif" font-size="10px" text-anchor="middle">M.7</text>
<text x="35" y="440" font-family="sans-serif" font-size="10px" text-anchor="middle">M.8</text>
<text x="35" y="490" font-family="sans-serif" font-size="10px" text-anchor="middle">M.9</text>
<text x="35" y="540" font-family="sans-serif" font-size="10px" text-anchor="middle">M.10</text>
<line x1="60" y1="562" x2="1736" y2="562" stroke="dimgrey" />
<line x1="1726" y1="552" x2="1736" y2="562" stroke="dimgrey" />
<line x1="1716" y1="564" x2="1716" y2="572" stroke="dimgrey" />
<text x="70" y="35" font-family="sans-serif" font-size="20px" text-anchor="middle" fill="dimgrey">Machines</text>
<text x="1756" y="562" font-family="sans-serif" font-size="20px" text-anchor="middle" fill="dimgrey">Time</text>
<text x="903" y="592" font-family="sans-serif" font-size="30px" text-anchor="middle" fill="dimgrey">Diagramme de Gantt du problème: la17.txt - makespan: 828</text>
</svg>
