<?xml version="1.0" encoding="UTF-8" standalone="no"?>
 <svg xmlns="http://www.w3.org/2000/svg" version="1.1" width="1912" height="610">
<title> Diagramme de Gantt du Probleme: la18.txt</title>
<desc> Cette figure represente le planning des operations du probleme traite.</desc>
<rect style="fill:rgb(62,139,185);fill-opacity:0.5;" width="106" height="48" x="62" y="362"/>
<text x="115" y="377" font-family="sans-serif" font-size="10px" text-anchor="middle">J0</text><text x="115" y="387" font-family="sans-serif" font-size="10px" text-anchor="middle">0</text><text x="115" y="397" font-family="sans-serif" font-size="10px" text-anchor="middle">54</text>
<rect style="fill:rgb(62,139,185);fill-opacity:0.5;" width="172" height="48" x="212" y="62"/>
<text x="298" y="77" font-family="sans-serif" font-size="10px" text-anchor="middle">J0</text><text x="298" y="87" font-family="sans-serif" font-size="10px" text-anchor="middle">75</text><text x="298" y="97" font-family="sans-serif" font-size="10px" text-anchor="middle">162</text>
<rect style="fill:rgb(62,139,185);fill-opacity:0.5;" width="94" height="48" x="386" y="262"/>
<text x="433" y="277" font-family="sans-serif" font-size="10px" text-anchor="middle">J0</text><text x="433" y="287" font-family="sans-serif" font-size="10px" text-anchor="middle">162</text><text x="433" y="297" font-family="sans-serif" font-size="10px" text-anchor="middle">210</text>
<rect style="fill:rgb(62,139,185);fill-opacity:0.5;" width="118" height="48" x="596" y="212"/>
<text x="655" y="227" font-family="sans-serif" font-size="10px" text-anchor="middle">J0</text><text x="655" y="237" font-family="sans-serif" font-size="10px" text-anchor="middle">267</text><text x="655" y="247" font-family="sans-serif" font-size="10px" text-anchor="middle">327</text>
<rect style="fill:rgb(62,139,185);fill-opacity:0.5;" width="76" height="48" x="876" y="412"/>
<text x="914" y="427" font-family="sans-serif" font-size="10px" text-anchor="middle">J0</text><text x="914" y="437" font-family="sans-serif" font-size="10px" text-anchor="middle">407</text><text x="914" y="447" font-family="sans-serif" font-size="10px" text-anchor="middle">446</text>
<rect style="fill:rgb(62,139,185);fill-opacity:0.5;" width="68" height="48" x="1062" y="462"/>
<text x="1096" y="477" font-family="sans-serif" font-size="10px" text-anchor="middle">J0</text><text x="1096" y="487" font-family="sans-serif" font-size="10px" text-anchor="middle">500</text><text x="1096" y="497" font-family="sans-serif" font-size="10px" text-anchor="middle">535</text>
<rect style="fill:rgb(62,139,185);fill-opacity:0.5;" width="142" height="48" x="1132" y="112"/>
<text x="1203" y="127" font-family="sans-serif" font-size="10px" text-anchor="middle">J0</text><text x="1203" y="137" font-family="sans-serif" font-size="10px" text-anchor="middle">535</text><text x="1203" y="147" font-family="sans-serif" font-size="10px" text-anchor="middle">607</text>
<rect style="fill:rgb(62,139,185);fill-opacity:0.5;" width="188" height="48" x="1362" y="312"/>
<text x="1456" y="327" font-family="sans-serif" font-size="10px" text-anchor="middle">J0</text><text x="1456" y="337" font-family="sans-serif" font-size="10px" text-anchor="middle">650</text><text x="1456" y="347" font-family="sans-serif" font-size="10px" text-anchor="middle">745</text>
<rect style="fill:rgb(62,139,185);fill-opacity:0.5;" width="130" height="48" x="1552" y="162"/>
<text x="1617" y="177" font-family="sans-serif" font-size="10px" text-anchor="middle">J0</text><text x="1617" y="187" font-family="sans-serif" font-size="10px" text-anchor="middle">745</text><text x="1617" y="197" font-family="sans-serif" font-size="10px" text-anchor="middle">811</text>
<rect style="fill:rgb(62,139,185);fill-opacity:0.5;" width="8" height="48" x="1684" y="512"/>
<text x="1688" y="527" font-family="sans-serif" font-size="10px" text-anchor="middle">J0</text><text x="1688" y="537" font-family="sans-serif" font-size="10px" text-anchor="middle">811</text><text x="1688" y="547" font-family="sans-serif" font-size="10px" text-anchor="middle">816</text>
<rect style="fill:rgb(238,172,238);fill-opacity:0.5;" width="38" height="48" x="62" y="212"/>
<text x="81" y="227" font-family="sans-serif" font-size="10px" text-anchor="middle">J1</text><text x="81" y="237" font-family="sans-serif" font-size="10px" text-anchor="middle">0</text><text x="81" y="247" font-family="sans-serif" font-size="10px" text-anchor="middle">20</text>
<rect style="fill:rgb(238,172,238);fill-opacity:0.5;" width="90" height="48" x="102" y="512"/>
<text x="147" y="527" font-family="sans-serif" font-size="10px" text-anchor="middle">J1</text><text x="147" y="537" font-family="sans-serif" font-size="10px" text-anchor="middle">20</text><text x="147" y="547" font-family="sans-serif" font-size="10px" text-anchor="middle">66</text>
<rect style="fill:rgb(238,172,238);fill-opacity:0.5;" width="66" height="48" x="194" y="362"/>
<text x="227" y="377" font-family="sans-serif" font-size="10px" text-anchor="middle">J1</text><text x="227" y="387" font-family="sans-serif" font-size="10px" text-anchor="middle">66</text><text x="227" y="397" font-family="sans-serif" font-size="10px" text-anchor="middle">100</text>
<rect style="fill:rgb(238,172,238);fill-opacity:0.5;" width="108" height="48" x="262" y="312"/>
<text x="316" y="327" font-family="sans-serif" font-size="10px" text-anchor="middle">J1</text><text x="316" y="337" font-family="sans-serif" font-size="10px" text-anchor="middle">100</text><text x="316" y="347" font-family="sans-serif" font-size="10px" text-anchor="middle">155</text>
<rect style="fill:rgb(238,172,238);fill-opacity:0.5;" width="192" height="48" x="766" y="62"/>
<text x="862" y="77" font-family="sans-serif" font-size="10px" text-anchor="middle">J1</text><text x="862" y="87" font-family="sans-serif" font-size="10px" text-anchor="middle">352</text><text x="862" y="97" font-family="sans-serif" font-size="10px" text-anchor="middle">449</text>
<rect style="fill:rgb(238,172,238);fill-opacity:0.5;" width="36" height="48" x="1024" y="462"/>
<text x="1042" y="477" font-family="sans-serif" font-size="10px" text-anchor="middle">J1</text><text x="1042" y="487" font-family="sans-serif" font-size="10px" text-anchor="middle">481</text><text x="1042" y="497" font-family="sans-serif" font-size="10px" text-anchor="middle">500</text>
<rect style="fill:rgb(238,172,238);fill-opacity:0.5;" width="116" height="48" x="1062" y="262"/>
<text x="1120" y="277" font-family="sans-serif" font-size="10px" text-anchor="middle">J1</text><text x="1120" y="287" font-family="sans-serif" font-size="10px" text-anchor="middle">500</text><text x="1120" y="297" font-family="sans-serif" font-size="10px" text-anchor="middle">559</text>
<rect style="fill:rgb(238,172,238);fill-opacity:0.5;" width="40" height="48" x="1256" y="162"/>
<text x="1276" y="177" font-family="sans-serif" font-size="10px" text-anchor="middle">J1</text><text x="1276" y="187" font-family="sans-serif" font-size="10px" text-anchor="middle">597</text><text x="1276" y="197" font-family="sans-serif" font-size="10px" text-anchor="middle">618</text>
<rect style="fill:rgb(238,172,238);fill-opacity:0.5;" width="72" height="48" x="1442" y="412"/>
<text x="1478" y="427" font-family="sans-serif" font-size="10px" text-anchor="middle">J1</text><text x="1478" y="437" font-family="sans-serif" font-size="10px" text-anchor="middle">690</text><text x="1478" y="447" font-family="sans-serif" font-size="10px" text-anchor="middle">727</text>
<rect style="fill:rgb(238,172,238);fill-opacity:0.5;" width="90" height="48" x="1516" y="112"/>
<text x="1561" y="127" font-family="sans-serif" font-size="10px" text-anchor="middle">J1</text><text x="1561" y="137" font-family="sans-serif" font-size="10px" text-anchor="middle">727</text><text x="1561" y="147" font-family="sans-serif" font-size="10px" text-anchor="middle">773</text>
<rect style="fill:rgb(47,232,102);fill-opacity:0.5;" width="88" height="48" x="182" y="262"/>
<text x="226" y="277" font-family="sans-serif" font-size="10px" text-anchor="middle">J2</text><text x="226" y="287" font-family="sans-serif" font-size="10px" text-anchor="middle">60</text><text x="226" y="297" font-family="sans-serif" font-size="10px" text-anchor="middle">105</text>
<rect style="fill:rgb(47,232,102);fill-opacity:0.5;" width="46" height="48" x="304" y="112"/>
<text x="327" y="127" font-family="sans-serif" font-size="10px" text-anchor="middle">J2</text><text x="327" y="137" font-family="sans-serif" font-size="10px" text-anchor="middle">121</text><text x="327" y="147" font-family="sans-serif" font-size="10px" text-anchor="middle">145</text>
<rect style="fill:rgb(47,232,102);fill-opacity:0.5;" width="54" height="48" x="352" y="462"/>
<text x="379" y="477" font-family="sans-serif" font-size="10px" text-anchor="middle">J2</text><text x="379" y="487" font-family="sans-serif" font-size="10px" text-anchor="middle">145</text><text x="379" y="497" font-family="sans-serif" font-size="10px" text-anchor="middle">173</text>
<rect style="fill:rgb(47,232,102);fill-opacity:0.5;" width="54" height="48" x="408" y="62"/>
<text x="435" y="77" font-family="sans-serif" font-size="10px" text-anchor="middle">J2</text><text x="435" y="87" font-family="sans-serif" font-size="10px" text-anchor="middle">173</text><text x="435" y="97" font-family="sans-serif" font-size="10px" text-anchor="middle">201</text>
<rect style="fill:rgb(47,232,102);fill-opacity:0.5;" width="164" height="48" x="596" y="412"/>
<text x="678" y="427" font-family="sans-serif" font-size="10px" text-anchor="middle">J2</text><text x="678" y="437" font-family="sans-serif" font-size="10px" text-anchor="middle">267</text><text x="678" y="447" font-family="sans-serif" font-size="10px" text-anchor="middle">350</text>
<rect style="fill:rgb(47,232,102);fill-opacity:0.5;" width="154" height="48" x="762" y="362"/>
<text x="839" y="377" font-family="sans-serif" font-size="10px" text-anchor="middle">J2</text><text x="839" y="387" font-family="sans-serif" font-size="10px" text-anchor="middle">350</text><text x="839" y="397" font-family="sans-serif" font-size="10px" text-anchor="middle">428</text>
<rect style="fill:rgb(47,232,102);fill-opacity:0.5;" width="44" height="48" x="918" y="312"/>
<text x="940" y="327" font-family="sans-serif" font-size="10px" text-anchor="middle">J2</text><text x="940" y="337" font-family="sans-serif" font-size="10px" text-anchor="middle">428</text><text x="940" y="347" font-family="sans-serif" font-size="10px" text-anchor="middle">451</text>
<rect style="fill:rgb(47,232,102);fill-opacity:0.5;" width="48" height="48" x="964" y="212"/>
<text x="988" y="227" font-family="sans-serif" font-size="10px" text-anchor="middle">J2</text><text x="988" y="237" font-family="sans-serif" font-size="10px" text-anchor="middle">451</text><text x="988" y="247" font-family="sans-serif" font-size="10px" text-anchor="middle">476</text>
<rect style="fill:rgb(47,232,102);fill-opacity:0.5;" width="8" height="48" x="1014" y="512"/>
<text x="1018" y="527" font-family="sans-serif" font-size="10px" text-anchor="middle">J2</text><text x="1018" y="537" font-family="sans-serif" font-size="10px" text-anchor="middle">476</text><text x="1018" y="547" font-family="sans-serif" font-size="10px" text-anchor="middle">481</text>
<rect style="fill:rgb(47,232,102);fill-opacity:0.5;" width="144" height="48" x="1024" y="162"/>
<text x="1096" y="177" font-family="sans-serif" font-size="10px" text-anchor="middle">J2</text><text x="1096" y="187" font-family="sans-serif" font-size="10px" text-anchor="middle">481</text><text x="1096" y="197" font-family="sans-serif" font-size="10px" text-anchor="middle">554</text>
<rect style="fill:rgb(25,19,248);fill-opacity:0.5;" width="22" height="48" x="62" y="512"/>
<text x="73" y="527" font-family="sans-serif" font-size="10px" text-anchor="middle">J3</text><text x="73" y="537" font-family="sans-serif" font-size="10px" text-anchor="middle">0</text><text x="73" y="547" font-family="sans-serif" font-size="10px" text-anchor="middle">12</text>
<rect style="fill:rgb(25,19,248);fill-opacity:0.5;" width="72" height="48" x="230" y="112"/>
<text x="266" y="127" font-family="sans-serif" font-size="10px" text-anchor="middle">J3</text><text x="266" y="137" font-family="sans-serif" font-size="10px" text-anchor="middle">84</text><text x="266" y="147" font-family="sans-serif" font-size="10px" text-anchor="middle">121</text>
<rect style="fill:rgb(25,19,248);fill-opacity:0.5;" width="74" height="48" x="304" y="262"/>
<text x="341" y="277" font-family="sans-serif" font-size="10px" text-anchor="middle">J3</text><text x="341" y="287" font-family="sans-serif" font-size="10px" text-anchor="middle">121</text><text x="341" y="297" font-family="sans-serif" font-size="10px" text-anchor="middle">159</text>
<rect style="fill:rgb(25,19,248);fill-opacity:0.5;" width="140" height="48" x="1014" y="212"/>
<text x="1084" y="227" font-family="sans-serif" font-size="10px" text-anchor="middle">J3</text><text x="1084" y="237" font-family="sans-serif" font-size="10px" text-anchor="middle">476</text><text x="1084" y="247" font-family="sans-serif" font-size="10px" text-anchor="middle">547</text>
<rect style="fill:rgb(25,19,248);fill-opacity:0.5;" width="64" height="48" x="1166" y="462"/>
<text x="1198" y="477" font-family="sans-serif" font-size="10px" text-anchor="middle">J3</text><text x="1198" y="487" font-family="sans-serif" font-size="10px" text-anchor="middle">552</text><text x="1198" y="497" font-family="sans-serif" font-size="10px" text-anchor="middle">585</text>
<rect style="fill:rgb(25,19,248);fill-opacity:0.5;" width="22" height="48" x="1232" y="162"/>
<text x="1243" y="177" font-family="sans-serif" font-size="10px" text-anchor="middle">J3</text><text x="1243" y="187" font-family="sans-serif" font-size="10px" text-anchor="middle">585</text><text x="1243" y="197" font-family="sans-serif" font-size="10px" text-anchor="middle">597</text>
<rect style="fill:rgb(25,19,248);fill-opacity:0.5;" width="108" height="48" x="1356" y="362"/>
<text x="1410" y="377" font-family="sans-serif" font-size="10px" text-anchor="middle">J3</text><text x="1410" y="387" font-family="sans-serif" font-size="10px" text-anchor="middle">647</text><text x="1410" y="397" font-family="sans-serif" font-size="10px" text-anchor="middle">702</text>
<rect style="fill:rgb(25,19,248);fill-opacity:0.5;" width="104" height="48" x="1466" y="62"/>
<text x="1518" y="77" font-family="sans-serif" font-size="10px" text-anchor="middle">J3</text><text x="1518" y="87" font-family="sans-serif" font-size="10px" text-anchor="middle">702</text><text x="1518" y="97" font-family="sans-serif" font-size="10px" text-anchor="middle">755</text>
<rect style="fill:rgb(25,19,248);fill-opacity:0.5;" width="172" height="48" x="1572" y="412"/>
<text x="1658" y="427" font-family="sans-serif" font-size="10px" text-anchor="middle">J3</text><text x="1658" y="437" font-family="sans-serif" font-size="10px" text-anchor="middle">755</text><text x="1658" y="447" font-family="sans-serif" font-size="10px" text-anchor="middle">842</text>
<rect style="fill:rgb(25,19,248);fill-opacity:0.5;" width="56" height="48" x="1746" y="312"/>
<text x="1774" y="327" font-family="sans-serif" font-size="10px" text-anchor="middle">J3</text><text x="1774" y="337" font-family="sans-serif" font-size="10px" text-anchor="middle">842</text><text x="1774" y="347" font-family="sans-serif" font-size="10px" text-anchor="middle">871</text>
<rect style="fill:rgb(142,6,56);fill-opacity:0.5;" width="164" height="48" x="102" y="212"/>
<text x="184" y="227" font-family="sans-serif" font-size="10px" text-anchor="middle">J4</text><text x="184" y="237" font-family="sans-serif" font-size="10px" text-anchor="middle">20</text><text x="184" y="247" font-family="sans-serif" font-size="10px" text-anchor="middle">103</text>
<rect style="fill:rgb(142,6,56);fill-opacity:0.5;" width="96" height="48" x="268" y="162"/>
<text x="316" y="177" font-family="sans-serif" font-size="10px" text-anchor="middle">J4</text><text x="316" y="187" font-family="sans-serif" font-size="10px" text-anchor="middle">103</text><text x="316" y="197" font-family="sans-serif" font-size="10px" text-anchor="middle">152</text>
<rect style="fill:rgb(142,6,56);fill-opacity:0.5;" width="44" height="48" x="366" y="362"/>
<text x="388" y="377" font-family="sans-serif" font-size="10px" text-anchor="middle">J4</text><text x="388" y="387" font-family="sans-serif" font-size="10px" text-anchor="middle">152</text><text x="388" y="397" font-family="sans-serif" font-size="10px" text-anchor="middle">175</text>
<rect style="fill:rgb(142,6,56);fill-opacity:0.5;" width="52" height="48" x="412" y="512"/>
<text x="438" y="527" font-family="sans-serif" font-size="10px" text-anchor="middle">J4</text><text x="438" y="537" font-family="sans-serif" font-size="10px" text-anchor="middle">175</text><text x="438" y="547" font-family="sans-serif" font-size="10px" text-anchor="middle">202</text>
<rect style="fill:rgb(142,6,56);fill-opacity:0.5;" width="128" height="48" x="466" y="412"/>
<text x="530" y="427" font-family="sans-serif" font-size="10px" text-anchor="middle">J4</text><text x="530" y="437" font-family="sans-serif" font-size="10px" text-anchor="middle">202</text><text x="530" y="447" font-family="sans-serif" font-size="10px" text-anchor="middle">267</text>
<rect style="fill:rgb(142,6,56);fill-opacity:0.5;" width="94" height="48" x="670" y="62"/>
<text x="717" y="77" font-family="sans-serif" font-size="10px" text-anchor="middle">J4</text><text x="717" y="87" font-family="sans-serif" font-size="10px" text-anchor="middle">304</text><text x="717" y="97" font-family="sans-serif" font-size="10px" text-anchor="middle">352</text>
<rect style="fill:rgb(142,6,56);fill-opacity:0.5;" width="178" height="48" x="766" y="262"/>
<text x="855" y="277" font-family="sans-serif" font-size="10px" text-anchor="middle">J4</text><text x="855" y="287" font-family="sans-serif" font-size="10px" text-anchor="middle">352</text><text x="855" y="297" font-family="sans-serif" font-size="10px" text-anchor="middle">442</text>
<rect style="fill:rgb(142,6,56);fill-opacity:0.5;" width="12" height="48" x="964" y="312"/>
<text x="970" y="327" font-family="sans-serif" font-size="10px" text-anchor="middle">J4</text><text x="970" y="337" font-family="sans-serif" font-size="10px" text-anchor="middle">451</text><text x="970" y="347" font-family="sans-serif" font-size="10px" text-anchor="middle">458</text>
<rect style="fill:rgb(142,6,56);fill-opacity:0.5;" width="78" height="48" x="1052" y="112"/>
<text x="1091" y="127" font-family="sans-serif" font-size="10px" text-anchor="middle">J4</text><text x="1091" y="137" font-family="sans-serif" font-size="10px" text-anchor="middle">495</text><text x="1091" y="147" font-family="sans-serif" font-size="10px" text-anchor="middle">535</text>
<rect style="fill:rgb(142,6,56);fill-opacity:0.5;" width="32" height="48" x="1132" y="462"/>
<text x="1148" y="477" font-family="sans-serif" font-size="10px" text-anchor="middle">J4</text><text x="1148" y="487" font-family="sans-serif" font-size="10px" text-anchor="middle">535</text><text x="1148" y="497" font-family="sans-serif" font-size="10px" text-anchor="middle">552</text>
<rect style="fill:rgb(65,243,73);fill-opacity:0.5;" width="130" height="48" x="352" y="112"/>
<text x="417" y="127" font-family="sans-serif" font-size="10px" text-anchor="middle">J5</text><text x="417" y="137" font-family="sans-serif" font-size="10px" text-anchor="middle">145</text><text x="417" y="147" font-family="sans-serif" font-size="10px" text-anchor="middle">211</text>
<rect style="fill:rgb(65,243,73);fill-opacity:0.5;" width="48" height="48" x="484" y="262"/>
<text x="508" y="277" font-family="sans-serif" font-size="10px" text-anchor="middle">J5</text><text x="508" y="287" font-family="sans-serif" font-size="10px" text-anchor="middle">211</text><text x="508" y="297" font-family="sans-serif" font-size="10px" text-anchor="middle">236</text>
<rect style="fill:rgb(65,243,73);fill-opacity:0.5;" width="122" height="48" x="546" y="62"/>
<text x="607" y="77" font-family="sans-serif" font-size="10px" text-anchor="middle">J5</text><text x="607" y="87" font-family="sans-serif" font-size="10px" text-anchor="middle">242</text><text x="607" y="97" font-family="sans-serif" font-size="10px" text-anchor="middle">304</text>
<rect style="fill:rgb(65,243,73);fill-opacity:0.5;" width="166" height="48" x="670" y="162"/>
<text x="753" y="177" font-family="sans-serif" font-size="10px" text-anchor="middle">J5</text><text x="753" y="187" font-family="sans-serif" font-size="10px" text-anchor="middle">304</text><text x="753" y="197" font-family="sans-serif" font-size="10px" text-anchor="middle">388</text>
<rect style="fill:rgb(65,243,73);fill-opacity:0.5;" width="24" height="48" x="838" y="512"/>
<text x="850" y="527" font-family="sans-serif" font-size="10px" text-anchor="middle">J5</text><text x="850" y="537" font-family="sans-serif" font-size="10px" text-anchor="middle">388</text><text x="850" y="547" font-family="sans-serif" font-size="10px" text-anchor="middle">401</text>
<rect style="fill:rgb(65,243,73);fill-opacity:0.5;" width="126" height="48" x="918" y="362"/>
<text x="981" y="377" font-family="sans-serif" font-size="10px" text-anchor="middle">J5</text><text x="981" y="387" font-family="sans-serif" font-size="10px" text-anchor="middle">428</text><text x="981" y="397" font-family="sans-serif" font-size="10px" text-anchor="middle">492</text>
<rect style="fill:rgb(65,243,73);fill-opacity:0.5;" width="90" height="48" x="1046" y="412"/>
<text x="1091" y="427" font-family="sans-serif" font-size="10px" text-anchor="middle">J5</text><text x="1091" y="437" font-family="sans-serif" font-size="10px" text-anchor="middle">492</text><text x="1091" y="447" font-family="sans-serif" font-size="10px" text-anchor="middle">538</text>
<rect style="fill:rgb(65,243,73);fill-opacity:0.5;" width="116" height="48" x="1288" y="462"/>
<text x="1346" y="477" font-family="sans-serif" font-size="10px" text-anchor="middle">J5</text><text x="1346" y="487" font-family="sans-serif" font-size="10px" text-anchor="middle">613</text><text x="1346" y="497" font-family="sans-serif" font-size="10px" text-anchor="middle">672</text>
<rect style="fill:rgb(65,243,73);fill-opacity:0.5;" width="36" height="48" x="1552" y="312"/>
<text x="1570" y="327" font-family="sans-serif" font-size="10px" text-anchor="middle">J5</text><text x="1570" y="337" font-family="sans-serif" font-size="10px" text-anchor="middle">745</text><text x="1570" y="347" font-family="sans-serif" font-size="10px" text-anchor="middle">764</text>
<rect style="fill:rgb(65,243,73);fill-opacity:0.5;" width="168" height="48" x="1590" y="212"/>
<text x="1674" y="227" font-family="sans-serif" font-size="10px" text-anchor="middle">J5</text><text x="1674" y="237" font-family="sans-serif" font-size="10px" text-anchor="middle">764</text><text x="1674" y="247" font-family="sans-serif" font-size="10px" text-anchor="middle">849</text>
<rect style="fill:rgb(117,156,15);fill-opacity:0.5;" width="144" height="48" x="84" y="112"/>
<text x="156" y="127" font-family="sans-serif" font-size="10px" text-anchor="middle">J6</text><text x="156" y="137" font-family="sans-serif" font-size="10px" text-anchor="middle">11</text><text x="156" y="147" font-family="sans-serif" font-size="10px" text-anchor="middle">84</text>
<rect style="fill:rgb(117,156,15);fill-opacity:0.5;" width="158" height="48" x="268" y="212"/>
<text x="347" y="227" font-family="sans-serif" font-size="10px" text-anchor="middle">J6</text><text x="347" y="237" font-family="sans-serif" font-size="10px" text-anchor="middle">103</text><text x="347" y="247" font-family="sans-serif" font-size="10px" text-anchor="middle">183</text>
<rect style="fill:rgb(117,156,15);fill-opacity:0.5;" width="80" height="48" x="464" y="62"/>
<text x="504" y="77" font-family="sans-serif" font-size="10px" text-anchor="middle">J6</text><text x="504" y="87" font-family="sans-serif" font-size="10px" text-anchor="middle">201</text><text x="504" y="97" font-family="sans-serif" font-size="10px" text-anchor="middle">242</text>
<rect style="fill:rgb(117,156,15);fill-opacity:0.5;" width="104" height="48" x="556" y="162"/>
<text x="608" y="177" font-family="sans-serif" font-size="10px" text-anchor="middle">J6</text><text x="608" y="187" font-family="sans-serif" font-size="10px" text-anchor="middle">247</text><text x="608" y="197" font-family="sans-serif" font-size="10px" text-anchor="middle">300</text>
<rect style="fill:rgb(117,156,15);fill-opacity:0.5;" width="92" height="48" x="662" y="512"/>
<text x="708" y="527" font-family="sans-serif" font-size="10px" text-anchor="middle">J6</text><text x="708" y="537" font-family="sans-serif" font-size="10px" text-anchor="middle">300</text><text x="708" y="547" font-family="sans-serif" font-size="10px" text-anchor="middle">347</text>
<rect style="fill:rgb(117,156,15);fill-opacity:0.5;" width="112" height="48" x="762" y="412"/>
<text x="818" y="427" font-family="sans-serif" font-size="10px" text-anchor="middle">J6</text><text x="818" y="437" font-family="sans-serif" font-size="10px" text-anchor="middle">350</text><text x="818" y="447" font-family="sans-serif" font-size="10px" text-anchor="middle">407</text>
<rect style="fill:rgb(117,156,15);fill-opacity:0.5;" width="146" height="48" x="876" y="462"/>
<text x="949" y="477" font-family="sans-serif" font-size="10px" text-anchor="middle">J6</text><text x="949" y="487" font-family="sans-serif" font-size="10px" text-anchor="middle">407</text><text x="949" y="497" font-family="sans-serif" font-size="10px" text-anchor="middle">481</text>
<rect style="fill:rgb(117,156,15);fill-opacity:0.5;" width="26" height="48" x="1024" y="262"/>
<text x="1037" y="277" font-family="sans-serif" font-size="10px" text-anchor="middle">J6</text><text x="1037" y="287" font-family="sans-serif" font-size="10px" text-anchor="middle">481</text><text x="1037" y="297" font-family="sans-serif" font-size="10px" text-anchor="middle">495</text>
<rect style="fill:rgb(117,156,15);fill-opacity:0.5;" width="132" height="48" x="1052" y="362"/>
<text x="1118" y="377" font-family="sans-serif" font-size="10px" text-anchor="middle">J6</text><text x="1118" y="387" font-family="sans-serif" font-size="10px" text-anchor="middle">495</text><text x="1118" y="397" font-family="sans-serif" font-size="10px" text-anchor="middle">562</text>
<rect style="fill:rgb(117,156,15);fill-opacity:0.5;" width="174" height="48" x="1186" y="312"/>
<text x="1273" y="327" font-family="sans-serif" font-size="10px" text-anchor="middle">J6</text><text x="1273" y="337" font-family="sans-serif" font-size="10px" text-anchor="middle">562</text><text x="1273" y="347" font-family="sans-serif" font-size="10px" text-anchor="middle">650</text>
<rect style="fill:rgb(241,98,202);fill-opacity:0.5;" width="126" height="48" x="62" y="312"/>
<text x="125" y="327" font-family="sans-serif" font-size="10px" text-anchor="middle">J7</text><text x="125" y="337" font-family="sans-serif" font-size="10px" text-anchor="middle">0</text><text x="125" y="347" font-family="sans-serif" font-size="10px" text-anchor="middle">64</text>
<rect style="fill:rgb(241,98,202);fill-opacity:0.5;" width="166" height="48" x="428" y="212"/>
<text x="511" y="227" font-family="sans-serif" font-size="10px" text-anchor="middle">J7</text><text x="511" y="237" font-family="sans-serif" font-size="10px" text-anchor="middle">183</text><text x="511" y="247" font-family="sans-serif" font-size="10px" text-anchor="middle">267</text>
<rect style="fill:rgb(241,98,202);fill-opacity:0.5;" width="90" height="48" x="596" y="362"/>
<text x="641" y="377" font-family="sans-serif" font-size="10px" text-anchor="middle">J7</text><text x="641" y="387" font-family="sans-serif" font-size="10px" text-anchor="middle">267</text><text x="641" y="397" font-family="sans-serif" font-size="10px" text-anchor="middle">313</text>
<rect style="fill:rgb(241,98,202);fill-opacity:0.5;" width="154" height="48" x="688" y="112"/>
<text x="765" y="127" font-family="sans-serif" font-size="10px" text-anchor="middle">J7</text><text x="765" y="137" font-family="sans-serif" font-size="10px" text-anchor="middle">313</text><text x="765" y="147" font-family="sans-serif" font-size="10px" text-anchor="middle">391</text>
<rect style="fill:rgb(241,98,202);fill-opacity:0.5;" width="166" height="48" x="960" y="62"/>
<text x="1043" y="77" font-family="sans-serif" font-size="10px" text-anchor="middle">J7</text><text x="1043" y="87" font-family="sans-serif" font-size="10px" text-anchor="middle">449</text><text x="1043" y="97" font-family="sans-serif" font-size="10px" text-anchor="middle">533</text>
<rect style="fill:rgb(241,98,202);fill-opacity:0.5;" width="50" height="48" x="1138" y="412"/>
<text x="1163" y="427" font-family="sans-serif" font-size="10px" text-anchor="middle">J7</text><text x="1163" y="437" font-family="sans-serif" font-size="10px" text-anchor="middle">538</text><text x="1163" y="447" font-family="sans-serif" font-size="10px" text-anchor="middle">564</text>
<rect style="fill:rgb(241,98,202);fill-opacity:0.5;" width="54" height="48" x="1232" y="462"/>
<text x="1259" y="477" font-family="sans-serif" font-size="10px" text-anchor="middle">J7</text><text x="1259" y="487" font-family="sans-serif" font-size="10px" text-anchor="middle">585</text><text x="1259" y="497" font-family="sans-serif" font-size="10px" text-anchor="middle">613</text>
<rect style="fill:rgb(241,98,202);fill-opacity:0.5;" width="102" height="48" x="1288" y="512"/>
<text x="1339" y="527" font-family="sans-serif" font-size="10px" text-anchor="middle">J7</text><text x="1339" y="537" font-family="sans-serif" font-size="10px" text-anchor="middle">613</text><text x="1339" y="547" font-family="sans-serif" font-size="10px" text-anchor="middle">665</text>
<rect style="fill:rgb(241,98,202);fill-opacity:0.5;" width="80" height="48" x="1392" y="162"/>
<text x="1432" y="177" font-family="sans-serif" font-size="10px" text-anchor="middle">J7</text><text x="1432" y="187" font-family="sans-serif" font-size="10px" text-anchor="middle">665</text><text x="1432" y="197" font-family="sans-serif" font-size="10px" text-anchor="middle">706</text>
<rect style="fill:rgb(241,98,202);fill-opacity:0.5;" width="124" height="48" x="1474" y="262"/>
<text x="1536" y="277" font-family="sans-serif" font-size="10px" text-anchor="middle">J7</text><text x="1536" y="287" font-family="sans-serif" font-size="10px" text-anchor="middle">706</text><text x="1536" y="297" font-family="sans-serif" font-size="10px" text-anchor="middle">769</text>
<rect style="fill:rgb(44,47,26);fill-opacity:0.5;" width="20" height="48" x="62" y="112"/>
<text x="72" y="127" font-family="sans-serif" font-size="10px" text-anchor="middle">J8</text><text x="72" y="137" font-family="sans-serif" font-size="10px" text-anchor="middle">0</text><text x="72" y="147" font-family="sans-serif" font-size="10px" text-anchor="middle">11</text>
<rect style="fill:rgb(44,47,26);fill-opacity:0.5;" width="126" height="48" x="84" y="62"/>
<text x="147" y="77" font-family="sans-serif" font-size="10px" text-anchor="middle">J8</text><text x="147" y="87" font-family="sans-serif" font-size="10px" text-anchor="middle">11</text><text x="147" y="97" font-family="sans-serif" font-size="10px" text-anchor="middle">75</text>
<rect style="fill:rgb(44,47,26);fill-opacity:0.5;" width="132" height="48" x="212" y="412"/>
<text x="278" y="427" font-family="sans-serif" font-size="10px" text-anchor="middle">J8</text><text x="278" y="437" font-family="sans-serif" font-size="10px" text-anchor="middle">75</text><text x="278" y="447" font-family="sans-serif" font-size="10px" text-anchor="middle">142</text>
<rect style="fill:rgb(44,47,26);fill-opacity:0.5;" width="168" height="48" x="534" y="262"/>
<text x="618" y="277" font-family="sans-serif" font-size="10px" text-anchor="middle">J8</text><text x="618" y="287" font-family="sans-serif" font-size="10px" text-anchor="middle">236</text><text x="618" y="297" font-family="sans-serif" font-size="10px" text-anchor="middle">321</text>
<rect style="fill:rgb(44,47,26);fill-opacity:0.5;" width="18" height="48" x="716" y="212"/>
<text x="725" y="227" font-family="sans-serif" font-size="10px" text-anchor="middle">J8</text><text x="725" y="237" font-family="sans-serif" font-size="10px" text-anchor="middle">327</text><text x="725" y="247" font-family="sans-serif" font-size="10px" text-anchor="middle">337</text>
<rect style="fill:rgb(44,47,26);fill-opacity:0.5;" width="144" height="48" x="736" y="312"/>
<text x="808" y="327" font-family="sans-serif" font-size="10px" text-anchor="middle">J8</text><text x="808" y="337" font-family="sans-serif" font-size="10px" text-anchor="middle">337</text><text x="808" y="347" font-family="sans-serif" font-size="10px" text-anchor="middle">410</text>
<rect style="fill:rgb(44,47,26);fill-opacity:0.5;" width="74" height="48" x="882" y="512"/>
<text x="919" y="527" font-family="sans-serif" font-size="10px" text-anchor="middle">J8</text><text x="919" y="537" font-family="sans-serif" font-size="10px" text-anchor="middle">410</text><text x="919" y="547" font-family="sans-serif" font-size="10px" text-anchor="middle">448</text>
<rect style="fill:rgb(44,47,26);fill-opacity:0.5;" width="188" height="48" x="1406" y="462"/>
<text x="1500" y="477" font-family="sans-serif" font-size="10px" text-anchor="middle">J8</text><text x="1500" y="487" font-family="sans-serif" font-size="10px" text-anchor="middle">672</text><text x="1500" y="497" font-family="sans-serif" font-size="10px" text-anchor="middle">767</text>
<rect style="fill:rgb(44,47,26);fill-opacity:0.5;" width="192" height="48" x="1596" y="362"/>
<text x="1692" y="377" font-family="sans-serif" font-size="10px" text-anchor="middle">J8</text><text x="1692" y="387" font-family="sans-serif" font-size="10px" text-anchor="middle">767</text><text x="1692" y="397" font-family="sans-serif" font-size="10px" text-anchor="middle">864</text>
<rect style="fill:rgb(44,47,26);fill-opacity:0.5;" width="32" height="48" x="1790" y="162"/>
<text x="1806" y="177" font-family="sans-serif" font-size="10px" text-anchor="middle">J8</text><text x="1806" y="187" font-family="sans-serif" font-size="10px" text-anchor="middle">864</text><text x="1806" y="197" font-family="sans-serif" font-size="10px" text-anchor="middle">881</text>
<rect style="fill:rgb(42,223,105);fill-opacity:0.5;" width="118" height="48" x="62" y="262"/>
<text x="121" y="277" font-family="sans-serif" font-size="10px" text-anchor="middle">J9</text><text x="121" y="287" font-family="sans-serif" font-size="10px" text-anchor="middle">0</text><text x="121" y="297" font-family="sans-serif" font-size="10px" text-anchor="middle">60</text>
<rect style="fill:rgb(42,223,105);fill-opacity:0.5;" width="62" height="48" x="182" y="462"/>
<text x="213" y="477" font-family="sans-serif" font-size="10px" text-anchor="middle">J9</text><text x="213" y="487" font-family="sans-serif" font-size="10px" text-anchor="middle">60</text><text x="213" y="497" font-family="sans-serif" font-size="10px" text-anchor="middle">92</text>
<rect style="fill:rgb(42,223,105);fill-opacity:0.5;" width="188" height="48" x="366" y="162"/>
<text x="460" y="177" font-family="sans-serif" font-size="10px" text-anchor="middle">J9</text><text x="460" y="187" font-family="sans-serif" font-size="10px" text-anchor="middle">152</text><text x="460" y="197" font-family="sans-serif" font-size="10px" text-anchor="middle">247</text>
<rect style="fill:rgb(42,223,105);fill-opacity:0.5;" width="184" height="48" x="736" y="212"/>
<text x="828" y="227" font-family="sans-serif" font-size="10px" text-anchor="middle">J9</text><text x="828" y="237" font-family="sans-serif" font-size="10px" text-anchor="middle">337</text><text x="828" y="247" font-family="sans-serif" font-size="10px" text-anchor="middle">430</text>
<rect style="fill:rgb(42,223,105);fill-opacity:0.5;" width="128" height="48" x="922" y="112"/>
<text x="986" y="127" font-family="sans-serif" font-size="10px" text-anchor="middle">J9</text><text x="986" y="137" font-family="sans-serif" font-size="10px" text-anchor="middle">430</text><text x="986" y="147" font-family="sans-serif" font-size="10px" text-anchor="middle">495</text>
<rect style="fill:rgb(42,223,105);fill-opacity:0.5;" width="168" height="48" x="1186" y="362"/>
<text x="1270" y="377" font-family="sans-serif" font-size="10px" text-anchor="middle">J9</text><text x="1270" y="387" font-family="sans-serif" font-size="10px" text-anchor="middle">562</text><text x="1270" y="397" font-family="sans-serif" font-size="10px" text-anchor="middle">647</text>
<rect style="fill:rgb(42,223,105);fill-opacity:0.5;" width="84" height="48" x="1356" y="412"/>
<text x="1398" y="427" font-family="sans-serif" font-size="10px" text-anchor="middle">J9</text><text x="1398" y="437" font-family="sans-serif" font-size="10px" text-anchor="middle">647</text><text x="1398" y="447" font-family="sans-serif" font-size="10px" text-anchor="middle">690</text>
<rect style="fill:rgb(42,223,105);fill-opacity:0.5;" width="168" height="48" x="1442" y="512"/>
<text x="1526" y="527" font-family="sans-serif" font-size="10px" text-anchor="middle">J9</text><text x="1526" y="537" font-family="sans-serif" font-size="10px" text-anchor="middle">690</text><text x="1526" y="547" font-family="sans-serif" font-size="10px" text-anchor="middle">775</text>
<rect style="fill:rgb(42,223,105);fill-opacity:0.5;" width="90" height="48" x="1612" y="312"/>
<text x="1657" y="327" font-family="sans-serif" font-size="10px" text-anchor="middle">J9</text><text x="1657" y="337" font-family="sans-serif" font-size="10px" text-anchor="middle">775</text><text x="1657" y="347" font-family="sans-serif" font-size="10px" text-anchor="middle">821</text>
<rect style="fill:rgb(42,223,105);fill-opacity:0.5;" width="116" height="48" x="1704" y="62"/>
<text x="1762" y="77" font-family="sans-serif" font-size="10px" text-anchor="middle">J9</text><text x="1762" y="87" font-family="sans-serif" font-size="10px" text-anchor="middle">821</text><text x="1762" y="97" font-family="sans-serif" font-size="10px" text-anchor="middle">880</text>
<line x1="60" y1="40" x2="60" y2="562" stroke="dimgrey" />
<line x1="60" y1="40" x2="70" y2="50" stroke="dimgrey" />
<text x="35" y="90" font-family="sans-serif" font-size="10px" text-anchor="middle">M.1</text>
<text x="35" y="140" font-family="sans-serif" font-size="10px" text-anchor="middle">M.2</text>
<text x="35" y="190" font-family="sans-serif" font-size="10px" text-anchor="middle">M.3</text>
<text x="35" y="240" font-family="sans-serif" font-size="10px" text-anchor="middle">M.4</text>
<text x="35" y="290" font-family="sans-serif" font-size="10px" text-anchor="middle">M.5</text>
<text x="35" y="340" font-family="sans-serif" font-size="10px" text-anchor="middle">M.6</text>
<text x="35" y="390" font-family="sans-serif" font-size="10px" text-anchor="middle">M.7</text>
<text x="35" y="440" font-family="sans-serif" font-size="10px" text-anchor="middle">M.8</text>
<text x="35" y="490" font-family="sans-serif" font-size="10px" text-anchor="middle">M.9</text>
<text x="35" y="540" font-family="sans-serif" font-size="10px" text-anchor="middle">M.10</text>
<line x1="60" y1="562" x2="1842" y2="562" stroke="dimgrey" />
<line x1="1832" y1="552" x2="1842" y2="562" stroke="dimgrey" />
<line x1="1822" y1="564" x2="1822" y2="572" stroke="dimgrey" />
<text x="70" y="35" font-family="sans-serif" font-size="20px" text-anchor="middle" fill="dimgrey">Machines</text>
<text x="1862" y="562" font-family="sans-serif" font-size="20px" text-anchor="middle" fill="dimgrey">Time</text>
<text x="956" y="592" font-family="sans-serif" font-size="30px" text-anchor="middle" fill="dimgrey">Diagramme de Gantt du problème: la18.txt - makespan: 881</text>
</svg>
